%TF.GenerationSoftware,KiCad,Pcbnew,7.0.7*%
%TF.CreationDate,2023-09-07T20:52:16+09:00*%
%TF.ProjectId,KiCad,4b694361-642e-46b6-9963-61645f706362,rev?*%
%TF.SameCoordinates,PX41cdb40PY67f3540*%
%TF.FileFunction,Copper,L1,Top*%
%TF.FilePolarity,Positive*%
%FSLAX46Y46*%
G04 Gerber Fmt 4.6, Leading zero omitted, Abs format (unit mm)*
G04 Created by KiCad (PCBNEW 7.0.7) date 2023-09-07 20:52:16*
%MOMM*%
%LPD*%
G01*
G04 APERTURE LIST*
G04 Aperture macros list*
%AMOutline4P*
0 Free polygon, 4 corners , with rotation*
0 The origin of the aperture is its center*
0 number of corners: always 4*
0 $1 to $8 corner X, Y*
0 $9 Rotation angle, in degrees counterclockwise*
0 create outline with 4 corners*
4,1,4,$1,$2,$3,$4,$5,$6,$7,$8,$1,$2,$9*%
G04 Aperture macros list end*
%TA.AperFunction,ComponentPad*%
%ADD10R,1.700000X1.700000*%
%TD*%
%TA.AperFunction,ComponentPad*%
%ADD11O,1.700000X1.700000*%
%TD*%
%TA.AperFunction,SMDPad,CuDef*%
%ADD12R,2.400000X0.740000*%
%TD*%
%TA.AperFunction,SMDPad,CuDef*%
%ADD13R,3.500000X1.700000*%
%TD*%
%TA.AperFunction,SMDPad,CuDef*%
%ADD14R,1.700000X3.500000*%
%TD*%
%TA.AperFunction,ComponentPad*%
%ADD15C,1.700000*%
%TD*%
%TA.AperFunction,SMDPad,CuDef*%
%ADD16R,1.524000X1.524000*%
%TD*%
%TA.AperFunction,SMDPad,CuDef*%
%ADD17Outline4P,-0.762000X-0.762000X0.762000X-0.762000X0.762000X0.762000X-0.762000X0.762000X0.000000*%
%TD*%
%TA.AperFunction,ComponentPad*%
%ADD18C,2.000000*%
%TD*%
%TA.AperFunction,ViaPad*%
%ADD19C,0.800000*%
%TD*%
%TA.AperFunction,Conductor*%
%ADD20C,0.400000*%
%TD*%
%TA.AperFunction,Conductor*%
%ADD21C,1.000000*%
%TD*%
G04 APERTURE END LIST*
D10*
%TO.P,JP3,1,A*%
%TO.N,Net-(J6-Pin_1)*%
X4000000Y34197000D03*
D11*
%TO.P,JP3,2,B*%
%TO.N,Net-(JP3-B)*%
X4000000Y36737000D03*
%TD*%
D12*
%TO.P,J7,1,Pin_1*%
%TO.N,/3V3*%
X4107000Y24672000D03*
%TO.P,J7,2,Pin_2*%
%TO.N,Net-(J6-Pin_3)*%
X8007000Y24672000D03*
%TO.P,J7,3,Pin_3*%
%TO.N,GND*%
X4107000Y23402000D03*
%TO.P,J7,4,Pin_4*%
%TO.N,Net-(J6-Pin_1)*%
X8007000Y23402000D03*
%TO.P,J7,5,Pin_5*%
%TO.N,GND*%
X4107000Y22132000D03*
%TO.P,J7,6,Pin_6*%
%TO.N,unconnected-(J7-Pin_6-Pad6)*%
X8007000Y22132000D03*
%TO.P,J7,7,Pin_7*%
%TO.N,unconnected-(J7-Pin_7-Pad7)*%
X4107000Y20862000D03*
%TO.P,J7,8,Pin_8*%
%TO.N,unconnected-(J7-Pin_8-Pad8)*%
X8007000Y20862000D03*
%TO.P,J7,9,Pin_9*%
%TO.N,unconnected-(J7-Pin_9-Pad9)*%
X4107000Y19592000D03*
%TO.P,J7,10,Pin_10*%
%TO.N,/RUN*%
X8007000Y19592000D03*
%TD*%
D10*
%TO.P,J4,1,Pin_1*%
%TO.N,/GP0*%
X44030000Y51100000D03*
D11*
%TO.P,J4,2,Pin_2*%
%TO.N,/GP1*%
X44030000Y48560000D03*
%TO.P,J4,3,Pin_3*%
%TO.N,GND*%
X44030000Y46020000D03*
%TO.P,J4,4,Pin_4*%
%TO.N,/GP2*%
X44030000Y43480000D03*
%TO.P,J4,5,Pin_5*%
%TO.N,/GP3*%
X44030000Y40940000D03*
%TO.P,J4,6,Pin_6*%
%TO.N,/GP4*%
X44030000Y38400000D03*
%TO.P,J4,7,Pin_7*%
%TO.N,/GP5*%
X44030000Y35860000D03*
%TO.P,J4,8,Pin_8*%
%TO.N,GND*%
X44030000Y33320000D03*
%TO.P,J4,9,Pin_9*%
%TO.N,/GP6*%
X44030000Y30780000D03*
%TO.P,J4,10,Pin_10*%
%TO.N,/GP7*%
X44030000Y28240000D03*
%TO.P,J4,11,Pin_11*%
%TO.N,/GP8*%
X44030000Y25700000D03*
%TO.P,J4,12,Pin_12*%
%TO.N,/GP9*%
X44030000Y23160000D03*
%TO.P,J4,13,Pin_13*%
%TO.N,GND*%
X44030000Y20620000D03*
%TO.P,J4,14,Pin_14*%
%TO.N,/GP10*%
X44030000Y18080000D03*
%TO.P,J4,15,Pin_15*%
%TO.N,/GP11*%
X44030000Y15540000D03*
%TO.P,J4,16,Pin_16*%
%TO.N,/GP12*%
X44030000Y13000000D03*
%TO.P,J4,17,Pin_17*%
%TO.N,/GP13*%
X44030000Y10460000D03*
%TO.P,J4,18,Pin_18*%
%TO.N,GND*%
X44030000Y7920000D03*
%TO.P,J4,19,Pin_19*%
%TO.N,/GP14*%
X44030000Y5380000D03*
%TO.P,J4,20,Pin_20*%
%TO.N,/GP15*%
X44030000Y2840000D03*
%TD*%
D10*
%TO.P,JP1,1,A*%
%TO.N,/GP1*%
X8978000Y43849000D03*
D11*
%TO.P,JP1,2,B*%
%TO.N,Net-(JP1-B)*%
X8978000Y41309000D03*
%TD*%
D10*
%TO.P,J1,1,Pin_1*%
%TO.N,/GP0*%
X113875000Y51215000D03*
D11*
%TO.P,J1,2,Pin_2*%
%TO.N,/GP1*%
X113875000Y48675000D03*
%TO.P,J1,3,Pin_3*%
%TO.N,GND*%
X113875000Y46135000D03*
%TO.P,J1,4,Pin_4*%
%TO.N,/GP2*%
X113875000Y43595000D03*
%TO.P,J1,5,Pin_5*%
%TO.N,/GP3*%
X113875000Y41055000D03*
%TO.P,J1,6,Pin_6*%
%TO.N,/GP4*%
X113875000Y38515000D03*
%TO.P,J1,7,Pin_7*%
%TO.N,/GP5*%
X113875000Y35975000D03*
%TO.P,J1,8,Pin_8*%
%TO.N,GND*%
X113875000Y33435000D03*
%TO.P,J1,9,Pin_9*%
%TO.N,/GP6*%
X113875000Y30895000D03*
%TO.P,J1,10,Pin_10*%
%TO.N,/GP7*%
X113875000Y28355000D03*
%TO.P,J1,11,Pin_11*%
%TO.N,/GP8*%
X113875000Y25815000D03*
%TO.P,J1,12,Pin_12*%
%TO.N,/GP9*%
X113875000Y23275000D03*
%TO.P,J1,13,Pin_13*%
%TO.N,GND*%
X113875000Y20735000D03*
%TO.P,J1,14,Pin_14*%
%TO.N,/GP10*%
X113875000Y18195000D03*
%TO.P,J1,15,Pin_15*%
%TO.N,/GP11*%
X113875000Y15655000D03*
%TO.P,J1,16,Pin_16*%
%TO.N,/GP12*%
X113875000Y13115000D03*
%TO.P,J1,17,Pin_17*%
%TO.N,/GP13*%
X113875000Y10575000D03*
%TO.P,J1,18,Pin_18*%
%TO.N,GND*%
X113875000Y8035000D03*
%TO.P,J1,19,Pin_19*%
%TO.N,/GP14*%
X113875000Y5495000D03*
%TO.P,J1,20,Pin_20*%
%TO.N,/GP15*%
X113875000Y2955000D03*
%TO.P,J1,21,Pin_21*%
%TO.N,/GP16*%
X116415000Y2955000D03*
%TO.P,J1,22,Pin_22*%
%TO.N,/GP17*%
X116415000Y5495000D03*
%TO.P,J1,23,Pin_23*%
%TO.N,GND*%
X116415000Y8035000D03*
%TO.P,J1,24,Pin_24*%
%TO.N,/GP18*%
X116415000Y10575000D03*
%TO.P,J1,25,Pin_25*%
%TO.N,/GP19*%
X116415000Y13115000D03*
%TO.P,J1,26,Pin_26*%
%TO.N,/GP20*%
X116415000Y15655000D03*
%TO.P,J1,27,Pin_27*%
%TO.N,/GP21*%
X116415000Y18195000D03*
%TO.P,J1,28,Pin_28*%
%TO.N,GND*%
X116415000Y20735000D03*
%TO.P,J1,29,Pin_29*%
%TO.N,/GP22*%
X116415000Y23275000D03*
%TO.P,J1,30,Pin_30*%
%TO.N,/RUN*%
X116415000Y25815000D03*
%TO.P,J1,31,Pin_31*%
%TO.N,/GP26*%
X116415000Y28355000D03*
%TO.P,J1,32,Pin_32*%
%TO.N,/GP27*%
X116415000Y30895000D03*
%TO.P,J1,33,Pin_33*%
%TO.N,GND*%
X116415000Y33435000D03*
%TO.P,J1,34,Pin_34*%
%TO.N,/GP28*%
X116415000Y35975000D03*
%TO.P,J1,35,Pin_35*%
%TO.N,/3V3*%
X116415000Y38515000D03*
%TO.P,J1,36,Pin_36*%
X116415000Y41055000D03*
%TO.P,J1,37,Pin_37*%
X116415000Y43595000D03*
%TO.P,J1,38,Pin_38*%
%TO.N,GND*%
X116415000Y46135000D03*
%TO.P,J1,39,Pin_39*%
%TO.N,/VSYS*%
X116415000Y48675000D03*
%TO.P,J1,40,Pin_40*%
X116415000Y51215000D03*
%TD*%
%TO.P,U1,1,GPIO0*%
%TO.N,/GP0*%
X49110000Y51130000D03*
D13*
X48210000Y51130000D03*
D11*
%TO.P,U1,2,GPIO1*%
%TO.N,/GP1*%
X49110000Y48590000D03*
D13*
X48210000Y48590000D03*
D10*
%TO.P,U1,3,GND*%
%TO.N,GND*%
X49110000Y46050000D03*
D13*
X48210000Y46050000D03*
D11*
%TO.P,U1,4,GPIO2*%
%TO.N,/GP2*%
X49110000Y43510000D03*
D13*
X48210000Y43510000D03*
D11*
%TO.P,U1,5,GPIO3*%
%TO.N,/GP3*%
X49110000Y40970000D03*
D13*
X48210000Y40970000D03*
D11*
%TO.P,U1,6,GPIO4*%
%TO.N,/GP4*%
X49110000Y38430000D03*
D13*
X48210000Y38430000D03*
D11*
%TO.P,U1,7,GPIO5*%
%TO.N,/GP5*%
X49110000Y35890000D03*
D13*
X48210000Y35890000D03*
D10*
%TO.P,U1,8,GND*%
%TO.N,GND*%
X49110000Y33350000D03*
D13*
X48210000Y33350000D03*
D11*
%TO.P,U1,9,GPIO6*%
%TO.N,/GP6*%
X49110000Y30810000D03*
D13*
X48210000Y30810000D03*
D11*
%TO.P,U1,10,GPIO7*%
%TO.N,/GP7*%
X49110000Y28270000D03*
D13*
X48210000Y28270000D03*
D11*
%TO.P,U1,11,GPIO8*%
%TO.N,/GP8*%
X49110000Y25730000D03*
D13*
X48210000Y25730000D03*
D11*
%TO.P,U1,12,GPIO9*%
%TO.N,/GP9*%
X49110000Y23190000D03*
D13*
X48210000Y23190000D03*
D10*
%TO.P,U1,13,GND*%
%TO.N,GND*%
X49110000Y20650000D03*
D13*
X48210000Y20650000D03*
D11*
%TO.P,U1,14,GPIO10*%
%TO.N,/GP10*%
X49110000Y18110000D03*
D13*
X48210000Y18110000D03*
D11*
%TO.P,U1,15,GPIO11*%
%TO.N,/GP11*%
X49110000Y15570000D03*
D13*
X48210000Y15570000D03*
D11*
%TO.P,U1,16,GPIO12*%
%TO.N,/GP12*%
X49110000Y13030000D03*
D13*
X48210000Y13030000D03*
D11*
%TO.P,U1,17,GPIO13*%
%TO.N,/GP13*%
X49110000Y10490000D03*
D13*
X48210000Y10490000D03*
D10*
%TO.P,U1,18,GND*%
%TO.N,GND*%
X49110000Y7950000D03*
D13*
X48210000Y7950000D03*
D11*
%TO.P,U1,19,GPIO14*%
%TO.N,/GP14*%
X49110000Y5410000D03*
D13*
X48210000Y5410000D03*
D11*
%TO.P,U1,20,GPIO15*%
%TO.N,/GP15*%
X49110000Y2870000D03*
D13*
X48210000Y2870000D03*
D11*
%TO.P,U1,21,GPIO16*%
%TO.N,/GP16*%
X66890000Y2870000D03*
D13*
X67790000Y2870000D03*
D11*
%TO.P,U1,22,GPIO17*%
%TO.N,/GP17*%
X66890000Y5410000D03*
D13*
X67790000Y5410000D03*
D10*
%TO.P,U1,23,GND*%
%TO.N,GND*%
X66890000Y7950000D03*
D13*
X67790000Y7950000D03*
D11*
%TO.P,U1,24,GPIO18*%
%TO.N,/GP18*%
X66890000Y10490000D03*
D13*
X67790000Y10490000D03*
D11*
%TO.P,U1,25,GPIO19*%
%TO.N,/GP19*%
X66890000Y13030000D03*
D13*
X67790000Y13030000D03*
D11*
%TO.P,U1,26,GPIO20*%
%TO.N,/GP20*%
X66890000Y15570000D03*
D13*
X67790000Y15570000D03*
D11*
%TO.P,U1,27,GPIO21*%
%TO.N,/GP21*%
X66890000Y18110000D03*
D13*
X67790000Y18110000D03*
D10*
%TO.P,U1,28,GND*%
%TO.N,GND*%
X66890000Y20650000D03*
D13*
X67790000Y20650000D03*
D11*
%TO.P,U1,29,GPIO22*%
%TO.N,/GP22*%
X66890000Y23190000D03*
D13*
X67790000Y23190000D03*
D11*
%TO.P,U1,30,RUN*%
%TO.N,/RUN*%
X66890000Y25730000D03*
D13*
X67790000Y25730000D03*
D11*
%TO.P,U1,31,GPIO26_ADC0*%
%TO.N,/GP26*%
X66890000Y28270000D03*
D13*
X67790000Y28270000D03*
D11*
%TO.P,U1,32,GPIO27_ADC1*%
%TO.N,/GP27*%
X66890000Y30810000D03*
D13*
X67790000Y30810000D03*
D10*
%TO.P,U1,33,AGND*%
%TO.N,GND*%
X66890000Y33350000D03*
D13*
X67790000Y33350000D03*
D11*
%TO.P,U1,34,GPIO28_ADC2*%
%TO.N,/GP28*%
X66890000Y35890000D03*
D13*
X67790000Y35890000D03*
D11*
%TO.P,U1,35,ADC_VREF*%
%TO.N,/ADC_VREF*%
X66890000Y38430000D03*
D13*
X67790000Y38430000D03*
D11*
%TO.P,U1,36,3V3*%
%TO.N,/3V3*%
X66890000Y40970000D03*
D13*
X67790000Y40970000D03*
D11*
%TO.P,U1,37,3V3_EN*%
%TO.N,/3V3_EN*%
X66890000Y43510000D03*
D13*
X67790000Y43510000D03*
D10*
%TO.P,U1,38,GND*%
%TO.N,GND*%
X66890000Y46050000D03*
D13*
X67790000Y46050000D03*
D11*
%TO.P,U1,39,VSYS*%
%TO.N,/VSYS*%
X66890000Y48590000D03*
D13*
X67790000Y48590000D03*
D11*
%TO.P,U1,40,VBUS*%
%TO.N,/VBUS*%
X66890000Y51130000D03*
D13*
X67790000Y51130000D03*
D11*
%TO.P,U1,41,SWCLK*%
%TO.N,Net-(J6-Pin_1)*%
X55460000Y3100000D03*
D14*
X55460000Y2200000D03*
D15*
X58550000Y21300000D03*
D16*
X58560000Y21300000D03*
D10*
%TO.P,U1,42,GND*%
%TO.N,GND*%
X58000000Y3100000D03*
D14*
X58000000Y2200000D03*
D17*
X61100000Y21300000D03*
D15*
X61100000Y21300000D03*
D11*
%TO.P,U1,43,SWDIO*%
%TO.N,Net-(J6-Pin_3)*%
X60540000Y3100000D03*
D14*
X60540000Y2200000D03*
D16*
X63640000Y21300000D03*
D15*
X63650000Y21300000D03*
%TD*%
D10*
%TO.P,JP4,1,A*%
%TO.N,Net-(J6-Pin_3)*%
X8978000Y34197000D03*
D11*
%TO.P,JP4,2,B*%
%TO.N,Net-(JP4-B)*%
X8978000Y36737000D03*
%TD*%
D18*
%TO.P,SW1,1,1*%
%TO.N,/RUN*%
X2680000Y15492000D03*
X9180000Y15492000D03*
%TO.P,SW1,2,2*%
%TO.N,GND*%
X2680000Y10992000D03*
X9180000Y10992000D03*
%TD*%
D10*
%TO.P,J2,1,Pin_1*%
%TO.N,/GP0*%
X99910000Y51215000D03*
D11*
%TO.P,J2,2,Pin_2*%
%TO.N,/GP1*%
X99910000Y48675000D03*
%TO.P,J2,3,Pin_3*%
%TO.N,GND*%
X99910000Y46135000D03*
%TO.P,J2,4,Pin_4*%
%TO.N,/GP2*%
X99910000Y43595000D03*
%TO.P,J2,5,Pin_5*%
%TO.N,/GP3*%
X99910000Y41055000D03*
%TO.P,J2,6,Pin_6*%
%TO.N,/GP4*%
X99910000Y38515000D03*
%TO.P,J2,7,Pin_7*%
%TO.N,/GP5*%
X99910000Y35975000D03*
%TO.P,J2,8,Pin_8*%
%TO.N,GND*%
X99910000Y33435000D03*
%TO.P,J2,9,Pin_9*%
%TO.N,/GP6*%
X99910000Y30895000D03*
%TO.P,J2,10,Pin_10*%
%TO.N,/GP7*%
X99910000Y28355000D03*
%TO.P,J2,11,Pin_11*%
%TO.N,/GP8*%
X99910000Y25815000D03*
%TO.P,J2,12,Pin_12*%
%TO.N,/GP9*%
X99910000Y23275000D03*
%TO.P,J2,13,Pin_13*%
%TO.N,GND*%
X99910000Y20735000D03*
%TO.P,J2,14,Pin_14*%
%TO.N,/GP10*%
X99910000Y18195000D03*
%TO.P,J2,15,Pin_15*%
%TO.N,/GP11*%
X99910000Y15655000D03*
%TO.P,J2,16,Pin_16*%
%TO.N,/GP12*%
X99910000Y13115000D03*
%TO.P,J2,17,Pin_17*%
%TO.N,/GP13*%
X99910000Y10575000D03*
%TO.P,J2,18,Pin_18*%
%TO.N,GND*%
X99910000Y8035000D03*
%TO.P,J2,19,Pin_19*%
%TO.N,/GP14*%
X99910000Y5495000D03*
%TO.P,J2,20,Pin_20*%
%TO.N,/GP15*%
X99910000Y2955000D03*
%TO.P,J2,21,Pin_21*%
%TO.N,/GP16*%
X102450000Y2955000D03*
%TO.P,J2,22,Pin_22*%
%TO.N,/GP17*%
X102450000Y5495000D03*
%TO.P,J2,23,Pin_23*%
%TO.N,GND*%
X102450000Y8035000D03*
%TO.P,J2,24,Pin_24*%
%TO.N,/GP18*%
X102450000Y10575000D03*
%TO.P,J2,25,Pin_25*%
%TO.N,/GP19*%
X102450000Y13115000D03*
%TO.P,J2,26,Pin_26*%
%TO.N,/GP20*%
X102450000Y15655000D03*
%TO.P,J2,27,Pin_27*%
%TO.N,/GP21*%
X102450000Y18195000D03*
%TO.P,J2,28,Pin_28*%
%TO.N,GND*%
X102450000Y20735000D03*
%TO.P,J2,29,Pin_29*%
%TO.N,/GP22*%
X102450000Y23275000D03*
%TO.P,J2,30,Pin_30*%
%TO.N,/RUN*%
X102450000Y25815000D03*
%TO.P,J2,31,Pin_31*%
%TO.N,/GP26*%
X102450000Y28355000D03*
%TO.P,J2,32,Pin_32*%
%TO.N,/GP27*%
X102450000Y30895000D03*
%TO.P,J2,33,Pin_33*%
%TO.N,GND*%
X102450000Y33435000D03*
%TO.P,J2,34,Pin_34*%
%TO.N,/GP28*%
X102450000Y35975000D03*
%TO.P,J2,35,Pin_35*%
%TO.N,/3V3*%
X102450000Y38515000D03*
%TO.P,J2,36,Pin_36*%
X102450000Y41055000D03*
%TO.P,J2,37,Pin_37*%
X102450000Y43595000D03*
%TO.P,J2,38,Pin_38*%
%TO.N,GND*%
X102450000Y46135000D03*
%TO.P,J2,39,Pin_39*%
%TO.N,/VSYS*%
X102450000Y48675000D03*
%TO.P,J2,40,Pin_40*%
X102450000Y51215000D03*
%TD*%
D10*
%TO.P,J6,1,Pin_1*%
%TO.N,Net-(J6-Pin_1)*%
X3960000Y29498000D03*
D11*
%TO.P,J6,2,Pin_2*%
%TO.N,GND*%
X6500000Y29498000D03*
%TO.P,J6,3,Pin_3*%
%TO.N,Net-(J6-Pin_3)*%
X9040000Y29498000D03*
%TD*%
D10*
%TO.P,J3,1,Pin_1*%
%TO.N,/GP0*%
X85935000Y51215000D03*
D11*
%TO.P,J3,2,Pin_2*%
%TO.N,/GP1*%
X85935000Y48675000D03*
%TO.P,J3,3,Pin_3*%
%TO.N,GND*%
X85935000Y46135000D03*
%TO.P,J3,4,Pin_4*%
%TO.N,/GP2*%
X85935000Y43595000D03*
%TO.P,J3,5,Pin_5*%
%TO.N,/GP3*%
X85935000Y41055000D03*
%TO.P,J3,6,Pin_6*%
%TO.N,/GP4*%
X85935000Y38515000D03*
%TO.P,J3,7,Pin_7*%
%TO.N,/GP5*%
X85935000Y35975000D03*
%TO.P,J3,8,Pin_8*%
%TO.N,GND*%
X85935000Y33435000D03*
%TO.P,J3,9,Pin_9*%
%TO.N,/GP6*%
X85935000Y30895000D03*
%TO.P,J3,10,Pin_10*%
%TO.N,/GP7*%
X85935000Y28355000D03*
%TO.P,J3,11,Pin_11*%
%TO.N,/GP8*%
X85935000Y25815000D03*
%TO.P,J3,12,Pin_12*%
%TO.N,/GP9*%
X85935000Y23275000D03*
%TO.P,J3,13,Pin_13*%
%TO.N,GND*%
X85935000Y20735000D03*
%TO.P,J3,14,Pin_14*%
%TO.N,/GP10*%
X85935000Y18195000D03*
%TO.P,J3,15,Pin_15*%
%TO.N,/GP11*%
X85935000Y15655000D03*
%TO.P,J3,16,Pin_16*%
%TO.N,/GP12*%
X85935000Y13115000D03*
%TO.P,J3,17,Pin_17*%
%TO.N,/GP13*%
X85935000Y10575000D03*
%TO.P,J3,18,Pin_18*%
%TO.N,GND*%
X85935000Y8035000D03*
%TO.P,J3,19,Pin_19*%
%TO.N,/GP14*%
X85935000Y5495000D03*
%TO.P,J3,20,Pin_20*%
%TO.N,/GP15*%
X85935000Y2955000D03*
%TO.P,J3,21,Pin_21*%
%TO.N,/GP16*%
X88475000Y2955000D03*
%TO.P,J3,22,Pin_22*%
%TO.N,/GP17*%
X88475000Y5495000D03*
%TO.P,J3,23,Pin_23*%
%TO.N,GND*%
X88475000Y8035000D03*
%TO.P,J3,24,Pin_24*%
%TO.N,/GP18*%
X88475000Y10575000D03*
%TO.P,J3,25,Pin_25*%
%TO.N,/GP19*%
X88475000Y13115000D03*
%TO.P,J3,26,Pin_26*%
%TO.N,/GP20*%
X88475000Y15655000D03*
%TO.P,J3,27,Pin_27*%
%TO.N,/GP21*%
X88475000Y18195000D03*
%TO.P,J3,28,Pin_28*%
%TO.N,GND*%
X88475000Y20735000D03*
%TO.P,J3,29,Pin_29*%
%TO.N,/GP22*%
X88475000Y23275000D03*
%TO.P,J3,30,Pin_30*%
%TO.N,/RUN*%
X88475000Y25815000D03*
%TO.P,J3,31,Pin_31*%
%TO.N,/GP26*%
X88475000Y28355000D03*
%TO.P,J3,32,Pin_32*%
%TO.N,/GP27*%
X88475000Y30895000D03*
%TO.P,J3,33,Pin_33*%
%TO.N,GND*%
X88475000Y33435000D03*
%TO.P,J3,34,Pin_34*%
%TO.N,/GP28*%
X88475000Y35975000D03*
%TO.P,J3,35,Pin_35*%
%TO.N,/3V3*%
X88475000Y38515000D03*
%TO.P,J3,36,Pin_36*%
X88475000Y41055000D03*
%TO.P,J3,37,Pin_37*%
X88475000Y43595000D03*
%TO.P,J3,38,Pin_38*%
%TO.N,GND*%
X88475000Y46135000D03*
%TO.P,J3,39,Pin_39*%
%TO.N,/VSYS*%
X88475000Y48675000D03*
%TO.P,J3,40,Pin_40*%
X88475000Y51215000D03*
%TD*%
D10*
%TO.P,JP2,1,A*%
%TO.N,/GP0*%
X4000000Y43849000D03*
D11*
%TO.P,JP2,2,B*%
%TO.N,Net-(JP2-B)*%
X4000000Y41309000D03*
%TD*%
D10*
%TO.P,J5,1,Pin_1*%
%TO.N,/VBUS*%
X71970000Y51100000D03*
D11*
%TO.P,J5,2,Pin_2*%
%TO.N,/VSYS*%
X71970000Y48560000D03*
%TO.P,J5,3,Pin_3*%
%TO.N,GND*%
X71970000Y46020000D03*
%TO.P,J5,4,Pin_4*%
%TO.N,/3V3_EN*%
X71970000Y43480000D03*
%TO.P,J5,5,Pin_5*%
%TO.N,/3V3*%
X71970000Y40940000D03*
%TO.P,J5,6,Pin_6*%
%TO.N,/ADC_VREF*%
X71970000Y38400000D03*
%TO.P,J5,7,Pin_7*%
%TO.N,/GP28*%
X71970000Y35860000D03*
%TO.P,J5,8,Pin_8*%
%TO.N,GND*%
X71970000Y33320000D03*
%TO.P,J5,9,Pin_9*%
%TO.N,/GP27*%
X71970000Y30780000D03*
%TO.P,J5,10,Pin_10*%
%TO.N,/GP26*%
X71970000Y28240000D03*
%TO.P,J5,11,Pin_11*%
%TO.N,/RUN*%
X71970000Y25700000D03*
%TO.P,J5,12,Pin_12*%
%TO.N,/GP22*%
X71970000Y23160000D03*
%TO.P,J5,13,Pin_13*%
%TO.N,GND*%
X71970000Y20620000D03*
%TO.P,J5,14,Pin_14*%
%TO.N,/GP21*%
X71970000Y18080000D03*
%TO.P,J5,15,Pin_15*%
%TO.N,/GP20*%
X71970000Y15540000D03*
%TO.P,J5,16,Pin_16*%
%TO.N,/GP19*%
X71970000Y13000000D03*
%TO.P,J5,17,Pin_17*%
%TO.N,/GP18*%
X71970000Y10460000D03*
%TO.P,J5,18,Pin_18*%
%TO.N,GND*%
X71970000Y7920000D03*
%TO.P,J5,19,Pin_19*%
%TO.N,/GP17*%
X71970000Y5380000D03*
%TO.P,J5,20,Pin_20*%
%TO.N,/GP16*%
X71970000Y2840000D03*
%TD*%
%TO.P,U2,1,GPIO0*%
%TO.N,unconnected-(U2-GPIO0-Pad1)*%
X16090000Y51130000D03*
D13*
X15190000Y51130000D03*
D11*
%TO.P,U2,2,GPIO1*%
%TO.N,unconnected-(U2-GPIO1-Pad2)*%
X16090000Y48590000D03*
D13*
X15190000Y48590000D03*
D10*
%TO.P,U2,3,GND*%
%TO.N,GND*%
X16090000Y46050000D03*
D13*
X15190000Y46050000D03*
D11*
%TO.P,U2,4,GPIO2*%
%TO.N,Net-(JP3-B)*%
X16090000Y43510000D03*
D13*
X15190000Y43510000D03*
D11*
%TO.P,U2,5,GPIO3*%
%TO.N,Net-(JP4-B)*%
X16090000Y40970000D03*
D13*
X15190000Y40970000D03*
D11*
%TO.P,U2,6,GPIO4*%
%TO.N,Net-(JP1-B)*%
X16090000Y38430000D03*
D13*
X15190000Y38430000D03*
D11*
%TO.P,U2,7,GPIO5*%
%TO.N,Net-(JP2-B)*%
X16090000Y35890000D03*
D13*
X15190000Y35890000D03*
D10*
%TO.P,U2,8,GND*%
%TO.N,GND*%
X16090000Y33350000D03*
D13*
X15190000Y33350000D03*
D11*
%TO.P,U2,9,GPIO6*%
%TO.N,unconnected-(U2-GPIO6-Pad9)*%
X16090000Y30810000D03*
D13*
X15190000Y30810000D03*
D11*
%TO.P,U2,10,GPIO7*%
%TO.N,unconnected-(U2-GPIO7-Pad10)*%
X16090000Y28270000D03*
D13*
X15190000Y28270000D03*
D11*
%TO.P,U2,11,GPIO8*%
%TO.N,unconnected-(U2-GPIO8-Pad11)*%
X16090000Y25730000D03*
D13*
X15190000Y25730000D03*
D11*
%TO.P,U2,12,GPIO9*%
%TO.N,unconnected-(U2-GPIO9-Pad12)*%
X16090000Y23190000D03*
D13*
X15190000Y23190000D03*
D10*
%TO.P,U2,13,GND*%
%TO.N,GND*%
X16090000Y20650000D03*
D13*
X15190000Y20650000D03*
D11*
%TO.P,U2,14,GPIO10*%
%TO.N,unconnected-(U2-GPIO10-Pad14)*%
X16090000Y18110000D03*
D13*
X15190000Y18110000D03*
D11*
%TO.P,U2,15,GPIO11*%
%TO.N,unconnected-(U2-GPIO11-Pad15)*%
X16090000Y15570000D03*
D13*
X15190000Y15570000D03*
D11*
%TO.P,U2,16,GPIO12*%
%TO.N,unconnected-(U2-GPIO12-Pad16)*%
X16090000Y13030000D03*
D13*
X15190000Y13030000D03*
D11*
%TO.P,U2,17,GPIO13*%
%TO.N,unconnected-(U2-GPIO13-Pad17)*%
X16090000Y10490000D03*
D13*
X15190000Y10490000D03*
D10*
%TO.P,U2,18,GND*%
%TO.N,GND*%
X16090000Y7950000D03*
D13*
X15190000Y7950000D03*
D11*
%TO.P,U2,19,GPIO14*%
%TO.N,unconnected-(U2-GPIO14-Pad19)*%
X16090000Y5410000D03*
D13*
X15190000Y5410000D03*
D11*
%TO.P,U2,20,GPIO15*%
%TO.N,unconnected-(U2-GPIO15-Pad20)*%
X16090000Y2870000D03*
D13*
X15190000Y2870000D03*
D11*
%TO.P,U2,21,GPIO16*%
%TO.N,unconnected-(U2-GPIO16-Pad21)*%
X33870000Y2870000D03*
D13*
X34770000Y2870000D03*
D11*
%TO.P,U2,22,GPIO17*%
%TO.N,unconnected-(U2-GPIO17-Pad22)*%
X33870000Y5410000D03*
D13*
X34770000Y5410000D03*
D10*
%TO.P,U2,23,GND*%
%TO.N,GND*%
X33870000Y7950000D03*
D13*
X34770000Y7950000D03*
D11*
%TO.P,U2,24,GPIO18*%
%TO.N,unconnected-(U2-GPIO18-Pad24)*%
X33870000Y10490000D03*
D13*
X34770000Y10490000D03*
D11*
%TO.P,U2,25,GPIO19*%
%TO.N,unconnected-(U2-GPIO19-Pad25)*%
X33870000Y13030000D03*
D13*
X34770000Y13030000D03*
D11*
%TO.P,U2,26,GPIO20*%
%TO.N,unconnected-(U2-GPIO20-Pad26)*%
X33870000Y15570000D03*
D13*
X34770000Y15570000D03*
D11*
%TO.P,U2,27,GPIO21*%
%TO.N,unconnected-(U2-GPIO21-Pad27)*%
X33870000Y18110000D03*
D13*
X34770000Y18110000D03*
D10*
%TO.P,U2,28,GND*%
%TO.N,GND*%
X33870000Y20650000D03*
D13*
X34770000Y20650000D03*
D11*
%TO.P,U2,29,GPIO22*%
%TO.N,unconnected-(U2-GPIO22-Pad29)*%
X33870000Y23190000D03*
D13*
X34770000Y23190000D03*
D11*
%TO.P,U2,30,RUN*%
%TO.N,unconnected-(U2-RUN-Pad30)*%
X33870000Y25730000D03*
D13*
X34770000Y25730000D03*
D11*
%TO.P,U2,31,GPIO26_ADC0*%
%TO.N,unconnected-(U2-GPIO26_ADC0-Pad31)*%
X33870000Y28270000D03*
D13*
X34770000Y28270000D03*
D11*
%TO.P,U2,32,GPIO27_ADC1*%
%TO.N,unconnected-(U2-GPIO27_ADC1-Pad32)*%
X33870000Y30810000D03*
D13*
X34770000Y30810000D03*
D10*
%TO.P,U2,33,AGND*%
%TO.N,GND*%
X33870000Y33350000D03*
D13*
X34770000Y33350000D03*
D11*
%TO.P,U2,34,GPIO28_ADC2*%
%TO.N,unconnected-(U2-GPIO28_ADC2-Pad34)*%
X33870000Y35890000D03*
D13*
X34770000Y35890000D03*
D11*
%TO.P,U2,35,ADC_VREF*%
%TO.N,unconnected-(U2-ADC_VREF-Pad35)*%
X33870000Y38430000D03*
D13*
X34770000Y38430000D03*
D11*
%TO.P,U2,36,3V3*%
%TO.N,unconnected-(U2-3V3-Pad36)*%
X33870000Y40970000D03*
D13*
X34770000Y40970000D03*
D11*
%TO.P,U2,37,3V3_EN*%
%TO.N,unconnected-(U2-3V3_EN-Pad37)*%
X33870000Y43510000D03*
D13*
X34770000Y43510000D03*
D10*
%TO.P,U2,38,GND*%
%TO.N,GND*%
X33870000Y46050000D03*
D13*
X34770000Y46050000D03*
D11*
%TO.P,U2,39,VSYS*%
%TO.N,/VSYS*%
X33870000Y48590000D03*
D13*
X34770000Y48590000D03*
D11*
%TO.P,U2,40,VBUS*%
%TO.N,unconnected-(U2-VBUS-Pad40)*%
X33870000Y51130000D03*
D13*
X34770000Y51130000D03*
D11*
%TO.P,U2,41,SWCLK*%
%TO.N,unconnected-(U2-SWCLK-Pad41)*%
X22440000Y3100000D03*
D14*
X22440000Y2200000D03*
D15*
X25530000Y21300000D03*
D16*
X25540000Y21300000D03*
D10*
%TO.P,U2,42,GND*%
%TO.N,unconnected-(U2-GND-Pad42)*%
X24980000Y3100000D03*
D14*
X24980000Y2200000D03*
D17*
X28080000Y21300000D03*
D15*
X28080000Y21300000D03*
D11*
%TO.P,U2,43,SWDIO*%
%TO.N,unconnected-(U2-SWDIO-Pad43)*%
X27520000Y3100000D03*
D14*
X27520000Y2200000D03*
D16*
X30620000Y21300000D03*
D15*
X30630000Y21300000D03*
%TD*%
D19*
%TO.N,/3V3*%
X105498000Y51088000D03*
X76796000Y51342000D03*
X92036000Y51088000D03*
%TO.N,Net-(J6-Pin_1)*%
X11750000Y24450000D03*
X10250000Y21200000D03*
%TO.N,Net-(J6-Pin_3)*%
X10425000Y24675000D03*
X12025000Y29400000D03*
%TD*%
D20*
%TO.N,/GP0*%
X84570000Y49850000D02*
X65308600Y49850000D01*
X85935000Y51215000D02*
X84570000Y49850000D01*
X101160000Y49965000D02*
X112625000Y49965000D01*
X98660000Y49965000D02*
X99910000Y51215000D01*
X87185000Y49965000D02*
X98660000Y49965000D01*
X53013800Y52485000D02*
X51658800Y51130000D01*
X62673600Y52485000D02*
X53013800Y52485000D01*
X85935000Y51215000D02*
X87185000Y49965000D01*
X51658800Y51130000D02*
X49110000Y51130000D01*
X99910000Y51215000D02*
X101160000Y49965000D01*
X65308600Y49850000D02*
X62673600Y52485000D01*
X112625000Y49965000D02*
X113875000Y51215000D01*
%TO.N,/GP1*%
X101180000Y47405000D02*
X112610000Y47405000D01*
X87205000Y47405000D02*
X98640000Y47405000D01*
X53453400Y46617600D02*
X51481000Y48590000D01*
X85935000Y48675000D02*
X87205000Y47405000D01*
X84570000Y47310000D02*
X63391400Y47310000D01*
X85935000Y48675000D02*
X84570000Y47310000D01*
X62699000Y46617600D02*
X53453400Y46617600D01*
X113875000Y48675000D02*
X112610000Y47410000D01*
X99910000Y48675000D02*
X101180000Y47405000D01*
X51481000Y48590000D02*
X49110000Y48590000D01*
X112610000Y47410000D02*
X112610000Y47405000D01*
X98640000Y47405000D02*
X99910000Y48675000D01*
X63391400Y47310000D02*
X62699000Y46617600D01*
%TO.N,GND*%
X1280000Y11045000D02*
X1280000Y17605000D01*
D21*
X72085000Y46135000D02*
X71970000Y46020000D01*
D20*
X1793000Y22132000D02*
X4107000Y22132000D01*
D21*
X99910000Y46135000D02*
X88475000Y46135000D01*
X33870000Y46050000D02*
X44000000Y46050000D01*
X44000000Y46050000D02*
X44030000Y46020000D01*
D20*
X2680000Y10992000D02*
X2672000Y11000000D01*
X1325000Y11000000D02*
X1280000Y11045000D01*
X1750000Y22175000D02*
X1750000Y18075000D01*
D21*
X85935000Y46135000D02*
X72085000Y46135000D01*
D20*
X1280000Y17605000D02*
X1750000Y18075000D01*
X2680000Y10992000D02*
X9180000Y10992000D01*
X1752000Y23402000D02*
X1750000Y23400000D01*
D21*
X113875000Y46135000D02*
X102450000Y46135000D01*
D20*
X1750000Y22175000D02*
X1793000Y22132000D01*
D21*
X88475000Y46135000D02*
X85935000Y46135000D01*
D20*
X1750000Y23400000D02*
X1750000Y22175000D01*
X4107000Y23402000D02*
X1752000Y23402000D01*
X9180000Y10992000D02*
X12222000Y7950000D01*
X12222000Y7950000D02*
X16090000Y7950000D01*
X2672000Y11000000D02*
X1325000Y11000000D01*
%TO.N,/GP2*%
X99910000Y43595000D02*
X101160000Y42345000D01*
X84760000Y44770000D02*
X63810000Y44770000D01*
X112625000Y42345000D02*
X113875000Y43595000D01*
X53463000Y46017600D02*
X50955400Y43510000D01*
X87185000Y42345000D02*
X98660000Y42345000D01*
X101160000Y42345000D02*
X112625000Y42345000D01*
X98660000Y42345000D02*
X99910000Y43595000D01*
X63810000Y44770000D02*
X62562400Y46017600D01*
X50955400Y43510000D02*
X49110000Y43510000D01*
X85935000Y43595000D02*
X84760000Y44770000D01*
X62562400Y46017600D02*
X53463000Y46017600D01*
X85935000Y43595000D02*
X87185000Y42345000D01*
%TO.N,/GP3*%
X50650600Y40970000D02*
X49110000Y40970000D01*
X54498200Y37140000D02*
X50659400Y40978800D01*
X112605000Y39785000D02*
X113875000Y41055000D01*
X85935000Y41055000D02*
X82020000Y37140000D01*
X82020000Y37140000D02*
X54498200Y37140000D01*
X50659400Y40978800D02*
X50650600Y40970000D01*
X85935000Y41055000D02*
X87205000Y39785000D01*
X87205000Y39785000D02*
X98640000Y39785000D01*
X99910000Y41055000D02*
X101180000Y39785000D01*
X98640000Y39785000D02*
X99910000Y41055000D01*
X101180000Y39785000D02*
X112605000Y39785000D01*
%TO.N,/GP4*%
X50769800Y38430000D02*
X49110000Y38430000D01*
X99910000Y38515000D02*
X101180000Y37245000D01*
X85935000Y38515000D02*
X82020000Y34600000D01*
X87205000Y37245000D02*
X98640000Y37245000D01*
X101180000Y37245000D02*
X112605000Y37245000D01*
X54599800Y34600000D02*
X50769800Y38430000D01*
X112605000Y37245000D02*
X113875000Y38515000D01*
X82020000Y34600000D02*
X54599800Y34600000D01*
X98640000Y37245000D02*
X99910000Y38515000D01*
X85935000Y38515000D02*
X87205000Y37245000D01*
%TO.N,/GP5*%
X101180000Y34705000D02*
X112610000Y34705000D01*
X113875000Y35975000D02*
X112610000Y34710000D01*
X85935000Y35975000D02*
X82030000Y32070000D01*
X98640000Y34705000D02*
X99910000Y35975000D01*
X50922200Y35890000D02*
X49110000Y35890000D01*
X112610000Y34710000D02*
X112610000Y34705000D01*
X87205000Y34705000D02*
X98640000Y34705000D01*
X54742200Y32070000D02*
X50922200Y35890000D01*
X82030000Y32070000D02*
X54742200Y32070000D01*
X85935000Y35975000D02*
X87205000Y34705000D01*
X99910000Y35975000D02*
X101180000Y34705000D01*
%TO.N,/GP6*%
X87205000Y29625000D02*
X98640000Y29625000D01*
X85935000Y30895000D02*
X84570000Y29530000D01*
X101180000Y29625000D02*
X112605000Y29625000D01*
X58984000Y29530000D02*
X57704000Y30810000D01*
X57704000Y30810000D02*
X49110000Y30810000D01*
X84570000Y29530000D02*
X58984000Y29530000D01*
X99910000Y30895000D02*
X101180000Y29625000D01*
X98640000Y29625000D02*
X99910000Y30895000D01*
X85935000Y30895000D02*
X87205000Y29625000D01*
X112605000Y29625000D02*
X113875000Y30895000D01*
%TO.N,/GP7*%
X85935000Y28355000D02*
X84570000Y26990000D01*
X84570000Y26990000D02*
X59238000Y26990000D01*
X57958000Y28270000D02*
X49110000Y28270000D01*
X101180000Y27085000D02*
X112605000Y27085000D01*
X112605000Y27085000D02*
X113875000Y28355000D01*
X85935000Y28355000D02*
X87205000Y27085000D01*
X87205000Y27085000D02*
X98640000Y27085000D01*
X59238000Y26990000D02*
X57958000Y28270000D01*
X99910000Y28355000D02*
X101180000Y27085000D01*
X98640000Y27085000D02*
X99910000Y28355000D01*
%TO.N,/GP8*%
X85935000Y25815000D02*
X84570000Y24450000D01*
X87205000Y24545000D02*
X98640000Y24545000D01*
X85935000Y25815000D02*
X87205000Y24545000D01*
X98640000Y24545000D02*
X99910000Y25815000D01*
X50390000Y24450000D02*
X49110000Y25730000D01*
X101180000Y24545000D02*
X112605000Y24545000D01*
X99910000Y25815000D02*
X101180000Y24545000D01*
X84570000Y24450000D02*
X50390000Y24450000D01*
X112605000Y24545000D02*
X113875000Y25815000D01*
%TO.N,/GP9*%
X65790000Y21910000D02*
X64510000Y23190000D01*
X85935000Y23275000D02*
X87205000Y22005000D01*
X98640000Y22005000D02*
X99910000Y23275000D01*
X85935000Y23275000D02*
X84570000Y21910000D01*
X101180000Y22005000D02*
X112605000Y22005000D01*
X112605000Y22005000D02*
X113875000Y23275000D01*
X99910000Y23275000D02*
X101180000Y22005000D01*
X84570000Y21910000D02*
X65790000Y21910000D01*
X64510000Y23190000D02*
X49110000Y23190000D01*
X87205000Y22005000D02*
X98640000Y22005000D01*
%TO.N,/GP10*%
X84560000Y16820000D02*
X59248000Y16820000D01*
X98640000Y16925000D02*
X99910000Y18195000D01*
X57958000Y18110000D02*
X49110000Y18110000D01*
X112605000Y16925000D02*
X113875000Y18195000D01*
X99910000Y18195000D02*
X101180000Y16925000D01*
X101180000Y16925000D02*
X112605000Y16925000D01*
X85935000Y18195000D02*
X87205000Y16925000D01*
X87205000Y16925000D02*
X98640000Y16925000D01*
X85935000Y18195000D02*
X84560000Y16820000D01*
X59248000Y16820000D02*
X57958000Y18110000D01*
%TO.N,/GP11*%
X112605000Y14385000D02*
X113875000Y15655000D01*
X99910000Y15655000D02*
X101180000Y14385000D01*
X84570000Y14290000D02*
X59238000Y14290000D01*
X101180000Y14385000D02*
X112605000Y14385000D01*
X85935000Y15655000D02*
X87205000Y14385000D01*
X87205000Y14385000D02*
X98640000Y14385000D01*
X85935000Y15655000D02*
X84570000Y14290000D01*
X98640000Y14385000D02*
X99910000Y15655000D01*
X57958000Y15570000D02*
X49110000Y15570000D01*
X59238000Y14290000D02*
X57958000Y15570000D01*
%TO.N,/GP12*%
X112605000Y11845000D02*
X113875000Y13115000D01*
X85935000Y13115000D02*
X87205000Y11845000D01*
X85935000Y13115000D02*
X84570000Y11750000D01*
X84570000Y11750000D02*
X59238000Y11750000D01*
X98640000Y11845000D02*
X99910000Y13115000D01*
X57958000Y13030000D02*
X49110000Y13030000D01*
X99910000Y13115000D02*
X101180000Y11845000D01*
X101180000Y11845000D02*
X112605000Y11845000D01*
X87205000Y11845000D02*
X98640000Y11845000D01*
X59238000Y11750000D02*
X57958000Y13030000D01*
%TO.N,/GP13*%
X87205000Y9305000D02*
X98640000Y9305000D01*
X85935000Y10575000D02*
X84570000Y9210000D01*
X84570000Y9210000D02*
X59238000Y9210000D01*
X101180000Y9305000D02*
X112605000Y9305000D01*
X59238000Y9210000D02*
X57958000Y10490000D01*
X85935000Y10575000D02*
X87205000Y9305000D01*
X98640000Y9305000D02*
X99910000Y10575000D01*
X57958000Y10490000D02*
X49110000Y10490000D01*
X99910000Y10575000D02*
X101180000Y9305000D01*
X112605000Y9305000D02*
X113875000Y10575000D01*
%TO.N,/GP14*%
X85935000Y5495000D02*
X87205000Y4225000D01*
X51396000Y5368000D02*
X49152000Y5368000D01*
X101180000Y4225000D02*
X112605000Y4225000D01*
X84760000Y6670000D02*
X52698000Y6670000D01*
X49152000Y5368000D02*
X49110000Y5410000D01*
X87205000Y4225000D02*
X98640000Y4225000D01*
X98640000Y4225000D02*
X99910000Y5495000D01*
X112605000Y4225000D02*
X113875000Y5495000D01*
X52698000Y6670000D02*
X51396000Y5368000D01*
X85935000Y5495000D02*
X84760000Y6670000D01*
X99910000Y5495000D02*
X101180000Y4225000D01*
%TO.N,/GP15*%
X112605000Y1685000D02*
X113875000Y2955000D01*
X51650000Y2828000D02*
X49152000Y2828000D01*
X49152000Y2828000D02*
X49110000Y2870000D01*
X84760000Y4130000D02*
X65870000Y4130000D01*
X87205000Y1685000D02*
X98640000Y1685000D01*
X64632000Y5368000D02*
X54190000Y5368000D01*
X99910000Y2955000D02*
X101180000Y1685000D01*
X65870000Y4130000D02*
X64632000Y5368000D01*
X101180000Y1685000D02*
X112605000Y1685000D01*
X54190000Y5368000D02*
X51650000Y2828000D01*
X85935000Y2955000D02*
X87205000Y1685000D01*
X98640000Y1685000D02*
X99910000Y2955000D01*
X85935000Y2955000D02*
X84760000Y4130000D01*
%TO.N,/3V3*%
X1125000Y24675000D02*
X1125000Y35400000D01*
D21*
X119341000Y43595000D02*
X116415000Y43595000D01*
X76796000Y51342000D02*
X76796000Y52866000D01*
D20*
X11375000Y35475000D02*
X13050000Y37150000D01*
X43542233Y42220000D02*
X65640000Y42220000D01*
D21*
X105371000Y52866000D02*
X119214000Y52866000D01*
D20*
X1200000Y35475000D02*
X11375000Y35475000D01*
D21*
X105498000Y51088000D02*
X105498000Y52739000D01*
X119341000Y52739000D02*
X119214000Y52866000D01*
X119341000Y43595000D02*
X119341000Y52739000D01*
D20*
X4107000Y24672000D02*
X1128000Y24672000D01*
X65640000Y42220000D02*
X66890000Y40970000D01*
D21*
X92036000Y52739000D02*
X92163000Y52866000D01*
X92163000Y52866000D02*
X105371000Y52866000D01*
X92036000Y51088000D02*
X92036000Y52739000D01*
D20*
X38472233Y37150000D02*
X43542233Y42220000D01*
X13050000Y37150000D02*
X38472233Y37150000D01*
D21*
X76796000Y52866000D02*
X92163000Y52866000D01*
X105498000Y52739000D02*
X105371000Y52866000D01*
D20*
X1125000Y35400000D02*
X1200000Y35475000D01*
X1128000Y24672000D02*
X1125000Y24675000D01*
%TO.N,/RUN*%
X11620000Y16820000D02*
X11600000Y16800000D01*
X11600000Y15500000D02*
X11600000Y16800000D01*
X11108000Y15492000D02*
X11116000Y15500000D01*
X17300000Y16820000D02*
X11620000Y16820000D01*
X27460000Y26980000D02*
X17300000Y16820000D01*
X11620000Y19505000D02*
X11533000Y19592000D01*
X11533000Y19592000D02*
X8007000Y19592000D01*
X11116000Y15500000D02*
X11600000Y15500000D01*
X66890000Y25730000D02*
X51610000Y25730000D01*
X11620000Y16820000D02*
X11620000Y19505000D01*
X51610000Y25730000D02*
X50360000Y26980000D01*
X2680000Y15492000D02*
X9180000Y15492000D01*
X11108000Y15492000D02*
X9180000Y15492000D01*
X50360000Y26980000D02*
X27460000Y26980000D01*
%TO.N,Net-(J6-Pin_1)*%
X8007000Y23402000D02*
X10250000Y23402000D01*
X10250000Y21200000D02*
X10250000Y23402000D01*
X4000000Y29538000D02*
X3960000Y29498000D01*
X4000000Y34197000D02*
X4000000Y29538000D01*
X11750000Y23400000D02*
X11750000Y24450000D01*
X11748000Y23402000D02*
X11750000Y23400000D01*
X10250000Y23402000D02*
X11748000Y23402000D01*
%TO.N,Net-(J6-Pin_3)*%
X10425000Y27800000D02*
X12025000Y29400000D01*
X8978000Y29560000D02*
X9040000Y29498000D01*
X8010000Y24675000D02*
X8007000Y24672000D01*
X8007000Y26114000D02*
X9040000Y27147000D01*
X9040000Y27147000D02*
X9040000Y29498000D01*
X8007000Y24672000D02*
X8007000Y26114000D01*
X10425000Y24675000D02*
X8010000Y24675000D01*
X8978000Y34197000D02*
X8978000Y29560000D01*
X10425000Y24675000D02*
X10425000Y27800000D01*
%TO.N,Net-(JP3-B)*%
X4025000Y38769000D02*
X4000000Y38744000D01*
X10819000Y38769000D02*
X4025000Y38769000D01*
X11010000Y38960000D02*
X10819000Y38769000D01*
X11135000Y43510000D02*
X11010000Y43385000D01*
X16090000Y43510000D02*
X11135000Y43510000D01*
X4000000Y38744000D02*
X4000000Y36737000D01*
X11010000Y43385000D02*
X11010000Y38960000D01*
%TO.N,Net-(JP4-B)*%
X12295000Y40970000D02*
X16090000Y40970000D01*
X11275000Y36725000D02*
X11950000Y37400000D01*
X11950000Y37400000D02*
X11950000Y40625000D01*
X14330000Y40970000D02*
X14288000Y40928000D01*
X8978000Y36737000D02*
X11263000Y36737000D01*
X11950000Y40625000D02*
X12295000Y40970000D01*
X16090000Y40970000D02*
X14330000Y40970000D01*
X11263000Y36737000D02*
X11275000Y36725000D01*
%TD*%
M02*
