%TF.GenerationSoftware,KiCad,Pcbnew,7.0.7*%
%TF.CreationDate,2023-09-07T20:52:16+09:00*%
%TF.ProjectId,KiCad,4b694361-642e-46b6-9963-61645f706362,rev?*%
%TF.SameCoordinates,PX41cdb40PY67f3540*%
%TF.FileFunction,Soldermask,Top*%
%TF.FilePolarity,Negative*%
%FSLAX46Y46*%
G04 Gerber Fmt 4.6, Leading zero omitted, Abs format (unit mm)*
G04 Created by KiCad (PCBNEW 7.0.7) date 2023-09-07 20:52:16*
%MOMM*%
%LPD*%
G01*
G04 APERTURE LIST*
G04 Aperture macros list*
%AMOutline4P*
0 Free polygon, 4 corners , with rotation*
0 The origin of the aperture is its center*
0 number of corners: always 4*
0 $1 to $8 corner X, Y*
0 $9 Rotation angle, in degrees counterclockwise*
0 create outline with 4 corners*
4,1,4,$1,$2,$3,$4,$5,$6,$7,$8,$1,$2,$9*%
G04 Aperture macros list end*
%ADD10C,3.200000*%
%ADD11R,1.700000X1.700000*%
%ADD12O,1.700000X1.700000*%
%ADD13R,2.400000X0.740000*%
%ADD14O,1.800000X1.800000*%
%ADD15O,1.500000X1.500000*%
%ADD16R,3.500000X1.700000*%
%ADD17R,1.700000X3.500000*%
%ADD18C,1.700000*%
%ADD19R,1.524000X1.524000*%
%ADD20Outline4P,-0.762000X-0.762000X0.762000X-0.762000X0.762000X0.762000X-0.762000X0.762000X0.000000*%
%ADD21C,2.000000*%
G04 APERTURE END LIST*
D10*
%TO.C,H2*%
X4000000Y50000000D03*
%TD*%
D11*
%TO.C,JP3*%
X4000000Y34197000D03*
D12*
X4000000Y36737000D03*
%TD*%
D13*
%TO.C,J7*%
X4107000Y24672000D03*
X8007000Y24672000D03*
X4107000Y23402000D03*
X8007000Y23402000D03*
X4107000Y22132000D03*
X8007000Y22132000D03*
X4107000Y20862000D03*
X8007000Y20862000D03*
X4107000Y19592000D03*
X8007000Y19592000D03*
%TD*%
D11*
%TO.C,J4*%
X44030000Y51100000D03*
D12*
X44030000Y48560000D03*
X44030000Y46020000D03*
X44030000Y43480000D03*
X44030000Y40940000D03*
X44030000Y38400000D03*
X44030000Y35860000D03*
X44030000Y33320000D03*
X44030000Y30780000D03*
X44030000Y28240000D03*
X44030000Y25700000D03*
X44030000Y23160000D03*
X44030000Y20620000D03*
X44030000Y18080000D03*
X44030000Y15540000D03*
X44030000Y13000000D03*
X44030000Y10460000D03*
X44030000Y7920000D03*
X44030000Y5380000D03*
X44030000Y2840000D03*
%TD*%
D11*
%TO.C,JP1*%
X8978000Y43849000D03*
D12*
X8978000Y41309000D03*
%TD*%
D11*
%TO.C,J1*%
X113875000Y51215000D03*
D12*
X113875000Y48675000D03*
X113875000Y46135000D03*
X113875000Y43595000D03*
X113875000Y41055000D03*
X113875000Y38515000D03*
X113875000Y35975000D03*
X113875000Y33435000D03*
X113875000Y30895000D03*
X113875000Y28355000D03*
X113875000Y25815000D03*
X113875000Y23275000D03*
X113875000Y20735000D03*
X113875000Y18195000D03*
X113875000Y15655000D03*
X113875000Y13115000D03*
X113875000Y10575000D03*
X113875000Y8035000D03*
X113875000Y5495000D03*
X113875000Y2955000D03*
X116415000Y2955000D03*
X116415000Y5495000D03*
X116415000Y8035000D03*
X116415000Y10575000D03*
X116415000Y13115000D03*
X116415000Y15655000D03*
X116415000Y18195000D03*
X116415000Y20735000D03*
X116415000Y23275000D03*
X116415000Y25815000D03*
X116415000Y28355000D03*
X116415000Y30895000D03*
X116415000Y33435000D03*
X116415000Y35975000D03*
X116415000Y38515000D03*
X116415000Y41055000D03*
X116415000Y43595000D03*
X116415000Y46135000D03*
X116415000Y48675000D03*
X116415000Y51215000D03*
%TD*%
D14*
%TO.C,U1*%
X55275000Y51000000D03*
D15*
X55575000Y47970000D03*
X60425000Y47970000D03*
D14*
X60725000Y51000000D03*
D12*
X49110000Y51130000D03*
D16*
X48210000Y51130000D03*
D12*
X49110000Y48590000D03*
D16*
X48210000Y48590000D03*
D11*
X49110000Y46050000D03*
D16*
X48210000Y46050000D03*
D12*
X49110000Y43510000D03*
D16*
X48210000Y43510000D03*
D12*
X49110000Y40970000D03*
D16*
X48210000Y40970000D03*
D12*
X49110000Y38430000D03*
D16*
X48210000Y38430000D03*
D12*
X49110000Y35890000D03*
D16*
X48210000Y35890000D03*
D11*
X49110000Y33350000D03*
D16*
X48210000Y33350000D03*
D12*
X49110000Y30810000D03*
D16*
X48210000Y30810000D03*
D12*
X49110000Y28270000D03*
D16*
X48210000Y28270000D03*
D12*
X49110000Y25730000D03*
D16*
X48210000Y25730000D03*
D12*
X49110000Y23190000D03*
D16*
X48210000Y23190000D03*
D11*
X49110000Y20650000D03*
D16*
X48210000Y20650000D03*
D12*
X49110000Y18110000D03*
D16*
X48210000Y18110000D03*
D12*
X49110000Y15570000D03*
D16*
X48210000Y15570000D03*
D12*
X49110000Y13030000D03*
D16*
X48210000Y13030000D03*
D12*
X49110000Y10490000D03*
D16*
X48210000Y10490000D03*
D11*
X49110000Y7950000D03*
D16*
X48210000Y7950000D03*
D12*
X49110000Y5410000D03*
D16*
X48210000Y5410000D03*
D12*
X49110000Y2870000D03*
D16*
X48210000Y2870000D03*
D12*
X66890000Y2870000D03*
D16*
X67790000Y2870000D03*
D12*
X66890000Y5410000D03*
D16*
X67790000Y5410000D03*
D11*
X66890000Y7950000D03*
D16*
X67790000Y7950000D03*
D12*
X66890000Y10490000D03*
D16*
X67790000Y10490000D03*
D12*
X66890000Y13030000D03*
D16*
X67790000Y13030000D03*
D12*
X66890000Y15570000D03*
D16*
X67790000Y15570000D03*
D12*
X66890000Y18110000D03*
D16*
X67790000Y18110000D03*
D11*
X66890000Y20650000D03*
D16*
X67790000Y20650000D03*
D12*
X66890000Y23190000D03*
D16*
X67790000Y23190000D03*
D12*
X66890000Y25730000D03*
D16*
X67790000Y25730000D03*
D12*
X66890000Y28270000D03*
D16*
X67790000Y28270000D03*
D12*
X66890000Y30810000D03*
D16*
X67790000Y30810000D03*
D11*
X66890000Y33350000D03*
D16*
X67790000Y33350000D03*
D12*
X66890000Y35890000D03*
D16*
X67790000Y35890000D03*
D12*
X66890000Y38430000D03*
D16*
X67790000Y38430000D03*
D12*
X66890000Y40970000D03*
D16*
X67790000Y40970000D03*
D12*
X66890000Y43510000D03*
D16*
X67790000Y43510000D03*
D11*
X66890000Y46050000D03*
D16*
X67790000Y46050000D03*
D12*
X66890000Y48590000D03*
D16*
X67790000Y48590000D03*
D12*
X66890000Y51130000D03*
D16*
X67790000Y51130000D03*
D12*
X55460000Y3100000D03*
D17*
X55460000Y2200000D03*
D18*
X58550000Y21300000D03*
D19*
X58560000Y21300000D03*
D11*
X58000000Y3100000D03*
D17*
X58000000Y2200000D03*
D20*
X61100000Y21300000D03*
D18*
X61100000Y21300000D03*
D12*
X60540000Y3100000D03*
D17*
X60540000Y2200000D03*
D19*
X63640000Y21300000D03*
D18*
X63650000Y21300000D03*
%TD*%
D11*
%TO.C,JP4*%
X8978000Y34197000D03*
D12*
X8978000Y36737000D03*
%TD*%
D21*
%TO.C,SW1*%
X2680000Y15492000D03*
X9180000Y15492000D03*
X2680000Y10992000D03*
X9180000Y10992000D03*
%TD*%
D11*
%TO.C,J2*%
X99910000Y51215000D03*
D12*
X99910000Y48675000D03*
X99910000Y46135000D03*
X99910000Y43595000D03*
X99910000Y41055000D03*
X99910000Y38515000D03*
X99910000Y35975000D03*
X99910000Y33435000D03*
X99910000Y30895000D03*
X99910000Y28355000D03*
X99910000Y25815000D03*
X99910000Y23275000D03*
X99910000Y20735000D03*
X99910000Y18195000D03*
X99910000Y15655000D03*
X99910000Y13115000D03*
X99910000Y10575000D03*
X99910000Y8035000D03*
X99910000Y5495000D03*
X99910000Y2955000D03*
X102450000Y2955000D03*
X102450000Y5495000D03*
X102450000Y8035000D03*
X102450000Y10575000D03*
X102450000Y13115000D03*
X102450000Y15655000D03*
X102450000Y18195000D03*
X102450000Y20735000D03*
X102450000Y23275000D03*
X102450000Y25815000D03*
X102450000Y28355000D03*
X102450000Y30895000D03*
X102450000Y33435000D03*
X102450000Y35975000D03*
X102450000Y38515000D03*
X102450000Y41055000D03*
X102450000Y43595000D03*
X102450000Y46135000D03*
X102450000Y48675000D03*
X102450000Y51215000D03*
%TD*%
D10*
%TO.C,H4*%
X126000000Y4000000D03*
%TD*%
D11*
%TO.C,J6*%
X3960000Y29498000D03*
D12*
X6500000Y29498000D03*
X9040000Y29498000D03*
%TD*%
D11*
%TO.C,J3*%
X85935000Y51215000D03*
D12*
X85935000Y48675000D03*
X85935000Y46135000D03*
X85935000Y43595000D03*
X85935000Y41055000D03*
X85935000Y38515000D03*
X85935000Y35975000D03*
X85935000Y33435000D03*
X85935000Y30895000D03*
X85935000Y28355000D03*
X85935000Y25815000D03*
X85935000Y23275000D03*
X85935000Y20735000D03*
X85935000Y18195000D03*
X85935000Y15655000D03*
X85935000Y13115000D03*
X85935000Y10575000D03*
X85935000Y8035000D03*
X85935000Y5495000D03*
X85935000Y2955000D03*
X88475000Y2955000D03*
X88475000Y5495000D03*
X88475000Y8035000D03*
X88475000Y10575000D03*
X88475000Y13115000D03*
X88475000Y15655000D03*
X88475000Y18195000D03*
X88475000Y20735000D03*
X88475000Y23275000D03*
X88475000Y25815000D03*
X88475000Y28355000D03*
X88475000Y30895000D03*
X88475000Y33435000D03*
X88475000Y35975000D03*
X88475000Y38515000D03*
X88475000Y41055000D03*
X88475000Y43595000D03*
X88475000Y46135000D03*
X88475000Y48675000D03*
X88475000Y51215000D03*
%TD*%
D11*
%TO.C,JP2*%
X4000000Y43849000D03*
D12*
X4000000Y41309000D03*
%TD*%
D11*
%TO.C,J5*%
X71970000Y51100000D03*
D12*
X71970000Y48560000D03*
X71970000Y46020000D03*
X71970000Y43480000D03*
X71970000Y40940000D03*
X71970000Y38400000D03*
X71970000Y35860000D03*
X71970000Y33320000D03*
X71970000Y30780000D03*
X71970000Y28240000D03*
X71970000Y25700000D03*
X71970000Y23160000D03*
X71970000Y20620000D03*
X71970000Y18080000D03*
X71970000Y15540000D03*
X71970000Y13000000D03*
X71970000Y10460000D03*
X71970000Y7920000D03*
X71970000Y5380000D03*
X71970000Y2840000D03*
%TD*%
D10*
%TO.C,H1*%
X126000000Y50000000D03*
%TD*%
D14*
%TO.C,U2*%
X22255000Y51000000D03*
D15*
X22555000Y47970000D03*
X27405000Y47970000D03*
D14*
X27705000Y51000000D03*
D12*
X16090000Y51130000D03*
D16*
X15190000Y51130000D03*
D12*
X16090000Y48590000D03*
D16*
X15190000Y48590000D03*
D11*
X16090000Y46050000D03*
D16*
X15190000Y46050000D03*
D12*
X16090000Y43510000D03*
D16*
X15190000Y43510000D03*
D12*
X16090000Y40970000D03*
D16*
X15190000Y40970000D03*
D12*
X16090000Y38430000D03*
D16*
X15190000Y38430000D03*
D12*
X16090000Y35890000D03*
D16*
X15190000Y35890000D03*
D11*
X16090000Y33350000D03*
D16*
X15190000Y33350000D03*
D12*
X16090000Y30810000D03*
D16*
X15190000Y30810000D03*
D12*
X16090000Y28270000D03*
D16*
X15190000Y28270000D03*
D12*
X16090000Y25730000D03*
D16*
X15190000Y25730000D03*
D12*
X16090000Y23190000D03*
D16*
X15190000Y23190000D03*
D11*
X16090000Y20650000D03*
D16*
X15190000Y20650000D03*
D12*
X16090000Y18110000D03*
D16*
X15190000Y18110000D03*
D12*
X16090000Y15570000D03*
D16*
X15190000Y15570000D03*
D12*
X16090000Y13030000D03*
D16*
X15190000Y13030000D03*
D12*
X16090000Y10490000D03*
D16*
X15190000Y10490000D03*
D11*
X16090000Y7950000D03*
D16*
X15190000Y7950000D03*
D12*
X16090000Y5410000D03*
D16*
X15190000Y5410000D03*
D12*
X16090000Y2870000D03*
D16*
X15190000Y2870000D03*
D12*
X33870000Y2870000D03*
D16*
X34770000Y2870000D03*
D12*
X33870000Y5410000D03*
D16*
X34770000Y5410000D03*
D11*
X33870000Y7950000D03*
D16*
X34770000Y7950000D03*
D12*
X33870000Y10490000D03*
D16*
X34770000Y10490000D03*
D12*
X33870000Y13030000D03*
D16*
X34770000Y13030000D03*
D12*
X33870000Y15570000D03*
D16*
X34770000Y15570000D03*
D12*
X33870000Y18110000D03*
D16*
X34770000Y18110000D03*
D11*
X33870000Y20650000D03*
D16*
X34770000Y20650000D03*
D12*
X33870000Y23190000D03*
D16*
X34770000Y23190000D03*
D12*
X33870000Y25730000D03*
D16*
X34770000Y25730000D03*
D12*
X33870000Y28270000D03*
D16*
X34770000Y28270000D03*
D12*
X33870000Y30810000D03*
D16*
X34770000Y30810000D03*
D11*
X33870000Y33350000D03*
D16*
X34770000Y33350000D03*
D12*
X33870000Y35890000D03*
D16*
X34770000Y35890000D03*
D12*
X33870000Y38430000D03*
D16*
X34770000Y38430000D03*
D12*
X33870000Y40970000D03*
D16*
X34770000Y40970000D03*
D12*
X33870000Y43510000D03*
D16*
X34770000Y43510000D03*
D11*
X33870000Y46050000D03*
D16*
X34770000Y46050000D03*
D12*
X33870000Y48590000D03*
D16*
X34770000Y48590000D03*
D12*
X33870000Y51130000D03*
D16*
X34770000Y51130000D03*
D12*
X22440000Y3100000D03*
D17*
X22440000Y2200000D03*
D18*
X25530000Y21300000D03*
D19*
X25540000Y21300000D03*
D11*
X24980000Y3100000D03*
D17*
X24980000Y2200000D03*
D20*
X28080000Y21300000D03*
D18*
X28080000Y21300000D03*
D12*
X27520000Y3100000D03*
D17*
X27520000Y2200000D03*
D19*
X30620000Y21300000D03*
D18*
X30630000Y21300000D03*
%TD*%
D10*
%TO.C,H3*%
X4000000Y4000000D03*
%TD*%
M02*
