  0
SECTION
  2
HEADER
  9
$ANGBASE
  50
0.0
  9
$ANGDIR
  70
1
  9
$MEASUREMENT
  70
1
  0
ENDSEC
  0
SECTION
  2
TABLES
  0
TABLE
  2
LTYPE
  70
4
  0
LTYPE
  5
40F
  2
CONTINUOUS
  70
0
  3
Solid line
  72
65
  73
0
  40
0.0
  0
LTYPE
  5
410
  2
DASHDOT
 70
0
  3
Dash Dot ____ _ ____ _
 72
65
 73
4
 40
2.0
 49
1.25
 49
-0.25
 49
0.25
 49
-0.25
  0
LTYPE
  5
411
  2
DASHED
 70
0
  3
Dashed __ __ __ __ __
 72
65
 73
2
 40
0.75
 49
0.5
 49
-0.25
  0
LTYPE
  5
43B
  2
DOTTED
 70
0
  3
Dotted .  .  .  .
 72
65
 73
2
 40
0.2
 49
0.0
 49
-0.2
  0
ENDTAB
  0
TABLE
  2
STYLE
  70
4
  0
STYLE
  2
KICAD
  70
0
  40
0
  41
1
  42
1
  50
0
  71
0
  3
isocp.shx
  0
STYLE
  2
KICADB
  70
0
  40
0
  41
1
  42
1
  50
0
  71
0
  3
isocp.shx
  0
STYLE
  2
KICADI
  70
0
  40
0
  41
1
  42
1
  50
15
  71
0
  3
isocp.shx
  0
STYLE
  2
KICADBI
  70
0
  40
0
  41
1
  42
1
  50
15
  71
0
  3
isocp.shx
  0
ENDTAB
  0
TABLE
  2
LAYER
  70
1
  0
LAYER
  2
BLACK
  70
0
  62
7
  6
CONTINUOUS
  0
ENDTAB
  0
ENDSEC
  0
SECTION
  2
ENTITIES
0
LINE
8
BLACK
6
CONTINUOUS
10
199
20
-55
11
69
21
-55
0
LINE
8
BLACK
6
CONTINUOUS
10
69
20
-109
11
199
21
-109
0
LINE
8
BLACK
6
CONTINUOUS
10
69
20
-55
11
69
21
-109
0
LINE
8
BLACK
6
CONTINUOUS
10
199
20
-109
11
199
21
-55
0
LINE
8
BLACK
6
CONTINUOUS
10
90.805
20
-60.28
11
92.305
21
-61.78
0
LINE
8
BLACK
6
CONTINUOUS
10
92.305
20
-60.28
11
90.805
21
-61.78
0
LINE
8
BLACK
6
CONTINUOUS
10
95.655
20
-60.28
11
97.155
21
-61.78
0
LINE
8
BLACK
6
CONTINUOUS
10
97.155
20
-60.28
11
95.655
21
-61.78
0
LINE
8
BLACK
6
CONTINUOUS
10
123.825
20
-60.28
11
125.325
21
-61.78
0
LINE
8
BLACK
6
CONTINUOUS
10
125.325
20
-60.28
11
123.825
21
-61.78
0
LINE
8
BLACK
6
CONTINUOUS
10
128.675
20
-60.28
11
130.175
21
-61.78
0
LINE
8
BLACK
6
CONTINUOUS
10
130.175
20
-60.28
11
128.675
21
-61.78
0
CIRCLE
8
BLACK
10
91.255
20
-58
40
0.9
0
CIRCLE
8
BLACK
10
96.705
20
-58
40
0.9
0
CIRCLE
8
BLACK
10
124.275
20
-58
40
0.9
0
CIRCLE
8
BLACK
10
129.725
20
-58
40
0.9
0
LINE
8
BLACK
6
CONTINUOUS
10
73
20
-57.4
11
73
21
-60.6
0
LINE
8
BLACK
6
CONTINUOUS
10
71.4
20
-59
11
74.6
21
-59
0
LINE
8
BLACK
6
CONTINUOUS
10
73
20
-103.4
11
73
21
-106.6
0
LINE
8
BLACK
6
CONTINUOUS
10
71.4
20
-105
11
74.6
21
-105
0
LINE
8
BLACK
6
CONTINUOUS
10
195
20
-57.4
11
195
21
-60.6
0
LINE
8
BLACK
6
CONTINUOUS
10
193.4
20
-59
11
196.6
21
-59
0
LINE
8
BLACK
6
CONTINUOUS
10
195
20
-103.4
11
195
21
-106.6
0
LINE
8
BLACK
6
CONTINUOUS
10
193.4
20
-105
11
196.6
21
-105
0
LINE
8
BLACK
6
CONTINUOUS
10
71.5262
20
-112.155
11
71.5262
21
-110.155
0
LINE
8
BLACK
6
CONTINUOUS
10
71.5262
20
-110.155
11
72.0024
21
-110.155
0
LINE
8
BLACK
6
CONTINUOUS
10
72.0024
20
-110.155
11
72.2881
21
-110.25
0
LINE
8
BLACK
6
CONTINUOUS
10
72.2881
20
-110.25
11
72.4786
21
-110.44
0
LINE
8
BLACK
6
CONTINUOUS
10
72.4786
20
-110.44
11
72.5738
21
-110.631
0
LINE
8
BLACK
6
CONTINUOUS
10
72.5738
20
-110.631
11
72.669
21
-111.012
0
LINE
8
BLACK
6
CONTINUOUS
10
72.669
20
-111.012
11
72.669
21
-111.298
0
LINE
8
BLACK
6
CONTINUOUS
10
72.669
20
-111.298
11
72.5738
21
-111.679
0
LINE
8
BLACK
6
CONTINUOUS
10
72.5738
20
-111.679
11
72.4786
21
-111.869
0
LINE
8
BLACK
6
CONTINUOUS
10
72.4786
20
-111.869
11
72.2881
21
-112.06
0
LINE
8
BLACK
6
CONTINUOUS
10
72.2881
20
-112.06
11
72.0024
21
-112.155
0
LINE
8
BLACK
6
CONTINUOUS
10
72.0024
20
-112.155
11
71.5262
21
-112.155
0
LINE
8
BLACK
6
CONTINUOUS
10
73.5262
20
-112.155
11
73.5262
21
-110.821
0
LINE
8
BLACK
6
CONTINUOUS
10
73.5262
20
-111.202
11
73.6214
21
-111.012
0
LINE
8
BLACK
6
CONTINUOUS
10
73.6214
20
-111.012
11
73.7167
21
-110.917
0
LINE
8
BLACK
6
CONTINUOUS
10
73.7167
20
-110.917
11
73.9071
21
-110.821
0
LINE
8
BLACK
6
CONTINUOUS
10
73.9071
20
-110.821
11
74.0976
21
-110.821
0
LINE
8
BLACK
6
CONTINUOUS
10
74.7643
20
-112.155
11
74.7643
21
-110.821
0
LINE
8
BLACK
6
CONTINUOUS
10
74.7643
20
-110.155
11
74.669
21
-110.25
0
LINE
8
BLACK
6
CONTINUOUS
10
74.669
20
-110.25
11
74.7643
21
-110.345
0
LINE
8
BLACK
6
CONTINUOUS
10
74.7643
20
-110.345
11
74.8595
21
-110.25
0
LINE
8
BLACK
6
CONTINUOUS
10
74.8595
20
-110.25
11
74.7643
21
-110.155
0
LINE
8
BLACK
6
CONTINUOUS
10
74.7643
20
-110.155
11
74.7643
21
-110.345
0
LINE
8
BLACK
6
CONTINUOUS
10
76.0024
20
-112.155
11
75.8119
21
-112.06
0
LINE
8
BLACK
6
CONTINUOUS
10
75.8119
20
-112.06
11
75.7167
21
-111.869
0
LINE
8
BLACK
6
CONTINUOUS
10
75.7167
20
-111.869
11
75.7167
21
-110.155
0
LINE
8
BLACK
6
CONTINUOUS
10
77.05
20
-112.155
11
76.8595
21
-112.06
0
LINE
8
BLACK
6
CONTINUOUS
10
76.8595
20
-112.06
11
76.7643
21
-111.869
0
LINE
8
BLACK
6
CONTINUOUS
10
76.7643
20
-111.869
11
76.7643
21
-110.155
0
LINE
8
BLACK
6
CONTINUOUS
10
79.3357
20
-112.155
11
79.3357
21
-110.155
0
LINE
8
BLACK
6
CONTINUOUS
10
79.3357
20
-110.155
11
80.0024
21
-111.583
0
LINE
8
BLACK
6
CONTINUOUS
10
80.0024
20
-111.583
11
80.669
21
-110.155
0
LINE
8
BLACK
6
CONTINUOUS
10
80.669
20
-110.155
11
80.669
21
-112.155
0
LINE
8
BLACK
6
CONTINUOUS
10
82.4786
20
-112.155
11
82.4786
21
-111.107
0
LINE
8
BLACK
6
CONTINUOUS
10
82.4786
20
-111.107
11
82.3833
21
-110.917
0
LINE
8
BLACK
6
CONTINUOUS
10
82.3833
20
-110.917
11
82.1929
21
-110.821
0
LINE
8
BLACK
6
CONTINUOUS
10
82.1929
20
-110.821
11
81.8119
21
-110.821
0
LINE
8
BLACK
6
CONTINUOUS
10
81.8119
20
-110.821
11
81.6214
21
-110.917
0
LINE
8
BLACK
6
CONTINUOUS
10
82.4786
20
-112.06
11
82.2881
21
-112.155
0
LINE
8
BLACK
6
CONTINUOUS
10
82.2881
20
-112.155
11
81.8119
21
-112.155
0
LINE
8
BLACK
6
CONTINUOUS
10
81.8119
20
-112.155
11
81.6214
21
-112.06
0
LINE
8
BLACK
6
CONTINUOUS
10
81.6214
20
-112.06
11
81.5262
21
-111.869
0
LINE
8
BLACK
6
CONTINUOUS
10
81.5262
20
-111.869
11
81.5262
21
-111.679
0
LINE
8
BLACK
6
CONTINUOUS
10
81.5262
20
-111.679
11
81.6214
21
-111.488
0
LINE
8
BLACK
6
CONTINUOUS
10
81.6214
20
-111.488
11
81.8119
21
-111.393
0
LINE
8
BLACK
6
CONTINUOUS
10
81.8119
20
-111.393
11
82.2881
21
-111.393
0
LINE
8
BLACK
6
CONTINUOUS
10
82.2881
20
-111.393
11
82.4786
21
-111.298
0
LINE
8
BLACK
6
CONTINUOUS
10
83.431
20
-110.821
11
83.431
21
-112.821
0
LINE
8
BLACK
6
CONTINUOUS
10
83.431
20
-110.917
11
83.6214
21
-110.821
0
LINE
8
BLACK
6
CONTINUOUS
10
83.6214
20
-110.821
11
84.0024
21
-110.821
0
LINE
8
BLACK
6
CONTINUOUS
10
84.0024
20
-110.821
11
84.1929
21
-110.917
0
LINE
8
BLACK
6
CONTINUOUS
10
84.1929
20
-110.917
11
84.2881
21
-111.012
0
LINE
8
BLACK
6
CONTINUOUS
10
84.2881
20
-111.012
11
84.3833
21
-111.202
0
LINE
8
BLACK
6
CONTINUOUS
10
84.3833
20
-111.202
11
84.3833
21
-111.774
0
LINE
8
BLACK
6
CONTINUOUS
10
84.3833
20
-111.774
11
84.2881
21
-111.964
0
LINE
8
BLACK
6
CONTINUOUS
10
84.2881
20
-111.964
11
84.1929
21
-112.06
0
LINE
8
BLACK
6
CONTINUOUS
10
84.1929
20
-112.06
11
84.0024
21
-112.155
0
LINE
8
BLACK
6
CONTINUOUS
10
84.0024
20
-112.155
11
83.6214
21
-112.155
0
LINE
8
BLACK
6
CONTINUOUS
10
83.6214
20
-112.155
11
83.431
21
-112.06
0
LINE
8
BLACK
6
CONTINUOUS
10
85.2405
20
-111.964
11
85.3357
21
-112.06
0
LINE
8
BLACK
6
CONTINUOUS
10
85.3357
20
-112.06
11
85.2405
21
-112.155
0
LINE
8
BLACK
6
CONTINUOUS
10
85.2405
20
-112.155
11
85.1452
21
-112.06
0
LINE
8
BLACK
6
CONTINUOUS
10
85.1452
20
-112.06
11
85.2405
21
-111.964
0
LINE
8
BLACK
6
CONTINUOUS
10
85.2405
20
-111.964
11
85.2405
21
-112.155
0
LINE
8
BLACK
6
CONTINUOUS
10
85.2405
20
-110.917
11
85.3357
21
-111.012
0
LINE
8
BLACK
6
CONTINUOUS
10
85.3357
20
-111.012
11
85.2405
21
-111.107
0
LINE
8
BLACK
6
CONTINUOUS
10
85.2405
20
-111.107
11
85.1452
21
-111.012
0
LINE
8
BLACK
6
CONTINUOUS
10
85.1452
20
-111.012
11
85.2405
21
-110.917
0
LINE
8
BLACK
6
CONTINUOUS
10
85.2405
20
-110.917
11
85.2405
21
-111.107
0
LINE
8
BLACK
6
CONTINUOUS
10
67.45
20
-114.7
11
68.95
21
-116.2
0
LINE
8
BLACK
6
CONTINUOUS
10
68.95
20
-114.7
11
67.45
21
-116.2
0
LINE
8
BLACK
6
CONTINUOUS
10
72.5738
20
-116.355
11
71.431
21
-116.355
0
LINE
8
BLACK
6
CONTINUOUS
10
72.0024
20
-116.355
11
72.0024
21
-114.355
0
LINE
8
BLACK
6
CONTINUOUS
10
72.0024
20
-114.355
11
71.8119
21
-114.64
0
LINE
8
BLACK
6
CONTINUOUS
10
71.8119
20
-114.64
11
71.6214
21
-114.831
0
LINE
8
BLACK
6
CONTINUOUS
10
71.6214
20
-114.831
11
71.431
21
-114.926
0
LINE
8
BLACK
6
CONTINUOUS
10
73.431
20
-116.164
11
73.5262
21
-116.26
0
LINE
8
BLACK
6
CONTINUOUS
10
73.5262
20
-116.26
11
73.431
21
-116.355
0
LINE
8
BLACK
6
CONTINUOUS
10
73.431
20
-116.355
11
73.3357
21
-116.26
0
LINE
8
BLACK
6
CONTINUOUS
10
73.3357
20
-116.26
11
73.431
21
-116.164
0
LINE
8
BLACK
6
CONTINUOUS
10
73.431
20
-116.164
11
73.431
21
-116.355
0
LINE
8
BLACK
6
CONTINUOUS
10
75.3357
20
-114.355
11
74.3833
21
-114.355
0
LINE
8
BLACK
6
CONTINUOUS
10
74.3833
20
-114.355
11
74.2881
21
-115.307
0
LINE
8
BLACK
6
CONTINUOUS
10
74.2881
20
-115.307
11
74.3833
21
-115.212
0
LINE
8
BLACK
6
CONTINUOUS
10
74.3833
20
-115.212
11
74.5738
21
-115.117
0
LINE
8
BLACK
6
CONTINUOUS
10
74.5738
20
-115.117
11
75.05
21
-115.117
0
LINE
8
BLACK
6
CONTINUOUS
10
75.05
20
-115.117
11
75.2405
21
-115.212
0
LINE
8
BLACK
6
CONTINUOUS
10
75.2405
20
-115.212
11
75.3357
21
-115.307
0
LINE
8
BLACK
6
CONTINUOUS
10
75.3357
20
-115.307
11
75.431
21
-115.498
0
LINE
8
BLACK
6
CONTINUOUS
10
75.431
20
-115.498
11
75.431
21
-115.974
0
LINE
8
BLACK
6
CONTINUOUS
10
75.431
20
-115.974
11
75.3357
21
-116.164
0
LINE
8
BLACK
6
CONTINUOUS
10
75.3357
20
-116.164
11
75.2405
21
-116.26
0
LINE
8
BLACK
6
CONTINUOUS
10
75.2405
20
-116.26
11
75.05
21
-116.355
0
LINE
8
BLACK
6
CONTINUOUS
10
75.05
20
-116.355
11
74.5738
21
-116.355
0
LINE
8
BLACK
6
CONTINUOUS
10
74.5738
20
-116.355
11
74.3833
21
-116.26
0
LINE
8
BLACK
6
CONTINUOUS
10
74.3833
20
-116.26
11
74.2881
21
-116.164
0
LINE
8
BLACK
6
CONTINUOUS
10
76.669
20
-114.355
11
76.8595
21
-114.355
0
LINE
8
BLACK
6
CONTINUOUS
10
76.8595
20
-114.355
11
77.05
21
-114.45
0
LINE
8
BLACK
6
CONTINUOUS
10
77.05
20
-114.45
11
77.1452
21
-114.545
0
LINE
8
BLACK
6
CONTINUOUS
10
77.1452
20
-114.545
11
77.2405
21
-114.736
0
LINE
8
BLACK
6
CONTINUOUS
10
77.2405
20
-114.736
11
77.3357
21
-115.117
0
LINE
8
BLACK
6
CONTINUOUS
10
77.3357
20
-115.117
11
77.3357
21
-115.593
0
LINE
8
BLACK
6
CONTINUOUS
10
77.3357
20
-115.593
11
77.2405
21
-115.974
0
LINE
8
BLACK
6
CONTINUOUS
10
77.2405
20
-115.974
11
77.1452
21
-116.164
0
LINE
8
BLACK
6
CONTINUOUS
10
77.1452
20
-116.164
11
77.05
21
-116.26
0
LINE
8
BLACK
6
CONTINUOUS
10
77.05
20
-116.26
11
76.8595
21
-116.355
0
LINE
8
BLACK
6
CONTINUOUS
10
76.8595
20
-116.355
11
76.669
21
-116.355
0
LINE
8
BLACK
6
CONTINUOUS
10
76.669
20
-116.355
11
76.4786
21
-116.26
0
LINE
8
BLACK
6
CONTINUOUS
10
76.4786
20
-116.26
11
76.3833
21
-116.164
0
LINE
8
BLACK
6
CONTINUOUS
10
76.3833
20
-116.164
11
76.2881
21
-115.974
0
LINE
8
BLACK
6
CONTINUOUS
10
76.2881
20
-115.974
11
76.1929
21
-115.593
0
LINE
8
BLACK
6
CONTINUOUS
10
76.1929
20
-115.593
11
76.1929
21
-115.117
0
LINE
8
BLACK
6
CONTINUOUS
10
76.1929
20
-115.117
11
76.2881
21
-114.736
0
LINE
8
BLACK
6
CONTINUOUS
10
76.2881
20
-114.736
11
76.3833
21
-114.545
0
LINE
8
BLACK
6
CONTINUOUS
10
76.3833
20
-114.545
11
76.4786
21
-114.45
0
LINE
8
BLACK
6
CONTINUOUS
10
76.4786
20
-114.45
11
76.669
21
-114.355
0
LINE
8
BLACK
6
CONTINUOUS
10
78.5738
20
-114.355
11
78.7643
21
-114.355
0
LINE
8
BLACK
6
CONTINUOUS
10
78.7643
20
-114.355
11
78.9548
21
-114.45
0
LINE
8
BLACK
6
CONTINUOUS
10
78.9548
20
-114.45
11
79.05
21
-114.545
0
LINE
8
BLACK
6
CONTINUOUS
10
79.05
20
-114.545
11
79.1452
21
-114.736
0
LINE
8
BLACK
6
CONTINUOUS
10
79.1452
20
-114.736
11
79.2405
21
-115.117
0
LINE
8
BLACK
6
CONTINUOUS
10
79.2405
20
-115.117
11
79.2405
21
-115.593
0
LINE
8
BLACK
6
CONTINUOUS
10
79.2405
20
-115.593
11
79.1452
21
-115.974
0
LINE
8
BLACK
6
CONTINUOUS
10
79.1452
20
-115.974
11
79.05
21
-116.164
0
LINE
8
BLACK
6
CONTINUOUS
10
79.05
20
-116.164
11
78.9548
21
-116.26
0
LINE
8
BLACK
6
CONTINUOUS
10
78.9548
20
-116.26
11
78.7643
21
-116.355
0
LINE
8
BLACK
6
CONTINUOUS
10
78.7643
20
-116.355
11
78.5738
21
-116.355
0
LINE
8
BLACK
6
CONTINUOUS
10
78.5738
20
-116.355
11
78.3833
21
-116.26
0
LINE
8
BLACK
6
CONTINUOUS
10
78.3833
20
-116.26
11
78.2881
21
-116.164
0
LINE
8
BLACK
6
CONTINUOUS
10
78.2881
20
-116.164
11
78.1929
21
-115.974
0
LINE
8
BLACK
6
CONTINUOUS
10
78.1929
20
-115.974
11
78.0976
21
-115.593
0
LINE
8
BLACK
6
CONTINUOUS
10
78.0976
20
-115.593
11
78.0976
21
-115.117
0
LINE
8
BLACK
6
CONTINUOUS
10
78.0976
20
-115.117
11
78.1929
21
-114.736
0
LINE
8
BLACK
6
CONTINUOUS
10
78.1929
20
-114.736
11
78.2881
21
-114.545
0
LINE
8
BLACK
6
CONTINUOUS
10
78.2881
20
-114.545
11
78.3833
21
-114.45
0
LINE
8
BLACK
6
CONTINUOUS
10
78.3833
20
-114.45
11
78.5738
21
-114.355
0
LINE
8
BLACK
6
CONTINUOUS
10
80.0976
20
-116.355
11
80.0976
21
-115.021
0
LINE
8
BLACK
6
CONTINUOUS
10
80.0976
20
-115.212
11
80.1929
21
-115.117
0
LINE
8
BLACK
6
CONTINUOUS
10
80.1929
20
-115.117
11
80.3833
21
-115.021
0
LINE
8
BLACK
6
CONTINUOUS
10
80.3833
20
-115.021
11
80.669
21
-115.021
0
LINE
8
BLACK
6
CONTINUOUS
10
80.669
20
-115.021
11
80.8595
21
-115.117
0
LINE
8
BLACK
6
CONTINUOUS
10
80.8595
20
-115.117
11
80.9548
21
-115.307
0
LINE
8
BLACK
6
CONTINUOUS
10
80.9548
20
-115.307
11
80.9548
21
-116.355
0
LINE
8
BLACK
6
CONTINUOUS
10
80.9548
20
-115.307
11
81.05
21
-115.117
0
LINE
8
BLACK
6
CONTINUOUS
10
81.05
20
-115.117
11
81.2405
21
-115.021
0
LINE
8
BLACK
6
CONTINUOUS
10
81.2405
20
-115.021
11
81.5262
21
-115.021
0
LINE
8
BLACK
6
CONTINUOUS
10
81.5262
20
-115.021
11
81.7167
21
-115.117
0
LINE
8
BLACK
6
CONTINUOUS
10
81.7167
20
-115.117
11
81.8119
21
-115.307
0
LINE
8
BLACK
6
CONTINUOUS
10
81.8119
20
-115.307
11
81.8119
21
-116.355
0
LINE
8
BLACK
6
CONTINUOUS
10
82.7643
20
-116.355
11
82.7643
21
-115.021
0
LINE
8
BLACK
6
CONTINUOUS
10
82.7643
20
-115.212
11
82.8595
21
-115.117
0
LINE
8
BLACK
6
CONTINUOUS
10
82.8595
20
-115.117
11
83.05
21
-115.021
0
LINE
8
BLACK
6
CONTINUOUS
10
83.05
20
-115.021
11
83.3357
21
-115.021
0
LINE
8
BLACK
6
CONTINUOUS
10
83.3357
20
-115.021
11
83.5262
21
-115.117
0
LINE
8
BLACK
6
CONTINUOUS
10
83.5262
20
-115.117
11
83.6214
21
-115.307
0
LINE
8
BLACK
6
CONTINUOUS
10
83.6214
20
-115.307
11
83.6214
21
-116.355
0
LINE
8
BLACK
6
CONTINUOUS
10
83.6214
20
-115.307
11
83.7167
21
-115.117
0
LINE
8
BLACK
6
CONTINUOUS
10
83.7167
20
-115.117
11
83.9071
21
-115.021
0
LINE
8
BLACK
6
CONTINUOUS
10
83.9071
20
-115.021
11
84.1929
21
-115.021
0
LINE
8
BLACK
6
CONTINUOUS
10
84.1929
20
-115.021
11
84.3833
21
-115.117
0
LINE
8
BLACK
6
CONTINUOUS
10
84.3833
20
-115.117
11
84.4786
21
-115.307
0
LINE
8
BLACK
6
CONTINUOUS
10
84.4786
20
-115.307
11
84.4786
21
-116.355
0
LINE
8
BLACK
6
CONTINUOUS
10
88.3833
20
-114.26
11
86.669
21
-116.831
0
LINE
8
BLACK
6
CONTINUOUS
10
90.9548
20
-114.355
11
91.1452
21
-114.355
0
LINE
8
BLACK
6
CONTINUOUS
10
91.1452
20
-114.355
11
91.3357
21
-114.45
0
LINE
8
BLACK
6
CONTINUOUS
10
91.3357
20
-114.45
11
91.431
21
-114.545
0
LINE
8
BLACK
6
CONTINUOUS
10
91.431
20
-114.545
11
91.5262
21
-114.736
0
LINE
8
BLACK
6
CONTINUOUS
10
91.5262
20
-114.736
11
91.6214
21
-115.117
0
LINE
8
BLACK
6
CONTINUOUS
10
91.6214
20
-115.117
11
91.6214
21
-115.593
0
LINE
8
BLACK
6
CONTINUOUS
10
91.6214
20
-115.593
11
91.5262
21
-115.974
0
LINE
8
BLACK
6
CONTINUOUS
10
91.5262
20
-115.974
11
91.431
21
-116.164
0
LINE
8
BLACK
6
CONTINUOUS
10
91.431
20
-116.164
11
91.3357
21
-116.26
0
LINE
8
BLACK
6
CONTINUOUS
10
91.3357
20
-116.26
11
91.1452
21
-116.355
0
LINE
8
BLACK
6
CONTINUOUS
10
91.1452
20
-116.355
11
90.9548
21
-116.355
0
LINE
8
BLACK
6
CONTINUOUS
10
90.9548
20
-116.355
11
90.7643
21
-116.26
0
LINE
8
BLACK
6
CONTINUOUS
10
90.7643
20
-116.26
11
90.669
21
-116.164
0
LINE
8
BLACK
6
CONTINUOUS
10
90.669
20
-116.164
11
90.5738
21
-115.974
0
LINE
8
BLACK
6
CONTINUOUS
10
90.5738
20
-115.974
11
90.4786
21
-115.593
0
LINE
8
BLACK
6
CONTINUOUS
10
90.4786
20
-115.593
11
90.4786
21
-115.117
0
LINE
8
BLACK
6
CONTINUOUS
10
90.4786
20
-115.117
11
90.5738
21
-114.736
0
LINE
8
BLACK
6
CONTINUOUS
10
90.5738
20
-114.736
11
90.669
21
-114.545
0
LINE
8
BLACK
6
CONTINUOUS
10
90.669
20
-114.545
11
90.7643
21
-114.45
0
LINE
8
BLACK
6
CONTINUOUS
10
90.7643
20
-114.45
11
90.9548
21
-114.355
0
LINE
8
BLACK
6
CONTINUOUS
10
92.4786
20
-116.164
11
92.5738
21
-116.26
0
LINE
8
BLACK
6
CONTINUOUS
10
92.5738
20
-116.26
11
92.4786
21
-116.355
0
LINE
8
BLACK
6
CONTINUOUS
10
92.4786
20
-116.355
11
92.3833
21
-116.26
0
LINE
8
BLACK
6
CONTINUOUS
10
92.3833
20
-116.26
11
92.4786
21
-116.164
0
LINE
8
BLACK
6
CONTINUOUS
10
92.4786
20
-116.164
11
92.4786
21
-116.355
0
LINE
8
BLACK
6
CONTINUOUS
10
93.8119
20
-114.355
11
94.0024
21
-114.355
0
LINE
8
BLACK
6
CONTINUOUS
10
94.0024
20
-114.355
11
94.1929
21
-114.45
0
LINE
8
BLACK
6
CONTINUOUS
10
94.1929
20
-114.45
11
94.2881
21
-114.545
0
LINE
8
BLACK
6
CONTINUOUS
10
94.2881
20
-114.545
11
94.3833
21
-114.736
0
LINE
8
BLACK
6
CONTINUOUS
10
94.3833
20
-114.736
11
94.4786
21
-115.117
0
LINE
8
BLACK
6
CONTINUOUS
10
94.4786
20
-115.117
11
94.4786
21
-115.593
0
LINE
8
BLACK
6
CONTINUOUS
10
94.4786
20
-115.593
11
94.3833
21
-115.974
0
LINE
8
BLACK
6
CONTINUOUS
10
94.3833
20
-115.974
11
94.2881
21
-116.164
0
LINE
8
BLACK
6
CONTINUOUS
10
94.2881
20
-116.164
11
94.1929
21
-116.26
0
LINE
8
BLACK
6
CONTINUOUS
10
94.1929
20
-116.26
11
94.0024
21
-116.355
0
LINE
8
BLACK
6
CONTINUOUS
10
94.0024
20
-116.355
11
93.8119
21
-116.355
0
LINE
8
BLACK
6
CONTINUOUS
10
93.8119
20
-116.355
11
93.6214
21
-116.26
0
LINE
8
BLACK
6
CONTINUOUS
10
93.6214
20
-116.26
11
93.5262
21
-116.164
0
LINE
8
BLACK
6
CONTINUOUS
10
93.5262
20
-116.164
11
93.431
21
-115.974
0
LINE
8
BLACK
6
CONTINUOUS
10
93.431
20
-115.974
11
93.3357
21
-115.593
0
LINE
8
BLACK
6
CONTINUOUS
10
93.3357
20
-115.593
11
93.3357
21
-115.117
0
LINE
8
BLACK
6
CONTINUOUS
10
93.3357
20
-115.117
11
93.431
21
-114.736
0
LINE
8
BLACK
6
CONTINUOUS
10
93.431
20
-114.736
11
93.5262
21
-114.545
0
LINE
8
BLACK
6
CONTINUOUS
10
93.5262
20
-114.545
11
93.6214
21
-114.45
0
LINE
8
BLACK
6
CONTINUOUS
10
93.6214
20
-114.45
11
93.8119
21
-114.355
0
LINE
8
BLACK
6
CONTINUOUS
10
96.2881
20
-114.355
11
95.3357
21
-114.355
0
LINE
8
BLACK
6
CONTINUOUS
10
95.3357
20
-114.355
11
95.2405
21
-115.307
0
LINE
8
BLACK
6
CONTINUOUS
10
95.2405
20
-115.307
11
95.3357
21
-115.212
0
LINE
8
BLACK
6
CONTINUOUS
10
95.3357
20
-115.212
11
95.5262
21
-115.117
0
LINE
8
BLACK
6
CONTINUOUS
10
95.5262
20
-115.117
11
96.0024
21
-115.117
0
LINE
8
BLACK
6
CONTINUOUS
10
96.0024
20
-115.117
11
96.1929
21
-115.212
0
LINE
8
BLACK
6
CONTINUOUS
10
96.1929
20
-115.212
11
96.2881
21
-115.307
0
LINE
8
BLACK
6
CONTINUOUS
10
96.2881
20
-115.307
11
96.3833
21
-115.498
0
LINE
8
BLACK
6
CONTINUOUS
10
96.3833
20
-115.498
11
96.3833
21
-115.974
0
LINE
8
BLACK
6
CONTINUOUS
10
96.3833
20
-115.974
11
96.2881
21
-116.164
0
LINE
8
BLACK
6
CONTINUOUS
10
96.2881
20
-116.164
11
96.1929
21
-116.26
0
LINE
8
BLACK
6
CONTINUOUS
10
96.1929
20
-116.26
11
96.0024
21
-116.355
0
LINE
8
BLACK
6
CONTINUOUS
10
96.0024
20
-116.355
11
95.5262
21
-116.355
0
LINE
8
BLACK
6
CONTINUOUS
10
95.5262
20
-116.355
11
95.3357
21
-116.26
0
LINE
8
BLACK
6
CONTINUOUS
10
95.3357
20
-116.26
11
95.2405
21
-116.164
0
LINE
8
BLACK
6
CONTINUOUS
10
97.3357
20
-116.355
11
97.7167
21
-116.355
0
LINE
8
BLACK
6
CONTINUOUS
10
97.7167
20
-116.355
11
97.9071
21
-116.26
0
LINE
8
BLACK
6
CONTINUOUS
10
97.9071
20
-116.26
11
98.0024
21
-116.164
0
LINE
8
BLACK
6
CONTINUOUS
10
98.0024
20
-116.164
11
98.1929
21
-115.879
0
LINE
8
BLACK
6
CONTINUOUS
10
98.1929
20
-115.879
11
98.2881
21
-115.498
0
LINE
8
BLACK
6
CONTINUOUS
10
98.2881
20
-115.498
11
98.2881
21
-114.736
0
LINE
8
BLACK
6
CONTINUOUS
10
98.2881
20
-114.736
11
98.1929
21
-114.545
0
LINE
8
BLACK
6
CONTINUOUS
10
98.1929
20
-114.545
11
98.0976
21
-114.45
0
LINE
8
BLACK
6
CONTINUOUS
10
98.0976
20
-114.45
11
97.9071
21
-114.355
0
LINE
8
BLACK
6
CONTINUOUS
10
97.9071
20
-114.355
11
97.5262
21
-114.355
0
LINE
8
BLACK
6
CONTINUOUS
10
97.5262
20
-114.355
11
97.3357
21
-114.45
0
LINE
8
BLACK
6
CONTINUOUS
10
97.3357
20
-114.45
11
97.2405
21
-114.545
0
LINE
8
BLACK
6
CONTINUOUS
10
97.2405
20
-114.545
11
97.1452
21
-114.736
0
LINE
8
BLACK
6
CONTINUOUS
10
97.1452
20
-114.736
11
97.1452
21
-115.212
0
LINE
8
BLACK
6
CONTINUOUS
10
97.1452
20
-115.212
11
97.2405
21
-115.402
0
LINE
8
BLACK
6
CONTINUOUS
10
97.2405
20
-115.402
11
97.3357
21
-115.498
0
LINE
8
BLACK
6
CONTINUOUS
10
97.3357
20
-115.498
11
97.5262
21
-115.593
0
LINE
8
BLACK
6
CONTINUOUS
10
97.5262
20
-115.593
11
97.9071
21
-115.593
0
LINE
8
BLACK
6
CONTINUOUS
10
97.9071
20
-115.593
11
98.0976
21
-115.498
0
LINE
8
BLACK
6
CONTINUOUS
10
98.0976
20
-115.498
11
98.1929
21
-115.402
0
LINE
8
BLACK
6
CONTINUOUS
10
98.1929
20
-115.402
11
98.2881
21
-115.212
0
LINE
8
BLACK
6
CONTINUOUS
10
100.193
20
-116.355
11
99.05
21
-116.355
0
LINE
8
BLACK
6
CONTINUOUS
10
99.6214
20
-116.355
11
99.6214
21
-114.355
0
LINE
8
BLACK
6
CONTINUOUS
10
99.6214
20
-114.355
11
99.431
21
-114.64
0
LINE
8
BLACK
6
CONTINUOUS
10
99.431
20
-114.64
11
99.2405
21
-114.831
0
LINE
8
BLACK
6
CONTINUOUS
10
99.2405
20
-114.831
11
99.05
21
-114.926
0
LINE
8
BLACK
6
CONTINUOUS
10
100.955
20
-114.355
11
100.955
21
-114.736
0
LINE
8
BLACK
6
CONTINUOUS
10
101.717
20
-114.355
11
101.717
21
-114.736
0
LINE
8
BLACK
6
CONTINUOUS
10
104.669
20
-117.117
11
104.574
21
-117.021
0
LINE
8
BLACK
6
CONTINUOUS
10
104.574
20
-117.021
11
104.383
21
-116.736
0
LINE
8
BLACK
6
CONTINUOUS
10
104.383
20
-116.736
11
104.288
21
-116.545
0
LINE
8
BLACK
6
CONTINUOUS
10
104.288
20
-116.545
11
104.193
21
-116.26
0
LINE
8
BLACK
6
CONTINUOUS
10
104.193
20
-116.26
11
104.098
21
-115.783
0
LINE
8
BLACK
6
CONTINUOUS
10
104.098
20
-115.783
11
104.098
21
-115.402
0
LINE
8
BLACK
6
CONTINUOUS
10
104.098
20
-115.402
11
104.193
21
-114.926
0
LINE
8
BLACK
6
CONTINUOUS
10
104.193
20
-114.926
11
104.288
21
-114.64
0
LINE
8
BLACK
6
CONTINUOUS
10
104.288
20
-114.64
11
104.383
21
-114.45
0
LINE
8
BLACK
6
CONTINUOUS
10
104.383
20
-114.45
11
104.574
21
-114.164
0
LINE
8
BLACK
6
CONTINUOUS
10
104.574
20
-114.164
11
104.669
21
-114.069
0
LINE
8
BLACK
6
CONTINUOUS
10
106.288
20
-115.021
11
106.288
21
-116.355
0
LINE
8
BLACK
6
CONTINUOUS
10
105.812
20
-114.26
11
105.336
21
-115.688
0
LINE
8
BLACK
6
CONTINUOUS
10
105.336
20
-115.688
11
106.574
21
-115.688
0
LINE
8
BLACK
6
CONTINUOUS
10
108.86
20
-116.355
11
108.86
21
-114.355
0
LINE
8
BLACK
6
CONTINUOUS
10
109.717
20
-116.355
11
109.717
21
-115.307
0
LINE
8
BLACK
6
CONTINUOUS
10
109.717
20
-115.307
11
109.621
21
-115.117
0
LINE
8
BLACK
6
CONTINUOUS
10
109.621
20
-115.117
11
109.431
21
-115.021
0
LINE
8
BLACK
6
CONTINUOUS
10
109.431
20
-115.021
11
109.145
21
-115.021
0
LINE
8
BLACK
6
CONTINUOUS
10
109.145
20
-115.021
11
108.955
21
-115.117
0
LINE
8
BLACK
6
CONTINUOUS
10
108.955
20
-115.117
11
108.86
21
-115.212
0
LINE
8
BLACK
6
CONTINUOUS
10
110.955
20
-116.355
11
110.764
21
-116.26
0
LINE
8
BLACK
6
CONTINUOUS
10
110.764
20
-116.26
11
110.669
21
-116.164
0
LINE
8
BLACK
6
CONTINUOUS
10
110.669
20
-116.164
11
110.574
21
-115.974
0
LINE
8
BLACK
6
CONTINUOUS
10
110.574
20
-115.974
11
110.574
21
-115.402
0
LINE
8
BLACK
6
CONTINUOUS
10
110.574
20
-115.402
11
110.669
21
-115.212
0
LINE
8
BLACK
6
CONTINUOUS
10
110.669
20
-115.212
11
110.764
21
-115.117
0
LINE
8
BLACK
6
CONTINUOUS
10
110.764
20
-115.117
11
110.955
21
-115.021
0
LINE
8
BLACK
6
CONTINUOUS
10
110.955
20
-115.021
11
111.24
21
-115.021
0
LINE
8
BLACK
6
CONTINUOUS
10
111.24
20
-115.021
11
111.431
21
-115.117
0
LINE
8
BLACK
6
CONTINUOUS
10
111.431
20
-115.117
11
111.526
21
-115.212
0
LINE
8
BLACK
6
CONTINUOUS
10
111.526
20
-115.212
11
111.621
21
-115.402
0
LINE
8
BLACK
6
CONTINUOUS
10
111.621
20
-115.402
11
111.621
21
-115.974
0
LINE
8
BLACK
6
CONTINUOUS
10
111.621
20
-115.974
11
111.526
21
-116.164
0
LINE
8
BLACK
6
CONTINUOUS
10
111.526
20
-116.164
11
111.431
21
-116.26
0
LINE
8
BLACK
6
CONTINUOUS
10
111.431
20
-116.26
11
111.24
21
-116.355
0
LINE
8
BLACK
6
CONTINUOUS
10
111.24
20
-116.355
11
110.955
21
-116.355
0
LINE
8
BLACK
6
CONTINUOUS
10
112.764
20
-116.355
11
112.574
21
-116.26
0
LINE
8
BLACK
6
CONTINUOUS
10
112.574
20
-116.26
11
112.479
21
-116.069
0
LINE
8
BLACK
6
CONTINUOUS
10
112.479
20
-116.069
11
112.479
21
-114.355
0
LINE
8
BLACK
6
CONTINUOUS
10
114.288
20
-116.26
11
114.098
21
-116.355
0
LINE
8
BLACK
6
CONTINUOUS
10
114.098
20
-116.355
11
113.717
21
-116.355
0
LINE
8
BLACK
6
CONTINUOUS
10
113.717
20
-116.355
11
113.526
21
-116.26
0
LINE
8
BLACK
6
CONTINUOUS
10
113.526
20
-116.26
11
113.431
21
-116.069
0
LINE
8
BLACK
6
CONTINUOUS
10
113.431
20
-116.069
11
113.431
21
-115.307
0
LINE
8
BLACK
6
CONTINUOUS
10
113.431
20
-115.307
11
113.526
21
-115.117
0
LINE
8
BLACK
6
CONTINUOUS
10
113.526
20
-115.117
11
113.717
21
-115.021
0
LINE
8
BLACK
6
CONTINUOUS
10
113.717
20
-115.021
11
114.098
21
-115.021
0
LINE
8
BLACK
6
CONTINUOUS
10
114.098
20
-115.021
11
114.288
21
-115.117
0
LINE
8
BLACK
6
CONTINUOUS
10
114.288
20
-115.117
11
114.383
21
-115.307
0
LINE
8
BLACK
6
CONTINUOUS
10
114.383
20
-115.307
11
114.383
21
-115.498
0
LINE
8
BLACK
6
CONTINUOUS
10
114.383
20
-115.498
11
113.431
21
-115.688
0
LINE
8
BLACK
6
CONTINUOUS
10
115.145
20
-116.26
11
115.336
21
-116.355
0
LINE
8
BLACK
6
CONTINUOUS
10
115.336
20
-116.355
11
115.717
21
-116.355
0
LINE
8
BLACK
6
CONTINUOUS
10
115.717
20
-116.355
11
115.907
21
-116.26
0
LINE
8
BLACK
6
CONTINUOUS
10
115.907
20
-116.26
11
116.002
21
-116.069
0
LINE
8
BLACK
6
CONTINUOUS
10
116.002
20
-116.069
11
116.002
21
-115.974
0
LINE
8
BLACK
6
CONTINUOUS
10
116.002
20
-115.974
11
115.907
21
-115.783
0
LINE
8
BLACK
6
CONTINUOUS
10
115.907
20
-115.783
11
115.717
21
-115.688
0
LINE
8
BLACK
6
CONTINUOUS
10
115.717
20
-115.688
11
115.431
21
-115.688
0
LINE
8
BLACK
6
CONTINUOUS
10
115.431
20
-115.688
11
115.24
21
-115.593
0
LINE
8
BLACK
6
CONTINUOUS
10
115.24
20
-115.593
11
115.145
21
-115.402
0
LINE
8
BLACK
6
CONTINUOUS
10
115.145
20
-115.402
11
115.145
21
-115.307
0
LINE
8
BLACK
6
CONTINUOUS
10
115.145
20
-115.307
11
115.24
21
-115.117
0
LINE
8
BLACK
6
CONTINUOUS
10
115.24
20
-115.117
11
115.431
21
-115.021
0
LINE
8
BLACK
6
CONTINUOUS
10
115.431
20
-115.021
11
115.717
21
-115.021
0
LINE
8
BLACK
6
CONTINUOUS
10
115.717
20
-115.021
11
115.907
21
-115.117
0
LINE
8
BLACK
6
CONTINUOUS
10
116.669
20
-117.117
11
116.764
21
-117.021
0
LINE
8
BLACK
6
CONTINUOUS
10
116.764
20
-117.021
11
116.955
21
-116.736
0
LINE
8
BLACK
6
CONTINUOUS
10
116.955
20
-116.736
11
117.05
21
-116.545
0
LINE
8
BLACK
6
CONTINUOUS
10
117.05
20
-116.545
11
117.145
21
-116.26
0
LINE
8
BLACK
6
CONTINUOUS
10
117.145
20
-116.26
11
117.24
21
-115.783
0
LINE
8
BLACK
6
CONTINUOUS
10
117.24
20
-115.783
11
117.24
21
-115.402
0
LINE
8
BLACK
6
CONTINUOUS
10
117.24
20
-115.402
11
117.145
21
-114.926
0
LINE
8
BLACK
6
CONTINUOUS
10
117.145
20
-114.926
11
117.05
21
-114.64
0
LINE
8
BLACK
6
CONTINUOUS
10
117.05
20
-114.64
11
116.955
21
-114.45
0
LINE
8
BLACK
6
CONTINUOUS
10
116.955
20
-114.45
11
116.764
21
-114.164
0
LINE
8
BLACK
6
CONTINUOUS
10
116.764
20
-114.164
11
116.669
21
-114.069
0
LINE
8
BLACK
6
CONTINUOUS
10
120.288
20
-117.117
11
120.193
21
-117.021
0
LINE
8
BLACK
6
CONTINUOUS
10
120.193
20
-117.021
11
120.002
21
-116.736
0
LINE
8
BLACK
6
CONTINUOUS
10
120.002
20
-116.736
11
119.907
21
-116.545
0
LINE
8
BLACK
6
CONTINUOUS
10
119.907
20
-116.545
11
119.812
21
-116.26
0
LINE
8
BLACK
6
CONTINUOUS
10
119.812
20
-116.26
11
119.717
21
-115.783
0
LINE
8
BLACK
6
CONTINUOUS
10
119.717
20
-115.783
11
119.717
21
-115.402
0
LINE
8
BLACK
6
CONTINUOUS
10
119.717
20
-115.402
11
119.812
21
-114.926
0
LINE
8
BLACK
6
CONTINUOUS
10
119.812
20
-114.926
11
119.907
21
-114.64
0
LINE
8
BLACK
6
CONTINUOUS
10
119.907
20
-114.64
11
120.002
21
-114.45
0
LINE
8
BLACK
6
CONTINUOUS
10
120.002
20
-114.45
11
120.193
21
-114.164
0
LINE
8
BLACK
6
CONTINUOUS
10
120.193
20
-114.164
11
120.288
21
-114.069
0
LINE
8
BLACK
6
CONTINUOUS
10
121.05
20
-115.021
11
121.05
21
-116.355
0
LINE
8
BLACK
6
CONTINUOUS
10
121.05
20
-115.212
11
121.145
21
-115.117
0
LINE
8
BLACK
6
CONTINUOUS
10
121.145
20
-115.117
11
121.336
21
-115.021
0
LINE
8
BLACK
6
CONTINUOUS
10
121.336
20
-115.021
11
121.621
21
-115.021
0
LINE
8
BLACK
6
CONTINUOUS
10
121.621
20
-115.021
11
121.812
21
-115.117
0
LINE
8
BLACK
6
CONTINUOUS
10
121.812
20
-115.117
11
121.907
21
-115.307
0
LINE
8
BLACK
6
CONTINUOUS
10
121.907
20
-115.307
11
121.907
21
-116.355
0
LINE
8
BLACK
6
CONTINUOUS
10
123.145
20
-116.355
11
122.955
21
-116.26
0
LINE
8
BLACK
6
CONTINUOUS
10
122.955
20
-116.26
11
122.86
21
-116.164
0
LINE
8
BLACK
6
CONTINUOUS
10
122.86
20
-116.164
11
122.764
21
-115.974
0
LINE
8
BLACK
6
CONTINUOUS
10
122.764
20
-115.974
11
122.764
21
-115.402
0
LINE
8
BLACK
6
CONTINUOUS
10
122.764
20
-115.402
11
122.86
21
-115.212
0
LINE
8
BLACK
6
CONTINUOUS
10
122.86
20
-115.212
11
122.955
21
-115.117
0
LINE
8
BLACK
6
CONTINUOUS
10
122.955
20
-115.117
11
123.145
21
-115.021
0
LINE
8
BLACK
6
CONTINUOUS
10
123.145
20
-115.021
11
123.431
21
-115.021
0
LINE
8
BLACK
6
CONTINUOUS
10
123.431
20
-115.021
11
123.621
21
-115.117
0
LINE
8
BLACK
6
CONTINUOUS
10
123.621
20
-115.117
11
123.717
21
-115.212
0
LINE
8
BLACK
6
CONTINUOUS
10
123.717
20
-115.212
11
123.812
21
-115.402
0
LINE
8
BLACK
6
CONTINUOUS
10
123.812
20
-115.402
11
123.812
21
-115.974
0
LINE
8
BLACK
6
CONTINUOUS
10
123.812
20
-115.974
11
123.717
21
-116.164
0
LINE
8
BLACK
6
CONTINUOUS
10
123.717
20
-116.164
11
123.621
21
-116.26
0
LINE
8
BLACK
6
CONTINUOUS
10
123.621
20
-116.26
11
123.431
21
-116.355
0
LINE
8
BLACK
6
CONTINUOUS
10
123.431
20
-116.355
11
123.145
21
-116.355
0
LINE
8
BLACK
6
CONTINUOUS
10
124.383
20
-115.021
11
125.145
21
-115.021
0
LINE
8
BLACK
6
CONTINUOUS
10
124.669
20
-114.355
11
124.669
21
-116.069
0
LINE
8
BLACK
6
CONTINUOUS
10
124.669
20
-116.069
11
124.764
21
-116.26
0
LINE
8
BLACK
6
CONTINUOUS
10
124.764
20
-116.26
11
124.955
21
-116.355
0
LINE
8
BLACK
6
CONTINUOUS
10
124.955
20
-116.355
11
125.145
21
-116.355
0
LINE
8
BLACK
6
CONTINUOUS
10
127.336
20
-115.021
11
127.336
21
-117.021
0
LINE
8
BLACK
6
CONTINUOUS
10
127.336
20
-115.117
11
127.526
21
-115.021
0
LINE
8
BLACK
6
CONTINUOUS
10
127.526
20
-115.021
11
127.907
21
-115.021
0
LINE
8
BLACK
6
CONTINUOUS
10
127.907
20
-115.021
11
128.098
21
-115.117
0
LINE
8
BLACK
6
CONTINUOUS
10
128.098
20
-115.117
11
128.193
21
-115.212
0
LINE
8
BLACK
6
CONTINUOUS
10
128.193
20
-115.212
11
128.288
21
-115.402
0
LINE
8
BLACK
6
CONTINUOUS
10
128.288
20
-115.402
11
128.288
21
-115.974
0
LINE
8
BLACK
6
CONTINUOUS
10
128.288
20
-115.974
11
128.193
21
-116.164
0
LINE
8
BLACK
6
CONTINUOUS
10
128.193
20
-116.164
11
128.098
21
-116.26
0
LINE
8
BLACK
6
CONTINUOUS
10
128.098
20
-116.26
11
127.907
21
-116.355
0
LINE
8
BLACK
6
CONTINUOUS
10
127.907
20
-116.355
11
127.526
21
-116.355
0
LINE
8
BLACK
6
CONTINUOUS
10
127.526
20
-116.355
11
127.336
21
-116.26
0
LINE
8
BLACK
6
CONTINUOUS
10
129.431
20
-116.355
11
129.24
21
-116.26
0
LINE
8
BLACK
6
CONTINUOUS
10
129.24
20
-116.26
11
129.145
21
-116.069
0
LINE
8
BLACK
6
CONTINUOUS
10
129.145
20
-116.069
11
129.145
21
-114.355
0
LINE
8
BLACK
6
CONTINUOUS
10
131.05
20
-116.355
11
131.05
21
-115.307
0
LINE
8
BLACK
6
CONTINUOUS
10
131.05
20
-115.307
11
130.955
21
-115.117
0
LINE
8
BLACK
6
CONTINUOUS
10
130.955
20
-115.117
11
130.764
21
-115.021
0
LINE
8
BLACK
6
CONTINUOUS
10
130.764
20
-115.021
11
130.383
21
-115.021
0
LINE
8
BLACK
6
CONTINUOUS
10
130.383
20
-115.021
11
130.193
21
-115.117
0
LINE
8
BLACK
6
CONTINUOUS
10
131.05
20
-116.26
11
130.86
21
-116.355
0
LINE
8
BLACK
6
CONTINUOUS
10
130.86
20
-116.355
11
130.383
21
-116.355
0
LINE
8
BLACK
6
CONTINUOUS
10
130.383
20
-116.355
11
130.193
21
-116.26
0
LINE
8
BLACK
6
CONTINUOUS
10
130.193
20
-116.26
11
130.098
21
-116.069
0
LINE
8
BLACK
6
CONTINUOUS
10
130.098
20
-116.069
11
130.098
21
-115.879
0
LINE
8
BLACK
6
CONTINUOUS
10
130.098
20
-115.879
11
130.193
21
-115.688
0
LINE
8
BLACK
6
CONTINUOUS
10
130.193
20
-115.688
11
130.383
21
-115.593
0
LINE
8
BLACK
6
CONTINUOUS
10
130.383
20
-115.593
11
130.86
21
-115.593
0
LINE
8
BLACK
6
CONTINUOUS
10
130.86
20
-115.593
11
131.05
21
-115.498
0
LINE
8
BLACK
6
CONTINUOUS
10
131.717
20
-115.021
11
132.479
21
-115.021
0
LINE
8
BLACK
6
CONTINUOUS
10
132.002
20
-114.355
11
132.002
21
-116.069
0
LINE
8
BLACK
6
CONTINUOUS
10
132.002
20
-116.069
11
132.098
21
-116.26
0
LINE
8
BLACK
6
CONTINUOUS
10
132.098
20
-116.26
11
132.288
21
-116.355
0
LINE
8
BLACK
6
CONTINUOUS
10
132.288
20
-116.355
11
132.479
21
-116.355
0
LINE
8
BLACK
6
CONTINUOUS
10
133.907
20
-116.26
11
133.717
21
-116.355
0
LINE
8
BLACK
6
CONTINUOUS
10
133.717
20
-116.355
11
133.336
21
-116.355
0
LINE
8
BLACK
6
CONTINUOUS
10
133.336
20
-116.355
11
133.145
21
-116.26
0
LINE
8
BLACK
6
CONTINUOUS
10
133.145
20
-116.26
11
133.05
21
-116.069
0
LINE
8
BLACK
6
CONTINUOUS
10
133.05
20
-116.069
11
133.05
21
-115.307
0
LINE
8
BLACK
6
CONTINUOUS
10
133.05
20
-115.307
11
133.145
21
-115.117
0
LINE
8
BLACK
6
CONTINUOUS
10
133.145
20
-115.117
11
133.336
21
-115.021
0
LINE
8
BLACK
6
CONTINUOUS
10
133.336
20
-115.021
11
133.717
21
-115.021
0
LINE
8
BLACK
6
CONTINUOUS
10
133.717
20
-115.021
11
133.907
21
-115.117
0
LINE
8
BLACK
6
CONTINUOUS
10
133.907
20
-115.117
11
134.002
21
-115.307
0
LINE
8
BLACK
6
CONTINUOUS
10
134.002
20
-115.307
11
134.002
21
-115.498
0
LINE
8
BLACK
6
CONTINUOUS
10
134.002
20
-115.498
11
133.05
21
-115.688
0
LINE
8
BLACK
6
CONTINUOUS
10
135.717
20
-116.355
11
135.717
21
-114.355
0
LINE
8
BLACK
6
CONTINUOUS
10
135.717
20
-116.26
11
135.526
21
-116.355
0
LINE
8
BLACK
6
CONTINUOUS
10
135.526
20
-116.355
11
135.145
21
-116.355
0
LINE
8
BLACK
6
CONTINUOUS
10
135.145
20
-116.355
11
134.955
21
-116.26
0
LINE
8
BLACK
6
CONTINUOUS
10
134.955
20
-116.26
11
134.86
21
-116.164
0
LINE
8
BLACK
6
CONTINUOUS
10
134.86
20
-116.164
11
134.764
21
-115.974
0
LINE
8
BLACK
6
CONTINUOUS
10
134.764
20
-115.974
11
134.764
21
-115.402
0
LINE
8
BLACK
6
CONTINUOUS
10
134.764
20
-115.402
11
134.86
21
-115.212
0
LINE
8
BLACK
6
CONTINUOUS
10
134.86
20
-115.212
11
134.955
21
-115.117
0
LINE
8
BLACK
6
CONTINUOUS
10
134.955
20
-115.117
11
135.145
21
-115.021
0
LINE
8
BLACK
6
CONTINUOUS
10
135.145
20
-115.021
11
135.526
21
-115.021
0
LINE
8
BLACK
6
CONTINUOUS
10
135.526
20
-115.021
11
135.717
21
-115.117
0
LINE
8
BLACK
6
CONTINUOUS
10
136.479
20
-117.117
11
136.574
21
-117.021
0
LINE
8
BLACK
6
CONTINUOUS
10
136.574
20
-117.021
11
136.764
21
-116.736
0
LINE
8
BLACK
6
CONTINUOUS
10
136.764
20
-116.736
11
136.86
21
-116.545
0
LINE
8
BLACK
6
CONTINUOUS
10
136.86
20
-116.545
11
136.955
21
-116.26
0
LINE
8
BLACK
6
CONTINUOUS
10
136.955
20
-116.26
11
137.05
21
-115.783
0
LINE
8
BLACK
6
CONTINUOUS
10
137.05
20
-115.783
11
137.05
21
-115.402
0
LINE
8
BLACK
6
CONTINUOUS
10
137.05
20
-115.402
11
136.955
21
-114.926
0
LINE
8
BLACK
6
CONTINUOUS
10
136.955
20
-114.926
11
136.86
21
-114.64
0
LINE
8
BLACK
6
CONTINUOUS
10
136.86
20
-114.64
11
136.764
21
-114.45
0
LINE
8
BLACK
6
CONTINUOUS
10
136.764
20
-114.45
11
136.574
21
-114.164
0
LINE
8
BLACK
6
CONTINUOUS
10
136.574
20
-114.164
11
136.479
21
-114.069
0
CIRCLE
8
BLACK
10
68.05
20
-118.15
40
0.9
0
LINE
8
BLACK
6
CONTINUOUS
10
72.5738
20
-119.055
11
71.431
21
-119.055
0
LINE
8
BLACK
6
CONTINUOUS
10
72.0024
20
-119.055
11
72.0024
21
-117.055
0
LINE
8
BLACK
6
CONTINUOUS
10
72.0024
20
-117.055
11
71.8119
21
-117.34
0
LINE
8
BLACK
6
CONTINUOUS
10
71.8119
20
-117.34
11
71.6214
21
-117.531
0
LINE
8
BLACK
6
CONTINUOUS
10
71.6214
20
-117.531
11
71.431
21
-117.626
0
LINE
8
BLACK
6
CONTINUOUS
10
73.431
20
-118.864
11
73.5262
21
-118.96
0
LINE
8
BLACK
6
CONTINUOUS
10
73.5262
20
-118.96
11
73.431
21
-119.055
0
LINE
8
BLACK
6
CONTINUOUS
10
73.431
20
-119.055
11
73.3357
21
-118.96
0
LINE
8
BLACK
6
CONTINUOUS
10
73.3357
20
-118.96
11
73.431
21
-118.864
0
LINE
8
BLACK
6
CONTINUOUS
10
73.431
20
-118.864
11
73.431
21
-119.055
0
LINE
8
BLACK
6
CONTINUOUS
10
74.669
20
-117.912
11
74.4786
21
-117.817
0
LINE
8
BLACK
6
CONTINUOUS
10
74.4786
20
-117.817
11
74.3833
21
-117.721
0
LINE
8
BLACK
6
CONTINUOUS
10
74.3833
20
-117.721
11
74.2881
21
-117.531
0
LINE
8
BLACK
6
CONTINUOUS
10
74.2881
20
-117.531
11
74.2881
21
-117.436
0
LINE
8
BLACK
6
CONTINUOUS
10
74.2881
20
-117.436
11
74.3833
21
-117.245
0
LINE
8
BLACK
6
CONTINUOUS
10
74.3833
20
-117.245
11
74.4786
21
-117.15
0
LINE
8
BLACK
6
CONTINUOUS
10
74.4786
20
-117.15
11
74.669
21
-117.055
0
LINE
8
BLACK
6
CONTINUOUS
10
74.669
20
-117.055
11
75.05
21
-117.055
0
LINE
8
BLACK
6
CONTINUOUS
10
75.05
20
-117.055
11
75.2405
21
-117.15
0
LINE
8
BLACK
6
CONTINUOUS
10
75.2405
20
-117.15
11
75.3357
21
-117.245
0
LINE
8
BLACK
6
CONTINUOUS
10
75.3357
20
-117.245
11
75.431
21
-117.436
0
LINE
8
BLACK
6
CONTINUOUS
10
75.431
20
-117.436
11
75.431
21
-117.531
0
LINE
8
BLACK
6
CONTINUOUS
10
75.431
20
-117.531
11
75.3357
21
-117.721
0
LINE
8
BLACK
6
CONTINUOUS
10
75.3357
20
-117.721
11
75.2405
21
-117.817
0
LINE
8
BLACK
6
CONTINUOUS
10
75.2405
20
-117.817
11
75.05
21
-117.912
0
LINE
8
BLACK
6
CONTINUOUS
10
75.05
20
-117.912
11
74.669
21
-117.912
0
LINE
8
BLACK
6
CONTINUOUS
10
74.669
20
-117.912
11
74.4786
21
-118.007
0
LINE
8
BLACK
6
CONTINUOUS
10
74.4786
20
-118.007
11
74.3833
21
-118.102
0
LINE
8
BLACK
6
CONTINUOUS
10
74.3833
20
-118.102
11
74.2881
21
-118.293
0
LINE
8
BLACK
6
CONTINUOUS
10
74.2881
20
-118.293
11
74.2881
21
-118.674
0
LINE
8
BLACK
6
CONTINUOUS
10
74.2881
20
-118.674
11
74.3833
21
-118.864
0
LINE
8
BLACK
6
CONTINUOUS
10
74.3833
20
-118.864
11
74.4786
21
-118.96
0
LINE
8
BLACK
6
CONTINUOUS
10
74.4786
20
-118.96
11
74.669
21
-119.055
0
LINE
8
BLACK
6
CONTINUOUS
10
74.669
20
-119.055
11
75.05
21
-119.055
0
LINE
8
BLACK
6
CONTINUOUS
10
75.05
20
-119.055
11
75.2405
21
-118.96
0
LINE
8
BLACK
6
CONTINUOUS
10
75.2405
20
-118.96
11
75.3357
21
-118.864
0
LINE
8
BLACK
6
CONTINUOUS
10
75.3357
20
-118.864
11
75.431
21
-118.674
0
LINE
8
BLACK
6
CONTINUOUS
10
75.431
20
-118.674
11
75.431
21
-118.293
0
LINE
8
BLACK
6
CONTINUOUS
10
75.431
20
-118.293
11
75.3357
21
-118.102
0
LINE
8
BLACK
6
CONTINUOUS
10
75.3357
20
-118.102
11
75.2405
21
-118.007
0
LINE
8
BLACK
6
CONTINUOUS
10
75.2405
20
-118.007
11
75.05
21
-117.912
0
LINE
8
BLACK
6
CONTINUOUS
10
76.669
20
-117.055
11
76.8595
21
-117.055
0
LINE
8
BLACK
6
CONTINUOUS
10
76.8595
20
-117.055
11
77.05
21
-117.15
0
LINE
8
BLACK
6
CONTINUOUS
10
77.05
20
-117.15
11
77.1452
21
-117.245
0
LINE
8
BLACK
6
CONTINUOUS
10
77.1452
20
-117.245
11
77.2405
21
-117.436
0
LINE
8
BLACK
6
CONTINUOUS
10
77.2405
20
-117.436
11
77.3357
21
-117.817
0
LINE
8
BLACK
6
CONTINUOUS
10
77.3357
20
-117.817
11
77.3357
21
-118.293
0
LINE
8
BLACK
6
CONTINUOUS
10
77.3357
20
-118.293
11
77.2405
21
-118.674
0
LINE
8
BLACK
6
CONTINUOUS
10
77.2405
20
-118.674
11
77.1452
21
-118.864
0
LINE
8
BLACK
6
CONTINUOUS
10
77.1452
20
-118.864
11
77.05
21
-118.96
0
LINE
8
BLACK
6
CONTINUOUS
10
77.05
20
-118.96
11
76.8595
21
-119.055
0
LINE
8
BLACK
6
CONTINUOUS
10
76.8595
20
-119.055
11
76.669
21
-119.055
0
LINE
8
BLACK
6
CONTINUOUS
10
76.669
20
-119.055
11
76.4786
21
-118.96
0
LINE
8
BLACK
6
CONTINUOUS
10
76.4786
20
-118.96
11
76.3833
21
-118.864
0
LINE
8
BLACK
6
CONTINUOUS
10
76.3833
20
-118.864
11
76.2881
21
-118.674
0
LINE
8
BLACK
6
CONTINUOUS
10
76.2881
20
-118.674
11
76.1929
21
-118.293
0
LINE
8
BLACK
6
CONTINUOUS
10
76.1929
20
-118.293
11
76.1929
21
-117.817
0
LINE
8
BLACK
6
CONTINUOUS
10
76.1929
20
-117.817
11
76.2881
21
-117.436
0
LINE
8
BLACK
6
CONTINUOUS
10
76.2881
20
-117.436
11
76.3833
21
-117.245
0
LINE
8
BLACK
6
CONTINUOUS
10
76.3833
20
-117.245
11
76.4786
21
-117.15
0
LINE
8
BLACK
6
CONTINUOUS
10
76.4786
20
-117.15
11
76.669
21
-117.055
0
LINE
8
BLACK
6
CONTINUOUS
10
78.5738
20
-117.055
11
78.7643
21
-117.055
0
LINE
8
BLACK
6
CONTINUOUS
10
78.7643
20
-117.055
11
78.9548
21
-117.15
0
LINE
8
BLACK
6
CONTINUOUS
10
78.9548
20
-117.15
11
79.05
21
-117.245
0
LINE
8
BLACK
6
CONTINUOUS
10
79.05
20
-117.245
11
79.1452
21
-117.436
0
LINE
8
BLACK
6
CONTINUOUS
10
79.1452
20
-117.436
11
79.2405
21
-117.817
0
LINE
8
BLACK
6
CONTINUOUS
10
79.2405
20
-117.817
11
79.2405
21
-118.293
0
LINE
8
BLACK
6
CONTINUOUS
10
79.2405
20
-118.293
11
79.1452
21
-118.674
0
LINE
8
BLACK
6
CONTINUOUS
10
79.1452
20
-118.674
11
79.05
21
-118.864
0
LINE
8
BLACK
6
CONTINUOUS
10
79.05
20
-118.864
11
78.9548
21
-118.96
0
LINE
8
BLACK
6
CONTINUOUS
10
78.9548
20
-118.96
11
78.7643
21
-119.055
0
LINE
8
BLACK
6
CONTINUOUS
10
78.7643
20
-119.055
11
78.5738
21
-119.055
0
LINE
8
BLACK
6
CONTINUOUS
10
78.5738
20
-119.055
11
78.3833
21
-118.96
0
LINE
8
BLACK
6
CONTINUOUS
10
78.3833
20
-118.96
11
78.2881
21
-118.864
0
LINE
8
BLACK
6
CONTINUOUS
10
78.2881
20
-118.864
11
78.1929
21
-118.674
0
LINE
8
BLACK
6
CONTINUOUS
10
78.1929
20
-118.674
11
78.0976
21
-118.293
0
LINE
8
BLACK
6
CONTINUOUS
10
78.0976
20
-118.293
11
78.0976
21
-117.817
0
LINE
8
BLACK
6
CONTINUOUS
10
78.0976
20
-117.817
11
78.1929
21
-117.436
0
LINE
8
BLACK
6
CONTINUOUS
10
78.1929
20
-117.436
11
78.2881
21
-117.245
0
LINE
8
BLACK
6
CONTINUOUS
10
78.2881
20
-117.245
11
78.3833
21
-117.15
0
LINE
8
BLACK
6
CONTINUOUS
10
78.3833
20
-117.15
11
78.5738
21
-117.055
0
LINE
8
BLACK
6
CONTINUOUS
10
80.0976
20
-119.055
11
80.0976
21
-117.721
0
LINE
8
BLACK
6
CONTINUOUS
10
80.0976
20
-117.912
11
80.1929
21
-117.817
0
LINE
8
BLACK
6
CONTINUOUS
10
80.1929
20
-117.817
11
80.3833
21
-117.721
0
LINE
8
BLACK
6
CONTINUOUS
10
80.3833
20
-117.721
11
80.669
21
-117.721
0
LINE
8
BLACK
6
CONTINUOUS
10
80.669
20
-117.721
11
80.8595
21
-117.817
0
LINE
8
BLACK
6
CONTINUOUS
10
80.8595
20
-117.817
11
80.9548
21
-118.007
0
LINE
8
BLACK
6
CONTINUOUS
10
80.9548
20
-118.007
11
80.9548
21
-119.055
0
LINE
8
BLACK
6
CONTINUOUS
10
80.9548
20
-118.007
11
81.05
21
-117.817
0
LINE
8
BLACK
6
CONTINUOUS
10
81.05
20
-117.817
11
81.2405
21
-117.721
0
LINE
8
BLACK
6
CONTINUOUS
10
81.2405
20
-117.721
11
81.5262
21
-117.721
0
LINE
8
BLACK
6
CONTINUOUS
10
81.5262
20
-117.721
11
81.7167
21
-117.817
0
LINE
8
BLACK
6
CONTINUOUS
10
81.7167
20
-117.817
11
81.8119
21
-118.007
0
LINE
8
BLACK
6
CONTINUOUS
10
81.8119
20
-118.007
11
81.8119
21
-119.055
0
LINE
8
BLACK
6
CONTINUOUS
10
82.7643
20
-119.055
11
82.7643
21
-117.721
0
LINE
8
BLACK
6
CONTINUOUS
10
82.7643
20
-117.912
11
82.8595
21
-117.817
0
LINE
8
BLACK
6
CONTINUOUS
10
82.8595
20
-117.817
11
83.05
21
-117.721
0
LINE
8
BLACK
6
CONTINUOUS
10
83.05
20
-117.721
11
83.3357
21
-117.721
0
LINE
8
BLACK
6
CONTINUOUS
10
83.3357
20
-117.721
11
83.5262
21
-117.817
0
LINE
8
BLACK
6
CONTINUOUS
10
83.5262
20
-117.817
11
83.6214
21
-118.007
0
LINE
8
BLACK
6
CONTINUOUS
10
83.6214
20
-118.007
11
83.6214
21
-119.055
0
LINE
8
BLACK
6
CONTINUOUS
10
83.6214
20
-118.007
11
83.7167
21
-117.817
0
LINE
8
BLACK
6
CONTINUOUS
10
83.7167
20
-117.817
11
83.9071
21
-117.721
0
LINE
8
BLACK
6
CONTINUOUS
10
83.9071
20
-117.721
11
84.1929
21
-117.721
0
LINE
8
BLACK
6
CONTINUOUS
10
84.1929
20
-117.721
11
84.3833
21
-117.817
0
LINE
8
BLACK
6
CONTINUOUS
10
84.3833
20
-117.817
11
84.4786
21
-118.007
0
LINE
8
BLACK
6
CONTINUOUS
10
84.4786
20
-118.007
11
84.4786
21
-119.055
0
LINE
8
BLACK
6
CONTINUOUS
10
88.3833
20
-116.96
11
86.669
21
-119.531
0
LINE
8
BLACK
6
CONTINUOUS
10
90.9548
20
-117.055
11
91.1452
21
-117.055
0
LINE
8
BLACK
6
CONTINUOUS
10
91.1452
20
-117.055
11
91.3357
21
-117.15
0
LINE
8
BLACK
6
CONTINUOUS
10
91.3357
20
-117.15
11
91.431
21
-117.245
0
LINE
8
BLACK
6
CONTINUOUS
10
91.431
20
-117.245
11
91.5262
21
-117.436
0
LINE
8
BLACK
6
CONTINUOUS
10
91.5262
20
-117.436
11
91.6214
21
-117.817
0
LINE
8
BLACK
6
CONTINUOUS
10
91.6214
20
-117.817
11
91.6214
21
-118.293
0
LINE
8
BLACK
6
CONTINUOUS
10
91.6214
20
-118.293
11
91.5262
21
-118.674
0
LINE
8
BLACK
6
CONTINUOUS
10
91.5262
20
-118.674
11
91.431
21
-118.864
0
LINE
8
BLACK
6
CONTINUOUS
10
91.431
20
-118.864
11
91.3357
21
-118.96
0
LINE
8
BLACK
6
CONTINUOUS
10
91.3357
20
-118.96
11
91.1452
21
-119.055
0
LINE
8
BLACK
6
CONTINUOUS
10
91.1452
20
-119.055
11
90.9548
21
-119.055
0
LINE
8
BLACK
6
CONTINUOUS
10
90.9548
20
-119.055
11
90.7643
21
-118.96
0
LINE
8
BLACK
6
CONTINUOUS
10
90.7643
20
-118.96
11
90.669
21
-118.864
0
LINE
8
BLACK
6
CONTINUOUS
10
90.669
20
-118.864
11
90.5738
21
-118.674
0
LINE
8
BLACK
6
CONTINUOUS
10
90.5738
20
-118.674
11
90.4786
21
-118.293
0
LINE
8
BLACK
6
CONTINUOUS
10
90.4786
20
-118.293
11
90.4786
21
-117.817
0
LINE
8
BLACK
6
CONTINUOUS
10
90.4786
20
-117.817
11
90.5738
21
-117.436
0
LINE
8
BLACK
6
CONTINUOUS
10
90.5738
20
-117.436
11
90.669
21
-117.245
0
LINE
8
BLACK
6
CONTINUOUS
10
90.669
20
-117.245
11
90.7643
21
-117.15
0
LINE
8
BLACK
6
CONTINUOUS
10
90.7643
20
-117.15
11
90.9548
21
-117.055
0
LINE
8
BLACK
6
CONTINUOUS
10
92.4786
20
-118.864
11
92.5738
21
-118.96
0
LINE
8
BLACK
6
CONTINUOUS
10
92.5738
20
-118.96
11
92.4786
21
-119.055
0
LINE
8
BLACK
6
CONTINUOUS
10
92.4786
20
-119.055
11
92.3833
21
-118.96
0
LINE
8
BLACK
6
CONTINUOUS
10
92.3833
20
-118.96
11
92.4786
21
-118.864
0
LINE
8
BLACK
6
CONTINUOUS
10
92.4786
20
-118.864
11
92.4786
21
-119.055
0
LINE
8
BLACK
6
CONTINUOUS
10
93.8119
20
-117.055
11
94.0024
21
-117.055
0
LINE
8
BLACK
6
CONTINUOUS
10
94.0024
20
-117.055
11
94.1929
21
-117.15
0
LINE
8
BLACK
6
CONTINUOUS
10
94.1929
20
-117.15
11
94.2881
21
-117.245
0
LINE
8
BLACK
6
CONTINUOUS
10
94.2881
20
-117.245
11
94.3833
21
-117.436
0
LINE
8
BLACK
6
CONTINUOUS
10
94.3833
20
-117.436
11
94.4786
21
-117.817
0
LINE
8
BLACK
6
CONTINUOUS
10
94.4786
20
-117.817
11
94.4786
21
-118.293
0
LINE
8
BLACK
6
CONTINUOUS
10
94.4786
20
-118.293
11
94.3833
21
-118.674
0
LINE
8
BLACK
6
CONTINUOUS
10
94.3833
20
-118.674
11
94.2881
21
-118.864
0
LINE
8
BLACK
6
CONTINUOUS
10
94.2881
20
-118.864
11
94.1929
21
-118.96
0
LINE
8
BLACK
6
CONTINUOUS
10
94.1929
20
-118.96
11
94.0024
21
-119.055
0
LINE
8
BLACK
6
CONTINUOUS
10
94.0024
20
-119.055
11
93.8119
21
-119.055
0
LINE
8
BLACK
6
CONTINUOUS
10
93.8119
20
-119.055
11
93.6214
21
-118.96
0
LINE
8
BLACK
6
CONTINUOUS
10
93.6214
20
-118.96
11
93.5262
21
-118.864
0
LINE
8
BLACK
6
CONTINUOUS
10
93.5262
20
-118.864
11
93.431
21
-118.674
0
LINE
8
BLACK
6
CONTINUOUS
10
93.431
20
-118.674
11
93.3357
21
-118.293
0
LINE
8
BLACK
6
CONTINUOUS
10
93.3357
20
-118.293
11
93.3357
21
-117.817
0
LINE
8
BLACK
6
CONTINUOUS
10
93.3357
20
-117.817
11
93.431
21
-117.436
0
LINE
8
BLACK
6
CONTINUOUS
10
93.431
20
-117.436
11
93.5262
21
-117.245
0
LINE
8
BLACK
6
CONTINUOUS
10
93.5262
20
-117.245
11
93.6214
21
-117.15
0
LINE
8
BLACK
6
CONTINUOUS
10
93.6214
20
-117.15
11
93.8119
21
-117.055
0
LINE
8
BLACK
6
CONTINUOUS
10
95.1452
20
-117.055
11
96.4786
21
-117.055
0
LINE
8
BLACK
6
CONTINUOUS
10
96.4786
20
-117.055
11
95.6214
21
-119.055
0
LINE
8
BLACK
6
CONTINUOUS
10
97.6214
20
-117.055
11
97.8119
21
-117.055
0
LINE
8
BLACK
6
CONTINUOUS
10
97.8119
20
-117.055
11
98.0024
21
-117.15
0
LINE
8
BLACK
6
CONTINUOUS
10
98.0024
20
-117.15
11
98.0976
21
-117.245
0
LINE
8
BLACK
6
CONTINUOUS
10
98.0976
20
-117.245
11
98.1929
21
-117.436
0
LINE
8
BLACK
6
CONTINUOUS
10
98.1929
20
-117.436
11
98.2881
21
-117.817
0
LINE
8
BLACK
6
CONTINUOUS
10
98.2881
20
-117.817
11
98.2881
21
-118.293
0
LINE
8
BLACK
6
CONTINUOUS
10
98.2881
20
-118.293
11
98.1929
21
-118.674
0
LINE
8
BLACK
6
CONTINUOUS
10
98.1929
20
-118.674
11
98.0976
21
-118.864
0
LINE
8
BLACK
6
CONTINUOUS
10
98.0976
20
-118.864
11
98.0024
21
-118.96
0
LINE
8
BLACK
6
CONTINUOUS
10
98.0024
20
-118.96
11
97.8119
21
-119.055
0
LINE
8
BLACK
6
CONTINUOUS
10
97.8119
20
-119.055
11
97.6214
21
-119.055
0
LINE
8
BLACK
6
CONTINUOUS
10
97.6214
20
-119.055
11
97.431
21
-118.96
0
LINE
8
BLACK
6
CONTINUOUS
10
97.431
20
-118.96
11
97.3357
21
-118.864
0
LINE
8
BLACK
6
CONTINUOUS
10
97.3357
20
-118.864
11
97.2405
21
-118.674
0
LINE
8
BLACK
6
CONTINUOUS
10
97.2405
20
-118.674
11
97.1452
21
-118.293
0
LINE
8
BLACK
6
CONTINUOUS
10
97.1452
20
-118.293
11
97.1452
21
-117.817
0
LINE
8
BLACK
6
CONTINUOUS
10
97.1452
20
-117.817
11
97.2405
21
-117.436
0
LINE
8
BLACK
6
CONTINUOUS
10
97.2405
20
-117.436
11
97.3357
21
-117.245
0
LINE
8
BLACK
6
CONTINUOUS
10
97.3357
20
-117.245
11
97.431
21
-117.15
0
LINE
8
BLACK
6
CONTINUOUS
10
97.431
20
-117.15
11
97.6214
21
-117.055
0
LINE
8
BLACK
6
CONTINUOUS
10
99.2405
20
-119.055
11
99.6214
21
-119.055
0
LINE
8
BLACK
6
CONTINUOUS
10
99.6214
20
-119.055
11
99.8119
21
-118.96
0
LINE
8
BLACK
6
CONTINUOUS
10
99.8119
20
-118.96
11
99.9071
21
-118.864
0
LINE
8
BLACK
6
CONTINUOUS
10
99.9071
20
-118.864
11
100.098
21
-118.579
0
LINE
8
BLACK
6
CONTINUOUS
10
100.098
20
-118.579
11
100.193
21
-118.198
0
LINE
8
BLACK
6
CONTINUOUS
10
100.193
20
-118.198
11
100.193
21
-117.436
0
LINE
8
BLACK
6
CONTINUOUS
10
100.193
20
-117.436
11
100.098
21
-117.245
0
LINE
8
BLACK
6
CONTINUOUS
10
100.098
20
-117.245
11
100.002
21
-117.15
0
LINE
8
BLACK
6
CONTINUOUS
10
100.002
20
-117.15
11
99.8119
21
-117.055
0
LINE
8
BLACK
6
CONTINUOUS
10
99.8119
20
-117.055
11
99.431
21
-117.055
0
LINE
8
BLACK
6
CONTINUOUS
10
99.431
20
-117.055
11
99.2405
21
-117.15
0
LINE
8
BLACK
6
CONTINUOUS
10
99.2405
20
-117.15
11
99.1452
21
-117.245
0
LINE
8
BLACK
6
CONTINUOUS
10
99.1452
20
-117.245
11
99.05
21
-117.436
0
LINE
8
BLACK
6
CONTINUOUS
10
99.05
20
-117.436
11
99.05
21
-117.912
0
LINE
8
BLACK
6
CONTINUOUS
10
99.05
20
-117.912
11
99.1452
21
-118.102
0
LINE
8
BLACK
6
CONTINUOUS
10
99.1452
20
-118.102
11
99.2405
21
-118.198
0
LINE
8
BLACK
6
CONTINUOUS
10
99.2405
20
-118.198
11
99.431
21
-118.293
0
LINE
8
BLACK
6
CONTINUOUS
10
99.431
20
-118.293
11
99.8119
21
-118.293
0
LINE
8
BLACK
6
CONTINUOUS
10
99.8119
20
-118.293
11
100.002
21
-118.198
0
LINE
8
BLACK
6
CONTINUOUS
10
100.002
20
-118.198
11
100.098
21
-118.102
0
LINE
8
BLACK
6
CONTINUOUS
10
100.098
20
-118.102
11
100.193
21
-117.912
0
LINE
8
BLACK
6
CONTINUOUS
10
100.955
20
-117.055
11
100.955
21
-117.436
0
LINE
8
BLACK
6
CONTINUOUS
10
101.717
20
-117.055
11
101.717
21
-117.436
0
LINE
8
BLACK
6
CONTINUOUS
10
104.669
20
-119.817
11
104.574
21
-119.721
0
LINE
8
BLACK
6
CONTINUOUS
10
104.574
20
-119.721
11
104.383
21
-119.436
0
LINE
8
BLACK
6
CONTINUOUS
10
104.383
20
-119.436
11
104.288
21
-119.245
0
LINE
8
BLACK
6
CONTINUOUS
10
104.288
20
-119.245
11
104.193
21
-118.96
0
LINE
8
BLACK
6
CONTINUOUS
10
104.193
20
-118.96
11
104.098
21
-118.483
0
LINE
8
BLACK
6
CONTINUOUS
10
104.098
20
-118.483
11
104.098
21
-118.102
0
LINE
8
BLACK
6
CONTINUOUS
10
104.098
20
-118.102
11
104.193
21
-117.626
0
LINE
8
BLACK
6
CONTINUOUS
10
104.193
20
-117.626
11
104.288
21
-117.34
0
LINE
8
BLACK
6
CONTINUOUS
10
104.288
20
-117.34
11
104.383
21
-117.15
0
LINE
8
BLACK
6
CONTINUOUS
10
104.383
20
-117.15
11
104.574
21
-116.864
0
LINE
8
BLACK
6
CONTINUOUS
10
104.574
20
-116.864
11
104.669
21
-116.769
0
LINE
8
BLACK
6
CONTINUOUS
10
106.288
20
-117.721
11
106.288
21
-119.055
0
LINE
8
BLACK
6
CONTINUOUS
10
105.812
20
-116.96
11
105.336
21
-118.388
0
LINE
8
BLACK
6
CONTINUOUS
10
105.336
20
-118.388
11
106.574
21
-118.388
0
LINE
8
BLACK
6
CONTINUOUS
10
108.86
20
-119.055
11
108.86
21
-117.055
0
LINE
8
BLACK
6
CONTINUOUS
10
109.717
20
-119.055
11
109.717
21
-118.007
0
LINE
8
BLACK
6
CONTINUOUS
10
109.717
20
-118.007
11
109.621
21
-117.817
0
LINE
8
BLACK
6
CONTINUOUS
10
109.621
20
-117.817
11
109.431
21
-117.721
0
LINE
8
BLACK
6
CONTINUOUS
10
109.431
20
-117.721
11
109.145
21
-117.721
0
LINE
8
BLACK
6
CONTINUOUS
10
109.145
20
-117.721
11
108.955
21
-117.817
0
LINE
8
BLACK
6
CONTINUOUS
10
108.955
20
-117.817
11
108.86
21
-117.912
0
LINE
8
BLACK
6
CONTINUOUS
10
110.955
20
-119.055
11
110.764
21
-118.96
0
LINE
8
BLACK
6
CONTINUOUS
10
110.764
20
-118.96
11
110.669
21
-118.864
0
LINE
8
BLACK
6
CONTINUOUS
10
110.669
20
-118.864
11
110.574
21
-118.674
0
LINE
8
BLACK
6
CONTINUOUS
10
110.574
20
-118.674
11
110.574
21
-118.102
0
LINE
8
BLACK
6
CONTINUOUS
10
110.574
20
-118.102
11
110.669
21
-117.912
0
LINE
8
BLACK
6
CONTINUOUS
10
110.669
20
-117.912
11
110.764
21
-117.817
0
LINE
8
BLACK
6
CONTINUOUS
10
110.764
20
-117.817
11
110.955
21
-117.721
0
LINE
8
BLACK
6
CONTINUOUS
10
110.955
20
-117.721
11
111.24
21
-117.721
0
LINE
8
BLACK
6
CONTINUOUS
10
111.24
20
-117.721
11
111.431
21
-117.817
0
LINE
8
BLACK
6
CONTINUOUS
10
111.431
20
-117.817
11
111.526
21
-117.912
0
LINE
8
BLACK
6
CONTINUOUS
10
111.526
20
-117.912
11
111.621
21
-118.102
0
LINE
8
BLACK
6
CONTINUOUS
10
111.621
20
-118.102
11
111.621
21
-118.674
0
LINE
8
BLACK
6
CONTINUOUS
10
111.621
20
-118.674
11
111.526
21
-118.864
0
LINE
8
BLACK
6
CONTINUOUS
10
111.526
20
-118.864
11
111.431
21
-118.96
0
LINE
8
BLACK
6
CONTINUOUS
10
111.431
20
-118.96
11
111.24
21
-119.055
0
LINE
8
BLACK
6
CONTINUOUS
10
111.24
20
-119.055
11
110.955
21
-119.055
0
LINE
8
BLACK
6
CONTINUOUS
10
112.764
20
-119.055
11
112.574
21
-118.96
0
LINE
8
BLACK
6
CONTINUOUS
10
112.574
20
-118.96
11
112.479
21
-118.769
0
LINE
8
BLACK
6
CONTINUOUS
10
112.479
20
-118.769
11
112.479
21
-117.055
0
LINE
8
BLACK
6
CONTINUOUS
10
114.288
20
-118.96
11
114.098
21
-119.055
0
LINE
8
BLACK
6
CONTINUOUS
10
114.098
20
-119.055
11
113.717
21
-119.055
0
LINE
8
BLACK
6
CONTINUOUS
10
113.717
20
-119.055
11
113.526
21
-118.96
0
LINE
8
BLACK
6
CONTINUOUS
10
113.526
20
-118.96
11
113.431
21
-118.769
0
LINE
8
BLACK
6
CONTINUOUS
10
113.431
20
-118.769
11
113.431
21
-118.007
0
LINE
8
BLACK
6
CONTINUOUS
10
113.431
20
-118.007
11
113.526
21
-117.817
0
LINE
8
BLACK
6
CONTINUOUS
10
113.526
20
-117.817
11
113.717
21
-117.721
0
LINE
8
BLACK
6
CONTINUOUS
10
113.717
20
-117.721
11
114.098
21
-117.721
0
LINE
8
BLACK
6
CONTINUOUS
10
114.098
20
-117.721
11
114.288
21
-117.817
0
LINE
8
BLACK
6
CONTINUOUS
10
114.288
20
-117.817
11
114.383
21
-118.007
0
LINE
8
BLACK
6
CONTINUOUS
10
114.383
20
-118.007
11
114.383
21
-118.198
0
LINE
8
BLACK
6
CONTINUOUS
10
114.383
20
-118.198
11
113.431
21
-118.388
0
LINE
8
BLACK
6
CONTINUOUS
10
115.145
20
-118.96
11
115.336
21
-119.055
0
LINE
8
BLACK
6
CONTINUOUS
10
115.336
20
-119.055
11
115.717
21
-119.055
0
LINE
8
BLACK
6
CONTINUOUS
10
115.717
20
-119.055
11
115.907
21
-118.96
0
LINE
8
BLACK
6
CONTINUOUS
10
115.907
20
-118.96
11
116.002
21
-118.769
0
LINE
8
BLACK
6
CONTINUOUS
10
116.002
20
-118.769
11
116.002
21
-118.674
0
LINE
8
BLACK
6
CONTINUOUS
10
116.002
20
-118.674
11
115.907
21
-118.483
0
LINE
8
BLACK
6
CONTINUOUS
10
115.907
20
-118.483
11
115.717
21
-118.388
0
LINE
8
BLACK
6
CONTINUOUS
10
115.717
20
-118.388
11
115.431
21
-118.388
0
LINE
8
BLACK
6
CONTINUOUS
10
115.431
20
-118.388
11
115.24
21
-118.293
0
LINE
8
BLACK
6
CONTINUOUS
10
115.24
20
-118.293
11
115.145
21
-118.102
0
LINE
8
BLACK
6
CONTINUOUS
10
115.145
20
-118.102
11
115.145
21
-118.007
0
LINE
8
BLACK
6
CONTINUOUS
10
115.145
20
-118.007
11
115.24
21
-117.817
0
LINE
8
BLACK
6
CONTINUOUS
10
115.24
20
-117.817
11
115.431
21
-117.721
0
LINE
8
BLACK
6
CONTINUOUS
10
115.431
20
-117.721
11
115.717
21
-117.721
0
LINE
8
BLACK
6
CONTINUOUS
10
115.717
20
-117.721
11
115.907
21
-117.817
0
LINE
8
BLACK
6
CONTINUOUS
10
116.669
20
-119.817
11
116.764
21
-119.721
0
LINE
8
BLACK
6
CONTINUOUS
10
116.764
20
-119.721
11
116.955
21
-119.436
0
LINE
8
BLACK
6
CONTINUOUS
10
116.955
20
-119.436
11
117.05
21
-119.245
0
LINE
8
BLACK
6
CONTINUOUS
10
117.05
20
-119.245
11
117.145
21
-118.96
0
LINE
8
BLACK
6
CONTINUOUS
10
117.145
20
-118.96
11
117.24
21
-118.483
0
LINE
8
BLACK
6
CONTINUOUS
10
117.24
20
-118.483
11
117.24
21
-118.102
0
LINE
8
BLACK
6
CONTINUOUS
10
117.24
20
-118.102
11
117.145
21
-117.626
0
LINE
8
BLACK
6
CONTINUOUS
10
117.145
20
-117.626
11
117.05
21
-117.34
0
LINE
8
BLACK
6
CONTINUOUS
10
117.05
20
-117.34
11
116.955
21
-117.15
0
LINE
8
BLACK
6
CONTINUOUS
10
116.955
20
-117.15
11
116.764
21
-116.864
0
LINE
8
BLACK
6
CONTINUOUS
10
116.764
20
-116.864
11
116.669
21
-116.769
0
LINE
8
BLACK
6
CONTINUOUS
10
120.288
20
-119.817
11
120.193
21
-119.721
0
LINE
8
BLACK
6
CONTINUOUS
10
120.193
20
-119.721
11
120.002
21
-119.436
0
LINE
8
BLACK
6
CONTINUOUS
10
120.002
20
-119.436
11
119.907
21
-119.245
0
LINE
8
BLACK
6
CONTINUOUS
10
119.907
20
-119.245
11
119.812
21
-118.96
0
LINE
8
BLACK
6
CONTINUOUS
10
119.812
20
-118.96
11
119.717
21
-118.483
0
LINE
8
BLACK
6
CONTINUOUS
10
119.717
20
-118.483
11
119.717
21
-118.102
0
LINE
8
BLACK
6
CONTINUOUS
10
119.717
20
-118.102
11
119.812
21
-117.626
0
LINE
8
BLACK
6
CONTINUOUS
10
119.812
20
-117.626
11
119.907
21
-117.34
0
LINE
8
BLACK
6
CONTINUOUS
10
119.907
20
-117.34
11
120.002
21
-117.15
0
LINE
8
BLACK
6
CONTINUOUS
10
120.002
20
-117.15
11
120.193
21
-116.864
0
LINE
8
BLACK
6
CONTINUOUS
10
120.193
20
-116.864
11
120.288
21
-116.769
0
LINE
8
BLACK
6
CONTINUOUS
10
121.05
20
-117.721
11
121.05
21
-119.055
0
LINE
8
BLACK
6
CONTINUOUS
10
121.05
20
-117.912
11
121.145
21
-117.817
0
LINE
8
BLACK
6
CONTINUOUS
10
121.145
20
-117.817
11
121.336
21
-117.721
0
LINE
8
BLACK
6
CONTINUOUS
10
121.336
20
-117.721
11
121.621
21
-117.721
0
LINE
8
BLACK
6
CONTINUOUS
10
121.621
20
-117.721
11
121.812
21
-117.817
0
LINE
8
BLACK
6
CONTINUOUS
10
121.812
20
-117.817
11
121.907
21
-118.007
0
LINE
8
BLACK
6
CONTINUOUS
10
121.907
20
-118.007
11
121.907
21
-119.055
0
LINE
8
BLACK
6
CONTINUOUS
10
123.145
20
-119.055
11
122.955
21
-118.96
0
LINE
8
BLACK
6
CONTINUOUS
10
122.955
20
-118.96
11
122.86
21
-118.864
0
LINE
8
BLACK
6
CONTINUOUS
10
122.86
20
-118.864
11
122.764
21
-118.674
0
LINE
8
BLACK
6
CONTINUOUS
10
122.764
20
-118.674
11
122.764
21
-118.102
0
LINE
8
BLACK
6
CONTINUOUS
10
122.764
20
-118.102
11
122.86
21
-117.912
0
LINE
8
BLACK
6
CONTINUOUS
10
122.86
20
-117.912
11
122.955
21
-117.817
0
LINE
8
BLACK
6
CONTINUOUS
10
122.955
20
-117.817
11
123.145
21
-117.721
0
LINE
8
BLACK
6
CONTINUOUS
10
123.145
20
-117.721
11
123.431
21
-117.721
0
LINE
8
BLACK
6
CONTINUOUS
10
123.431
20
-117.721
11
123.621
21
-117.817
0
LINE
8
BLACK
6
CONTINUOUS
10
123.621
20
-117.817
11
123.717
21
-117.912
0
LINE
8
BLACK
6
CONTINUOUS
10
123.717
20
-117.912
11
123.812
21
-118.102
0
LINE
8
BLACK
6
CONTINUOUS
10
123.812
20
-118.102
11
123.812
21
-118.674
0
LINE
8
BLACK
6
CONTINUOUS
10
123.812
20
-118.674
11
123.717
21
-118.864
0
LINE
8
BLACK
6
CONTINUOUS
10
123.717
20
-118.864
11
123.621
21
-118.96
0
LINE
8
BLACK
6
CONTINUOUS
10
123.621
20
-118.96
11
123.431
21
-119.055
0
LINE
8
BLACK
6
CONTINUOUS
10
123.431
20
-119.055
11
123.145
21
-119.055
0
LINE
8
BLACK
6
CONTINUOUS
10
124.383
20
-117.721
11
125.145
21
-117.721
0
LINE
8
BLACK
6
CONTINUOUS
10
124.669
20
-117.055
11
124.669
21
-118.769
0
LINE
8
BLACK
6
CONTINUOUS
10
124.669
20
-118.769
11
124.764
21
-118.96
0
LINE
8
BLACK
6
CONTINUOUS
10
124.764
20
-118.96
11
124.955
21
-119.055
0
LINE
8
BLACK
6
CONTINUOUS
10
124.955
20
-119.055
11
125.145
21
-119.055
0
LINE
8
BLACK
6
CONTINUOUS
10
127.336
20
-117.721
11
127.336
21
-119.721
0
LINE
8
BLACK
6
CONTINUOUS
10
127.336
20
-117.817
11
127.526
21
-117.721
0
LINE
8
BLACK
6
CONTINUOUS
10
127.526
20
-117.721
11
127.907
21
-117.721
0
LINE
8
BLACK
6
CONTINUOUS
10
127.907
20
-117.721
11
128.098
21
-117.817
0
LINE
8
BLACK
6
CONTINUOUS
10
128.098
20
-117.817
11
128.193
21
-117.912
0
LINE
8
BLACK
6
CONTINUOUS
10
128.193
20
-117.912
11
128.288
21
-118.102
0
LINE
8
BLACK
6
CONTINUOUS
10
128.288
20
-118.102
11
128.288
21
-118.674
0
LINE
8
BLACK
6
CONTINUOUS
10
128.288
20
-118.674
11
128.193
21
-118.864
0
LINE
8
BLACK
6
CONTINUOUS
10
128.193
20
-118.864
11
128.098
21
-118.96
0
LINE
8
BLACK
6
CONTINUOUS
10
128.098
20
-118.96
11
127.907
21
-119.055
0
LINE
8
BLACK
6
CONTINUOUS
10
127.907
20
-119.055
11
127.526
21
-119.055
0
LINE
8
BLACK
6
CONTINUOUS
10
127.526
20
-119.055
11
127.336
21
-118.96
0
LINE
8
BLACK
6
CONTINUOUS
10
129.431
20
-119.055
11
129.24
21
-118.96
0
LINE
8
BLACK
6
CONTINUOUS
10
129.24
20
-118.96
11
129.145
21
-118.769
0
LINE
8
BLACK
6
CONTINUOUS
10
129.145
20
-118.769
11
129.145
21
-117.055
0
LINE
8
BLACK
6
CONTINUOUS
10
131.05
20
-119.055
11
131.05
21
-118.007
0
LINE
8
BLACK
6
CONTINUOUS
10
131.05
20
-118.007
11
130.955
21
-117.817
0
LINE
8
BLACK
6
CONTINUOUS
10
130.955
20
-117.817
11
130.764
21
-117.721
0
LINE
8
BLACK
6
CONTINUOUS
10
130.764
20
-117.721
11
130.383
21
-117.721
0
LINE
8
BLACK
6
CONTINUOUS
10
130.383
20
-117.721
11
130.193
21
-117.817
0
LINE
8
BLACK
6
CONTINUOUS
10
131.05
20
-118.96
11
130.86
21
-119.055
0
LINE
8
BLACK
6
CONTINUOUS
10
130.86
20
-119.055
11
130.383
21
-119.055
0
LINE
8
BLACK
6
CONTINUOUS
10
130.383
20
-119.055
11
130.193
21
-118.96
0
LINE
8
BLACK
6
CONTINUOUS
10
130.193
20
-118.96
11
130.098
21
-118.769
0
LINE
8
BLACK
6
CONTINUOUS
10
130.098
20
-118.769
11
130.098
21
-118.579
0
LINE
8
BLACK
6
CONTINUOUS
10
130.098
20
-118.579
11
130.193
21
-118.388
0
LINE
8
BLACK
6
CONTINUOUS
10
130.193
20
-118.388
11
130.383
21
-118.293
0
LINE
8
BLACK
6
CONTINUOUS
10
130.383
20
-118.293
11
130.86
21
-118.293
0
LINE
8
BLACK
6
CONTINUOUS
10
130.86
20
-118.293
11
131.05
21
-118.198
0
LINE
8
BLACK
6
CONTINUOUS
10
131.717
20
-117.721
11
132.479
21
-117.721
0
LINE
8
BLACK
6
CONTINUOUS
10
132.002
20
-117.055
11
132.002
21
-118.769
0
LINE
8
BLACK
6
CONTINUOUS
10
132.002
20
-118.769
11
132.098
21
-118.96
0
LINE
8
BLACK
6
CONTINUOUS
10
132.098
20
-118.96
11
132.288
21
-119.055
0
LINE
8
BLACK
6
CONTINUOUS
10
132.288
20
-119.055
11
132.479
21
-119.055
0
LINE
8
BLACK
6
CONTINUOUS
10
133.907
20
-118.96
11
133.717
21
-119.055
0
LINE
8
BLACK
6
CONTINUOUS
10
133.717
20
-119.055
11
133.336
21
-119.055
0
LINE
8
BLACK
6
CONTINUOUS
10
133.336
20
-119.055
11
133.145
21
-118.96
0
LINE
8
BLACK
6
CONTINUOUS
10
133.145
20
-118.96
11
133.05
21
-118.769
0
LINE
8
BLACK
6
CONTINUOUS
10
133.05
20
-118.769
11
133.05
21
-118.007
0
LINE
8
BLACK
6
CONTINUOUS
10
133.05
20
-118.007
11
133.145
21
-117.817
0
LINE
8
BLACK
6
CONTINUOUS
10
133.145
20
-117.817
11
133.336
21
-117.721
0
LINE
8
BLACK
6
CONTINUOUS
10
133.336
20
-117.721
11
133.717
21
-117.721
0
LINE
8
BLACK
6
CONTINUOUS
10
133.717
20
-117.721
11
133.907
21
-117.817
0
LINE
8
BLACK
6
CONTINUOUS
10
133.907
20
-117.817
11
134.002
21
-118.007
0
LINE
8
BLACK
6
CONTINUOUS
10
134.002
20
-118.007
11
134.002
21
-118.198
0
LINE
8
BLACK
6
CONTINUOUS
10
134.002
20
-118.198
11
133.05
21
-118.388
0
LINE
8
BLACK
6
CONTINUOUS
10
135.717
20
-119.055
11
135.717
21
-117.055
0
LINE
8
BLACK
6
CONTINUOUS
10
135.717
20
-118.96
11
135.526
21
-119.055
0
LINE
8
BLACK
6
CONTINUOUS
10
135.526
20
-119.055
11
135.145
21
-119.055
0
LINE
8
BLACK
6
CONTINUOUS
10
135.145
20
-119.055
11
134.955
21
-118.96
0
LINE
8
BLACK
6
CONTINUOUS
10
134.955
20
-118.96
11
134.86
21
-118.864
0
LINE
8
BLACK
6
CONTINUOUS
10
134.86
20
-118.864
11
134.764
21
-118.674
0
LINE
8
BLACK
6
CONTINUOUS
10
134.764
20
-118.674
11
134.764
21
-118.102
0
LINE
8
BLACK
6
CONTINUOUS
10
134.764
20
-118.102
11
134.86
21
-117.912
0
LINE
8
BLACK
6
CONTINUOUS
10
134.86
20
-117.912
11
134.955
21
-117.817
0
LINE
8
BLACK
6
CONTINUOUS
10
134.955
20
-117.817
11
135.145
21
-117.721
0
LINE
8
BLACK
6
CONTINUOUS
10
135.145
20
-117.721
11
135.526
21
-117.721
0
LINE
8
BLACK
6
CONTINUOUS
10
135.526
20
-117.721
11
135.717
21
-117.817
0
LINE
8
BLACK
6
CONTINUOUS
10
136.479
20
-119.817
11
136.574
21
-119.721
0
LINE
8
BLACK
6
CONTINUOUS
10
136.574
20
-119.721
11
136.764
21
-119.436
0
LINE
8
BLACK
6
CONTINUOUS
10
136.764
20
-119.436
11
136.86
21
-119.245
0
LINE
8
BLACK
6
CONTINUOUS
10
136.86
20
-119.245
11
136.955
21
-118.96
0
LINE
8
BLACK
6
CONTINUOUS
10
136.955
20
-118.96
11
137.05
21
-118.483
0
LINE
8
BLACK
6
CONTINUOUS
10
137.05
20
-118.483
11
137.05
21
-118.102
0
LINE
8
BLACK
6
CONTINUOUS
10
137.05
20
-118.102
11
136.955
21
-117.626
0
LINE
8
BLACK
6
CONTINUOUS
10
136.955
20
-117.626
11
136.86
21
-117.34
0
LINE
8
BLACK
6
CONTINUOUS
10
136.86
20
-117.34
11
136.764
21
-117.15
0
LINE
8
BLACK
6
CONTINUOUS
10
136.764
20
-117.15
11
136.574
21
-116.864
0
LINE
8
BLACK
6
CONTINUOUS
10
136.574
20
-116.864
11
136.479
21
-116.769
0
LINE
8
BLACK
6
CONTINUOUS
10
67.95
20
-120.15
11
67.95
21
-122.15
0
LINE
8
BLACK
6
CONTINUOUS
10
66.95
20
-121.15
11
68.95
21
-121.15
0
LINE
8
BLACK
6
CONTINUOUS
10
71.3357
20
-120.055
11
72.5738
21
-120.055
0
LINE
8
BLACK
6
CONTINUOUS
10
72.5738
20
-120.055
11
71.9071
21
-120.817
0
LINE
8
BLACK
6
CONTINUOUS
10
71.9071
20
-120.817
11
72.1929
21
-120.817
0
LINE
8
BLACK
6
CONTINUOUS
10
72.1929
20
-120.817
11
72.3833
21
-120.912
0
LINE
8
BLACK
6
CONTINUOUS
10
72.3833
20
-120.912
11
72.4786
21
-121.007
0
LINE
8
BLACK
6
CONTINUOUS
10
72.4786
20
-121.007
11
72.5738
21
-121.198
0
LINE
8
BLACK
6
CONTINUOUS
10
72.5738
20
-121.198
11
72.5738
21
-121.674
0
LINE
8
BLACK
6
CONTINUOUS
10
72.5738
20
-121.674
11
72.4786
21
-121.864
0
LINE
8
BLACK
6
CONTINUOUS
10
72.4786
20
-121.864
11
72.3833
21
-121.96
0
LINE
8
BLACK
6
CONTINUOUS
10
72.3833
20
-121.96
11
72.1929
21
-122.055
0
LINE
8
BLACK
6
CONTINUOUS
10
72.1929
20
-122.055
11
71.6214
21
-122.055
0
LINE
8
BLACK
6
CONTINUOUS
10
71.6214
20
-122.055
11
71.431
21
-121.96
0
LINE
8
BLACK
6
CONTINUOUS
10
71.431
20
-121.96
11
71.3357
21
-121.864
0
LINE
8
BLACK
6
CONTINUOUS
10
73.431
20
-121.864
11
73.5262
21
-121.96
0
LINE
8
BLACK
6
CONTINUOUS
10
73.5262
20
-121.96
11
73.431
21
-122.055
0
LINE
8
BLACK
6
CONTINUOUS
10
73.431
20
-122.055
11
73.3357
21
-121.96
0
LINE
8
BLACK
6
CONTINUOUS
10
73.3357
20
-121.96
11
73.431
21
-121.864
0
LINE
8
BLACK
6
CONTINUOUS
10
73.431
20
-121.864
11
73.431
21
-122.055
0
LINE
8
BLACK
6
CONTINUOUS
10
74.2881
20
-120.245
11
74.3833
21
-120.15
0
LINE
8
BLACK
6
CONTINUOUS
10
74.3833
20
-120.15
11
74.5738
21
-120.055
0
LINE
8
BLACK
6
CONTINUOUS
10
74.5738
20
-120.055
11
75.05
21
-120.055
0
LINE
8
BLACK
6
CONTINUOUS
10
75.05
20
-120.055
11
75.2405
21
-120.15
0
LINE
8
BLACK
6
CONTINUOUS
10
75.2405
20
-120.15
11
75.3357
21
-120.245
0
LINE
8
BLACK
6
CONTINUOUS
10
75.3357
20
-120.245
11
75.431
21
-120.436
0
LINE
8
BLACK
6
CONTINUOUS
10
75.431
20
-120.436
11
75.431
21
-120.626
0
LINE
8
BLACK
6
CONTINUOUS
10
75.431
20
-120.626
11
75.3357
21
-120.912
0
LINE
8
BLACK
6
CONTINUOUS
10
75.3357
20
-120.912
11
74.1929
21
-122.055
0
LINE
8
BLACK
6
CONTINUOUS
10
74.1929
20
-122.055
11
75.431
21
-122.055
0
LINE
8
BLACK
6
CONTINUOUS
10
76.669
20
-120.055
11
76.8595
21
-120.055
0
LINE
8
BLACK
6
CONTINUOUS
10
76.8595
20
-120.055
11
77.05
21
-120.15
0
LINE
8
BLACK
6
CONTINUOUS
10
77.05
20
-120.15
11
77.1452
21
-120.245
0
LINE
8
BLACK
6
CONTINUOUS
10
77.1452
20
-120.245
11
77.2405
21
-120.436
0
LINE
8
BLACK
6
CONTINUOUS
10
77.2405
20
-120.436
11
77.3357
21
-120.817
0
LINE
8
BLACK
6
CONTINUOUS
10
77.3357
20
-120.817
11
77.3357
21
-121.293
0
LINE
8
BLACK
6
CONTINUOUS
10
77.3357
20
-121.293
11
77.2405
21
-121.674
0
LINE
8
BLACK
6
CONTINUOUS
10
77.2405
20
-121.674
11
77.1452
21
-121.864
0
LINE
8
BLACK
6
CONTINUOUS
10
77.1452
20
-121.864
11
77.05
21
-121.96
0
LINE
8
BLACK
6
CONTINUOUS
10
77.05
20
-121.96
11
76.8595
21
-122.055
0
LINE
8
BLACK
6
CONTINUOUS
10
76.8595
20
-122.055
11
76.669
21
-122.055
0
LINE
8
BLACK
6
CONTINUOUS
10
76.669
20
-122.055
11
76.4786
21
-121.96
0
LINE
8
BLACK
6
CONTINUOUS
10
76.4786
20
-121.96
11
76.3833
21
-121.864
0
LINE
8
BLACK
6
CONTINUOUS
10
76.3833
20
-121.864
11
76.2881
21
-121.674
0
LINE
8
BLACK
6
CONTINUOUS
10
76.2881
20
-121.674
11
76.1929
21
-121.293
0
LINE
8
BLACK
6
CONTINUOUS
10
76.1929
20
-121.293
11
76.1929
21
-120.817
0
LINE
8
BLACK
6
CONTINUOUS
10
76.1929
20
-120.817
11
76.2881
21
-120.436
0
LINE
8
BLACK
6
CONTINUOUS
10
76.2881
20
-120.436
11
76.3833
21
-120.245
0
LINE
8
BLACK
6
CONTINUOUS
10
76.3833
20
-120.245
11
76.4786
21
-120.15
0
LINE
8
BLACK
6
CONTINUOUS
10
76.4786
20
-120.15
11
76.669
21
-120.055
0
LINE
8
BLACK
6
CONTINUOUS
10
78.5738
20
-120.055
11
78.7643
21
-120.055
0
LINE
8
BLACK
6
CONTINUOUS
10
78.7643
20
-120.055
11
78.9548
21
-120.15
0
LINE
8
BLACK
6
CONTINUOUS
10
78.9548
20
-120.15
11
79.05
21
-120.245
0
LINE
8
BLACK
6
CONTINUOUS
10
79.05
20
-120.245
11
79.1452
21
-120.436
0
LINE
8
BLACK
6
CONTINUOUS
10
79.1452
20
-120.436
11
79.2405
21
-120.817
0
LINE
8
BLACK
6
CONTINUOUS
10
79.2405
20
-120.817
11
79.2405
21
-121.293
0
LINE
8
BLACK
6
CONTINUOUS
10
79.2405
20
-121.293
11
79.1452
21
-121.674
0
LINE
8
BLACK
6
CONTINUOUS
10
79.1452
20
-121.674
11
79.05
21
-121.864
0
LINE
8
BLACK
6
CONTINUOUS
10
79.05
20
-121.864
11
78.9548
21
-121.96
0
LINE
8
BLACK
6
CONTINUOUS
10
78.9548
20
-121.96
11
78.7643
21
-122.055
0
LINE
8
BLACK
6
CONTINUOUS
10
78.7643
20
-122.055
11
78.5738
21
-122.055
0
LINE
8
BLACK
6
CONTINUOUS
10
78.5738
20
-122.055
11
78.3833
21
-121.96
0
LINE
8
BLACK
6
CONTINUOUS
10
78.3833
20
-121.96
11
78.2881
21
-121.864
0
LINE
8
BLACK
6
CONTINUOUS
10
78.2881
20
-121.864
11
78.1929
21
-121.674
0
LINE
8
BLACK
6
CONTINUOUS
10
78.1929
20
-121.674
11
78.0976
21
-121.293
0
LINE
8
BLACK
6
CONTINUOUS
10
78.0976
20
-121.293
11
78.0976
21
-120.817
0
LINE
8
BLACK
6
CONTINUOUS
10
78.0976
20
-120.817
11
78.1929
21
-120.436
0
LINE
8
BLACK
6
CONTINUOUS
10
78.1929
20
-120.436
11
78.2881
21
-120.245
0
LINE
8
BLACK
6
CONTINUOUS
10
78.2881
20
-120.245
11
78.3833
21
-120.15
0
LINE
8
BLACK
6
CONTINUOUS
10
78.3833
20
-120.15
11
78.5738
21
-120.055
0
LINE
8
BLACK
6
CONTINUOUS
10
80.0976
20
-122.055
11
80.0976
21
-120.721
0
LINE
8
BLACK
6
CONTINUOUS
10
80.0976
20
-120.912
11
80.1929
21
-120.817
0
LINE
8
BLACK
6
CONTINUOUS
10
80.1929
20
-120.817
11
80.3833
21
-120.721
0
LINE
8
BLACK
6
CONTINUOUS
10
80.3833
20
-120.721
11
80.669
21
-120.721
0
LINE
8
BLACK
6
CONTINUOUS
10
80.669
20
-120.721
11
80.8595
21
-120.817
0
LINE
8
BLACK
6
CONTINUOUS
10
80.8595
20
-120.817
11
80.9548
21
-121.007
0
LINE
8
BLACK
6
CONTINUOUS
10
80.9548
20
-121.007
11
80.9548
21
-122.055
0
LINE
8
BLACK
6
CONTINUOUS
10
80.9548
20
-121.007
11
81.05
21
-120.817
0
LINE
8
BLACK
6
CONTINUOUS
10
81.05
20
-120.817
11
81.2405
21
-120.721
0
LINE
8
BLACK
6
CONTINUOUS
10
81.2405
20
-120.721
11
81.5262
21
-120.721
0
LINE
8
BLACK
6
CONTINUOUS
10
81.5262
20
-120.721
11
81.7167
21
-120.817
0
LINE
8
BLACK
6
CONTINUOUS
10
81.7167
20
-120.817
11
81.8119
21
-121.007
0
LINE
8
BLACK
6
CONTINUOUS
10
81.8119
20
-121.007
11
81.8119
21
-122.055
0
LINE
8
BLACK
6
CONTINUOUS
10
82.7643
20
-122.055
11
82.7643
21
-120.721
0
LINE
8
BLACK
6
CONTINUOUS
10
82.7643
20
-120.912
11
82.8595
21
-120.817
0
LINE
8
BLACK
6
CONTINUOUS
10
82.8595
20
-120.817
11
83.05
21
-120.721
0
LINE
8
BLACK
6
CONTINUOUS
10
83.05
20
-120.721
11
83.3357
21
-120.721
0
LINE
8
BLACK
6
CONTINUOUS
10
83.3357
20
-120.721
11
83.5262
21
-120.817
0
LINE
8
BLACK
6
CONTINUOUS
10
83.5262
20
-120.817
11
83.6214
21
-121.007
0
LINE
8
BLACK
6
CONTINUOUS
10
83.6214
20
-121.007
11
83.6214
21
-122.055
0
LINE
8
BLACK
6
CONTINUOUS
10
83.6214
20
-121.007
11
83.7167
21
-120.817
0
LINE
8
BLACK
6
CONTINUOUS
10
83.7167
20
-120.817
11
83.9071
21
-120.721
0
LINE
8
BLACK
6
CONTINUOUS
10
83.9071
20
-120.721
11
84.1929
21
-120.721
0
LINE
8
BLACK
6
CONTINUOUS
10
84.1929
20
-120.721
11
84.3833
21
-120.817
0
LINE
8
BLACK
6
CONTINUOUS
10
84.3833
20
-120.817
11
84.4786
21
-121.007
0
LINE
8
BLACK
6
CONTINUOUS
10
84.4786
20
-121.007
11
84.4786
21
-122.055
0
LINE
8
BLACK
6
CONTINUOUS
10
88.3833
20
-119.96
11
86.669
21
-122.531
0
LINE
8
BLACK
6
CONTINUOUS
10
90.9548
20
-120.055
11
91.1452
21
-120.055
0
LINE
8
BLACK
6
CONTINUOUS
10
91.1452
20
-120.055
11
91.3357
21
-120.15
0
LINE
8
BLACK
6
CONTINUOUS
10
91.3357
20
-120.15
11
91.431
21
-120.245
0
LINE
8
BLACK
6
CONTINUOUS
10
91.431
20
-120.245
11
91.5262
21
-120.436
0
LINE
8
BLACK
6
CONTINUOUS
10
91.5262
20
-120.436
11
91.6214
21
-120.817
0
LINE
8
BLACK
6
CONTINUOUS
10
91.6214
20
-120.817
11
91.6214
21
-121.293
0
LINE
8
BLACK
6
CONTINUOUS
10
91.6214
20
-121.293
11
91.5262
21
-121.674
0
LINE
8
BLACK
6
CONTINUOUS
10
91.5262
20
-121.674
11
91.431
21
-121.864
0
LINE
8
BLACK
6
CONTINUOUS
10
91.431
20
-121.864
11
91.3357
21
-121.96
0
LINE
8
BLACK
6
CONTINUOUS
10
91.3357
20
-121.96
11
91.1452
21
-122.055
0
LINE
8
BLACK
6
CONTINUOUS
10
91.1452
20
-122.055
11
90.9548
21
-122.055
0
LINE
8
BLACK
6
CONTINUOUS
10
90.9548
20
-122.055
11
90.7643
21
-121.96
0
LINE
8
BLACK
6
CONTINUOUS
10
90.7643
20
-121.96
11
90.669
21
-121.864
0
LINE
8
BLACK
6
CONTINUOUS
10
90.669
20
-121.864
11
90.5738
21
-121.674
0
LINE
8
BLACK
6
CONTINUOUS
10
90.5738
20
-121.674
11
90.4786
21
-121.293
0
LINE
8
BLACK
6
CONTINUOUS
10
90.4786
20
-121.293
11
90.4786
21
-120.817
0
LINE
8
BLACK
6
CONTINUOUS
10
90.4786
20
-120.817
11
90.5738
21
-120.436
0
LINE
8
BLACK
6
CONTINUOUS
10
90.5738
20
-120.436
11
90.669
21
-120.245
0
LINE
8
BLACK
6
CONTINUOUS
10
90.669
20
-120.245
11
90.7643
21
-120.15
0
LINE
8
BLACK
6
CONTINUOUS
10
90.7643
20
-120.15
11
90.9548
21
-120.055
0
LINE
8
BLACK
6
CONTINUOUS
10
92.4786
20
-121.864
11
92.5738
21
-121.96
0
LINE
8
BLACK
6
CONTINUOUS
10
92.5738
20
-121.96
11
92.4786
21
-122.055
0
LINE
8
BLACK
6
CONTINUOUS
10
92.4786
20
-122.055
11
92.3833
21
-121.96
0
LINE
8
BLACK
6
CONTINUOUS
10
92.3833
20
-121.96
11
92.4786
21
-121.864
0
LINE
8
BLACK
6
CONTINUOUS
10
92.4786
20
-121.864
11
92.4786
21
-122.055
0
LINE
8
BLACK
6
CONTINUOUS
10
94.4786
20
-122.055
11
93.3357
21
-122.055
0
LINE
8
BLACK
6
CONTINUOUS
10
93.9071
20
-122.055
11
93.9071
21
-120.055
0
LINE
8
BLACK
6
CONTINUOUS
10
93.9071
20
-120.055
11
93.7167
21
-120.34
0
LINE
8
BLACK
6
CONTINUOUS
10
93.7167
20
-120.34
11
93.5262
21
-120.531
0
LINE
8
BLACK
6
CONTINUOUS
10
93.5262
20
-120.531
11
93.3357
21
-120.626
0
LINE
8
BLACK
6
CONTINUOUS
10
95.2405
20
-120.245
11
95.3357
21
-120.15
0
LINE
8
BLACK
6
CONTINUOUS
10
95.3357
20
-120.15
11
95.5262
21
-120.055
0
LINE
8
BLACK
6
CONTINUOUS
10
95.5262
20
-120.055
11
96.0024
21
-120.055
0
LINE
8
BLACK
6
CONTINUOUS
10
96.0024
20
-120.055
11
96.1929
21
-120.15
0
LINE
8
BLACK
6
CONTINUOUS
10
96.1929
20
-120.15
11
96.2881
21
-120.245
0
LINE
8
BLACK
6
CONTINUOUS
10
96.2881
20
-120.245
11
96.3833
21
-120.436
0
LINE
8
BLACK
6
CONTINUOUS
10
96.3833
20
-120.436
11
96.3833
21
-120.626
0
LINE
8
BLACK
6
CONTINUOUS
10
96.3833
20
-120.626
11
96.2881
21
-120.912
0
LINE
8
BLACK
6
CONTINUOUS
10
96.2881
20
-120.912
11
95.1452
21
-122.055
0
LINE
8
BLACK
6
CONTINUOUS
10
95.1452
20
-122.055
11
96.3833
21
-122.055
0
LINE
8
BLACK
6
CONTINUOUS
10
98.0976
20
-120.055
11
97.7167
21
-120.055
0
LINE
8
BLACK
6
CONTINUOUS
10
97.7167
20
-120.055
11
97.5262
21
-120.15
0
LINE
8
BLACK
6
CONTINUOUS
10
97.5262
20
-120.15
11
97.431
21
-120.245
0
LINE
8
BLACK
6
CONTINUOUS
10
97.431
20
-120.245
11
97.2405
21
-120.531
0
LINE
8
BLACK
6
CONTINUOUS
10
97.2405
20
-120.531
11
97.1452
21
-120.912
0
LINE
8
BLACK
6
CONTINUOUS
10
97.1452
20
-120.912
11
97.1452
21
-121.674
0
LINE
8
BLACK
6
CONTINUOUS
10
97.1452
20
-121.674
11
97.2405
21
-121.864
0
LINE
8
BLACK
6
CONTINUOUS
10
97.2405
20
-121.864
11
97.3357
21
-121.96
0
LINE
8
BLACK
6
CONTINUOUS
10
97.3357
20
-121.96
11
97.5262
21
-122.055
0
LINE
8
BLACK
6
CONTINUOUS
10
97.5262
20
-122.055
11
97.9071
21
-122.055
0
LINE
8
BLACK
6
CONTINUOUS
10
97.9071
20
-122.055
11
98.0976
21
-121.96
0
LINE
8
BLACK
6
CONTINUOUS
10
98.0976
20
-121.96
11
98.1929
21
-121.864
0
LINE
8
BLACK
6
CONTINUOUS
10
98.1929
20
-121.864
11
98.2881
21
-121.674
0
LINE
8
BLACK
6
CONTINUOUS
10
98.2881
20
-121.674
11
98.2881
21
-121.198
0
LINE
8
BLACK
6
CONTINUOUS
10
98.2881
20
-121.198
11
98.1929
21
-121.007
0
LINE
8
BLACK
6
CONTINUOUS
10
98.1929
20
-121.007
11
98.0976
21
-120.912
0
LINE
8
BLACK
6
CONTINUOUS
10
98.0976
20
-120.912
11
97.9071
21
-120.817
0
LINE
8
BLACK
6
CONTINUOUS
10
97.9071
20
-120.817
11
97.5262
21
-120.817
0
LINE
8
BLACK
6
CONTINUOUS
10
97.5262
20
-120.817
11
97.3357
21
-120.912
0
LINE
8
BLACK
6
CONTINUOUS
10
97.3357
20
-120.912
11
97.2405
21
-121.007
0
LINE
8
BLACK
6
CONTINUOUS
10
97.2405
20
-121.007
11
97.1452
21
-121.198
0
LINE
8
BLACK
6
CONTINUOUS
10
99.5262
20
-120.055
11
99.7167
21
-120.055
0
LINE
8
BLACK
6
CONTINUOUS
10
99.7167
20
-120.055
11
99.9071
21
-120.15
0
LINE
8
BLACK
6
CONTINUOUS
10
99.9071
20
-120.15
11
100.002
21
-120.245
0
LINE
8
BLACK
6
CONTINUOUS
10
100.002
20
-120.245
11
100.098
21
-120.436
0
LINE
8
BLACK
6
CONTINUOUS
10
100.098
20
-120.436
11
100.193
21
-120.817
0
LINE
8
BLACK
6
CONTINUOUS
10
100.193
20
-120.817
11
100.193
21
-121.293
0
LINE
8
BLACK
6
CONTINUOUS
10
100.193
20
-121.293
11
100.098
21
-121.674
0
LINE
8
BLACK
6
CONTINUOUS
10
100.098
20
-121.674
11
100.002
21
-121.864
0
LINE
8
BLACK
6
CONTINUOUS
10
100.002
20
-121.864
11
99.9071
21
-121.96
0
LINE
8
BLACK
6
CONTINUOUS
10
99.9071
20
-121.96
11
99.7167
21
-122.055
0
LINE
8
BLACK
6
CONTINUOUS
10
99.7167
20
-122.055
11
99.5262
21
-122.055
0
LINE
8
BLACK
6
CONTINUOUS
10
99.5262
20
-122.055
11
99.3357
21
-121.96
0
LINE
8
BLACK
6
CONTINUOUS
10
99.3357
20
-121.96
11
99.2405
21
-121.864
0
LINE
8
BLACK
6
CONTINUOUS
10
99.2405
20
-121.864
11
99.1452
21
-121.674
0
LINE
8
BLACK
6
CONTINUOUS
10
99.1452
20
-121.674
11
99.05
21
-121.293
0
LINE
8
BLACK
6
CONTINUOUS
10
99.05
20
-121.293
11
99.05
21
-120.817
0
LINE
8
BLACK
6
CONTINUOUS
10
99.05
20
-120.817
11
99.1452
21
-120.436
0
LINE
8
BLACK
6
CONTINUOUS
10
99.1452
20
-120.436
11
99.2405
21
-120.245
0
LINE
8
BLACK
6
CONTINUOUS
10
99.2405
20
-120.245
11
99.3357
21
-120.15
0
LINE
8
BLACK
6
CONTINUOUS
10
99.3357
20
-120.15
11
99.5262
21
-120.055
0
LINE
8
BLACK
6
CONTINUOUS
10
100.955
20
-120.055
11
100.955
21
-120.436
0
LINE
8
BLACK
6
CONTINUOUS
10
101.717
20
-120.055
11
101.717
21
-120.436
0
LINE
8
BLACK
6
CONTINUOUS
10
104.669
20
-122.817
11
104.574
21
-122.721
0
LINE
8
BLACK
6
CONTINUOUS
10
104.574
20
-122.721
11
104.383
21
-122.436
0
LINE
8
BLACK
6
CONTINUOUS
10
104.383
20
-122.436
11
104.288
21
-122.245
0
LINE
8
BLACK
6
CONTINUOUS
10
104.288
20
-122.245
11
104.193
21
-121.96
0
LINE
8
BLACK
6
CONTINUOUS
10
104.193
20
-121.96
11
104.098
21
-121.483
0
LINE
8
BLACK
6
CONTINUOUS
10
104.098
20
-121.483
11
104.098
21
-121.102
0
LINE
8
BLACK
6
CONTINUOUS
10
104.098
20
-121.102
11
104.193
21
-120.626
0
LINE
8
BLACK
6
CONTINUOUS
10
104.193
20
-120.626
11
104.288
21
-120.34
0
LINE
8
BLACK
6
CONTINUOUS
10
104.288
20
-120.34
11
104.383
21
-120.15
0
LINE
8
BLACK
6
CONTINUOUS
10
104.383
20
-120.15
11
104.574
21
-119.864
0
LINE
8
BLACK
6
CONTINUOUS
10
104.574
20
-119.864
11
104.669
21
-119.769
0
LINE
8
BLACK
6
CONTINUOUS
10
106.288
20
-120.721
11
106.288
21
-122.055
0
LINE
8
BLACK
6
CONTINUOUS
10
105.812
20
-119.96
11
105.336
21
-121.388
0
LINE
8
BLACK
6
CONTINUOUS
10
105.336
20
-121.388
11
106.574
21
-121.388
0
LINE
8
BLACK
6
CONTINUOUS
10
108.86
20
-122.055
11
108.86
21
-120.055
0
LINE
8
BLACK
6
CONTINUOUS
10
109.717
20
-122.055
11
109.717
21
-121.007
0
LINE
8
BLACK
6
CONTINUOUS
10
109.717
20
-121.007
11
109.621
21
-120.817
0
LINE
8
BLACK
6
CONTINUOUS
10
109.621
20
-120.817
11
109.431
21
-120.721
0
LINE
8
BLACK
6
CONTINUOUS
10
109.431
20
-120.721
11
109.145
21
-120.721
0
LINE
8
BLACK
6
CONTINUOUS
10
109.145
20
-120.721
11
108.955
21
-120.817
0
LINE
8
BLACK
6
CONTINUOUS
10
108.955
20
-120.817
11
108.86
21
-120.912
0
LINE
8
BLACK
6
CONTINUOUS
10
110.955
20
-122.055
11
110.764
21
-121.96
0
LINE
8
BLACK
6
CONTINUOUS
10
110.764
20
-121.96
11
110.669
21
-121.864
0
LINE
8
BLACK
6
CONTINUOUS
10
110.669
20
-121.864
11
110.574
21
-121.674
0
LINE
8
BLACK
6
CONTINUOUS
10
110.574
20
-121.674
11
110.574
21
-121.102
0
LINE
8
BLACK
6
CONTINUOUS
10
110.574
20
-121.102
11
110.669
21
-120.912
0
LINE
8
BLACK
6
CONTINUOUS
10
110.669
20
-120.912
11
110.764
21
-120.817
0
LINE
8
BLACK
6
CONTINUOUS
10
110.764
20
-120.817
11
110.955
21
-120.721
0
LINE
8
BLACK
6
CONTINUOUS
10
110.955
20
-120.721
11
111.24
21
-120.721
0
LINE
8
BLACK
6
CONTINUOUS
10
111.24
20
-120.721
11
111.431
21
-120.817
0
LINE
8
BLACK
6
CONTINUOUS
10
111.431
20
-120.817
11
111.526
21
-120.912
0
LINE
8
BLACK
6
CONTINUOUS
10
111.526
20
-120.912
11
111.621
21
-121.102
0
LINE
8
BLACK
6
CONTINUOUS
10
111.621
20
-121.102
11
111.621
21
-121.674
0
LINE
8
BLACK
6
CONTINUOUS
10
111.621
20
-121.674
11
111.526
21
-121.864
0
LINE
8
BLACK
6
CONTINUOUS
10
111.526
20
-121.864
11
111.431
21
-121.96
0
LINE
8
BLACK
6
CONTINUOUS
10
111.431
20
-121.96
11
111.24
21
-122.055
0
LINE
8
BLACK
6
CONTINUOUS
10
111.24
20
-122.055
11
110.955
21
-122.055
0
LINE
8
BLACK
6
CONTINUOUS
10
112.764
20
-122.055
11
112.574
21
-121.96
0
LINE
8
BLACK
6
CONTINUOUS
10
112.574
20
-121.96
11
112.479
21
-121.769
0
LINE
8
BLACK
6
CONTINUOUS
10
112.479
20
-121.769
11
112.479
21
-120.055
0
LINE
8
BLACK
6
CONTINUOUS
10
114.288
20
-121.96
11
114.098
21
-122.055
0
LINE
8
BLACK
6
CONTINUOUS
10
114.098
20
-122.055
11
113.717
21
-122.055
0
LINE
8
BLACK
6
CONTINUOUS
10
113.717
20
-122.055
11
113.526
21
-121.96
0
LINE
8
BLACK
6
CONTINUOUS
10
113.526
20
-121.96
11
113.431
21
-121.769
0
LINE
8
BLACK
6
CONTINUOUS
10
113.431
20
-121.769
11
113.431
21
-121.007
0
LINE
8
BLACK
6
CONTINUOUS
10
113.431
20
-121.007
11
113.526
21
-120.817
0
LINE
8
BLACK
6
CONTINUOUS
10
113.526
20
-120.817
11
113.717
21
-120.721
0
LINE
8
BLACK
6
CONTINUOUS
10
113.717
20
-120.721
11
114.098
21
-120.721
0
LINE
8
BLACK
6
CONTINUOUS
10
114.098
20
-120.721
11
114.288
21
-120.817
0
LINE
8
BLACK
6
CONTINUOUS
10
114.288
20
-120.817
11
114.383
21
-121.007
0
LINE
8
BLACK
6
CONTINUOUS
10
114.383
20
-121.007
11
114.383
21
-121.198
0
LINE
8
BLACK
6
CONTINUOUS
10
114.383
20
-121.198
11
113.431
21
-121.388
0
LINE
8
BLACK
6
CONTINUOUS
10
115.145
20
-121.96
11
115.336
21
-122.055
0
LINE
8
BLACK
6
CONTINUOUS
10
115.336
20
-122.055
11
115.717
21
-122.055
0
LINE
8
BLACK
6
CONTINUOUS
10
115.717
20
-122.055
11
115.907
21
-121.96
0
LINE
8
BLACK
6
CONTINUOUS
10
115.907
20
-121.96
11
116.002
21
-121.769
0
LINE
8
BLACK
6
CONTINUOUS
10
116.002
20
-121.769
11
116.002
21
-121.674
0
LINE
8
BLACK
6
CONTINUOUS
10
116.002
20
-121.674
11
115.907
21
-121.483
0
LINE
8
BLACK
6
CONTINUOUS
10
115.907
20
-121.483
11
115.717
21
-121.388
0
LINE
8
BLACK
6
CONTINUOUS
10
115.717
20
-121.388
11
115.431
21
-121.388
0
LINE
8
BLACK
6
CONTINUOUS
10
115.431
20
-121.388
11
115.24
21
-121.293
0
LINE
8
BLACK
6
CONTINUOUS
10
115.24
20
-121.293
11
115.145
21
-121.102
0
LINE
8
BLACK
6
CONTINUOUS
10
115.145
20
-121.102
11
115.145
21
-121.007
0
LINE
8
BLACK
6
CONTINUOUS
10
115.145
20
-121.007
11
115.24
21
-120.817
0
LINE
8
BLACK
6
CONTINUOUS
10
115.24
20
-120.817
11
115.431
21
-120.721
0
LINE
8
BLACK
6
CONTINUOUS
10
115.431
20
-120.721
11
115.717
21
-120.721
0
LINE
8
BLACK
6
CONTINUOUS
10
115.717
20
-120.721
11
115.907
21
-120.817
0
LINE
8
BLACK
6
CONTINUOUS
10
116.669
20
-122.817
11
116.764
21
-122.721
0
LINE
8
BLACK
6
CONTINUOUS
10
116.764
20
-122.721
11
116.955
21
-122.436
0
LINE
8
BLACK
6
CONTINUOUS
10
116.955
20
-122.436
11
117.05
21
-122.245
0
LINE
8
BLACK
6
CONTINUOUS
10
117.05
20
-122.245
11
117.145
21
-121.96
0
LINE
8
BLACK
6
CONTINUOUS
10
117.145
20
-121.96
11
117.24
21
-121.483
0
LINE
8
BLACK
6
CONTINUOUS
10
117.24
20
-121.483
11
117.24
21
-121.102
0
LINE
8
BLACK
6
CONTINUOUS
10
117.24
20
-121.102
11
117.145
21
-120.626
0
LINE
8
BLACK
6
CONTINUOUS
10
117.145
20
-120.626
11
117.05
21
-120.34
0
LINE
8
BLACK
6
CONTINUOUS
10
117.05
20
-120.34
11
116.955
21
-120.15
0
LINE
8
BLACK
6
CONTINUOUS
10
116.955
20
-120.15
11
116.764
21
-119.864
0
LINE
8
BLACK
6
CONTINUOUS
10
116.764
20
-119.864
11
116.669
21
-119.769
0
LINE
8
BLACK
6
CONTINUOUS
10
120.288
20
-122.817
11
120.193
21
-122.721
0
LINE
8
BLACK
6
CONTINUOUS
10
120.193
20
-122.721
11
120.002
21
-122.436
0
LINE
8
BLACK
6
CONTINUOUS
10
120.002
20
-122.436
11
119.907
21
-122.245
0
LINE
8
BLACK
6
CONTINUOUS
10
119.907
20
-122.245
11
119.812
21
-121.96
0
LINE
8
BLACK
6
CONTINUOUS
10
119.812
20
-121.96
11
119.717
21
-121.483
0
LINE
8
BLACK
6
CONTINUOUS
10
119.717
20
-121.483
11
119.717
21
-121.102
0
LINE
8
BLACK
6
CONTINUOUS
10
119.717
20
-121.102
11
119.812
21
-120.626
0
LINE
8
BLACK
6
CONTINUOUS
10
119.812
20
-120.626
11
119.907
21
-120.34
0
LINE
8
BLACK
6
CONTINUOUS
10
119.907
20
-120.34
11
120.002
21
-120.15
0
LINE
8
BLACK
6
CONTINUOUS
10
120.002
20
-120.15
11
120.193
21
-119.864
0
LINE
8
BLACK
6
CONTINUOUS
10
120.193
20
-119.864
11
120.288
21
-119.769
0
LINE
8
BLACK
6
CONTINUOUS
10
121.05
20
-120.721
11
121.05
21
-122.055
0
LINE
8
BLACK
6
CONTINUOUS
10
121.05
20
-120.912
11
121.145
21
-120.817
0
LINE
8
BLACK
6
CONTINUOUS
10
121.145
20
-120.817
11
121.336
21
-120.721
0
LINE
8
BLACK
6
CONTINUOUS
10
121.336
20
-120.721
11
121.621
21
-120.721
0
LINE
8
BLACK
6
CONTINUOUS
10
121.621
20
-120.721
11
121.812
21
-120.817
0
LINE
8
BLACK
6
CONTINUOUS
10
121.812
20
-120.817
11
121.907
21
-121.007
0
LINE
8
BLACK
6
CONTINUOUS
10
121.907
20
-121.007
11
121.907
21
-122.055
0
LINE
8
BLACK
6
CONTINUOUS
10
123.145
20
-122.055
11
122.955
21
-121.96
0
LINE
8
BLACK
6
CONTINUOUS
10
122.955
20
-121.96
11
122.86
21
-121.864
0
LINE
8
BLACK
6
CONTINUOUS
10
122.86
20
-121.864
11
122.764
21
-121.674
0
LINE
8
BLACK
6
CONTINUOUS
10
122.764
20
-121.674
11
122.764
21
-121.102
0
LINE
8
BLACK
6
CONTINUOUS
10
122.764
20
-121.102
11
122.86
21
-120.912
0
LINE
8
BLACK
6
CONTINUOUS
10
122.86
20
-120.912
11
122.955
21
-120.817
0
LINE
8
BLACK
6
CONTINUOUS
10
122.955
20
-120.817
11
123.145
21
-120.721
0
LINE
8
BLACK
6
CONTINUOUS
10
123.145
20
-120.721
11
123.431
21
-120.721
0
LINE
8
BLACK
6
CONTINUOUS
10
123.431
20
-120.721
11
123.621
21
-120.817
0
LINE
8
BLACK
6
CONTINUOUS
10
123.621
20
-120.817
11
123.717
21
-120.912
0
LINE
8
BLACK
6
CONTINUOUS
10
123.717
20
-120.912
11
123.812
21
-121.102
0
LINE
8
BLACK
6
CONTINUOUS
10
123.812
20
-121.102
11
123.812
21
-121.674
0
LINE
8
BLACK
6
CONTINUOUS
10
123.812
20
-121.674
11
123.717
21
-121.864
0
LINE
8
BLACK
6
CONTINUOUS
10
123.717
20
-121.864
11
123.621
21
-121.96
0
LINE
8
BLACK
6
CONTINUOUS
10
123.621
20
-121.96
11
123.431
21
-122.055
0
LINE
8
BLACK
6
CONTINUOUS
10
123.431
20
-122.055
11
123.145
21
-122.055
0
LINE
8
BLACK
6
CONTINUOUS
10
124.383
20
-120.721
11
125.145
21
-120.721
0
LINE
8
BLACK
6
CONTINUOUS
10
124.669
20
-120.055
11
124.669
21
-121.769
0
LINE
8
BLACK
6
CONTINUOUS
10
124.669
20
-121.769
11
124.764
21
-121.96
0
LINE
8
BLACK
6
CONTINUOUS
10
124.764
20
-121.96
11
124.955
21
-122.055
0
LINE
8
BLACK
6
CONTINUOUS
10
124.955
20
-122.055
11
125.145
21
-122.055
0
LINE
8
BLACK
6
CONTINUOUS
10
127.336
20
-120.721
11
127.336
21
-122.721
0
LINE
8
BLACK
6
CONTINUOUS
10
127.336
20
-120.817
11
127.526
21
-120.721
0
LINE
8
BLACK
6
CONTINUOUS
10
127.526
20
-120.721
11
127.907
21
-120.721
0
LINE
8
BLACK
6
CONTINUOUS
10
127.907
20
-120.721
11
128.098
21
-120.817
0
LINE
8
BLACK
6
CONTINUOUS
10
128.098
20
-120.817
11
128.193
21
-120.912
0
LINE
8
BLACK
6
CONTINUOUS
10
128.193
20
-120.912
11
128.288
21
-121.102
0
LINE
8
BLACK
6
CONTINUOUS
10
128.288
20
-121.102
11
128.288
21
-121.674
0
LINE
8
BLACK
6
CONTINUOUS
10
128.288
20
-121.674
11
128.193
21
-121.864
0
LINE
8
BLACK
6
CONTINUOUS
10
128.193
20
-121.864
11
128.098
21
-121.96
0
LINE
8
BLACK
6
CONTINUOUS
10
128.098
20
-121.96
11
127.907
21
-122.055
0
LINE
8
BLACK
6
CONTINUOUS
10
127.907
20
-122.055
11
127.526
21
-122.055
0
LINE
8
BLACK
6
CONTINUOUS
10
127.526
20
-122.055
11
127.336
21
-121.96
0
LINE
8
BLACK
6
CONTINUOUS
10
129.431
20
-122.055
11
129.24
21
-121.96
0
LINE
8
BLACK
6
CONTINUOUS
10
129.24
20
-121.96
11
129.145
21
-121.769
0
LINE
8
BLACK
6
CONTINUOUS
10
129.145
20
-121.769
11
129.145
21
-120.055
0
LINE
8
BLACK
6
CONTINUOUS
10
131.05
20
-122.055
11
131.05
21
-121.007
0
LINE
8
BLACK
6
CONTINUOUS
10
131.05
20
-121.007
11
130.955
21
-120.817
0
LINE
8
BLACK
6
CONTINUOUS
10
130.955
20
-120.817
11
130.764
21
-120.721
0
LINE
8
BLACK
6
CONTINUOUS
10
130.764
20
-120.721
11
130.383
21
-120.721
0
LINE
8
BLACK
6
CONTINUOUS
10
130.383
20
-120.721
11
130.193
21
-120.817
0
LINE
8
BLACK
6
CONTINUOUS
10
131.05
20
-121.96
11
130.86
21
-122.055
0
LINE
8
BLACK
6
CONTINUOUS
10
130.86
20
-122.055
11
130.383
21
-122.055
0
LINE
8
BLACK
6
CONTINUOUS
10
130.383
20
-122.055
11
130.193
21
-121.96
0
LINE
8
BLACK
6
CONTINUOUS
10
130.193
20
-121.96
11
130.098
21
-121.769
0
LINE
8
BLACK
6
CONTINUOUS
10
130.098
20
-121.769
11
130.098
21
-121.579
0
LINE
8
BLACK
6
CONTINUOUS
10
130.098
20
-121.579
11
130.193
21
-121.388
0
LINE
8
BLACK
6
CONTINUOUS
10
130.193
20
-121.388
11
130.383
21
-121.293
0
LINE
8
BLACK
6
CONTINUOUS
10
130.383
20
-121.293
11
130.86
21
-121.293
0
LINE
8
BLACK
6
CONTINUOUS
10
130.86
20
-121.293
11
131.05
21
-121.198
0
LINE
8
BLACK
6
CONTINUOUS
10
131.717
20
-120.721
11
132.479
21
-120.721
0
LINE
8
BLACK
6
CONTINUOUS
10
132.002
20
-120.055
11
132.002
21
-121.769
0
LINE
8
BLACK
6
CONTINUOUS
10
132.002
20
-121.769
11
132.098
21
-121.96
0
LINE
8
BLACK
6
CONTINUOUS
10
132.098
20
-121.96
11
132.288
21
-122.055
0
LINE
8
BLACK
6
CONTINUOUS
10
132.288
20
-122.055
11
132.479
21
-122.055
0
LINE
8
BLACK
6
CONTINUOUS
10
133.907
20
-121.96
11
133.717
21
-122.055
0
LINE
8
BLACK
6
CONTINUOUS
10
133.717
20
-122.055
11
133.336
21
-122.055
0
LINE
8
BLACK
6
CONTINUOUS
10
133.336
20
-122.055
11
133.145
21
-121.96
0
LINE
8
BLACK
6
CONTINUOUS
10
133.145
20
-121.96
11
133.05
21
-121.769
0
LINE
8
BLACK
6
CONTINUOUS
10
133.05
20
-121.769
11
133.05
21
-121.007
0
LINE
8
BLACK
6
CONTINUOUS
10
133.05
20
-121.007
11
133.145
21
-120.817
0
LINE
8
BLACK
6
CONTINUOUS
10
133.145
20
-120.817
11
133.336
21
-120.721
0
LINE
8
BLACK
6
CONTINUOUS
10
133.336
20
-120.721
11
133.717
21
-120.721
0
LINE
8
BLACK
6
CONTINUOUS
10
133.717
20
-120.721
11
133.907
21
-120.817
0
LINE
8
BLACK
6
CONTINUOUS
10
133.907
20
-120.817
11
134.002
21
-121.007
0
LINE
8
BLACK
6
CONTINUOUS
10
134.002
20
-121.007
11
134.002
21
-121.198
0
LINE
8
BLACK
6
CONTINUOUS
10
134.002
20
-121.198
11
133.05
21
-121.388
0
LINE
8
BLACK
6
CONTINUOUS
10
135.717
20
-122.055
11
135.717
21
-120.055
0
LINE
8
BLACK
6
CONTINUOUS
10
135.717
20
-121.96
11
135.526
21
-122.055
0
LINE
8
BLACK
6
CONTINUOUS
10
135.526
20
-122.055
11
135.145
21
-122.055
0
LINE
8
BLACK
6
CONTINUOUS
10
135.145
20
-122.055
11
134.955
21
-121.96
0
LINE
8
BLACK
6
CONTINUOUS
10
134.955
20
-121.96
11
134.86
21
-121.864
0
LINE
8
BLACK
6
CONTINUOUS
10
134.86
20
-121.864
11
134.764
21
-121.674
0
LINE
8
BLACK
6
CONTINUOUS
10
134.764
20
-121.674
11
134.764
21
-121.102
0
LINE
8
BLACK
6
CONTINUOUS
10
134.764
20
-121.102
11
134.86
21
-120.912
0
LINE
8
BLACK
6
CONTINUOUS
10
134.86
20
-120.912
11
134.955
21
-120.817
0
LINE
8
BLACK
6
CONTINUOUS
10
134.955
20
-120.817
11
135.145
21
-120.721
0
LINE
8
BLACK
6
CONTINUOUS
10
135.145
20
-120.721
11
135.526
21
-120.721
0
LINE
8
BLACK
6
CONTINUOUS
10
135.526
20
-120.721
11
135.717
21
-120.817
0
LINE
8
BLACK
6
CONTINUOUS
10
136.479
20
-122.817
11
136.574
21
-122.721
0
LINE
8
BLACK
6
CONTINUOUS
10
136.574
20
-122.721
11
136.764
21
-122.436
0
LINE
8
BLACK
6
CONTINUOUS
10
136.764
20
-122.436
11
136.86
21
-122.245
0
LINE
8
BLACK
6
CONTINUOUS
10
136.86
20
-122.245
11
136.955
21
-121.96
0
LINE
8
BLACK
6
CONTINUOUS
10
136.955
20
-121.96
11
137.05
21
-121.483
0
LINE
8
BLACK
6
CONTINUOUS
10
137.05
20
-121.483
11
137.05
21
-121.102
0
LINE
8
BLACK
6
CONTINUOUS
10
137.05
20
-121.102
11
136.955
21
-120.626
0
LINE
8
BLACK
6
CONTINUOUS
10
136.955
20
-120.626
11
136.86
21
-120.34
0
LINE
8
BLACK
6
CONTINUOUS
10
136.86
20
-120.34
11
136.764
21
-120.15
0
LINE
8
BLACK
6
CONTINUOUS
10
136.764
20
-120.15
11
136.574
21
-119.864
0
LINE
8
BLACK
6
CONTINUOUS
10
136.574
20
-119.864
11
136.479
21
-119.769
  0
ENDSEC
  0
EOF
