%TF.GenerationSoftware,KiCad,Pcbnew,(6.0.8)*%
%TF.CreationDate,2022-10-02T10:43:25+09:00*%
%TF.ProjectId,KiCad,4b694361-642e-46b6-9963-61645f706362,rev?*%
%TF.SameCoordinates,Original*%
%TF.FileFunction,Soldermask,Bot*%
%TF.FilePolarity,Negative*%
%FSLAX46Y46*%
G04 Gerber Fmt 4.6, Leading zero omitted, Abs format (unit mm)*
G04 Created by KiCad (PCBNEW (6.0.8)) date 2022-10-02 10:43:25*
%MOMM*%
%LPD*%
G01*
G04 APERTURE LIST*
%ADD10O,1.500000X1.500000*%
%ADD11O,1.800000X1.800000*%
%ADD12O,1.700000X1.700000*%
%ADD13R,1.700000X1.700000*%
%ADD14C,3.200000*%
%ADD15C,2.000000*%
G04 APERTURE END LIST*
D10*
%TO.C,U1*%
X129425000Y-61030000D03*
D11*
X129725000Y-58000000D03*
D10*
X124575000Y-61030000D03*
D11*
X124275000Y-58000000D03*
D12*
X118110000Y-57870000D03*
X118110000Y-60410000D03*
D13*
X118110000Y-62950000D03*
D12*
X118110000Y-65490000D03*
X118110000Y-68030000D03*
X118110000Y-70570000D03*
X118110000Y-73110000D03*
D13*
X118110000Y-75650000D03*
D12*
X118110000Y-78190000D03*
X118110000Y-80730000D03*
X118110000Y-83270000D03*
X118110000Y-85810000D03*
D13*
X118110000Y-88350000D03*
D12*
X118110000Y-90890000D03*
X118110000Y-93430000D03*
X118110000Y-95970000D03*
X118110000Y-98510000D03*
D13*
X118110000Y-101050000D03*
D12*
X118110000Y-103590000D03*
X118110000Y-106130000D03*
X135890000Y-106130000D03*
X135890000Y-103590000D03*
D13*
X135890000Y-101050000D03*
D12*
X135890000Y-98510000D03*
X135890000Y-95970000D03*
X135890000Y-93430000D03*
X135890000Y-90890000D03*
D13*
X135890000Y-88350000D03*
D12*
X135890000Y-85810000D03*
X135890000Y-83270000D03*
X135890000Y-80730000D03*
X135890000Y-78190000D03*
D13*
X135890000Y-75650000D03*
D12*
X135890000Y-73110000D03*
X135890000Y-70570000D03*
X135890000Y-68030000D03*
X135890000Y-65490000D03*
D13*
X135890000Y-62950000D03*
D12*
X135890000Y-60410000D03*
X135890000Y-57870000D03*
X124460000Y-105900000D03*
D13*
X127000000Y-105900000D03*
D12*
X129540000Y-105900000D03*
%TD*%
D10*
%TO.C,U2*%
X96405000Y-61030000D03*
X91555000Y-61030000D03*
D11*
X91255000Y-58000000D03*
X96705000Y-58000000D03*
D12*
X85090000Y-57870000D03*
X85090000Y-60410000D03*
D13*
X85090000Y-62950000D03*
D12*
X85090000Y-65490000D03*
X85090000Y-68030000D03*
X85090000Y-70570000D03*
X85090000Y-73110000D03*
D13*
X85090000Y-75650000D03*
D12*
X85090000Y-78190000D03*
X85090000Y-80730000D03*
X85090000Y-83270000D03*
X85090000Y-85810000D03*
D13*
X85090000Y-88350000D03*
D12*
X85090000Y-90890000D03*
X85090000Y-93430000D03*
X85090000Y-95970000D03*
X85090000Y-98510000D03*
D13*
X85090000Y-101050000D03*
D12*
X85090000Y-103590000D03*
X85090000Y-106130000D03*
X102870000Y-106130000D03*
X102870000Y-103590000D03*
D13*
X102870000Y-101050000D03*
D12*
X102870000Y-98510000D03*
X102870000Y-95970000D03*
X102870000Y-93430000D03*
X102870000Y-90890000D03*
D13*
X102870000Y-88350000D03*
D12*
X102870000Y-85810000D03*
X102870000Y-83270000D03*
X102870000Y-80730000D03*
X102870000Y-78190000D03*
D13*
X102870000Y-75650000D03*
D12*
X102870000Y-73110000D03*
X102870000Y-70570000D03*
X102870000Y-68030000D03*
X102870000Y-65490000D03*
D13*
X102870000Y-62950000D03*
D12*
X102870000Y-60410000D03*
X102870000Y-57870000D03*
X91440000Y-105900000D03*
D13*
X93980000Y-105900000D03*
D12*
X96520000Y-105900000D03*
%TD*%
D14*
%TO.C,H2*%
X73000000Y-59000000D03*
%TD*%
D13*
%TO.C,JP3*%
X73000000Y-79340000D03*
D12*
X73000000Y-76800000D03*
%TD*%
%TO.C,J4*%
X113030000Y-106160000D03*
X113030000Y-103620000D03*
X113030000Y-101080000D03*
X113030000Y-98540000D03*
X113030000Y-96000000D03*
X113030000Y-93460000D03*
X113030000Y-90920000D03*
X113030000Y-88380000D03*
X113030000Y-85840000D03*
X113030000Y-83300000D03*
X113030000Y-80760000D03*
X113030000Y-78220000D03*
X113030000Y-75680000D03*
X113030000Y-73140000D03*
X113030000Y-70600000D03*
X113030000Y-68060000D03*
X113030000Y-65520000D03*
X113030000Y-62980000D03*
X113030000Y-60440000D03*
D13*
X113030000Y-57900000D03*
%TD*%
%TO.C,JP1*%
X78000000Y-68000000D03*
D12*
X78000000Y-70540000D03*
%TD*%
D13*
%TO.C,J1*%
X182875000Y-57785000D03*
D12*
X182875000Y-60325000D03*
X182875000Y-62865000D03*
X182875000Y-65405000D03*
X182875000Y-67945000D03*
X182875000Y-70485000D03*
X182875000Y-73025000D03*
X182875000Y-75565000D03*
X182875000Y-78105000D03*
X182875000Y-80645000D03*
X182875000Y-83185000D03*
X182875000Y-85725000D03*
X182875000Y-88265000D03*
X182875000Y-90805000D03*
X182875000Y-93345000D03*
X182875000Y-95885000D03*
X182875000Y-98425000D03*
X182875000Y-100965000D03*
X182875000Y-103505000D03*
X182875000Y-106045000D03*
X185415000Y-106045000D03*
X185415000Y-103505000D03*
X185415000Y-100965000D03*
X185415000Y-98425000D03*
X185415000Y-95885000D03*
X185415000Y-93345000D03*
X185415000Y-90805000D03*
X185415000Y-88265000D03*
X185415000Y-85725000D03*
X185415000Y-83185000D03*
X185415000Y-80645000D03*
X185415000Y-78105000D03*
X185415000Y-75565000D03*
X185415000Y-73025000D03*
X185415000Y-70485000D03*
X185415000Y-67945000D03*
X185415000Y-65405000D03*
X185415000Y-62865000D03*
X185415000Y-60325000D03*
X185415000Y-57785000D03*
%TD*%
%TO.C,JP4*%
X78000000Y-76800000D03*
D13*
X78000000Y-79340000D03*
%TD*%
D15*
%TO.C,SW1*%
X71680000Y-91984000D03*
X78180000Y-91984000D03*
X71680000Y-96484000D03*
X78180000Y-96484000D03*
%TD*%
D13*
%TO.C,J2*%
X168910000Y-57785000D03*
D12*
X168910000Y-60325000D03*
X168910000Y-62865000D03*
X168910000Y-65405000D03*
X168910000Y-67945000D03*
X168910000Y-70485000D03*
X168910000Y-73025000D03*
X168910000Y-75565000D03*
X168910000Y-78105000D03*
X168910000Y-80645000D03*
X168910000Y-83185000D03*
X168910000Y-85725000D03*
X168910000Y-88265000D03*
X168910000Y-90805000D03*
X168910000Y-93345000D03*
X168910000Y-95885000D03*
X168910000Y-98425000D03*
X168910000Y-100965000D03*
X168910000Y-103505000D03*
X168910000Y-106045000D03*
X171450000Y-106045000D03*
X171450000Y-103505000D03*
X171450000Y-100965000D03*
X171450000Y-98425000D03*
X171450000Y-95885000D03*
X171450000Y-93345000D03*
X171450000Y-90805000D03*
X171450000Y-88265000D03*
X171450000Y-85725000D03*
X171450000Y-83185000D03*
X171450000Y-80645000D03*
X171450000Y-78105000D03*
X171450000Y-75565000D03*
X171450000Y-73025000D03*
X171450000Y-70485000D03*
X171450000Y-67945000D03*
X171450000Y-65405000D03*
X171450000Y-62865000D03*
X171450000Y-60325000D03*
X171450000Y-57785000D03*
%TD*%
D14*
%TO.C,H4*%
X195000000Y-105000000D03*
%TD*%
D13*
%TO.C,J3*%
X154935000Y-57785000D03*
D12*
X154935000Y-60325000D03*
X154935000Y-62865000D03*
X154935000Y-65405000D03*
X154935000Y-67945000D03*
X154935000Y-70485000D03*
X154935000Y-73025000D03*
X154935000Y-75565000D03*
X154935000Y-78105000D03*
X154935000Y-80645000D03*
X154935000Y-83185000D03*
X154935000Y-85725000D03*
X154935000Y-88265000D03*
X154935000Y-90805000D03*
X154935000Y-93345000D03*
X154935000Y-95885000D03*
X154935000Y-98425000D03*
X154935000Y-100965000D03*
X154935000Y-103505000D03*
X154935000Y-106045000D03*
X157475000Y-106045000D03*
X157475000Y-103505000D03*
X157475000Y-100965000D03*
X157475000Y-98425000D03*
X157475000Y-95885000D03*
X157475000Y-93345000D03*
X157475000Y-90805000D03*
X157475000Y-88265000D03*
X157475000Y-85725000D03*
X157475000Y-83185000D03*
X157475000Y-80645000D03*
X157475000Y-78105000D03*
X157475000Y-75565000D03*
X157475000Y-73025000D03*
X157475000Y-70485000D03*
X157475000Y-67945000D03*
X157475000Y-65405000D03*
X157475000Y-62865000D03*
X157475000Y-60325000D03*
X157475000Y-57785000D03*
%TD*%
D13*
%TO.C,JP2*%
X73000000Y-68000000D03*
D12*
X73000000Y-70540000D03*
%TD*%
D13*
%TO.C,J5*%
X140970000Y-57900000D03*
D12*
X140970000Y-60440000D03*
X140970000Y-62980000D03*
X140970000Y-65520000D03*
X140970000Y-68060000D03*
X140970000Y-70600000D03*
X140970000Y-73140000D03*
X140970000Y-75680000D03*
X140970000Y-78220000D03*
X140970000Y-80760000D03*
X140970000Y-83300000D03*
X140970000Y-85840000D03*
X140970000Y-88380000D03*
X140970000Y-90920000D03*
X140970000Y-93460000D03*
X140970000Y-96000000D03*
X140970000Y-98540000D03*
X140970000Y-101080000D03*
X140970000Y-103620000D03*
X140970000Y-106160000D03*
%TD*%
D14*
%TO.C,H1*%
X195000000Y-59000000D03*
%TD*%
%TO.C,H3*%
X73000000Y-105000000D03*
%TD*%
M02*
