%TF.GenerationSoftware,KiCad,Pcbnew,(6.0.8)*%
%TF.CreationDate,2022-10-02T10:43:25+09:00*%
%TF.ProjectId,KiCad,4b694361-642e-46b6-9963-61645f706362,rev?*%
%TF.SameCoordinates,Original*%
%TF.FileFunction,Copper,L1,Top*%
%TF.FilePolarity,Positive*%
%FSLAX46Y46*%
G04 Gerber Fmt 4.6, Leading zero omitted, Abs format (unit mm)*
G04 Created by KiCad (PCBNEW (6.0.8)) date 2022-10-02 10:43:25*
%MOMM*%
%LPD*%
G01*
G04 APERTURE LIST*
%TA.AperFunction,ComponentPad*%
%ADD10O,1.700000X1.700000*%
%TD*%
%TA.AperFunction,SMDPad,CuDef*%
%ADD11R,3.500000X1.700000*%
%TD*%
%TA.AperFunction,ComponentPad*%
%ADD12R,1.700000X1.700000*%
%TD*%
%TA.AperFunction,SMDPad,CuDef*%
%ADD13R,1.700000X3.500000*%
%TD*%
%TA.AperFunction,ComponentPad*%
%ADD14C,2.000000*%
%TD*%
%TA.AperFunction,ViaPad*%
%ADD15C,0.800000*%
%TD*%
%TA.AperFunction,Conductor*%
%ADD16C,1.000000*%
%TD*%
%TA.AperFunction,Conductor*%
%ADD17C,0.400000*%
%TD*%
G04 APERTURE END LIST*
D10*
%TO.P,U1,1,GPIO0*%
%TO.N,/GP0*%
X118110000Y-57870000D03*
D11*
X117210000Y-57870000D03*
D10*
%TO.P,U1,2,GPIO1*%
%TO.N,/GP1*%
X118110000Y-60410000D03*
D11*
X117210000Y-60410000D03*
%TO.P,U1,3,GND*%
%TO.N,GND*%
X117210000Y-62950000D03*
D12*
X118110000Y-62950000D03*
D10*
%TO.P,U1,4,GPIO2*%
%TO.N,/GP2*%
X118110000Y-65490000D03*
D11*
X117210000Y-65490000D03*
D10*
%TO.P,U1,5,GPIO3*%
%TO.N,/GP3*%
X118110000Y-68030000D03*
D11*
X117210000Y-68030000D03*
D10*
%TO.P,U1,6,GPIO4*%
%TO.N,/GP4*%
X118110000Y-70570000D03*
D11*
X117210000Y-70570000D03*
D10*
%TO.P,U1,7,GPIO5*%
%TO.N,/GP5*%
X118110000Y-73110000D03*
D11*
X117210000Y-73110000D03*
D12*
%TO.P,U1,8,GND*%
%TO.N,GND*%
X118110000Y-75650000D03*
D11*
X117210000Y-75650000D03*
D10*
%TO.P,U1,9,GPIO6*%
%TO.N,/GP6*%
X118110000Y-78190000D03*
D11*
X117210000Y-78190000D03*
%TO.P,U1,10,GPIO7*%
%TO.N,/GP7*%
X117210000Y-80730000D03*
D10*
X118110000Y-80730000D03*
D11*
%TO.P,U1,11,GPIO8*%
%TO.N,/GP8*%
X117210000Y-83270000D03*
D10*
X118110000Y-83270000D03*
D11*
%TO.P,U1,12,GPIO9*%
%TO.N,/GP9*%
X117210000Y-85810000D03*
D10*
X118110000Y-85810000D03*
D12*
%TO.P,U1,13,GND*%
%TO.N,GND*%
X118110000Y-88350000D03*
D11*
X117210000Y-88350000D03*
D10*
%TO.P,U1,14,GPIO10*%
%TO.N,/GP10*%
X118110000Y-90890000D03*
D11*
X117210000Y-90890000D03*
D10*
%TO.P,U1,15,GPIO11*%
%TO.N,/GP11*%
X118110000Y-93430000D03*
D11*
X117210000Y-93430000D03*
%TO.P,U1,16,GPIO12*%
%TO.N,/GP12*%
X117210000Y-95970000D03*
D10*
X118110000Y-95970000D03*
%TO.P,U1,17,GPIO13*%
%TO.N,/GP13*%
X118110000Y-98510000D03*
D11*
X117210000Y-98510000D03*
%TO.P,U1,18,GND*%
%TO.N,GND*%
X117210000Y-101050000D03*
D12*
X118110000Y-101050000D03*
D11*
%TO.P,U1,19,GPIO14*%
%TO.N,/GP14*%
X117210000Y-103590000D03*
D10*
X118110000Y-103590000D03*
D11*
%TO.P,U1,20,GPIO15*%
%TO.N,/GP15*%
X117210000Y-106130000D03*
D10*
X118110000Y-106130000D03*
%TO.P,U1,21,GPIO16*%
%TO.N,/GP16*%
X135890000Y-106130000D03*
D11*
X136790000Y-106130000D03*
%TO.P,U1,22,GPIO17*%
%TO.N,/GP17*%
X136790000Y-103590000D03*
D10*
X135890000Y-103590000D03*
D12*
%TO.P,U1,23,GND*%
%TO.N,GND*%
X135890000Y-101050000D03*
D11*
X136790000Y-101050000D03*
%TO.P,U1,24,GPIO18*%
%TO.N,/GP18*%
X136790000Y-98510000D03*
D10*
X135890000Y-98510000D03*
D11*
%TO.P,U1,25,GPIO19*%
%TO.N,/GP19*%
X136790000Y-95970000D03*
D10*
X135890000Y-95970000D03*
%TO.P,U1,26,GPIO20*%
%TO.N,/GP20*%
X135890000Y-93430000D03*
D11*
X136790000Y-93430000D03*
D10*
%TO.P,U1,27,GPIO21*%
%TO.N,/GP21*%
X135890000Y-90890000D03*
D11*
X136790000Y-90890000D03*
D12*
%TO.P,U1,28,GND*%
%TO.N,GND*%
X135890000Y-88350000D03*
D11*
X136790000Y-88350000D03*
D10*
%TO.P,U1,29,GPIO22*%
%TO.N,/GP22*%
X135890000Y-85810000D03*
D11*
X136790000Y-85810000D03*
%TO.P,U1,30,RUN*%
%TO.N,/RUN*%
X136790000Y-83270000D03*
D10*
X135890000Y-83270000D03*
%TO.P,U1,31,GPIO26_ADC0*%
%TO.N,/GP26*%
X135890000Y-80730000D03*
D11*
X136790000Y-80730000D03*
D10*
%TO.P,U1,32,GPIO27_ADC1*%
%TO.N,/GP27*%
X135890000Y-78190000D03*
D11*
X136790000Y-78190000D03*
%TO.P,U1,33,AGND*%
%TO.N,GND*%
X136790000Y-75650000D03*
D12*
X135890000Y-75650000D03*
D10*
%TO.P,U1,34,GPIO28_ADC2*%
%TO.N,/GP28*%
X135890000Y-73110000D03*
D11*
X136790000Y-73110000D03*
D10*
%TO.P,U1,35,ADC_VREF*%
%TO.N,/ADC_VREF*%
X135890000Y-70570000D03*
D11*
X136790000Y-70570000D03*
%TO.P,U1,36,3V3*%
%TO.N,/3V3*%
X136790000Y-68030000D03*
D10*
X135890000Y-68030000D03*
D11*
%TO.P,U1,37,3V3_EN*%
%TO.N,/3V3_EN*%
X136790000Y-65490000D03*
D10*
X135890000Y-65490000D03*
D11*
%TO.P,U1,38,GND*%
%TO.N,GND*%
X136790000Y-62950000D03*
D12*
X135890000Y-62950000D03*
D11*
%TO.P,U1,39,VSYS*%
%TO.N,/VSYS*%
X136790000Y-60410000D03*
D10*
X135890000Y-60410000D03*
%TO.P,U1,40,VBUS*%
%TO.N,/VBUS*%
X135890000Y-57870000D03*
D11*
X136790000Y-57870000D03*
D13*
%TO.P,U1,41,SWCLK*%
%TO.N,Net-(JP3-Pad1)*%
X124460000Y-106800000D03*
D10*
X124460000Y-105900000D03*
D13*
%TO.P,U1,42,GND*%
%TO.N,GND*%
X127000000Y-106800000D03*
D12*
X127000000Y-105900000D03*
D10*
%TO.P,U1,43,SWDIO*%
%TO.N,Net-(JP4-Pad1)*%
X129540000Y-105900000D03*
D13*
X129540000Y-106800000D03*
%TD*%
D11*
%TO.P,U2,1,GPIO0*%
%TO.N,unconnected-(U2-Pad1)*%
X84190000Y-57870000D03*
D10*
X85090000Y-57870000D03*
D11*
%TO.P,U2,2,GPIO1*%
%TO.N,unconnected-(U2-Pad2)*%
X84190000Y-60410000D03*
D10*
X85090000Y-60410000D03*
D12*
%TO.P,U2,3,GND*%
%TO.N,GND*%
X85090000Y-62950000D03*
D11*
X84190000Y-62950000D03*
D10*
%TO.P,U2,4,GPIO2*%
%TO.N,Net-(JP3-Pad2)*%
X85090000Y-65490000D03*
D11*
X84190000Y-65490000D03*
%TO.P,U2,5,GPIO3*%
%TO.N,Net-(JP4-Pad2)*%
X84190000Y-68030000D03*
D10*
X85090000Y-68030000D03*
D11*
%TO.P,U2,6,GPIO4*%
%TO.N,Net-(JP1-Pad2)*%
X84190000Y-70570000D03*
D10*
X85090000Y-70570000D03*
%TO.P,U2,7,GPIO5*%
%TO.N,Net-(JP2-Pad2)*%
X85090000Y-73110000D03*
D11*
X84190000Y-73110000D03*
D12*
%TO.P,U2,8,GND*%
%TO.N,GND*%
X85090000Y-75650000D03*
D11*
X84190000Y-75650000D03*
D10*
%TO.P,U2,9,GPIO6*%
%TO.N,unconnected-(U2-Pad9)*%
X85090000Y-78190000D03*
D11*
X84190000Y-78190000D03*
D10*
%TO.P,U2,10,GPIO7*%
%TO.N,unconnected-(U2-Pad10)*%
X85090000Y-80730000D03*
D11*
X84190000Y-80730000D03*
%TO.P,U2,11,GPIO8*%
%TO.N,unconnected-(U2-Pad11)*%
X84190000Y-83270000D03*
D10*
X85090000Y-83270000D03*
D11*
%TO.P,U2,12,GPIO9*%
%TO.N,unconnected-(U2-Pad12)*%
X84190000Y-85810000D03*
D10*
X85090000Y-85810000D03*
D12*
%TO.P,U2,13,GND*%
%TO.N,GND*%
X85090000Y-88350000D03*
D11*
X84190000Y-88350000D03*
%TO.P,U2,14,GPIO10*%
%TO.N,unconnected-(U2-Pad14)*%
X84190000Y-90890000D03*
D10*
X85090000Y-90890000D03*
%TO.P,U2,15,GPIO11*%
%TO.N,unconnected-(U2-Pad15)*%
X85090000Y-93430000D03*
D11*
X84190000Y-93430000D03*
%TO.P,U2,16,GPIO12*%
%TO.N,unconnected-(U2-Pad16)*%
X84190000Y-95970000D03*
D10*
X85090000Y-95970000D03*
%TO.P,U2,17,GPIO13*%
%TO.N,unconnected-(U2-Pad17)*%
X85090000Y-98510000D03*
D11*
X84190000Y-98510000D03*
%TO.P,U2,18,GND*%
%TO.N,GND*%
X84190000Y-101050000D03*
D12*
X85090000Y-101050000D03*
D10*
%TO.P,U2,19,GPIO14*%
%TO.N,unconnected-(U2-Pad19)*%
X85090000Y-103590000D03*
D11*
X84190000Y-103590000D03*
%TO.P,U2,20,GPIO15*%
%TO.N,unconnected-(U2-Pad20)*%
X84190000Y-106130000D03*
D10*
X85090000Y-106130000D03*
%TO.P,U2,21,GPIO16*%
%TO.N,unconnected-(U2-Pad21)*%
X102870000Y-106130000D03*
D11*
X103770000Y-106130000D03*
%TO.P,U2,22,GPIO17*%
%TO.N,unconnected-(U2-Pad22)*%
X103770000Y-103590000D03*
D10*
X102870000Y-103590000D03*
D12*
%TO.P,U2,23,GND*%
%TO.N,GND*%
X102870000Y-101050000D03*
D11*
X103770000Y-101050000D03*
D10*
%TO.P,U2,24,GPIO18*%
%TO.N,unconnected-(U2-Pad24)*%
X102870000Y-98510000D03*
D11*
X103770000Y-98510000D03*
D10*
%TO.P,U2,25,GPIO19*%
%TO.N,unconnected-(U2-Pad25)*%
X102870000Y-95970000D03*
D11*
X103770000Y-95970000D03*
%TO.P,U2,26,GPIO20*%
%TO.N,unconnected-(U2-Pad26)*%
X103770000Y-93430000D03*
D10*
X102870000Y-93430000D03*
D11*
%TO.P,U2,27,GPIO21*%
%TO.N,unconnected-(U2-Pad27)*%
X103770000Y-90890000D03*
D10*
X102870000Y-90890000D03*
D12*
%TO.P,U2,28,GND*%
%TO.N,GND*%
X102870000Y-88350000D03*
D11*
X103770000Y-88350000D03*
%TO.P,U2,29,GPIO22*%
%TO.N,unconnected-(U2-Pad29)*%
X103770000Y-85810000D03*
D10*
X102870000Y-85810000D03*
%TO.P,U2,30,RUN*%
%TO.N,unconnected-(U2-Pad30)*%
X102870000Y-83270000D03*
D11*
X103770000Y-83270000D03*
%TO.P,U2,31,GPIO26_ADC0*%
%TO.N,unconnected-(U2-Pad31)*%
X103770000Y-80730000D03*
D10*
X102870000Y-80730000D03*
D11*
%TO.P,U2,32,GPIO27_ADC1*%
%TO.N,unconnected-(U2-Pad32)*%
X103770000Y-78190000D03*
D10*
X102870000Y-78190000D03*
D11*
%TO.P,U2,33,AGND*%
%TO.N,GND*%
X103770000Y-75650000D03*
D12*
X102870000Y-75650000D03*
D11*
%TO.P,U2,34,GPIO28_ADC2*%
%TO.N,unconnected-(U2-Pad34)*%
X103770000Y-73110000D03*
D10*
X102870000Y-73110000D03*
D11*
%TO.P,U2,35,ADC_VREF*%
%TO.N,unconnected-(U2-Pad35)*%
X103770000Y-70570000D03*
D10*
X102870000Y-70570000D03*
%TO.P,U2,36,3V3*%
%TO.N,unconnected-(U2-Pad36)*%
X102870000Y-68030000D03*
D11*
X103770000Y-68030000D03*
%TO.P,U2,37,3V3_EN*%
%TO.N,unconnected-(U2-Pad37)*%
X103770000Y-65490000D03*
D10*
X102870000Y-65490000D03*
D12*
%TO.P,U2,38,GND*%
%TO.N,GND*%
X102870000Y-62950000D03*
D11*
X103770000Y-62950000D03*
D10*
%TO.P,U2,39,VSYS*%
%TO.N,/VSYS*%
X102870000Y-60410000D03*
D11*
X103770000Y-60410000D03*
D10*
%TO.P,U2,40,VBUS*%
%TO.N,unconnected-(U2-Pad40)*%
X102870000Y-57870000D03*
D11*
X103770000Y-57870000D03*
D10*
%TO.P,U2,41,SWCLK*%
%TO.N,unconnected-(U2-Pad41)*%
X91440000Y-105900000D03*
D13*
X91440000Y-106800000D03*
%TO.P,U2,42,GND*%
%TO.N,unconnected-(U2-Pad42)*%
X93980000Y-106800000D03*
D12*
X93980000Y-105900000D03*
D10*
%TO.P,U2,43,SWDIO*%
%TO.N,unconnected-(U2-Pad43)*%
X96520000Y-105900000D03*
D13*
X96520000Y-106800000D03*
%TD*%
D12*
%TO.P,JP3,1,A*%
%TO.N,Net-(JP3-Pad1)*%
X73000000Y-79340000D03*
D10*
%TO.P,JP3,2,B*%
%TO.N,Net-(JP3-Pad2)*%
X73000000Y-76800000D03*
%TD*%
%TO.P,J4,20,Pin_20*%
%TO.N,/GP15*%
X113030000Y-106160000D03*
%TO.P,J4,19,Pin_19*%
%TO.N,/GP14*%
X113030000Y-103620000D03*
%TO.P,J4,18,Pin_18*%
%TO.N,GND*%
X113030000Y-101080000D03*
%TO.P,J4,17,Pin_17*%
%TO.N,/GP13*%
X113030000Y-98540000D03*
%TO.P,J4,16,Pin_16*%
%TO.N,/GP12*%
X113030000Y-96000000D03*
%TO.P,J4,15,Pin_15*%
%TO.N,/GP11*%
X113030000Y-93460000D03*
%TO.P,J4,14,Pin_14*%
%TO.N,/GP10*%
X113030000Y-90920000D03*
%TO.P,J4,13,Pin_13*%
%TO.N,GND*%
X113030000Y-88380000D03*
%TO.P,J4,12,Pin_12*%
%TO.N,/GP9*%
X113030000Y-85840000D03*
%TO.P,J4,11,Pin_11*%
%TO.N,/GP8*%
X113030000Y-83300000D03*
%TO.P,J4,10,Pin_10*%
%TO.N,/GP7*%
X113030000Y-80760000D03*
%TO.P,J4,9,Pin_9*%
%TO.N,/GP6*%
X113030000Y-78220000D03*
%TO.P,J4,8,Pin_8*%
%TO.N,GND*%
X113030000Y-75680000D03*
%TO.P,J4,7,Pin_7*%
%TO.N,/GP5*%
X113030000Y-73140000D03*
%TO.P,J4,6,Pin_6*%
%TO.N,/GP4*%
X113030000Y-70600000D03*
%TO.P,J4,5,Pin_5*%
%TO.N,/GP3*%
X113030000Y-68060000D03*
%TO.P,J4,4,Pin_4*%
%TO.N,/GP2*%
X113030000Y-65520000D03*
%TO.P,J4,3,Pin_3*%
%TO.N,GND*%
X113030000Y-62980000D03*
%TO.P,J4,2,Pin_2*%
%TO.N,/GP1*%
X113030000Y-60440000D03*
D12*
%TO.P,J4,1,Pin_1*%
%TO.N,/GP0*%
X113030000Y-57900000D03*
%TD*%
%TO.P,JP1,1,A*%
%TO.N,/GP1*%
X78000000Y-68000000D03*
D10*
%TO.P,JP1,2,B*%
%TO.N,Net-(JP1-Pad2)*%
X78000000Y-70540000D03*
%TD*%
D12*
%TO.P,J1,1,Pin_1*%
%TO.N,/GP0*%
X182875000Y-57785000D03*
D10*
%TO.P,J1,2,Pin_2*%
%TO.N,/GP1*%
X182875000Y-60325000D03*
%TO.P,J1,3,Pin_3*%
%TO.N,GND*%
X182875000Y-62865000D03*
%TO.P,J1,4,Pin_4*%
%TO.N,/GP2*%
X182875000Y-65405000D03*
%TO.P,J1,5,Pin_5*%
%TO.N,/GP3*%
X182875000Y-67945000D03*
%TO.P,J1,6,Pin_6*%
%TO.N,/GP4*%
X182875000Y-70485000D03*
%TO.P,J1,7,Pin_7*%
%TO.N,/GP5*%
X182875000Y-73025000D03*
%TO.P,J1,8,Pin_8*%
%TO.N,GND*%
X182875000Y-75565000D03*
%TO.P,J1,9,Pin_9*%
%TO.N,/GP6*%
X182875000Y-78105000D03*
%TO.P,J1,10,Pin_10*%
%TO.N,/GP7*%
X182875000Y-80645000D03*
%TO.P,J1,11,Pin_11*%
%TO.N,/GP8*%
X182875000Y-83185000D03*
%TO.P,J1,12,Pin_12*%
%TO.N,/GP9*%
X182875000Y-85725000D03*
%TO.P,J1,13,Pin_13*%
%TO.N,GND*%
X182875000Y-88265000D03*
%TO.P,J1,14,Pin_14*%
%TO.N,/GP10*%
X182875000Y-90805000D03*
%TO.P,J1,15,Pin_15*%
%TO.N,/GP11*%
X182875000Y-93345000D03*
%TO.P,J1,16,Pin_16*%
%TO.N,/GP12*%
X182875000Y-95885000D03*
%TO.P,J1,17,Pin_17*%
%TO.N,/GP13*%
X182875000Y-98425000D03*
%TO.P,J1,18,Pin_18*%
%TO.N,GND*%
X182875000Y-100965000D03*
%TO.P,J1,19,Pin_19*%
%TO.N,/GP14*%
X182875000Y-103505000D03*
%TO.P,J1,20,Pin_20*%
%TO.N,/GP15*%
X182875000Y-106045000D03*
%TO.P,J1,21,Pin_21*%
%TO.N,/GP16*%
X185415000Y-106045000D03*
%TO.P,J1,22,Pin_22*%
%TO.N,/GP17*%
X185415000Y-103505000D03*
%TO.P,J1,23,Pin_23*%
%TO.N,GND*%
X185415000Y-100965000D03*
%TO.P,J1,24,Pin_24*%
%TO.N,/GP18*%
X185415000Y-98425000D03*
%TO.P,J1,25,Pin_25*%
%TO.N,/GP19*%
X185415000Y-95885000D03*
%TO.P,J1,26,Pin_26*%
%TO.N,/GP20*%
X185415000Y-93345000D03*
%TO.P,J1,27,Pin_27*%
%TO.N,/GP21*%
X185415000Y-90805000D03*
%TO.P,J1,28,Pin_28*%
%TO.N,GND*%
X185415000Y-88265000D03*
%TO.P,J1,29,Pin_29*%
%TO.N,/GP22*%
X185415000Y-85725000D03*
%TO.P,J1,30,Pin_30*%
%TO.N,/RUN*%
X185415000Y-83185000D03*
%TO.P,J1,31,Pin_31*%
%TO.N,/GP26*%
X185415000Y-80645000D03*
%TO.P,J1,32,Pin_32*%
%TO.N,/GP27*%
X185415000Y-78105000D03*
%TO.P,J1,33,Pin_33*%
%TO.N,GND*%
X185415000Y-75565000D03*
%TO.P,J1,34,Pin_34*%
%TO.N,/GP28*%
X185415000Y-73025000D03*
%TO.P,J1,35,Pin_35*%
%TO.N,/3V3*%
X185415000Y-70485000D03*
%TO.P,J1,36,Pin_36*%
X185415000Y-67945000D03*
%TO.P,J1,37,Pin_37*%
X185415000Y-65405000D03*
%TO.P,J1,38,Pin_38*%
%TO.N,GND*%
X185415000Y-62865000D03*
%TO.P,J1,39,Pin_39*%
%TO.N,/VSYS*%
X185415000Y-60325000D03*
%TO.P,J1,40,Pin_40*%
X185415000Y-57785000D03*
%TD*%
%TO.P,JP4,2,B*%
%TO.N,Net-(JP4-Pad2)*%
X78000000Y-76800000D03*
D12*
%TO.P,JP4,1,A*%
%TO.N,Net-(JP4-Pad1)*%
X78000000Y-79340000D03*
%TD*%
D14*
%TO.P,SW1,1,1*%
%TO.N,/RUN*%
X71680000Y-91984000D03*
X78180000Y-91984000D03*
%TO.P,SW1,2,2*%
%TO.N,GND*%
X71680000Y-96484000D03*
X78180000Y-96484000D03*
%TD*%
D12*
%TO.P,J2,1,Pin_1*%
%TO.N,/GP0*%
X168910000Y-57785000D03*
D10*
%TO.P,J2,2,Pin_2*%
%TO.N,/GP1*%
X168910000Y-60325000D03*
%TO.P,J2,3,Pin_3*%
%TO.N,GND*%
X168910000Y-62865000D03*
%TO.P,J2,4,Pin_4*%
%TO.N,/GP2*%
X168910000Y-65405000D03*
%TO.P,J2,5,Pin_5*%
%TO.N,/GP3*%
X168910000Y-67945000D03*
%TO.P,J2,6,Pin_6*%
%TO.N,/GP4*%
X168910000Y-70485000D03*
%TO.P,J2,7,Pin_7*%
%TO.N,/GP5*%
X168910000Y-73025000D03*
%TO.P,J2,8,Pin_8*%
%TO.N,GND*%
X168910000Y-75565000D03*
%TO.P,J2,9,Pin_9*%
%TO.N,/GP6*%
X168910000Y-78105000D03*
%TO.P,J2,10,Pin_10*%
%TO.N,/GP7*%
X168910000Y-80645000D03*
%TO.P,J2,11,Pin_11*%
%TO.N,/GP8*%
X168910000Y-83185000D03*
%TO.P,J2,12,Pin_12*%
%TO.N,/GP9*%
X168910000Y-85725000D03*
%TO.P,J2,13,Pin_13*%
%TO.N,GND*%
X168910000Y-88265000D03*
%TO.P,J2,14,Pin_14*%
%TO.N,/GP10*%
X168910000Y-90805000D03*
%TO.P,J2,15,Pin_15*%
%TO.N,/GP11*%
X168910000Y-93345000D03*
%TO.P,J2,16,Pin_16*%
%TO.N,/GP12*%
X168910000Y-95885000D03*
%TO.P,J2,17,Pin_17*%
%TO.N,/GP13*%
X168910000Y-98425000D03*
%TO.P,J2,18,Pin_18*%
%TO.N,GND*%
X168910000Y-100965000D03*
%TO.P,J2,19,Pin_19*%
%TO.N,/GP14*%
X168910000Y-103505000D03*
%TO.P,J2,20,Pin_20*%
%TO.N,/GP15*%
X168910000Y-106045000D03*
%TO.P,J2,21,Pin_21*%
%TO.N,/GP16*%
X171450000Y-106045000D03*
%TO.P,J2,22,Pin_22*%
%TO.N,/GP17*%
X171450000Y-103505000D03*
%TO.P,J2,23,Pin_23*%
%TO.N,GND*%
X171450000Y-100965000D03*
%TO.P,J2,24,Pin_24*%
%TO.N,/GP18*%
X171450000Y-98425000D03*
%TO.P,J2,25,Pin_25*%
%TO.N,/GP19*%
X171450000Y-95885000D03*
%TO.P,J2,26,Pin_26*%
%TO.N,/GP20*%
X171450000Y-93345000D03*
%TO.P,J2,27,Pin_27*%
%TO.N,/GP21*%
X171450000Y-90805000D03*
%TO.P,J2,28,Pin_28*%
%TO.N,GND*%
X171450000Y-88265000D03*
%TO.P,J2,29,Pin_29*%
%TO.N,/GP22*%
X171450000Y-85725000D03*
%TO.P,J2,30,Pin_30*%
%TO.N,/RUN*%
X171450000Y-83185000D03*
%TO.P,J2,31,Pin_31*%
%TO.N,/GP26*%
X171450000Y-80645000D03*
%TO.P,J2,32,Pin_32*%
%TO.N,/GP27*%
X171450000Y-78105000D03*
%TO.P,J2,33,Pin_33*%
%TO.N,GND*%
X171450000Y-75565000D03*
%TO.P,J2,34,Pin_34*%
%TO.N,/GP28*%
X171450000Y-73025000D03*
%TO.P,J2,35,Pin_35*%
%TO.N,/3V3*%
X171450000Y-70485000D03*
%TO.P,J2,36,Pin_36*%
X171450000Y-67945000D03*
%TO.P,J2,37,Pin_37*%
X171450000Y-65405000D03*
%TO.P,J2,38,Pin_38*%
%TO.N,GND*%
X171450000Y-62865000D03*
%TO.P,J2,39,Pin_39*%
%TO.N,/VSYS*%
X171450000Y-60325000D03*
%TO.P,J2,40,Pin_40*%
X171450000Y-57785000D03*
%TD*%
D12*
%TO.P,J3,1,Pin_1*%
%TO.N,/GP0*%
X154935000Y-57785000D03*
D10*
%TO.P,J3,2,Pin_2*%
%TO.N,/GP1*%
X154935000Y-60325000D03*
%TO.P,J3,3,Pin_3*%
%TO.N,GND*%
X154935000Y-62865000D03*
%TO.P,J3,4,Pin_4*%
%TO.N,/GP2*%
X154935000Y-65405000D03*
%TO.P,J3,5,Pin_5*%
%TO.N,/GP3*%
X154935000Y-67945000D03*
%TO.P,J3,6,Pin_6*%
%TO.N,/GP4*%
X154935000Y-70485000D03*
%TO.P,J3,7,Pin_7*%
%TO.N,/GP5*%
X154935000Y-73025000D03*
%TO.P,J3,8,Pin_8*%
%TO.N,GND*%
X154935000Y-75565000D03*
%TO.P,J3,9,Pin_9*%
%TO.N,/GP6*%
X154935000Y-78105000D03*
%TO.P,J3,10,Pin_10*%
%TO.N,/GP7*%
X154935000Y-80645000D03*
%TO.P,J3,11,Pin_11*%
%TO.N,/GP8*%
X154935000Y-83185000D03*
%TO.P,J3,12,Pin_12*%
%TO.N,/GP9*%
X154935000Y-85725000D03*
%TO.P,J3,13,Pin_13*%
%TO.N,GND*%
X154935000Y-88265000D03*
%TO.P,J3,14,Pin_14*%
%TO.N,/GP10*%
X154935000Y-90805000D03*
%TO.P,J3,15,Pin_15*%
%TO.N,/GP11*%
X154935000Y-93345000D03*
%TO.P,J3,16,Pin_16*%
%TO.N,/GP12*%
X154935000Y-95885000D03*
%TO.P,J3,17,Pin_17*%
%TO.N,/GP13*%
X154935000Y-98425000D03*
%TO.P,J3,18,Pin_18*%
%TO.N,GND*%
X154935000Y-100965000D03*
%TO.P,J3,19,Pin_19*%
%TO.N,/GP14*%
X154935000Y-103505000D03*
%TO.P,J3,20,Pin_20*%
%TO.N,/GP15*%
X154935000Y-106045000D03*
%TO.P,J3,21,Pin_21*%
%TO.N,/GP16*%
X157475000Y-106045000D03*
%TO.P,J3,22,Pin_22*%
%TO.N,/GP17*%
X157475000Y-103505000D03*
%TO.P,J3,23,Pin_23*%
%TO.N,GND*%
X157475000Y-100965000D03*
%TO.P,J3,24,Pin_24*%
%TO.N,/GP18*%
X157475000Y-98425000D03*
%TO.P,J3,25,Pin_25*%
%TO.N,/GP19*%
X157475000Y-95885000D03*
%TO.P,J3,26,Pin_26*%
%TO.N,/GP20*%
X157475000Y-93345000D03*
%TO.P,J3,27,Pin_27*%
%TO.N,/GP21*%
X157475000Y-90805000D03*
%TO.P,J3,28,Pin_28*%
%TO.N,GND*%
X157475000Y-88265000D03*
%TO.P,J3,29,Pin_29*%
%TO.N,/GP22*%
X157475000Y-85725000D03*
%TO.P,J3,30,Pin_30*%
%TO.N,/RUN*%
X157475000Y-83185000D03*
%TO.P,J3,31,Pin_31*%
%TO.N,/GP26*%
X157475000Y-80645000D03*
%TO.P,J3,32,Pin_32*%
%TO.N,/GP27*%
X157475000Y-78105000D03*
%TO.P,J3,33,Pin_33*%
%TO.N,GND*%
X157475000Y-75565000D03*
%TO.P,J3,34,Pin_34*%
%TO.N,/GP28*%
X157475000Y-73025000D03*
%TO.P,J3,35,Pin_35*%
%TO.N,/3V3*%
X157475000Y-70485000D03*
%TO.P,J3,36,Pin_36*%
X157475000Y-67945000D03*
%TO.P,J3,37,Pin_37*%
X157475000Y-65405000D03*
%TO.P,J3,38,Pin_38*%
%TO.N,GND*%
X157475000Y-62865000D03*
%TO.P,J3,39,Pin_39*%
%TO.N,/VSYS*%
X157475000Y-60325000D03*
%TO.P,J3,40,Pin_40*%
X157475000Y-57785000D03*
%TD*%
D12*
%TO.P,JP2,1,A*%
%TO.N,/GP0*%
X73000000Y-68000000D03*
D10*
%TO.P,JP2,2,B*%
%TO.N,Net-(JP2-Pad2)*%
X73000000Y-70540000D03*
%TD*%
D12*
%TO.P,J5,1,Pin_1*%
%TO.N,/VBUS*%
X140970000Y-57900000D03*
D10*
%TO.P,J5,2,Pin_2*%
%TO.N,/VSYS*%
X140970000Y-60440000D03*
%TO.P,J5,3,Pin_3*%
%TO.N,GND*%
X140970000Y-62980000D03*
%TO.P,J5,4,Pin_4*%
%TO.N,/3V3_EN*%
X140970000Y-65520000D03*
%TO.P,J5,5,Pin_5*%
%TO.N,/3V3*%
X140970000Y-68060000D03*
%TO.P,J5,6,Pin_6*%
%TO.N,/ADC_VREF*%
X140970000Y-70600000D03*
%TO.P,J5,7,Pin_7*%
%TO.N,/GP28*%
X140970000Y-73140000D03*
%TO.P,J5,8,Pin_8*%
%TO.N,GND*%
X140970000Y-75680000D03*
%TO.P,J5,9,Pin_9*%
%TO.N,/GP27*%
X140970000Y-78220000D03*
%TO.P,J5,10,Pin_10*%
%TO.N,/GP26*%
X140970000Y-80760000D03*
%TO.P,J5,11,Pin_11*%
%TO.N,/RUN*%
X140970000Y-83300000D03*
%TO.P,J5,12,Pin_12*%
%TO.N,/GP22*%
X140970000Y-85840000D03*
%TO.P,J5,13,Pin_13*%
%TO.N,GND*%
X140970000Y-88380000D03*
%TO.P,J5,14,Pin_14*%
%TO.N,/GP21*%
X140970000Y-90920000D03*
%TO.P,J5,15,Pin_15*%
%TO.N,/GP20*%
X140970000Y-93460000D03*
%TO.P,J5,16,Pin_16*%
%TO.N,/GP19*%
X140970000Y-96000000D03*
%TO.P,J5,17,Pin_17*%
%TO.N,/GP18*%
X140970000Y-98540000D03*
%TO.P,J5,18,Pin_18*%
%TO.N,GND*%
X140970000Y-101080000D03*
%TO.P,J5,19,Pin_19*%
%TO.N,/GP17*%
X140970000Y-103620000D03*
%TO.P,J5,20,Pin_20*%
%TO.N,/GP16*%
X140970000Y-106160000D03*
%TD*%
D15*
%TO.N,/3V3*%
X161036000Y-57912000D03*
X174498000Y-57912000D03*
X145796000Y-57658000D03*
%TD*%
D16*
%TO.N,GND*%
X113000000Y-62950000D02*
X113030000Y-62980000D01*
X102870000Y-62950000D02*
X113000000Y-62950000D01*
X85090000Y-101050000D02*
X78314600Y-101050000D01*
X78314600Y-101050000D02*
X78180000Y-100915400D01*
X78180000Y-96484000D02*
X78180000Y-100915400D01*
D17*
%TO.N,/GP13*%
X126958000Y-98510000D02*
X118110000Y-98510000D01*
D16*
%TO.N,GND*%
X135920000Y-62980000D02*
X135890000Y-62950000D01*
X140970000Y-62980000D02*
X135920000Y-62980000D01*
X141085000Y-62865000D02*
X140970000Y-62980000D01*
X154935000Y-62865000D02*
X141085000Y-62865000D01*
X157475000Y-62865000D02*
X154935000Y-62865000D01*
X168910000Y-62865000D02*
X157475000Y-62865000D01*
X182875000Y-62865000D02*
X171450000Y-62865000D01*
D17*
%TO.N,/GP5*%
X119922200Y-73110000D02*
X118110000Y-73110000D01*
X123742200Y-76930000D02*
X119922200Y-73110000D01*
X151030000Y-76930000D02*
X123742200Y-76930000D01*
X154935000Y-73025000D02*
X151030000Y-76930000D01*
%TO.N,/GP4*%
X119769800Y-70570000D02*
X118110000Y-70570000D01*
X123599800Y-74400000D02*
X119769800Y-70570000D01*
X151020000Y-74400000D02*
X123599800Y-74400000D01*
X154935000Y-70485000D02*
X151020000Y-74400000D01*
%TO.N,/GP3*%
X119650600Y-68030000D02*
X118110000Y-68030000D01*
X119659400Y-68021200D02*
X119650600Y-68030000D01*
X123498200Y-71860000D02*
X119659400Y-68021200D01*
X151020000Y-71860000D02*
X123498200Y-71860000D01*
X154935000Y-67945000D02*
X151020000Y-71860000D01*
%TO.N,/GP2*%
X119955400Y-65490000D02*
X118110000Y-65490000D01*
X122463000Y-62982400D02*
X119955400Y-65490000D01*
X131562400Y-62982400D02*
X122463000Y-62982400D01*
X132810000Y-64230000D02*
X131562400Y-62982400D01*
X154935000Y-65405000D02*
X153760000Y-64230000D01*
X153760000Y-64230000D02*
X132810000Y-64230000D01*
%TO.N,/GP0*%
X120658800Y-57870000D02*
X118110000Y-57870000D01*
X134308600Y-59150000D02*
X131673600Y-56515000D01*
X122013800Y-56515000D02*
X120658800Y-57870000D01*
X153570000Y-59150000D02*
X134308600Y-59150000D01*
X131673600Y-56515000D02*
X122013800Y-56515000D01*
X154935000Y-57785000D02*
X153570000Y-59150000D01*
%TO.N,/GP1*%
X120481000Y-60410000D02*
X118110000Y-60410000D01*
X122453400Y-62382400D02*
X120481000Y-60410000D01*
X132391400Y-61690000D02*
X131699000Y-62382400D01*
X153570000Y-61690000D02*
X132391400Y-61690000D01*
X154935000Y-60325000D02*
X153570000Y-61690000D01*
X131699000Y-62382400D02*
X122453400Y-62382400D01*
D16*
%TO.N,/3V3*%
X188341000Y-56261000D02*
X188214000Y-56134000D01*
X188341000Y-65405000D02*
X188341000Y-56261000D01*
X145796000Y-57658000D02*
X145796000Y-56134000D01*
X145796000Y-56134000D02*
X161163000Y-56134000D01*
D17*
%TO.N,/RUN*%
X78250000Y-82049400D02*
X78250000Y-91750000D01*
X78282800Y-82016600D02*
X78250000Y-82049400D01*
X78286200Y-82020000D02*
X78282800Y-82016600D01*
X78250000Y-91750000D02*
X71750000Y-91750000D01*
X128228000Y-83270000D02*
X126978000Y-82020000D01*
X126978000Y-82020000D02*
X78286200Y-82020000D01*
X135890000Y-83270000D02*
X128228000Y-83270000D01*
D16*
%TO.N,/3V3*%
X161036000Y-56261000D02*
X161163000Y-56134000D01*
X161036000Y-57912000D02*
X161036000Y-56261000D01*
X161163000Y-56134000D02*
X174371000Y-56134000D01*
X174498000Y-57912000D02*
X174498000Y-56261000D01*
X174371000Y-56134000D02*
X188214000Y-56134000D01*
X174498000Y-56261000D02*
X174371000Y-56134000D01*
X188341000Y-65405000D02*
X185415000Y-65405000D01*
D17*
%TO.N,Net-(JP3-Pad2)*%
X73000000Y-75082000D02*
X73000000Y-76800000D01*
X73660000Y-74422000D02*
X73000000Y-75082000D01*
X79502000Y-74422000D02*
X73660000Y-74422000D01*
X80010000Y-73914000D02*
X79502000Y-74422000D01*
X80010000Y-66548000D02*
X80010000Y-73914000D01*
X81068000Y-65490000D02*
X80010000Y-66548000D01*
X85090000Y-65490000D02*
X81068000Y-65490000D01*
%TO.N,Net-(JP4-Pad2)*%
X80680000Y-76800000D02*
X78000000Y-76800000D01*
X81280000Y-68580000D02*
X81280000Y-76200000D01*
X81788000Y-68072000D02*
X81280000Y-68580000D01*
X85090000Y-68030000D02*
X83330000Y-68030000D01*
X83330000Y-68030000D02*
X83288000Y-68072000D01*
X83288000Y-68072000D02*
X81788000Y-68072000D01*
X81280000Y-76200000D02*
X80680000Y-76800000D01*
%TO.N,/GP15*%
X118152000Y-106172000D02*
X118110000Y-106130000D01*
X120650000Y-106172000D02*
X118152000Y-106172000D01*
X132334000Y-103632000D02*
X123190000Y-103632000D01*
X133572000Y-104870000D02*
X132334000Y-103632000D01*
X123190000Y-103632000D02*
X120650000Y-106172000D01*
X153760000Y-104870000D02*
X133572000Y-104870000D01*
X154935000Y-106045000D02*
X153760000Y-104870000D01*
%TO.N,/GP14*%
X118152000Y-103632000D02*
X118110000Y-103590000D01*
X120396000Y-103632000D02*
X118152000Y-103632000D01*
X121698000Y-102330000D02*
X120396000Y-103632000D01*
X153760000Y-102330000D02*
X121698000Y-102330000D01*
X154935000Y-103505000D02*
X153760000Y-102330000D01*
%TO.N,/GP13*%
X128238000Y-99790000D02*
X126958000Y-98510000D01*
X153570000Y-99790000D02*
X128238000Y-99790000D01*
X154935000Y-98425000D02*
X153570000Y-99790000D01*
%TO.N,/GP12*%
X128238000Y-97250000D02*
X126958000Y-95970000D01*
X153570000Y-97250000D02*
X128238000Y-97250000D01*
X154935000Y-95885000D02*
X153570000Y-97250000D01*
X126958000Y-95970000D02*
X118110000Y-95970000D01*
%TO.N,/GP11*%
X126958000Y-93430000D02*
X118110000Y-93430000D01*
X128238000Y-94710000D02*
X126958000Y-93430000D01*
X153570000Y-94710000D02*
X128238000Y-94710000D01*
X154935000Y-93345000D02*
X153570000Y-94710000D01*
%TO.N,/GP10*%
X126958000Y-90890000D02*
X118110000Y-90890000D01*
X153560000Y-92180000D02*
X128248000Y-92180000D01*
X128248000Y-92180000D02*
X126958000Y-90890000D01*
X154935000Y-90805000D02*
X153560000Y-92180000D01*
%TO.N,/GP9*%
X128238000Y-87090000D02*
X126958000Y-85810000D01*
X153570000Y-87090000D02*
X128238000Y-87090000D01*
X126958000Y-85810000D02*
X118110000Y-85810000D01*
X154935000Y-85725000D02*
X153570000Y-87090000D01*
%TO.N,/GP8*%
X128238000Y-84550000D02*
X126958000Y-83270000D01*
X153570000Y-84550000D02*
X128238000Y-84550000D01*
X154935000Y-83185000D02*
X153570000Y-84550000D01*
X126958000Y-83270000D02*
X118110000Y-83270000D01*
%TO.N,/GP7*%
X126958000Y-80730000D02*
X118110000Y-80730000D01*
X128238000Y-82010000D02*
X126958000Y-80730000D01*
X153570000Y-82010000D02*
X128238000Y-82010000D01*
X154935000Y-80645000D02*
X153570000Y-82010000D01*
%TO.N,/GP6*%
X126704000Y-78190000D02*
X118110000Y-78190000D01*
X153570000Y-79470000D02*
X127984000Y-79470000D01*
X154935000Y-78105000D02*
X153570000Y-79470000D01*
X127984000Y-79470000D02*
X126704000Y-78190000D01*
%TO.N,/GP0*%
X170160000Y-59035000D02*
X181625000Y-59035000D01*
X167660000Y-59035000D02*
X168910000Y-57785000D01*
X156185000Y-59035000D02*
X167660000Y-59035000D01*
X154935000Y-57785000D02*
X156185000Y-59035000D01*
X168910000Y-57785000D02*
X170160000Y-59035000D01*
X181625000Y-59035000D02*
X182875000Y-57785000D01*
%TO.N,/GP1*%
X170180000Y-61595000D02*
X181610000Y-61595000D01*
X156205000Y-61595000D02*
X167640000Y-61595000D01*
X154935000Y-60325000D02*
X156205000Y-61595000D01*
X182875000Y-60325000D02*
X181610000Y-61590000D01*
X168910000Y-60325000D02*
X170180000Y-61595000D01*
X181610000Y-61590000D02*
X181610000Y-61595000D01*
X167640000Y-61595000D02*
X168910000Y-60325000D01*
%TO.N,/GP2*%
X168910000Y-65405000D02*
X170160000Y-66655000D01*
X181625000Y-66655000D02*
X182875000Y-65405000D01*
X156185000Y-66655000D02*
X167660000Y-66655000D01*
X170160000Y-66655000D02*
X181625000Y-66655000D01*
X167660000Y-66655000D02*
X168910000Y-65405000D01*
X154935000Y-65405000D02*
X156185000Y-66655000D01*
%TO.N,/GP3*%
X181605000Y-69215000D02*
X182875000Y-67945000D01*
X154935000Y-67945000D02*
X156205000Y-69215000D01*
X156205000Y-69215000D02*
X167640000Y-69215000D01*
X168910000Y-67945000D02*
X170180000Y-69215000D01*
X167640000Y-69215000D02*
X168910000Y-67945000D01*
X170180000Y-69215000D02*
X181605000Y-69215000D01*
%TO.N,/GP4*%
X168910000Y-70485000D02*
X170180000Y-71755000D01*
X156205000Y-71755000D02*
X167640000Y-71755000D01*
X170180000Y-71755000D02*
X181605000Y-71755000D01*
X181605000Y-71755000D02*
X182875000Y-70485000D01*
X167640000Y-71755000D02*
X168910000Y-70485000D01*
X154935000Y-70485000D02*
X156205000Y-71755000D01*
%TO.N,/GP5*%
X170180000Y-74295000D02*
X181610000Y-74295000D01*
X182875000Y-73025000D02*
X181610000Y-74290000D01*
X167640000Y-74295000D02*
X168910000Y-73025000D01*
X181610000Y-74290000D02*
X181610000Y-74295000D01*
X156205000Y-74295000D02*
X167640000Y-74295000D01*
X154935000Y-73025000D02*
X156205000Y-74295000D01*
X168910000Y-73025000D02*
X170180000Y-74295000D01*
%TO.N,/GP6*%
X156205000Y-79375000D02*
X167640000Y-79375000D01*
X170180000Y-79375000D02*
X181605000Y-79375000D01*
X168910000Y-78105000D02*
X170180000Y-79375000D01*
X167640000Y-79375000D02*
X168910000Y-78105000D01*
X154935000Y-78105000D02*
X156205000Y-79375000D01*
X181605000Y-79375000D02*
X182875000Y-78105000D01*
%TO.N,/GP7*%
X170180000Y-81915000D02*
X181605000Y-81915000D01*
X181605000Y-81915000D02*
X182875000Y-80645000D01*
X154935000Y-80645000D02*
X156205000Y-81915000D01*
X156205000Y-81915000D02*
X167640000Y-81915000D01*
X168910000Y-80645000D02*
X170180000Y-81915000D01*
X167640000Y-81915000D02*
X168910000Y-80645000D01*
%TO.N,/GP8*%
X156205000Y-84455000D02*
X167640000Y-84455000D01*
X154935000Y-83185000D02*
X156205000Y-84455000D01*
X167640000Y-84455000D02*
X168910000Y-83185000D01*
X170180000Y-84455000D02*
X181605000Y-84455000D01*
X168910000Y-83185000D02*
X170180000Y-84455000D01*
X181605000Y-84455000D02*
X182875000Y-83185000D01*
%TO.N,/GP9*%
X154935000Y-85725000D02*
X156205000Y-86995000D01*
X167640000Y-86995000D02*
X168910000Y-85725000D01*
X170180000Y-86995000D02*
X181605000Y-86995000D01*
X181605000Y-86995000D02*
X182875000Y-85725000D01*
X168910000Y-85725000D02*
X170180000Y-86995000D01*
X156205000Y-86995000D02*
X167640000Y-86995000D01*
%TO.N,/GP10*%
X167640000Y-92075000D02*
X168910000Y-90805000D01*
X181605000Y-92075000D02*
X182875000Y-90805000D01*
X168910000Y-90805000D02*
X170180000Y-92075000D01*
X170180000Y-92075000D02*
X181605000Y-92075000D01*
X154935000Y-90805000D02*
X156205000Y-92075000D01*
X156205000Y-92075000D02*
X167640000Y-92075000D01*
%TO.N,/GP11*%
X181605000Y-94615000D02*
X182875000Y-93345000D01*
X168910000Y-93345000D02*
X170180000Y-94615000D01*
X170180000Y-94615000D02*
X181605000Y-94615000D01*
X154935000Y-93345000D02*
X156205000Y-94615000D01*
X156205000Y-94615000D02*
X167640000Y-94615000D01*
X167640000Y-94615000D02*
X168910000Y-93345000D01*
%TO.N,/GP12*%
X181605000Y-97155000D02*
X182875000Y-95885000D01*
X154935000Y-95885000D02*
X156205000Y-97155000D01*
X167640000Y-97155000D02*
X168910000Y-95885000D01*
X168910000Y-95885000D02*
X170180000Y-97155000D01*
X170180000Y-97155000D02*
X181605000Y-97155000D01*
X156205000Y-97155000D02*
X167640000Y-97155000D01*
%TO.N,/GP13*%
X156205000Y-99695000D02*
X167640000Y-99695000D01*
X170180000Y-99695000D02*
X181605000Y-99695000D01*
X154935000Y-98425000D02*
X156205000Y-99695000D01*
X167640000Y-99695000D02*
X168910000Y-98425000D01*
X168910000Y-98425000D02*
X170180000Y-99695000D01*
X181605000Y-99695000D02*
X182875000Y-98425000D01*
%TO.N,/GP14*%
X154935000Y-103505000D02*
X156205000Y-104775000D01*
X170180000Y-104775000D02*
X181605000Y-104775000D01*
X156205000Y-104775000D02*
X167640000Y-104775000D01*
X167640000Y-104775000D02*
X168910000Y-103505000D01*
X181605000Y-104775000D02*
X182875000Y-103505000D01*
X168910000Y-103505000D02*
X170180000Y-104775000D01*
%TO.N,/GP15*%
X181605000Y-107315000D02*
X182875000Y-106045000D01*
X156205000Y-107315000D02*
X167640000Y-107315000D01*
X168910000Y-106045000D02*
X170180000Y-107315000D01*
X170180000Y-107315000D02*
X181605000Y-107315000D01*
X154935000Y-106045000D02*
X156205000Y-107315000D01*
X167640000Y-107315000D02*
X168910000Y-106045000D01*
%TD*%
M02*
