M48
; DRILL file {KiCad (6.0.8)} date Sun Oct  2 10:43:29 2022
; FORMAT={-:-/ absolute / metric / decimal}
; #@! TF.CreationDate,2022-10-02T10:43:29+09:00
; #@! TF.GenerationSoftware,Kicad,Pcbnew,(6.0.8)
; #@! TF.FileFunction,Plated,1,2,PTH
FMAT,2
METRIC
; #@! TA.AperFunction,Plated,PTH,ViaDrill
T1C0.400
; #@! TA.AperFunction,Plated,PTH,ComponentDrill
T2C1.000
; #@! TA.AperFunction,Plated,PTH,ComponentDrill
T3C1.020
; #@! TA.AperFunction,Plated,PTH,ComponentDrill
T4C1.100
%
G90
G05
T1
X145.796Y-57.658
X161.036Y-57.912
X174.498Y-57.912
T2
X73.0Y-68.0
X73.0Y-70.54
X73.0Y-76.8
X73.0Y-79.34
X78.0Y-68.0
X78.0Y-70.54
X78.0Y-76.8
X78.0Y-79.34
X113.03Y-57.9
X113.03Y-60.44
X113.03Y-62.98
X113.03Y-65.52
X113.03Y-68.06
X113.03Y-70.6
X113.03Y-73.14
X113.03Y-75.68
X113.03Y-78.22
X113.03Y-80.76
X113.03Y-83.3
X113.03Y-85.84
X113.03Y-88.38
X113.03Y-90.92
X113.03Y-93.46
X113.03Y-96.0
X113.03Y-98.54
X113.03Y-101.08
X113.03Y-103.62
X113.03Y-106.16
X140.97Y-57.9
X140.97Y-60.44
X140.97Y-62.98
X140.97Y-65.52
X140.97Y-68.06
X140.97Y-70.6
X140.97Y-73.14
X140.97Y-75.68
X140.97Y-78.22
X140.97Y-80.76
X140.97Y-83.3
X140.97Y-85.84
X140.97Y-88.38
X140.97Y-90.92
X140.97Y-93.46
X140.97Y-96.0
X140.97Y-98.54
X140.97Y-101.08
X140.97Y-103.62
X140.97Y-106.16
X154.935Y-57.785
X154.935Y-60.325
X154.935Y-62.865
X154.935Y-65.405
X154.935Y-67.945
X154.935Y-70.485
X154.935Y-73.025
X154.935Y-75.565
X154.935Y-78.105
X154.935Y-80.645
X154.935Y-83.185
X154.935Y-85.725
X154.935Y-88.265
X154.935Y-90.805
X154.935Y-93.345
X154.935Y-95.885
X154.935Y-98.425
X154.935Y-100.965
X154.935Y-103.505
X154.935Y-106.045
X157.475Y-57.785
X157.475Y-60.325
X157.475Y-62.865
X157.475Y-65.405
X157.475Y-67.945
X157.475Y-70.485
X157.475Y-73.025
X157.475Y-75.565
X157.475Y-78.105
X157.475Y-80.645
X157.475Y-83.185
X157.475Y-85.725
X157.475Y-88.265
X157.475Y-90.805
X157.475Y-93.345
X157.475Y-95.885
X157.475Y-98.425
X157.475Y-100.965
X157.475Y-103.505
X157.475Y-106.045
X168.91Y-57.785
X168.91Y-60.325
X168.91Y-62.865
X168.91Y-65.405
X168.91Y-67.945
X168.91Y-70.485
X168.91Y-73.025
X168.91Y-75.565
X168.91Y-78.105
X168.91Y-80.645
X168.91Y-83.185
X168.91Y-85.725
X168.91Y-88.265
X168.91Y-90.805
X168.91Y-93.345
X168.91Y-95.885
X168.91Y-98.425
X168.91Y-100.965
X168.91Y-103.505
X168.91Y-106.045
X171.45Y-57.785
X171.45Y-60.325
X171.45Y-62.865
X171.45Y-65.405
X171.45Y-67.945
X171.45Y-70.485
X171.45Y-73.025
X171.45Y-75.565
X171.45Y-78.105
X171.45Y-80.645
X171.45Y-83.185
X171.45Y-85.725
X171.45Y-88.265
X171.45Y-90.805
X171.45Y-93.345
X171.45Y-95.885
X171.45Y-98.425
X171.45Y-100.965
X171.45Y-103.505
X171.45Y-106.045
X182.875Y-57.785
X182.875Y-60.325
X182.875Y-62.865
X182.875Y-65.405
X182.875Y-67.945
X182.875Y-70.485
X182.875Y-73.025
X182.875Y-75.565
X182.875Y-78.105
X182.875Y-80.645
X182.875Y-83.185
X182.875Y-85.725
X182.875Y-88.265
X182.875Y-90.805
X182.875Y-93.345
X182.875Y-95.885
X182.875Y-98.425
X182.875Y-100.965
X182.875Y-103.505
X182.875Y-106.045
X185.415Y-57.785
X185.415Y-60.325
X185.415Y-62.865
X185.415Y-65.405
X185.415Y-67.945
X185.415Y-70.485
X185.415Y-73.025
X185.415Y-75.565
X185.415Y-78.105
X185.415Y-80.645
X185.415Y-83.185
X185.415Y-85.725
X185.415Y-88.265
X185.415Y-90.805
X185.415Y-93.345
X185.415Y-95.885
X185.415Y-98.425
X185.415Y-100.965
X185.415Y-103.505
X185.415Y-106.045
T3
X85.09Y-57.87
X85.09Y-60.41
X85.09Y-62.95
X85.09Y-65.49
X85.09Y-68.03
X85.09Y-70.57
X85.09Y-73.11
X85.09Y-75.65
X85.09Y-78.19
X85.09Y-80.73
X85.09Y-83.27
X85.09Y-85.81
X85.09Y-88.35
X85.09Y-90.89
X85.09Y-93.43
X85.09Y-95.97
X85.09Y-98.51
X85.09Y-101.05
X85.09Y-103.59
X85.09Y-106.13
X91.44Y-105.9
X93.98Y-105.9
X96.52Y-105.9
X102.87Y-57.87
X102.87Y-60.41
X102.87Y-62.95
X102.87Y-65.49
X102.87Y-68.03
X102.87Y-70.57
X102.87Y-73.11
X102.87Y-75.65
X102.87Y-78.19
X102.87Y-80.73
X102.87Y-83.27
X102.87Y-85.81
X102.87Y-88.35
X102.87Y-90.89
X102.87Y-93.43
X102.87Y-95.97
X102.87Y-98.51
X102.87Y-101.05
X102.87Y-103.59
X102.87Y-106.13
X118.11Y-57.87
X118.11Y-60.41
X118.11Y-62.95
X118.11Y-65.49
X118.11Y-68.03
X118.11Y-70.57
X118.11Y-73.11
X118.11Y-75.65
X118.11Y-78.19
X118.11Y-80.73
X118.11Y-83.27
X118.11Y-85.81
X118.11Y-88.35
X118.11Y-90.89
X118.11Y-93.43
X118.11Y-95.97
X118.11Y-98.51
X118.11Y-101.05
X118.11Y-103.59
X118.11Y-106.13
X124.46Y-105.9
X127.0Y-105.9
X129.54Y-105.9
X135.89Y-57.87
X135.89Y-60.41
X135.89Y-62.95
X135.89Y-65.49
X135.89Y-68.03
X135.89Y-70.57
X135.89Y-73.11
X135.89Y-75.65
X135.89Y-78.19
X135.89Y-80.73
X135.89Y-83.27
X135.89Y-85.81
X135.89Y-88.35
X135.89Y-90.89
X135.89Y-93.43
X135.89Y-95.97
X135.89Y-98.51
X135.89Y-101.05
X135.89Y-103.59
X135.89Y-106.13
T4
X71.68Y-91.984
X71.68Y-96.484
X78.18Y-91.984
X78.18Y-96.484
T0
M30
