  0
SECTION
  2
HEADER
  9
$ANGBASE
  50
0.0
  9
$ANGDIR
  70
1
  9
$MEASUREMENT
  70
1
  0
ENDSEC
  0
SECTION
  2
TABLES
  0
TABLE
  2
LTYPE
  70
4
  0
LTYPE
  5
40F
  2
CONTINUOUS
  70
0
  3
Solid line
  72
65
  73
0
  40
0.0
  0
LTYPE
  5
410
  2
DASHDOT
 70
0
  3
Dash Dot ____ _ ____ _
 72
65
 73
4
 40
2.0
 49
1.25
 49
-0.25
 49
0.25
 49
-0.25
  0
LTYPE
  5
411
  2
DASHED
 70
0
  3
Dashed __ __ __ __ __
 72
65
 73
2
 40
0.75
 49
0.5
 49
-0.25
  0
LTYPE
  5
43B
  2
DOTTED
 70
0
  3
Dotted .  .  .  .
 72
65
 73
2
 40
0.2
 49
0.0
 49
-0.2
  0
ENDTAB
  0
TABLE
  2
STYLE
  70
4
  0
STYLE
  2
KICAD
  70
0
  40
0
  41
1
  42
1
  50
0
  71
0
  3
isocp.shx
  0
STYLE
  2
KICADB
  70
0
  40
0
  41
1
  42
1
  50
0
  71
0
  3
isocp.shx
  0
STYLE
  2
KICADI
  70
0
  40
0
  41
1
  42
1
  50
15
  71
0
  3
isocp.shx
  0
STYLE
  2
KICADBI
  70
0
  40
0
  41
1
  42
1
  50
15
  71
0
  3
isocp.shx
  0
ENDTAB
  0
TABLE
  2
LAYER
  70
1
  0
LAYER
  2
BLACK
  70
0
  62
7
  6
CONTINUOUS
  0
ENDTAB
  0
ENDSEC
  0
SECTION
  2
ENTITIES
0
LINE
8
BLACK
6
CONTINUOUS
10
199
20
-55
11
69
21
-55
0
LINE
8
BLACK
6
CONTINUOUS
10
69
20
-109
11
199
21
-109
0
LINE
8
BLACK
6
CONTINUOUS
10
69
20
-55
11
69
21
-109
0
LINE
8
BLACK
6
CONTINUOUS
10
199
20
-109
11
199
21
-55
0
LINE
8
BLACK
6
CONTINUOUS
10
145.596
20
-57.458
11
145.996
21
-57.858
0
LINE
8
BLACK
6
CONTINUOUS
10
145.996
20
-57.458
11
145.596
21
-57.858
0
LINE
8
BLACK
6
CONTINUOUS
10
160.836
20
-57.712
11
161.236
21
-58.112
0
LINE
8
BLACK
6
CONTINUOUS
10
161.236
20
-57.712
11
160.836
21
-58.112
0
LINE
8
BLACK
6
CONTINUOUS
10
174.298
20
-57.712
11
174.698
21
-58.112
0
LINE
8
BLACK
6
CONTINUOUS
10
174.698
20
-57.712
11
174.298
21
-58.112
0
CIRCLE
8
BLACK
10
73
20
-68
40
0.5
0
CIRCLE
8
BLACK
10
73
20
-70.54
40
0.5
0
CIRCLE
8
BLACK
10
73
20
-76.8
40
0.5
0
CIRCLE
8
BLACK
10
73
20
-79.34
40
0.5
0
CIRCLE
8
BLACK
10
78
20
-68
40
0.5
0
CIRCLE
8
BLACK
10
78
20
-70.54
40
0.5
0
CIRCLE
8
BLACK
10
78
20
-76.8
40
0.5
0
CIRCLE
8
BLACK
10
78
20
-79.34
40
0.5
0
CIRCLE
8
BLACK
10
113.03
20
-57.9
40
0.5
0
CIRCLE
8
BLACK
10
113.03
20
-60.44
40
0.5
0
CIRCLE
8
BLACK
10
113.03
20
-62.98
40
0.5
0
CIRCLE
8
BLACK
10
113.03
20
-65.52
40
0.5
0
CIRCLE
8
BLACK
10
113.03
20
-68.06
40
0.5
0
CIRCLE
8
BLACK
10
113.03
20
-70.6
40
0.5
0
CIRCLE
8
BLACK
10
113.03
20
-73.14
40
0.5
0
CIRCLE
8
BLACK
10
113.03
20
-75.68
40
0.5
0
CIRCLE
8
BLACK
10
113.03
20
-78.22
40
0.5
0
CIRCLE
8
BLACK
10
113.03
20
-80.76
40
0.5
0
CIRCLE
8
BLACK
10
113.03
20
-83.3
40
0.5
0
CIRCLE
8
BLACK
10
113.03
20
-85.84
40
0.5
0
CIRCLE
8
BLACK
10
113.03
20
-88.38
40
0.5
0
CIRCLE
8
BLACK
10
113.03
20
-90.92
40
0.5
0
CIRCLE
8
BLACK
10
113.03
20
-93.46
40
0.5
0
CIRCLE
8
BLACK
10
113.03
20
-96
40
0.5
0
CIRCLE
8
BLACK
10
113.03
20
-98.54
40
0.5
0
CIRCLE
8
BLACK
10
113.03
20
-101.08
40
0.5
0
CIRCLE
8
BLACK
10
113.03
20
-103.62
40
0.5
0
CIRCLE
8
BLACK
10
113.03
20
-106.16
40
0.5
0
CIRCLE
8
BLACK
10
140.97
20
-57.9
40
0.5
0
CIRCLE
8
BLACK
10
140.97
20
-60.44
40
0.5
0
CIRCLE
8
BLACK
10
140.97
20
-62.98
40
0.5
0
CIRCLE
8
BLACK
10
140.97
20
-65.52
40
0.5
0
CIRCLE
8
BLACK
10
140.97
20
-68.06
40
0.5
0
CIRCLE
8
BLACK
10
140.97
20
-70.6
40
0.5
0
CIRCLE
8
BLACK
10
140.97
20
-73.14
40
0.5
0
CIRCLE
8
BLACK
10
140.97
20
-75.68
40
0.5
0
CIRCLE
8
BLACK
10
140.97
20
-78.22
40
0.5
0
CIRCLE
8
BLACK
10
140.97
20
-80.76
40
0.5
0
CIRCLE
8
BLACK
10
140.97
20
-83.3
40
0.5
0
CIRCLE
8
BLACK
10
140.97
20
-85.84
40
0.5
0
CIRCLE
8
BLACK
10
140.97
20
-88.38
40
0.5
0
CIRCLE
8
BLACK
10
140.97
20
-90.92
40
0.5
0
CIRCLE
8
BLACK
10
140.97
20
-93.46
40
0.5
0
CIRCLE
8
BLACK
10
140.97
20
-96
40
0.5
0
CIRCLE
8
BLACK
10
140.97
20
-98.54
40
0.5
0
CIRCLE
8
BLACK
10
140.97
20
-101.08
40
0.5
0
CIRCLE
8
BLACK
10
140.97
20
-103.62
40
0.5
0
CIRCLE
8
BLACK
10
140.97
20
-106.16
40
0.5
0
CIRCLE
8
BLACK
10
154.935
20
-57.785
40
0.5
0
CIRCLE
8
BLACK
10
154.935
20
-60.325
40
0.5
0
CIRCLE
8
BLACK
10
154.935
20
-62.865
40
0.5
0
CIRCLE
8
BLACK
10
154.935
20
-65.405
40
0.5
0
CIRCLE
8
BLACK
10
154.935
20
-67.945
40
0.5
0
CIRCLE
8
BLACK
10
154.935
20
-70.485
40
0.5
0
CIRCLE
8
BLACK
10
154.935
20
-73.025
40
0.5
0
CIRCLE
8
BLACK
10
154.935
20
-75.565
40
0.5
0
CIRCLE
8
BLACK
10
154.935
20
-78.105
40
0.5
0
CIRCLE
8
BLACK
10
154.935
20
-80.645
40
0.5
0
CIRCLE
8
BLACK
10
154.935
20
-83.185
40
0.5
0
CIRCLE
8
BLACK
10
154.935
20
-85.725
40
0.5
0
CIRCLE
8
BLACK
10
154.935
20
-88.265
40
0.5
0
CIRCLE
8
BLACK
10
154.935
20
-90.805
40
0.5
0
CIRCLE
8
BLACK
10
154.935
20
-93.345
40
0.5
0
CIRCLE
8
BLACK
10
154.935
20
-95.885
40
0.5
0
CIRCLE
8
BLACK
10
154.935
20
-98.425
40
0.5
0
CIRCLE
8
BLACK
10
154.935
20
-100.965
40
0.5
0
CIRCLE
8
BLACK
10
154.935
20
-103.505
40
0.5
0
CIRCLE
8
BLACK
10
154.935
20
-106.045
40
0.5
0
CIRCLE
8
BLACK
10
157.475
20
-57.785
40
0.5
0
CIRCLE
8
BLACK
10
157.475
20
-60.325
40
0.5
0
CIRCLE
8
BLACK
10
157.475
20
-62.865
40
0.5
0
CIRCLE
8
BLACK
10
157.475
20
-65.405
40
0.5
0
CIRCLE
8
BLACK
10
157.475
20
-67.945
40
0.5
0
CIRCLE
8
BLACK
10
157.475
20
-70.485
40
0.5
0
CIRCLE
8
BLACK
10
157.475
20
-73.025
40
0.5
0
CIRCLE
8
BLACK
10
157.475
20
-75.565
40
0.5
0
CIRCLE
8
BLACK
10
157.475
20
-78.105
40
0.5
0
CIRCLE
8
BLACK
10
157.475
20
-80.645
40
0.5
0
CIRCLE
8
BLACK
10
157.475
20
-83.185
40
0.5
0
CIRCLE
8
BLACK
10
157.475
20
-85.725
40
0.5
0
CIRCLE
8
BLACK
10
157.475
20
-88.265
40
0.5
0
CIRCLE
8
BLACK
10
157.475
20
-90.805
40
0.5
0
CIRCLE
8
BLACK
10
157.475
20
-93.345
40
0.5
0
CIRCLE
8
BLACK
10
157.475
20
-95.885
40
0.5
0
CIRCLE
8
BLACK
10
157.475
20
-98.425
40
0.5
0
CIRCLE
8
BLACK
10
157.475
20
-100.965
40
0.5
0
CIRCLE
8
BLACK
10
157.475
20
-103.505
40
0.5
0
CIRCLE
8
BLACK
10
157.475
20
-106.045
40
0.5
0
CIRCLE
8
BLACK
10
168.91
20
-57.785
40
0.5
0
CIRCLE
8
BLACK
10
168.91
20
-60.325
40
0.5
0
CIRCLE
8
BLACK
10
168.91
20
-62.865
40
0.5
0
CIRCLE
8
BLACK
10
168.91
20
-65.405
40
0.5
0
CIRCLE
8
BLACK
10
168.91
20
-67.945
40
0.5
0
CIRCLE
8
BLACK
10
168.91
20
-70.485
40
0.5
0
CIRCLE
8
BLACK
10
168.91
20
-73.025
40
0.5
0
CIRCLE
8
BLACK
10
168.91
20
-75.565
40
0.5
0
CIRCLE
8
BLACK
10
168.91
20
-78.105
40
0.5
0
CIRCLE
8
BLACK
10
168.91
20
-80.645
40
0.5
0
CIRCLE
8
BLACK
10
168.91
20
-83.185
40
0.5
0
CIRCLE
8
BLACK
10
168.91
20
-85.725
40
0.5
0
CIRCLE
8
BLACK
10
168.91
20
-88.265
40
0.5
0
CIRCLE
8
BLACK
10
168.91
20
-90.805
40
0.5
0
CIRCLE
8
BLACK
10
168.91
20
-93.345
40
0.5
0
CIRCLE
8
BLACK
10
168.91
20
-95.885
40
0.5
0
CIRCLE
8
BLACK
10
168.91
20
-98.425
40
0.5
0
CIRCLE
8
BLACK
10
168.91
20
-100.965
40
0.5
0
CIRCLE
8
BLACK
10
168.91
20
-103.505
40
0.5
0
CIRCLE
8
BLACK
10
168.91
20
-106.045
40
0.5
0
CIRCLE
8
BLACK
10
171.45
20
-57.785
40
0.5
0
CIRCLE
8
BLACK
10
171.45
20
-60.325
40
0.5
0
CIRCLE
8
BLACK
10
171.45
20
-62.865
40
0.5
0
CIRCLE
8
BLACK
10
171.45
20
-65.405
40
0.5
0
CIRCLE
8
BLACK
10
171.45
20
-67.945
40
0.5
0
CIRCLE
8
BLACK
10
171.45
20
-70.485
40
0.5
0
CIRCLE
8
BLACK
10
171.45
20
-73.025
40
0.5
0
CIRCLE
8
BLACK
10
171.45
20
-75.565
40
0.5
0
CIRCLE
8
BLACK
10
171.45
20
-78.105
40
0.5
0
CIRCLE
8
BLACK
10
171.45
20
-80.645
40
0.5
0
CIRCLE
8
BLACK
10
171.45
20
-83.185
40
0.5
0
CIRCLE
8
BLACK
10
171.45
20
-85.725
40
0.5
0
CIRCLE
8
BLACK
10
171.45
20
-88.265
40
0.5
0
CIRCLE
8
BLACK
10
171.45
20
-90.805
40
0.5
0
CIRCLE
8
BLACK
10
171.45
20
-93.345
40
0.5
0
CIRCLE
8
BLACK
10
171.45
20
-95.885
40
0.5
0
CIRCLE
8
BLACK
10
171.45
20
-98.425
40
0.5
0
CIRCLE
8
BLACK
10
171.45
20
-100.965
40
0.5
0
CIRCLE
8
BLACK
10
171.45
20
-103.505
40
0.5
0
CIRCLE
8
BLACK
10
171.45
20
-106.045
40
0.5
0
CIRCLE
8
BLACK
10
182.875
20
-57.785
40
0.5
0
CIRCLE
8
BLACK
10
182.875
20
-60.325
40
0.5
0
CIRCLE
8
BLACK
10
182.875
20
-62.865
40
0.5
0
CIRCLE
8
BLACK
10
182.875
20
-65.405
40
0.5
0
CIRCLE
8
BLACK
10
182.875
20
-67.945
40
0.5
0
CIRCLE
8
BLACK
10
182.875
20
-70.485
40
0.5
0
CIRCLE
8
BLACK
10
182.875
20
-73.025
40
0.5
0
CIRCLE
8
BLACK
10
182.875
20
-75.565
40
0.5
0
CIRCLE
8
BLACK
10
182.875
20
-78.105
40
0.5
0
CIRCLE
8
BLACK
10
182.875
20
-80.645
40
0.5
0
CIRCLE
8
BLACK
10
182.875
20
-83.185
40
0.5
0
CIRCLE
8
BLACK
10
182.875
20
-85.725
40
0.5
0
CIRCLE
8
BLACK
10
182.875
20
-88.265
40
0.5
0
CIRCLE
8
BLACK
10
182.875
20
-90.805
40
0.5
0
CIRCLE
8
BLACK
10
182.875
20
-93.345
40
0.5
0
CIRCLE
8
BLACK
10
182.875
20
-95.885
40
0.5
0
CIRCLE
8
BLACK
10
182.875
20
-98.425
40
0.5
0
CIRCLE
8
BLACK
10
182.875
20
-100.965
40
0.5
0
CIRCLE
8
BLACK
10
182.875
20
-103.505
40
0.5
0
CIRCLE
8
BLACK
10
182.875
20
-106.045
40
0.5
0
CIRCLE
8
BLACK
10
185.415
20
-57.785
40
0.5
0
CIRCLE
8
BLACK
10
185.415
20
-60.325
40
0.5
0
CIRCLE
8
BLACK
10
185.415
20
-62.865
40
0.5
0
CIRCLE
8
BLACK
10
185.415
20
-65.405
40
0.5
0
CIRCLE
8
BLACK
10
185.415
20
-67.945
40
0.5
0
CIRCLE
8
BLACK
10
185.415
20
-70.485
40
0.5
0
CIRCLE
8
BLACK
10
185.415
20
-73.025
40
0.5
0
CIRCLE
8
BLACK
10
185.415
20
-75.565
40
0.5
0
CIRCLE
8
BLACK
10
185.415
20
-78.105
40
0.5
0
CIRCLE
8
BLACK
10
185.415
20
-80.645
40
0.5
0
CIRCLE
8
BLACK
10
185.415
20
-83.185
40
0.5
0
CIRCLE
8
BLACK
10
185.415
20
-85.725
40
0.5
0
CIRCLE
8
BLACK
10
185.415
20
-88.265
40
0.5
0
CIRCLE
8
BLACK
10
185.415
20
-90.805
40
0.5
0
CIRCLE
8
BLACK
10
185.415
20
-93.345
40
0.5
0
CIRCLE
8
BLACK
10
185.415
20
-95.885
40
0.5
0
CIRCLE
8
BLACK
10
185.415
20
-98.425
40
0.5
0
CIRCLE
8
BLACK
10
185.415
20
-100.965
40
0.5
0
CIRCLE
8
BLACK
10
185.415
20
-103.505
40
0.5
0
CIRCLE
8
BLACK
10
185.415
20
-106.045
40
0.5
0
LINE
8
BLACK
6
CONTINUOUS
10
85.09
20
-57.36
11
85.09
21
-58.38
0
LINE
8
BLACK
6
CONTINUOUS
10
84.58
20
-57.87
11
85.6
21
-57.87
0
LINE
8
BLACK
6
CONTINUOUS
10
85.09
20
-59.9
11
85.09
21
-60.92
0
LINE
8
BLACK
6
CONTINUOUS
10
84.58
20
-60.41
11
85.6
21
-60.41
0
LINE
8
BLACK
6
CONTINUOUS
10
85.09
20
-62.44
11
85.09
21
-63.46
0
LINE
8
BLACK
6
CONTINUOUS
10
84.58
20
-62.95
11
85.6
21
-62.95
0
LINE
8
BLACK
6
CONTINUOUS
10
85.09
20
-64.98
11
85.09
21
-66
0
LINE
8
BLACK
6
CONTINUOUS
10
84.58
20
-65.49
11
85.6
21
-65.49
0
LINE
8
BLACK
6
CONTINUOUS
10
85.09
20
-67.52
11
85.09
21
-68.54
0
LINE
8
BLACK
6
CONTINUOUS
10
84.58
20
-68.03
11
85.6
21
-68.03
0
LINE
8
BLACK
6
CONTINUOUS
10
85.09
20
-70.06
11
85.09
21
-71.08
0
LINE
8
BLACK
6
CONTINUOUS
10
84.58
20
-70.57
11
85.6
21
-70.57
0
LINE
8
BLACK
6
CONTINUOUS
10
85.09
20
-72.6
11
85.09
21
-73.62
0
LINE
8
BLACK
6
CONTINUOUS
10
84.58
20
-73.11
11
85.6
21
-73.11
0
LINE
8
BLACK
6
CONTINUOUS
10
85.09
20
-75.14
11
85.09
21
-76.16
0
LINE
8
BLACK
6
CONTINUOUS
10
84.58
20
-75.65
11
85.6
21
-75.65
0
LINE
8
BLACK
6
CONTINUOUS
10
85.09
20
-77.68
11
85.09
21
-78.7
0
LINE
8
BLACK
6
CONTINUOUS
10
84.58
20
-78.19
11
85.6
21
-78.19
0
LINE
8
BLACK
6
CONTINUOUS
10
85.09
20
-80.22
11
85.09
21
-81.24
0
LINE
8
BLACK
6
CONTINUOUS
10
84.58
20
-80.73
11
85.6
21
-80.73
0
LINE
8
BLACK
6
CONTINUOUS
10
85.09
20
-82.76
11
85.09
21
-83.78
0
LINE
8
BLACK
6
CONTINUOUS
10
84.58
20
-83.27
11
85.6
21
-83.27
0
LINE
8
BLACK
6
CONTINUOUS
10
85.09
20
-85.3
11
85.09
21
-86.32
0
LINE
8
BLACK
6
CONTINUOUS
10
84.58
20
-85.81
11
85.6
21
-85.81
0
LINE
8
BLACK
6
CONTINUOUS
10
85.09
20
-87.84
11
85.09
21
-88.86
0
LINE
8
BLACK
6
CONTINUOUS
10
84.58
20
-88.35
11
85.6
21
-88.35
0
LINE
8
BLACK
6
CONTINUOUS
10
85.09
20
-90.38
11
85.09
21
-91.4
0
LINE
8
BLACK
6
CONTINUOUS
10
84.58
20
-90.89
11
85.6
21
-90.89
0
LINE
8
BLACK
6
CONTINUOUS
10
85.09
20
-92.92
11
85.09
21
-93.94
0
LINE
8
BLACK
6
CONTINUOUS
10
84.58
20
-93.43
11
85.6
21
-93.43
0
LINE
8
BLACK
6
CONTINUOUS
10
85.09
20
-95.46
11
85.09
21
-96.48
0
LINE
8
BLACK
6
CONTINUOUS
10
84.58
20
-95.97
11
85.6
21
-95.97
0
LINE
8
BLACK
6
CONTINUOUS
10
85.09
20
-98
11
85.09
21
-99.02
0
LINE
8
BLACK
6
CONTINUOUS
10
84.58
20
-98.51
11
85.6
21
-98.51
0
LINE
8
BLACK
6
CONTINUOUS
10
85.09
20
-100.54
11
85.09
21
-101.56
0
LINE
8
BLACK
6
CONTINUOUS
10
84.58
20
-101.05
11
85.6
21
-101.05
0
LINE
8
BLACK
6
CONTINUOUS
10
85.09
20
-103.08
11
85.09
21
-104.1
0
LINE
8
BLACK
6
CONTINUOUS
10
84.58
20
-103.59
11
85.6
21
-103.59
0
LINE
8
BLACK
6
CONTINUOUS
10
85.09
20
-105.62
11
85.09
21
-106.64
0
LINE
8
BLACK
6
CONTINUOUS
10
84.58
20
-106.13
11
85.6
21
-106.13
0
LINE
8
BLACK
6
CONTINUOUS
10
91.44
20
-105.39
11
91.44
21
-106.41
0
LINE
8
BLACK
6
CONTINUOUS
10
90.93
20
-105.9
11
91.95
21
-105.9
0
LINE
8
BLACK
6
CONTINUOUS
10
93.98
20
-105.39
11
93.98
21
-106.41
0
LINE
8
BLACK
6
CONTINUOUS
10
93.47
20
-105.9
11
94.49
21
-105.9
0
LINE
8
BLACK
6
CONTINUOUS
10
96.52
20
-105.39
11
96.52
21
-106.41
0
LINE
8
BLACK
6
CONTINUOUS
10
96.01
20
-105.9
11
97.03
21
-105.9
0
LINE
8
BLACK
6
CONTINUOUS
10
102.87
20
-57.36
11
102.87
21
-58.38
0
LINE
8
BLACK
6
CONTINUOUS
10
102.36
20
-57.87
11
103.38
21
-57.87
0
LINE
8
BLACK
6
CONTINUOUS
10
102.87
20
-59.9
11
102.87
21
-60.92
0
LINE
8
BLACK
6
CONTINUOUS
10
102.36
20
-60.41
11
103.38
21
-60.41
0
LINE
8
BLACK
6
CONTINUOUS
10
102.87
20
-62.44
11
102.87
21
-63.46
0
LINE
8
BLACK
6
CONTINUOUS
10
102.36
20
-62.95
11
103.38
21
-62.95
0
LINE
8
BLACK
6
CONTINUOUS
10
102.87
20
-64.98
11
102.87
21
-66
0
LINE
8
BLACK
6
CONTINUOUS
10
102.36
20
-65.49
11
103.38
21
-65.49
0
LINE
8
BLACK
6
CONTINUOUS
10
102.87
20
-67.52
11
102.87
21
-68.54
0
LINE
8
BLACK
6
CONTINUOUS
10
102.36
20
-68.03
11
103.38
21
-68.03
0
LINE
8
BLACK
6
CONTINUOUS
10
102.87
20
-70.06
11
102.87
21
-71.08
0
LINE
8
BLACK
6
CONTINUOUS
10
102.36
20
-70.57
11
103.38
21
-70.57
0
LINE
8
BLACK
6
CONTINUOUS
10
102.87
20
-72.6
11
102.87
21
-73.62
0
LINE
8
BLACK
6
CONTINUOUS
10
102.36
20
-73.11
11
103.38
21
-73.11
0
LINE
8
BLACK
6
CONTINUOUS
10
102.87
20
-75.14
11
102.87
21
-76.16
0
LINE
8
BLACK
6
CONTINUOUS
10
102.36
20
-75.65
11
103.38
21
-75.65
0
LINE
8
BLACK
6
CONTINUOUS
10
102.87
20
-77.68
11
102.87
21
-78.7
0
LINE
8
BLACK
6
CONTINUOUS
10
102.36
20
-78.19
11
103.38
21
-78.19
0
LINE
8
BLACK
6
CONTINUOUS
10
102.87
20
-80.22
11
102.87
21
-81.24
0
LINE
8
BLACK
6
CONTINUOUS
10
102.36
20
-80.73
11
103.38
21
-80.73
0
LINE
8
BLACK
6
CONTINUOUS
10
102.87
20
-82.76
11
102.87
21
-83.78
0
LINE
8
BLACK
6
CONTINUOUS
10
102.36
20
-83.27
11
103.38
21
-83.27
0
LINE
8
BLACK
6
CONTINUOUS
10
102.87
20
-85.3
11
102.87
21
-86.32
0
LINE
8
BLACK
6
CONTINUOUS
10
102.36
20
-85.81
11
103.38
21
-85.81
0
LINE
8
BLACK
6
CONTINUOUS
10
102.87
20
-87.84
11
102.87
21
-88.86
0
LINE
8
BLACK
6
CONTINUOUS
10
102.36
20
-88.35
11
103.38
21
-88.35
0
LINE
8
BLACK
6
CONTINUOUS
10
102.87
20
-90.38
11
102.87
21
-91.4
0
LINE
8
BLACK
6
CONTINUOUS
10
102.36
20
-90.89
11
103.38
21
-90.89
0
LINE
8
BLACK
6
CONTINUOUS
10
102.87
20
-92.92
11
102.87
21
-93.94
0
LINE
8
BLACK
6
CONTINUOUS
10
102.36
20
-93.43
11
103.38
21
-93.43
0
LINE
8
BLACK
6
CONTINUOUS
10
102.87
20
-95.46
11
102.87
21
-96.48
0
LINE
8
BLACK
6
CONTINUOUS
10
102.36
20
-95.97
11
103.38
21
-95.97
0
LINE
8
BLACK
6
CONTINUOUS
10
102.87
20
-98
11
102.87
21
-99.02
0
LINE
8
BLACK
6
CONTINUOUS
10
102.36
20
-98.51
11
103.38
21
-98.51
0
LINE
8
BLACK
6
CONTINUOUS
10
102.87
20
-100.54
11
102.87
21
-101.56
0
LINE
8
BLACK
6
CONTINUOUS
10
102.36
20
-101.05
11
103.38
21
-101.05
0
LINE
8
BLACK
6
CONTINUOUS
10
102.87
20
-103.08
11
102.87
21
-104.1
0
LINE
8
BLACK
6
CONTINUOUS
10
102.36
20
-103.59
11
103.38
21
-103.59
0
LINE
8
BLACK
6
CONTINUOUS
10
102.87
20
-105.62
11
102.87
21
-106.64
0
LINE
8
BLACK
6
CONTINUOUS
10
102.36
20
-106.13
11
103.38
21
-106.13
0
LINE
8
BLACK
6
CONTINUOUS
10
118.11
20
-57.36
11
118.11
21
-58.38
0
LINE
8
BLACK
6
CONTINUOUS
10
117.6
20
-57.87
11
118.62
21
-57.87
0
LINE
8
BLACK
6
CONTINUOUS
10
118.11
20
-59.9
11
118.11
21
-60.92
0
LINE
8
BLACK
6
CONTINUOUS
10
117.6
20
-60.41
11
118.62
21
-60.41
0
LINE
8
BLACK
6
CONTINUOUS
10
118.11
20
-62.44
11
118.11
21
-63.46
0
LINE
8
BLACK
6
CONTINUOUS
10
117.6
20
-62.95
11
118.62
21
-62.95
0
LINE
8
BLACK
6
CONTINUOUS
10
118.11
20
-64.98
11
118.11
21
-66
0
LINE
8
BLACK
6
CONTINUOUS
10
117.6
20
-65.49
11
118.62
21
-65.49
0
LINE
8
BLACK
6
CONTINUOUS
10
118.11
20
-67.52
11
118.11
21
-68.54
0
LINE
8
BLACK
6
CONTINUOUS
10
117.6
20
-68.03
11
118.62
21
-68.03
0
LINE
8
BLACK
6
CONTINUOUS
10
118.11
20
-70.06
11
118.11
21
-71.08
0
LINE
8
BLACK
6
CONTINUOUS
10
117.6
20
-70.57
11
118.62
21
-70.57
0
LINE
8
BLACK
6
CONTINUOUS
10
118.11
20
-72.6
11
118.11
21
-73.62
0
LINE
8
BLACK
6
CONTINUOUS
10
117.6
20
-73.11
11
118.62
21
-73.11
0
LINE
8
BLACK
6
CONTINUOUS
10
118.11
20
-75.14
11
118.11
21
-76.16
0
LINE
8
BLACK
6
CONTINUOUS
10
117.6
20
-75.65
11
118.62
21
-75.65
0
LINE
8
BLACK
6
CONTINUOUS
10
118.11
20
-77.68
11
118.11
21
-78.7
0
LINE
8
BLACK
6
CONTINUOUS
10
117.6
20
-78.19
11
118.62
21
-78.19
0
LINE
8
BLACK
6
CONTINUOUS
10
118.11
20
-80.22
11
118.11
21
-81.24
0
LINE
8
BLACK
6
CONTINUOUS
10
117.6
20
-80.73
11
118.62
21
-80.73
0
LINE
8
BLACK
6
CONTINUOUS
10
118.11
20
-82.76
11
118.11
21
-83.78
0
LINE
8
BLACK
6
CONTINUOUS
10
117.6
20
-83.27
11
118.62
21
-83.27
0
LINE
8
BLACK
6
CONTINUOUS
10
118.11
20
-85.3
11
118.11
21
-86.32
0
LINE
8
BLACK
6
CONTINUOUS
10
117.6
20
-85.81
11
118.62
21
-85.81
0
LINE
8
BLACK
6
CONTINUOUS
10
118.11
20
-87.84
11
118.11
21
-88.86
0
LINE
8
BLACK
6
CONTINUOUS
10
117.6
20
-88.35
11
118.62
21
-88.35
0
LINE
8
BLACK
6
CONTINUOUS
10
118.11
20
-90.38
11
118.11
21
-91.4
0
LINE
8
BLACK
6
CONTINUOUS
10
117.6
20
-90.89
11
118.62
21
-90.89
0
LINE
8
BLACK
6
CONTINUOUS
10
118.11
20
-92.92
11
118.11
21
-93.94
0
LINE
8
BLACK
6
CONTINUOUS
10
117.6
20
-93.43
11
118.62
21
-93.43
0
LINE
8
BLACK
6
CONTINUOUS
10
118.11
20
-95.46
11
118.11
21
-96.48
0
LINE
8
BLACK
6
CONTINUOUS
10
117.6
20
-95.97
11
118.62
21
-95.97
0
LINE
8
BLACK
6
CONTINUOUS
10
118.11
20
-98
11
118.11
21
-99.02
0
LINE
8
BLACK
6
CONTINUOUS
10
117.6
20
-98.51
11
118.62
21
-98.51
0
LINE
8
BLACK
6
CONTINUOUS
10
118.11
20
-100.54
11
118.11
21
-101.56
0
LINE
8
BLACK
6
CONTINUOUS
10
117.6
20
-101.05
11
118.62
21
-101.05
0
LINE
8
BLACK
6
CONTINUOUS
10
118.11
20
-103.08
11
118.11
21
-104.1
0
LINE
8
BLACK
6
CONTINUOUS
10
117.6
20
-103.59
11
118.62
21
-103.59
0
LINE
8
BLACK
6
CONTINUOUS
10
118.11
20
-105.62
11
118.11
21
-106.64
0
LINE
8
BLACK
6
CONTINUOUS
10
117.6
20
-106.13
11
118.62
21
-106.13
0
LINE
8
BLACK
6
CONTINUOUS
10
124.46
20
-105.39
11
124.46
21
-106.41
0
LINE
8
BLACK
6
CONTINUOUS
10
123.95
20
-105.9
11
124.97
21
-105.9
0
LINE
8
BLACK
6
CONTINUOUS
10
127
20
-105.39
11
127
21
-106.41
0
LINE
8
BLACK
6
CONTINUOUS
10
126.49
20
-105.9
11
127.51
21
-105.9
0
LINE
8
BLACK
6
CONTINUOUS
10
129.54
20
-105.39
11
129.54
21
-106.41
0
LINE
8
BLACK
6
CONTINUOUS
10
129.03
20
-105.9
11
130.05
21
-105.9
0
LINE
8
BLACK
6
CONTINUOUS
10
135.89
20
-57.36
11
135.89
21
-58.38
0
LINE
8
BLACK
6
CONTINUOUS
10
135.38
20
-57.87
11
136.4
21
-57.87
0
LINE
8
BLACK
6
CONTINUOUS
10
135.89
20
-59.9
11
135.89
21
-60.92
0
LINE
8
BLACK
6
CONTINUOUS
10
135.38
20
-60.41
11
136.4
21
-60.41
0
LINE
8
BLACK
6
CONTINUOUS
10
135.89
20
-62.44
11
135.89
21
-63.46
0
LINE
8
BLACK
6
CONTINUOUS
10
135.38
20
-62.95
11
136.4
21
-62.95
0
LINE
8
BLACK
6
CONTINUOUS
10
135.89
20
-64.98
11
135.89
21
-66
0
LINE
8
BLACK
6
CONTINUOUS
10
135.38
20
-65.49
11
136.4
21
-65.49
0
LINE
8
BLACK
6
CONTINUOUS
10
135.89
20
-67.52
11
135.89
21
-68.54
0
LINE
8
BLACK
6
CONTINUOUS
10
135.38
20
-68.03
11
136.4
21
-68.03
0
LINE
8
BLACK
6
CONTINUOUS
10
135.89
20
-70.06
11
135.89
21
-71.08
0
LINE
8
BLACK
6
CONTINUOUS
10
135.38
20
-70.57
11
136.4
21
-70.57
0
LINE
8
BLACK
6
CONTINUOUS
10
135.89
20
-72.6
11
135.89
21
-73.62
0
LINE
8
BLACK
6
CONTINUOUS
10
135.38
20
-73.11
11
136.4
21
-73.11
0
LINE
8
BLACK
6
CONTINUOUS
10
135.89
20
-75.14
11
135.89
21
-76.16
0
LINE
8
BLACK
6
CONTINUOUS
10
135.38
20
-75.65
11
136.4
21
-75.65
0
LINE
8
BLACK
6
CONTINUOUS
10
135.89
20
-77.68
11
135.89
21
-78.7
0
LINE
8
BLACK
6
CONTINUOUS
10
135.38
20
-78.19
11
136.4
21
-78.19
0
LINE
8
BLACK
6
CONTINUOUS
10
135.89
20
-80.22
11
135.89
21
-81.24
0
LINE
8
BLACK
6
CONTINUOUS
10
135.38
20
-80.73
11
136.4
21
-80.73
0
LINE
8
BLACK
6
CONTINUOUS
10
135.89
20
-82.76
11
135.89
21
-83.78
0
LINE
8
BLACK
6
CONTINUOUS
10
135.38
20
-83.27
11
136.4
21
-83.27
0
LINE
8
BLACK
6
CONTINUOUS
10
135.89
20
-85.3
11
135.89
21
-86.32
0
LINE
8
BLACK
6
CONTINUOUS
10
135.38
20
-85.81
11
136.4
21
-85.81
0
LINE
8
BLACK
6
CONTINUOUS
10
135.89
20
-87.84
11
135.89
21
-88.86
0
LINE
8
BLACK
6
CONTINUOUS
10
135.38
20
-88.35
11
136.4
21
-88.35
0
LINE
8
BLACK
6
CONTINUOUS
10
135.89
20
-90.38
11
135.89
21
-91.4
0
LINE
8
BLACK
6
CONTINUOUS
10
135.38
20
-90.89
11
136.4
21
-90.89
0
LINE
8
BLACK
6
CONTINUOUS
10
135.89
20
-92.92
11
135.89
21
-93.94
0
LINE
8
BLACK
6
CONTINUOUS
10
135.38
20
-93.43
11
136.4
21
-93.43
0
LINE
8
BLACK
6
CONTINUOUS
10
135.89
20
-95.46
11
135.89
21
-96.48
0
LINE
8
BLACK
6
CONTINUOUS
10
135.38
20
-95.97
11
136.4
21
-95.97
0
LINE
8
BLACK
6
CONTINUOUS
10
135.89
20
-98
11
135.89
21
-99.02
0
LINE
8
BLACK
6
CONTINUOUS
10
135.38
20
-98.51
11
136.4
21
-98.51
0
LINE
8
BLACK
6
CONTINUOUS
10
135.89
20
-100.54
11
135.89
21
-101.56
0
LINE
8
BLACK
6
CONTINUOUS
10
135.38
20
-101.05
11
136.4
21
-101.05
0
LINE
8
BLACK
6
CONTINUOUS
10
135.89
20
-103.08
11
135.89
21
-104.1
0
LINE
8
BLACK
6
CONTINUOUS
10
135.38
20
-103.59
11
136.4
21
-103.59
0
LINE
8
BLACK
6
CONTINUOUS
10
135.89
20
-105.62
11
135.89
21
-106.64
0
LINE
8
BLACK
6
CONTINUOUS
10
135.38
20
-106.13
11
136.4
21
-106.13
0
LINE
8
BLACK
6
CONTINUOUS
10
72.0689
20
-92.3729
11
72.0689
21
-91.5951
0
LINE
8
BLACK
6
CONTINUOUS
10
72.0689
20
-91.5951
11
71.2911
21
-91.5951
0
LINE
8
BLACK
6
CONTINUOUS
10
71.2911
20
-91.5951
11
71.2911
21
-92.3729
0
LINE
8
BLACK
6
CONTINUOUS
10
71.2911
20
-92.3729
11
72.0689
21
-92.3729
0
LINE
8
BLACK
6
CONTINUOUS
10
72.0689
20
-96.8729
11
72.0689
21
-96.0951
0
LINE
8
BLACK
6
CONTINUOUS
10
72.0689
20
-96.0951
11
71.2911
21
-96.0951
0
LINE
8
BLACK
6
CONTINUOUS
10
71.2911
20
-96.0951
11
71.2911
21
-96.8729
0
LINE
8
BLACK
6
CONTINUOUS
10
71.2911
20
-96.8729
11
72.0689
21
-96.8729
0
LINE
8
BLACK
6
CONTINUOUS
10
78.5689
20
-92.3729
11
78.5689
21
-91.5951
0
LINE
8
BLACK
6
CONTINUOUS
10
78.5689
20
-91.5951
11
77.7911
21
-91.5951
0
LINE
8
BLACK
6
CONTINUOUS
10
77.7911
20
-91.5951
11
77.7911
21
-92.3729
0
LINE
8
BLACK
6
CONTINUOUS
10
77.7911
20
-92.3729
11
78.5689
21
-92.3729
0
LINE
8
BLACK
6
CONTINUOUS
10
78.5689
20
-96.8729
11
78.5689
21
-96.0951
0
LINE
8
BLACK
6
CONTINUOUS
10
78.5689
20
-96.0951
11
77.7911
21
-96.0951
0
LINE
8
BLACK
6
CONTINUOUS
10
77.7911
20
-96.0951
11
77.7911
21
-96.8729
0
LINE
8
BLACK
6
CONTINUOUS
10
77.7911
20
-96.8729
11
78.5689
21
-96.8729
0
LINE
8
BLACK
6
CONTINUOUS
10
71.5262
20
-112.155
11
71.5262
21
-110.155
0
LINE
8
BLACK
6
CONTINUOUS
10
71.5262
20
-110.155
11
72.0024
21
-110.155
0
LINE
8
BLACK
6
CONTINUOUS
10
72.0024
20
-110.155
11
72.2881
21
-110.25
0
LINE
8
BLACK
6
CONTINUOUS
10
72.2881
20
-110.25
11
72.4786
21
-110.44
0
LINE
8
BLACK
6
CONTINUOUS
10
72.4786
20
-110.44
11
72.5738
21
-110.631
0
LINE
8
BLACK
6
CONTINUOUS
10
72.5738
20
-110.631
11
72.669
21
-111.012
0
LINE
8
BLACK
6
CONTINUOUS
10
72.669
20
-111.012
11
72.669
21
-111.298
0
LINE
8
BLACK
6
CONTINUOUS
10
72.669
20
-111.298
11
72.5738
21
-111.679
0
LINE
8
BLACK
6
CONTINUOUS
10
72.5738
20
-111.679
11
72.4786
21
-111.869
0
LINE
8
BLACK
6
CONTINUOUS
10
72.4786
20
-111.869
11
72.2881
21
-112.06
0
LINE
8
BLACK
6
CONTINUOUS
10
72.2881
20
-112.06
11
72.0024
21
-112.155
0
LINE
8
BLACK
6
CONTINUOUS
10
72.0024
20
-112.155
11
71.5262
21
-112.155
0
LINE
8
BLACK
6
CONTINUOUS
10
73.5262
20
-112.155
11
73.5262
21
-110.821
0
LINE
8
BLACK
6
CONTINUOUS
10
73.5262
20
-111.202
11
73.6214
21
-111.012
0
LINE
8
BLACK
6
CONTINUOUS
10
73.6214
20
-111.012
11
73.7167
21
-110.917
0
LINE
8
BLACK
6
CONTINUOUS
10
73.7167
20
-110.917
11
73.9071
21
-110.821
0
LINE
8
BLACK
6
CONTINUOUS
10
73.9071
20
-110.821
11
74.0976
21
-110.821
0
LINE
8
BLACK
6
CONTINUOUS
10
74.7643
20
-112.155
11
74.7643
21
-110.821
0
LINE
8
BLACK
6
CONTINUOUS
10
74.7643
20
-110.155
11
74.669
21
-110.25
0
LINE
8
BLACK
6
CONTINUOUS
10
74.669
20
-110.25
11
74.7643
21
-110.345
0
LINE
8
BLACK
6
CONTINUOUS
10
74.7643
20
-110.345
11
74.8595
21
-110.25
0
LINE
8
BLACK
6
CONTINUOUS
10
74.8595
20
-110.25
11
74.7643
21
-110.155
0
LINE
8
BLACK
6
CONTINUOUS
10
74.7643
20
-110.155
11
74.7643
21
-110.345
0
LINE
8
BLACK
6
CONTINUOUS
10
76.0024
20
-112.155
11
75.8119
21
-112.06
0
LINE
8
BLACK
6
CONTINUOUS
10
75.8119
20
-112.06
11
75.7167
21
-111.869
0
LINE
8
BLACK
6
CONTINUOUS
10
75.7167
20
-111.869
11
75.7167
21
-110.155
0
LINE
8
BLACK
6
CONTINUOUS
10
77.05
20
-112.155
11
76.8595
21
-112.06
0
LINE
8
BLACK
6
CONTINUOUS
10
76.8595
20
-112.06
11
76.7643
21
-111.869
0
LINE
8
BLACK
6
CONTINUOUS
10
76.7643
20
-111.869
11
76.7643
21
-110.155
0
LINE
8
BLACK
6
CONTINUOUS
10
79.3357
20
-112.155
11
79.3357
21
-110.155
0
LINE
8
BLACK
6
CONTINUOUS
10
79.3357
20
-110.155
11
80.0024
21
-111.583
0
LINE
8
BLACK
6
CONTINUOUS
10
80.0024
20
-111.583
11
80.669
21
-110.155
0
LINE
8
BLACK
6
CONTINUOUS
10
80.669
20
-110.155
11
80.669
21
-112.155
0
LINE
8
BLACK
6
CONTINUOUS
10
82.4786
20
-112.155
11
82.4786
21
-111.107
0
LINE
8
BLACK
6
CONTINUOUS
10
82.4786
20
-111.107
11
82.3833
21
-110.917
0
LINE
8
BLACK
6
CONTINUOUS
10
82.3833
20
-110.917
11
82.1929
21
-110.821
0
LINE
8
BLACK
6
CONTINUOUS
10
82.1929
20
-110.821
11
81.8119
21
-110.821
0
LINE
8
BLACK
6
CONTINUOUS
10
81.8119
20
-110.821
11
81.6214
21
-110.917
0
LINE
8
BLACK
6
CONTINUOUS
10
82.4786
20
-112.06
11
82.2881
21
-112.155
0
LINE
8
BLACK
6
CONTINUOUS
10
82.2881
20
-112.155
11
81.8119
21
-112.155
0
LINE
8
BLACK
6
CONTINUOUS
10
81.8119
20
-112.155
11
81.6214
21
-112.06
0
LINE
8
BLACK
6
CONTINUOUS
10
81.6214
20
-112.06
11
81.5262
21
-111.869
0
LINE
8
BLACK
6
CONTINUOUS
10
81.5262
20
-111.869
11
81.5262
21
-111.679
0
LINE
8
BLACK
6
CONTINUOUS
10
81.5262
20
-111.679
11
81.6214
21
-111.488
0
LINE
8
BLACK
6
CONTINUOUS
10
81.6214
20
-111.488
11
81.8119
21
-111.393
0
LINE
8
BLACK
6
CONTINUOUS
10
81.8119
20
-111.393
11
82.2881
21
-111.393
0
LINE
8
BLACK
6
CONTINUOUS
10
82.2881
20
-111.393
11
82.4786
21
-111.298
0
LINE
8
BLACK
6
CONTINUOUS
10
83.431
20
-110.821
11
83.431
21
-112.821
0
LINE
8
BLACK
6
CONTINUOUS
10
83.431
20
-110.917
11
83.6214
21
-110.821
0
LINE
8
BLACK
6
CONTINUOUS
10
83.6214
20
-110.821
11
84.0024
21
-110.821
0
LINE
8
BLACK
6
CONTINUOUS
10
84.0024
20
-110.821
11
84.1929
21
-110.917
0
LINE
8
BLACK
6
CONTINUOUS
10
84.1929
20
-110.917
11
84.2881
21
-111.012
0
LINE
8
BLACK
6
CONTINUOUS
10
84.2881
20
-111.012
11
84.3833
21
-111.202
0
LINE
8
BLACK
6
CONTINUOUS
10
84.3833
20
-111.202
11
84.3833
21
-111.774
0
LINE
8
BLACK
6
CONTINUOUS
10
84.3833
20
-111.774
11
84.2881
21
-111.964
0
LINE
8
BLACK
6
CONTINUOUS
10
84.2881
20
-111.964
11
84.1929
21
-112.06
0
LINE
8
BLACK
6
CONTINUOUS
10
84.1929
20
-112.06
11
84.0024
21
-112.155
0
LINE
8
BLACK
6
CONTINUOUS
10
84.0024
20
-112.155
11
83.6214
21
-112.155
0
LINE
8
BLACK
6
CONTINUOUS
10
83.6214
20
-112.155
11
83.431
21
-112.06
0
LINE
8
BLACK
6
CONTINUOUS
10
85.2405
20
-111.964
11
85.3357
21
-112.06
0
LINE
8
BLACK
6
CONTINUOUS
10
85.3357
20
-112.06
11
85.2405
21
-112.155
0
LINE
8
BLACK
6
CONTINUOUS
10
85.2405
20
-112.155
11
85.1452
21
-112.06
0
LINE
8
BLACK
6
CONTINUOUS
10
85.1452
20
-112.06
11
85.2405
21
-111.964
0
LINE
8
BLACK
6
CONTINUOUS
10
85.2405
20
-111.964
11
85.2405
21
-112.155
0
LINE
8
BLACK
6
CONTINUOUS
10
85.2405
20
-110.917
11
85.3357
21
-111.012
0
LINE
8
BLACK
6
CONTINUOUS
10
85.3357
20
-111.012
11
85.2405
21
-111.107
0
LINE
8
BLACK
6
CONTINUOUS
10
85.2405
20
-111.107
11
85.1452
21
-111.012
0
LINE
8
BLACK
6
CONTINUOUS
10
85.1452
20
-111.012
11
85.2405
21
-110.917
0
LINE
8
BLACK
6
CONTINUOUS
10
85.2405
20
-110.917
11
85.2405
21
-111.107
0
LINE
8
BLACK
6
CONTINUOUS
10
68.55
20
-115.25
11
68.95
21
-115.65
0
LINE
8
BLACK
6
CONTINUOUS
10
68.95
20
-115.25
11
68.55
21
-115.65
0
LINE
8
BLACK
6
CONTINUOUS
10
71.9071
20
-114.355
11
72.0976
21
-114.355
0
LINE
8
BLACK
6
CONTINUOUS
10
72.0976
20
-114.355
11
72.2881
21
-114.45
0
LINE
8
BLACK
6
CONTINUOUS
10
72.2881
20
-114.45
11
72.3833
21
-114.545
0
LINE
8
BLACK
6
CONTINUOUS
10
72.3833
20
-114.545
11
72.4786
21
-114.736
0
LINE
8
BLACK
6
CONTINUOUS
10
72.4786
20
-114.736
11
72.5738
21
-115.117
0
LINE
8
BLACK
6
CONTINUOUS
10
72.5738
20
-115.117
11
72.5738
21
-115.593
0
LINE
8
BLACK
6
CONTINUOUS
10
72.5738
20
-115.593
11
72.4786
21
-115.974
0
LINE
8
BLACK
6
CONTINUOUS
10
72.4786
20
-115.974
11
72.3833
21
-116.164
0
LINE
8
BLACK
6
CONTINUOUS
10
72.3833
20
-116.164
11
72.2881
21
-116.26
0
LINE
8
BLACK
6
CONTINUOUS
10
72.2881
20
-116.26
11
72.0976
21
-116.355
0
LINE
8
BLACK
6
CONTINUOUS
10
72.0976
20
-116.355
11
71.9071
21
-116.355
0
LINE
8
BLACK
6
CONTINUOUS
10
71.9071
20
-116.355
11
71.7167
21
-116.26
0
LINE
8
BLACK
6
CONTINUOUS
10
71.7167
20
-116.26
11
71.6214
21
-116.164
0
LINE
8
BLACK
6
CONTINUOUS
10
71.6214
20
-116.164
11
71.5262
21
-115.974
0
LINE
8
BLACK
6
CONTINUOUS
10
71.5262
20
-115.974
11
71.431
21
-115.593
0
LINE
8
BLACK
6
CONTINUOUS
10
71.431
20
-115.593
11
71.431
21
-115.117
0
LINE
8
BLACK
6
CONTINUOUS
10
71.431
20
-115.117
11
71.5262
21
-114.736
0
LINE
8
BLACK
6
CONTINUOUS
10
71.5262
20
-114.736
11
71.6214
21
-114.545
0
LINE
8
BLACK
6
CONTINUOUS
10
71.6214
20
-114.545
11
71.7167
21
-114.45
0
LINE
8
BLACK
6
CONTINUOUS
10
71.7167
20
-114.45
11
71.9071
21
-114.355
0
LINE
8
BLACK
6
CONTINUOUS
10
73.431
20
-116.164
11
73.5262
21
-116.26
0
LINE
8
BLACK
6
CONTINUOUS
10
73.5262
20
-116.26
11
73.431
21
-116.355
0
LINE
8
BLACK
6
CONTINUOUS
10
73.431
20
-116.355
11
73.3357
21
-116.26
0
LINE
8
BLACK
6
CONTINUOUS
10
73.3357
20
-116.26
11
73.431
21
-116.164
0
LINE
8
BLACK
6
CONTINUOUS
10
73.431
20
-116.164
11
73.431
21
-116.355
0
LINE
8
BLACK
6
CONTINUOUS
10
75.2405
20
-115.021
11
75.2405
21
-116.355
0
LINE
8
BLACK
6
CONTINUOUS
10
74.7643
20
-114.26
11
74.2881
21
-115.688
0
LINE
8
BLACK
6
CONTINUOUS
10
74.2881
20
-115.688
11
75.5262
21
-115.688
0
LINE
8
BLACK
6
CONTINUOUS
10
76.669
20
-114.355
11
76.8595
21
-114.355
0
LINE
8
BLACK
6
CONTINUOUS
10
76.8595
20
-114.355
11
77.05
21
-114.45
0
LINE
8
BLACK
6
CONTINUOUS
10
77.05
20
-114.45
11
77.1452
21
-114.545
0
LINE
8
BLACK
6
CONTINUOUS
10
77.1452
20
-114.545
11
77.2405
21
-114.736
0
LINE
8
BLACK
6
CONTINUOUS
10
77.2405
20
-114.736
11
77.3357
21
-115.117
0
LINE
8
BLACK
6
CONTINUOUS
10
77.3357
20
-115.117
11
77.3357
21
-115.593
0
LINE
8
BLACK
6
CONTINUOUS
10
77.3357
20
-115.593
11
77.2405
21
-115.974
0
LINE
8
BLACK
6
CONTINUOUS
10
77.2405
20
-115.974
11
77.1452
21
-116.164
0
LINE
8
BLACK
6
CONTINUOUS
10
77.1452
20
-116.164
11
77.05
21
-116.26
0
LINE
8
BLACK
6
CONTINUOUS
10
77.05
20
-116.26
11
76.8595
21
-116.355
0
LINE
8
BLACK
6
CONTINUOUS
10
76.8595
20
-116.355
11
76.669
21
-116.355
0
LINE
8
BLACK
6
CONTINUOUS
10
76.669
20
-116.355
11
76.4786
21
-116.26
0
LINE
8
BLACK
6
CONTINUOUS
10
76.4786
20
-116.26
11
76.3833
21
-116.164
0
LINE
8
BLACK
6
CONTINUOUS
10
76.3833
20
-116.164
11
76.2881
21
-115.974
0
LINE
8
BLACK
6
CONTINUOUS
10
76.2881
20
-115.974
11
76.1929
21
-115.593
0
LINE
8
BLACK
6
CONTINUOUS
10
76.1929
20
-115.593
11
76.1929
21
-115.117
0
LINE
8
BLACK
6
CONTINUOUS
10
76.1929
20
-115.117
11
76.2881
21
-114.736
0
LINE
8
BLACK
6
CONTINUOUS
10
76.2881
20
-114.736
11
76.3833
21
-114.545
0
LINE
8
BLACK
6
CONTINUOUS
10
76.3833
20
-114.545
11
76.4786
21
-114.45
0
LINE
8
BLACK
6
CONTINUOUS
10
76.4786
20
-114.45
11
76.669
21
-114.355
0
LINE
8
BLACK
6
CONTINUOUS
10
78.5738
20
-114.355
11
78.7643
21
-114.355
0
LINE
8
BLACK
6
CONTINUOUS
10
78.7643
20
-114.355
11
78.9548
21
-114.45
0
LINE
8
BLACK
6
CONTINUOUS
10
78.9548
20
-114.45
11
79.05
21
-114.545
0
LINE
8
BLACK
6
CONTINUOUS
10
79.05
20
-114.545
11
79.1452
21
-114.736
0
LINE
8
BLACK
6
CONTINUOUS
10
79.1452
20
-114.736
11
79.2405
21
-115.117
0
LINE
8
BLACK
6
CONTINUOUS
10
79.2405
20
-115.117
11
79.2405
21
-115.593
0
LINE
8
BLACK
6
CONTINUOUS
10
79.2405
20
-115.593
11
79.1452
21
-115.974
0
LINE
8
BLACK
6
CONTINUOUS
10
79.1452
20
-115.974
11
79.05
21
-116.164
0
LINE
8
BLACK
6
CONTINUOUS
10
79.05
20
-116.164
11
78.9548
21
-116.26
0
LINE
8
BLACK
6
CONTINUOUS
10
78.9548
20
-116.26
11
78.7643
21
-116.355
0
LINE
8
BLACK
6
CONTINUOUS
10
78.7643
20
-116.355
11
78.5738
21
-116.355
0
LINE
8
BLACK
6
CONTINUOUS
10
78.5738
20
-116.355
11
78.3833
21
-116.26
0
LINE
8
BLACK
6
CONTINUOUS
10
78.3833
20
-116.26
11
78.2881
21
-116.164
0
LINE
8
BLACK
6
CONTINUOUS
10
78.2881
20
-116.164
11
78.1929
21
-115.974
0
LINE
8
BLACK
6
CONTINUOUS
10
78.1929
20
-115.974
11
78.0976
21
-115.593
0
LINE
8
BLACK
6
CONTINUOUS
10
78.0976
20
-115.593
11
78.0976
21
-115.117
0
LINE
8
BLACK
6
CONTINUOUS
10
78.0976
20
-115.117
11
78.1929
21
-114.736
0
LINE
8
BLACK
6
CONTINUOUS
10
78.1929
20
-114.736
11
78.2881
21
-114.545
0
LINE
8
BLACK
6
CONTINUOUS
10
78.2881
20
-114.545
11
78.3833
21
-114.45
0
LINE
8
BLACK
6
CONTINUOUS
10
78.3833
20
-114.45
11
78.5738
21
-114.355
0
LINE
8
BLACK
6
CONTINUOUS
10
80.0976
20
-116.355
11
80.0976
21
-115.021
0
LINE
8
BLACK
6
CONTINUOUS
10
80.0976
20
-115.212
11
80.1929
21
-115.117
0
LINE
8
BLACK
6
CONTINUOUS
10
80.1929
20
-115.117
11
80.3833
21
-115.021
0
LINE
8
BLACK
6
CONTINUOUS
10
80.3833
20
-115.021
11
80.669
21
-115.021
0
LINE
8
BLACK
6
CONTINUOUS
10
80.669
20
-115.021
11
80.8595
21
-115.117
0
LINE
8
BLACK
6
CONTINUOUS
10
80.8595
20
-115.117
11
80.9548
21
-115.307
0
LINE
8
BLACK
6
CONTINUOUS
10
80.9548
20
-115.307
11
80.9548
21
-116.355
0
LINE
8
BLACK
6
CONTINUOUS
10
80.9548
20
-115.307
11
81.05
21
-115.117
0
LINE
8
BLACK
6
CONTINUOUS
10
81.05
20
-115.117
11
81.2405
21
-115.021
0
LINE
8
BLACK
6
CONTINUOUS
10
81.2405
20
-115.021
11
81.5262
21
-115.021
0
LINE
8
BLACK
6
CONTINUOUS
10
81.5262
20
-115.021
11
81.7167
21
-115.117
0
LINE
8
BLACK
6
CONTINUOUS
10
81.7167
20
-115.117
11
81.8119
21
-115.307
0
LINE
8
BLACK
6
CONTINUOUS
10
81.8119
20
-115.307
11
81.8119
21
-116.355
0
LINE
8
BLACK
6
CONTINUOUS
10
82.7643
20
-116.355
11
82.7643
21
-115.021
0
LINE
8
BLACK
6
CONTINUOUS
10
82.7643
20
-115.212
11
82.8595
21
-115.117
0
LINE
8
BLACK
6
CONTINUOUS
10
82.8595
20
-115.117
11
83.05
21
-115.021
0
LINE
8
BLACK
6
CONTINUOUS
10
83.05
20
-115.021
11
83.3357
21
-115.021
0
LINE
8
BLACK
6
CONTINUOUS
10
83.3357
20
-115.021
11
83.5262
21
-115.117
0
LINE
8
BLACK
6
CONTINUOUS
10
83.5262
20
-115.117
11
83.6214
21
-115.307
0
LINE
8
BLACK
6
CONTINUOUS
10
83.6214
20
-115.307
11
83.6214
21
-116.355
0
LINE
8
BLACK
6
CONTINUOUS
10
83.6214
20
-115.307
11
83.7167
21
-115.117
0
LINE
8
BLACK
6
CONTINUOUS
10
83.7167
20
-115.117
11
83.9071
21
-115.021
0
LINE
8
BLACK
6
CONTINUOUS
10
83.9071
20
-115.021
11
84.1929
21
-115.021
0
LINE
8
BLACK
6
CONTINUOUS
10
84.1929
20
-115.021
11
84.3833
21
-115.117
0
LINE
8
BLACK
6
CONTINUOUS
10
84.3833
20
-115.117
11
84.4786
21
-115.307
0
LINE
8
BLACK
6
CONTINUOUS
10
84.4786
20
-115.307
11
84.4786
21
-116.355
0
LINE
8
BLACK
6
CONTINUOUS
10
88.3833
20
-114.26
11
86.669
21
-116.831
0
LINE
8
BLACK
6
CONTINUOUS
10
90.9548
20
-114.355
11
91.1452
21
-114.355
0
LINE
8
BLACK
6
CONTINUOUS
10
91.1452
20
-114.355
11
91.3357
21
-114.45
0
LINE
8
BLACK
6
CONTINUOUS
10
91.3357
20
-114.45
11
91.431
21
-114.545
0
LINE
8
BLACK
6
CONTINUOUS
10
91.431
20
-114.545
11
91.5262
21
-114.736
0
LINE
8
BLACK
6
CONTINUOUS
10
91.5262
20
-114.736
11
91.6214
21
-115.117
0
LINE
8
BLACK
6
CONTINUOUS
10
91.6214
20
-115.117
11
91.6214
21
-115.593
0
LINE
8
BLACK
6
CONTINUOUS
10
91.6214
20
-115.593
11
91.5262
21
-115.974
0
LINE
8
BLACK
6
CONTINUOUS
10
91.5262
20
-115.974
11
91.431
21
-116.164
0
LINE
8
BLACK
6
CONTINUOUS
10
91.431
20
-116.164
11
91.3357
21
-116.26
0
LINE
8
BLACK
6
CONTINUOUS
10
91.3357
20
-116.26
11
91.1452
21
-116.355
0
LINE
8
BLACK
6
CONTINUOUS
10
91.1452
20
-116.355
11
90.9548
21
-116.355
0
LINE
8
BLACK
6
CONTINUOUS
10
90.9548
20
-116.355
11
90.7643
21
-116.26
0
LINE
8
BLACK
6
CONTINUOUS
10
90.7643
20
-116.26
11
90.669
21
-116.164
0
LINE
8
BLACK
6
CONTINUOUS
10
90.669
20
-116.164
11
90.5738
21
-115.974
0
LINE
8
BLACK
6
CONTINUOUS
10
90.5738
20
-115.974
11
90.4786
21
-115.593
0
LINE
8
BLACK
6
CONTINUOUS
10
90.4786
20
-115.593
11
90.4786
21
-115.117
0
LINE
8
BLACK
6
CONTINUOUS
10
90.4786
20
-115.117
11
90.5738
21
-114.736
0
LINE
8
BLACK
6
CONTINUOUS
10
90.5738
20
-114.736
11
90.669
21
-114.545
0
LINE
8
BLACK
6
CONTINUOUS
10
90.669
20
-114.545
11
90.7643
21
-114.45
0
LINE
8
BLACK
6
CONTINUOUS
10
90.7643
20
-114.45
11
90.9548
21
-114.355
0
LINE
8
BLACK
6
CONTINUOUS
10
92.4786
20
-116.164
11
92.5738
21
-116.26
0
LINE
8
BLACK
6
CONTINUOUS
10
92.5738
20
-116.26
11
92.4786
21
-116.355
0
LINE
8
BLACK
6
CONTINUOUS
10
92.4786
20
-116.355
11
92.3833
21
-116.26
0
LINE
8
BLACK
6
CONTINUOUS
10
92.3833
20
-116.26
11
92.4786
21
-116.164
0
LINE
8
BLACK
6
CONTINUOUS
10
92.4786
20
-116.164
11
92.4786
21
-116.355
0
LINE
8
BLACK
6
CONTINUOUS
10
93.8119
20
-114.355
11
94.0024
21
-114.355
0
LINE
8
BLACK
6
CONTINUOUS
10
94.0024
20
-114.355
11
94.1929
21
-114.45
0
LINE
8
BLACK
6
CONTINUOUS
10
94.1929
20
-114.45
11
94.2881
21
-114.545
0
LINE
8
BLACK
6
CONTINUOUS
10
94.2881
20
-114.545
11
94.3833
21
-114.736
0
LINE
8
BLACK
6
CONTINUOUS
10
94.3833
20
-114.736
11
94.4786
21
-115.117
0
LINE
8
BLACK
6
CONTINUOUS
10
94.4786
20
-115.117
11
94.4786
21
-115.593
0
LINE
8
BLACK
6
CONTINUOUS
10
94.4786
20
-115.593
11
94.3833
21
-115.974
0
LINE
8
BLACK
6
CONTINUOUS
10
94.3833
20
-115.974
11
94.2881
21
-116.164
0
LINE
8
BLACK
6
CONTINUOUS
10
94.2881
20
-116.164
11
94.1929
21
-116.26
0
LINE
8
BLACK
6
CONTINUOUS
10
94.1929
20
-116.26
11
94.0024
21
-116.355
0
LINE
8
BLACK
6
CONTINUOUS
10
94.0024
20
-116.355
11
93.8119
21
-116.355
0
LINE
8
BLACK
6
CONTINUOUS
10
93.8119
20
-116.355
11
93.6214
21
-116.26
0
LINE
8
BLACK
6
CONTINUOUS
10
93.6214
20
-116.26
11
93.5262
21
-116.164
0
LINE
8
BLACK
6
CONTINUOUS
10
93.5262
20
-116.164
11
93.431
21
-115.974
0
LINE
8
BLACK
6
CONTINUOUS
10
93.431
20
-115.974
11
93.3357
21
-115.593
0
LINE
8
BLACK
6
CONTINUOUS
10
93.3357
20
-115.593
11
93.3357
21
-115.117
0
LINE
8
BLACK
6
CONTINUOUS
10
93.3357
20
-115.117
11
93.431
21
-114.736
0
LINE
8
BLACK
6
CONTINUOUS
10
93.431
20
-114.736
11
93.5262
21
-114.545
0
LINE
8
BLACK
6
CONTINUOUS
10
93.5262
20
-114.545
11
93.6214
21
-114.45
0
LINE
8
BLACK
6
CONTINUOUS
10
93.6214
20
-114.45
11
93.8119
21
-114.355
0
LINE
8
BLACK
6
CONTINUOUS
10
96.3833
20
-116.355
11
95.2405
21
-116.355
0
LINE
8
BLACK
6
CONTINUOUS
10
95.8119
20
-116.355
11
95.8119
21
-114.355
0
LINE
8
BLACK
6
CONTINUOUS
10
95.8119
20
-114.355
11
95.6214
21
-114.64
0
LINE
8
BLACK
6
CONTINUOUS
10
95.6214
20
-114.64
11
95.431
21
-114.831
0
LINE
8
BLACK
6
CONTINUOUS
10
95.431
20
-114.831
11
95.2405
21
-114.926
0
LINE
8
BLACK
6
CONTINUOUS
10
98.1929
20
-114.355
11
97.2405
21
-114.355
0
LINE
8
BLACK
6
CONTINUOUS
10
97.2405
20
-114.355
11
97.1452
21
-115.307
0
LINE
8
BLACK
6
CONTINUOUS
10
97.1452
20
-115.307
11
97.2405
21
-115.212
0
LINE
8
BLACK
6
CONTINUOUS
10
97.2405
20
-115.212
11
97.431
21
-115.117
0
LINE
8
BLACK
6
CONTINUOUS
10
97.431
20
-115.117
11
97.9071
21
-115.117
0
LINE
8
BLACK
6
CONTINUOUS
10
97.9071
20
-115.117
11
98.0976
21
-115.212
0
LINE
8
BLACK
6
CONTINUOUS
10
98.0976
20
-115.212
11
98.1929
21
-115.307
0
LINE
8
BLACK
6
CONTINUOUS
10
98.1929
20
-115.307
11
98.2881
21
-115.498
0
LINE
8
BLACK
6
CONTINUOUS
10
98.2881
20
-115.498
11
98.2881
21
-115.974
0
LINE
8
BLACK
6
CONTINUOUS
10
98.2881
20
-115.974
11
98.1929
21
-116.164
0
LINE
8
BLACK
6
CONTINUOUS
10
98.1929
20
-116.164
11
98.0976
21
-116.26
0
LINE
8
BLACK
6
CONTINUOUS
10
98.0976
20
-116.26
11
97.9071
21
-116.355
0
LINE
8
BLACK
6
CONTINUOUS
10
97.9071
20
-116.355
11
97.431
21
-116.355
0
LINE
8
BLACK
6
CONTINUOUS
10
97.431
20
-116.355
11
97.2405
21
-116.26
0
LINE
8
BLACK
6
CONTINUOUS
10
97.2405
20
-116.26
11
97.1452
21
-116.164
0
LINE
8
BLACK
6
CONTINUOUS
10
98.9548
20
-114.355
11
100.288
21
-114.355
0
LINE
8
BLACK
6
CONTINUOUS
10
100.288
20
-114.355
11
99.431
21
-116.355
0
LINE
8
BLACK
6
CONTINUOUS
10
100.955
20
-114.355
11
100.955
21
-114.736
0
LINE
8
BLACK
6
CONTINUOUS
10
101.717
20
-114.355
11
101.717
21
-114.736
0
LINE
8
BLACK
6
CONTINUOUS
10
104.669
20
-117.117
11
104.574
21
-117.021
0
LINE
8
BLACK
6
CONTINUOUS
10
104.574
20
-117.021
11
104.383
21
-116.736
0
LINE
8
BLACK
6
CONTINUOUS
10
104.383
20
-116.736
11
104.288
21
-116.545
0
LINE
8
BLACK
6
CONTINUOUS
10
104.288
20
-116.545
11
104.193
21
-116.26
0
LINE
8
BLACK
6
CONTINUOUS
10
104.193
20
-116.26
11
104.098
21
-115.783
0
LINE
8
BLACK
6
CONTINUOUS
10
104.098
20
-115.783
11
104.098
21
-115.402
0
LINE
8
BLACK
6
CONTINUOUS
10
104.098
20
-115.402
11
104.193
21
-114.926
0
LINE
8
BLACK
6
CONTINUOUS
10
104.193
20
-114.926
11
104.288
21
-114.64
0
LINE
8
BLACK
6
CONTINUOUS
10
104.288
20
-114.64
11
104.383
21
-114.45
0
LINE
8
BLACK
6
CONTINUOUS
10
104.383
20
-114.45
11
104.574
21
-114.164
0
LINE
8
BLACK
6
CONTINUOUS
10
104.574
20
-114.164
11
104.669
21
-114.069
0
LINE
8
BLACK
6
CONTINUOUS
10
105.24
20
-114.355
11
106.479
21
-114.355
0
LINE
8
BLACK
6
CONTINUOUS
10
106.479
20
-114.355
11
105.812
21
-115.117
0
LINE
8
BLACK
6
CONTINUOUS
10
105.812
20
-115.117
11
106.098
21
-115.117
0
LINE
8
BLACK
6
CONTINUOUS
10
106.098
20
-115.117
11
106.288
21
-115.212
0
LINE
8
BLACK
6
CONTINUOUS
10
106.288
20
-115.212
11
106.383
21
-115.307
0
LINE
8
BLACK
6
CONTINUOUS
10
106.383
20
-115.307
11
106.479
21
-115.498
0
LINE
8
BLACK
6
CONTINUOUS
10
106.479
20
-115.498
11
106.479
21
-115.974
0
LINE
8
BLACK
6
CONTINUOUS
10
106.479
20
-115.974
11
106.383
21
-116.164
0
LINE
8
BLACK
6
CONTINUOUS
10
106.383
20
-116.164
11
106.288
21
-116.26
0
LINE
8
BLACK
6
CONTINUOUS
10
106.288
20
-116.26
11
106.098
21
-116.355
0
LINE
8
BLACK
6
CONTINUOUS
10
106.098
20
-116.355
11
105.526
21
-116.355
0
LINE
8
BLACK
6
CONTINUOUS
10
105.526
20
-116.355
11
105.336
21
-116.26
0
LINE
8
BLACK
6
CONTINUOUS
10
105.336
20
-116.26
11
105.24
21
-116.164
0
LINE
8
BLACK
6
CONTINUOUS
10
108.86
20
-116.355
11
108.86
21
-114.355
0
LINE
8
BLACK
6
CONTINUOUS
10
109.717
20
-116.355
11
109.717
21
-115.307
0
LINE
8
BLACK
6
CONTINUOUS
10
109.717
20
-115.307
11
109.621
21
-115.117
0
LINE
8
BLACK
6
CONTINUOUS
10
109.621
20
-115.117
11
109.431
21
-115.021
0
LINE
8
BLACK
6
CONTINUOUS
10
109.431
20
-115.021
11
109.145
21
-115.021
0
LINE
8
BLACK
6
CONTINUOUS
10
109.145
20
-115.021
11
108.955
21
-115.117
0
LINE
8
BLACK
6
CONTINUOUS
10
108.955
20
-115.117
11
108.86
21
-115.212
0
LINE
8
BLACK
6
CONTINUOUS
10
110.955
20
-116.355
11
110.764
21
-116.26
0
LINE
8
BLACK
6
CONTINUOUS
10
110.764
20
-116.26
11
110.669
21
-116.164
0
LINE
8
BLACK
6
CONTINUOUS
10
110.669
20
-116.164
11
110.574
21
-115.974
0
LINE
8
BLACK
6
CONTINUOUS
10
110.574
20
-115.974
11
110.574
21
-115.402
0
LINE
8
BLACK
6
CONTINUOUS
10
110.574
20
-115.402
11
110.669
21
-115.212
0
LINE
8
BLACK
6
CONTINUOUS
10
110.669
20
-115.212
11
110.764
21
-115.117
0
LINE
8
BLACK
6
CONTINUOUS
10
110.764
20
-115.117
11
110.955
21
-115.021
0
LINE
8
BLACK
6
CONTINUOUS
10
110.955
20
-115.021
11
111.24
21
-115.021
0
LINE
8
BLACK
6
CONTINUOUS
10
111.24
20
-115.021
11
111.431
21
-115.117
0
LINE
8
BLACK
6
CONTINUOUS
10
111.431
20
-115.117
11
111.526
21
-115.212
0
LINE
8
BLACK
6
CONTINUOUS
10
111.526
20
-115.212
11
111.621
21
-115.402
0
LINE
8
BLACK
6
CONTINUOUS
10
111.621
20
-115.402
11
111.621
21
-115.974
0
LINE
8
BLACK
6
CONTINUOUS
10
111.621
20
-115.974
11
111.526
21
-116.164
0
LINE
8
BLACK
6
CONTINUOUS
10
111.526
20
-116.164
11
111.431
21
-116.26
0
LINE
8
BLACK
6
CONTINUOUS
10
111.431
20
-116.26
11
111.24
21
-116.355
0
LINE
8
BLACK
6
CONTINUOUS
10
111.24
20
-116.355
11
110.955
21
-116.355
0
LINE
8
BLACK
6
CONTINUOUS
10
112.764
20
-116.355
11
112.574
21
-116.26
0
LINE
8
BLACK
6
CONTINUOUS
10
112.574
20
-116.26
11
112.479
21
-116.069
0
LINE
8
BLACK
6
CONTINUOUS
10
112.479
20
-116.069
11
112.479
21
-114.355
0
LINE
8
BLACK
6
CONTINUOUS
10
114.288
20
-116.26
11
114.098
21
-116.355
0
LINE
8
BLACK
6
CONTINUOUS
10
114.098
20
-116.355
11
113.717
21
-116.355
0
LINE
8
BLACK
6
CONTINUOUS
10
113.717
20
-116.355
11
113.526
21
-116.26
0
LINE
8
BLACK
6
CONTINUOUS
10
113.526
20
-116.26
11
113.431
21
-116.069
0
LINE
8
BLACK
6
CONTINUOUS
10
113.431
20
-116.069
11
113.431
21
-115.307
0
LINE
8
BLACK
6
CONTINUOUS
10
113.431
20
-115.307
11
113.526
21
-115.117
0
LINE
8
BLACK
6
CONTINUOUS
10
113.526
20
-115.117
11
113.717
21
-115.021
0
LINE
8
BLACK
6
CONTINUOUS
10
113.717
20
-115.021
11
114.098
21
-115.021
0
LINE
8
BLACK
6
CONTINUOUS
10
114.098
20
-115.021
11
114.288
21
-115.117
0
LINE
8
BLACK
6
CONTINUOUS
10
114.288
20
-115.117
11
114.383
21
-115.307
0
LINE
8
BLACK
6
CONTINUOUS
10
114.383
20
-115.307
11
114.383
21
-115.498
0
LINE
8
BLACK
6
CONTINUOUS
10
114.383
20
-115.498
11
113.431
21
-115.688
0
LINE
8
BLACK
6
CONTINUOUS
10
115.145
20
-116.26
11
115.336
21
-116.355
0
LINE
8
BLACK
6
CONTINUOUS
10
115.336
20
-116.355
11
115.717
21
-116.355
0
LINE
8
BLACK
6
CONTINUOUS
10
115.717
20
-116.355
11
115.907
21
-116.26
0
LINE
8
BLACK
6
CONTINUOUS
10
115.907
20
-116.26
11
116.002
21
-116.069
0
LINE
8
BLACK
6
CONTINUOUS
10
116.002
20
-116.069
11
116.002
21
-115.974
0
LINE
8
BLACK
6
CONTINUOUS
10
116.002
20
-115.974
11
115.907
21
-115.783
0
LINE
8
BLACK
6
CONTINUOUS
10
115.907
20
-115.783
11
115.717
21
-115.688
0
LINE
8
BLACK
6
CONTINUOUS
10
115.717
20
-115.688
11
115.431
21
-115.688
0
LINE
8
BLACK
6
CONTINUOUS
10
115.431
20
-115.688
11
115.24
21
-115.593
0
LINE
8
BLACK
6
CONTINUOUS
10
115.24
20
-115.593
11
115.145
21
-115.402
0
LINE
8
BLACK
6
CONTINUOUS
10
115.145
20
-115.402
11
115.145
21
-115.307
0
LINE
8
BLACK
6
CONTINUOUS
10
115.145
20
-115.307
11
115.24
21
-115.117
0
LINE
8
BLACK
6
CONTINUOUS
10
115.24
20
-115.117
11
115.431
21
-115.021
0
LINE
8
BLACK
6
CONTINUOUS
10
115.431
20
-115.021
11
115.717
21
-115.021
0
LINE
8
BLACK
6
CONTINUOUS
10
115.717
20
-115.021
11
115.907
21
-115.117
0
LINE
8
BLACK
6
CONTINUOUS
10
116.669
20
-117.117
11
116.764
21
-117.021
0
LINE
8
BLACK
6
CONTINUOUS
10
116.764
20
-117.021
11
116.955
21
-116.736
0
LINE
8
BLACK
6
CONTINUOUS
10
116.955
20
-116.736
11
117.05
21
-116.545
0
LINE
8
BLACK
6
CONTINUOUS
10
117.05
20
-116.545
11
117.145
21
-116.26
0
LINE
8
BLACK
6
CONTINUOUS
10
117.145
20
-116.26
11
117.24
21
-115.783
0
LINE
8
BLACK
6
CONTINUOUS
10
117.24
20
-115.783
11
117.24
21
-115.402
0
LINE
8
BLACK
6
CONTINUOUS
10
117.24
20
-115.402
11
117.145
21
-114.926
0
LINE
8
BLACK
6
CONTINUOUS
10
117.145
20
-114.926
11
117.05
21
-114.64
0
LINE
8
BLACK
6
CONTINUOUS
10
117.05
20
-114.64
11
116.955
21
-114.45
0
LINE
8
BLACK
6
CONTINUOUS
10
116.955
20
-114.45
11
116.764
21
-114.164
0
LINE
8
BLACK
6
CONTINUOUS
10
116.764
20
-114.164
11
116.669
21
-114.069
0
CIRCLE
8
BLACK
10
68.45
20
-118.09
40
0.5
0
LINE
8
BLACK
6
CONTINUOUS
10
72.5738
20
-118.995
11
71.431
21
-118.995
0
LINE
8
BLACK
6
CONTINUOUS
10
72.0024
20
-118.995
11
72.0024
21
-116.995
0
LINE
8
BLACK
6
CONTINUOUS
10
72.0024
20
-116.995
11
71.8119
21
-117.28
0
LINE
8
BLACK
6
CONTINUOUS
10
71.8119
20
-117.28
11
71.6214
21
-117.471
0
LINE
8
BLACK
6
CONTINUOUS
10
71.6214
20
-117.471
11
71.431
21
-117.566
0
LINE
8
BLACK
6
CONTINUOUS
10
73.431
20
-118.804
11
73.5262
21
-118.9
0
LINE
8
BLACK
6
CONTINUOUS
10
73.5262
20
-118.9
11
73.431
21
-118.995
0
LINE
8
BLACK
6
CONTINUOUS
10
73.431
20
-118.995
11
73.3357
21
-118.9
0
LINE
8
BLACK
6
CONTINUOUS
10
73.3357
20
-118.9
11
73.431
21
-118.804
0
LINE
8
BLACK
6
CONTINUOUS
10
73.431
20
-118.804
11
73.431
21
-118.995
0
LINE
8
BLACK
6
CONTINUOUS
10
74.7643
20
-116.995
11
74.9548
21
-116.995
0
LINE
8
BLACK
6
CONTINUOUS
10
74.9548
20
-116.995
11
75.1452
21
-117.09
0
LINE
8
BLACK
6
CONTINUOUS
10
75.1452
20
-117.09
11
75.2405
21
-117.185
0
LINE
8
BLACK
6
CONTINUOUS
10
75.2405
20
-117.185
11
75.3357
21
-117.376
0
LINE
8
BLACK
6
CONTINUOUS
10
75.3357
20
-117.376
11
75.431
21
-117.757
0
LINE
8
BLACK
6
CONTINUOUS
10
75.431
20
-117.757
11
75.431
21
-118.233
0
LINE
8
BLACK
6
CONTINUOUS
10
75.431
20
-118.233
11
75.3357
21
-118.614
0
LINE
8
BLACK
6
CONTINUOUS
10
75.3357
20
-118.614
11
75.2405
21
-118.804
0
LINE
8
BLACK
6
CONTINUOUS
10
75.2405
20
-118.804
11
75.1452
21
-118.9
0
LINE
8
BLACK
6
CONTINUOUS
10
75.1452
20
-118.9
11
74.9548
21
-118.995
0
LINE
8
BLACK
6
CONTINUOUS
10
74.9548
20
-118.995
11
74.7643
21
-118.995
0
LINE
8
BLACK
6
CONTINUOUS
10
74.7643
20
-118.995
11
74.5738
21
-118.9
0
LINE
8
BLACK
6
CONTINUOUS
10
74.5738
20
-118.9
11
74.4786
21
-118.804
0
LINE
8
BLACK
6
CONTINUOUS
10
74.4786
20
-118.804
11
74.3833
21
-118.614
0
LINE
8
BLACK
6
CONTINUOUS
10
74.3833
20
-118.614
11
74.2881
21
-118.233
0
LINE
8
BLACK
6
CONTINUOUS
10
74.2881
20
-118.233
11
74.2881
21
-117.757
0
LINE
8
BLACK
6
CONTINUOUS
10
74.2881
20
-117.757
11
74.3833
21
-117.376
0
LINE
8
BLACK
6
CONTINUOUS
10
74.3833
20
-117.376
11
74.4786
21
-117.185
0
LINE
8
BLACK
6
CONTINUOUS
10
74.4786
20
-117.185
11
74.5738
21
-117.09
0
LINE
8
BLACK
6
CONTINUOUS
10
74.5738
20
-117.09
11
74.7643
21
-116.995
0
LINE
8
BLACK
6
CONTINUOUS
10
76.669
20
-116.995
11
76.8595
21
-116.995
0
LINE
8
BLACK
6
CONTINUOUS
10
76.8595
20
-116.995
11
77.05
21
-117.09
0
LINE
8
BLACK
6
CONTINUOUS
10
77.05
20
-117.09
11
77.1452
21
-117.185
0
LINE
8
BLACK
6
CONTINUOUS
10
77.1452
20
-117.185
11
77.2405
21
-117.376
0
LINE
8
BLACK
6
CONTINUOUS
10
77.2405
20
-117.376
11
77.3357
21
-117.757
0
LINE
8
BLACK
6
CONTINUOUS
10
77.3357
20
-117.757
11
77.3357
21
-118.233
0
LINE
8
BLACK
6
CONTINUOUS
10
77.3357
20
-118.233
11
77.2405
21
-118.614
0
LINE
8
BLACK
6
CONTINUOUS
10
77.2405
20
-118.614
11
77.1452
21
-118.804
0
LINE
8
BLACK
6
CONTINUOUS
10
77.1452
20
-118.804
11
77.05
21
-118.9
0
LINE
8
BLACK
6
CONTINUOUS
10
77.05
20
-118.9
11
76.8595
21
-118.995
0
LINE
8
BLACK
6
CONTINUOUS
10
76.8595
20
-118.995
11
76.669
21
-118.995
0
LINE
8
BLACK
6
CONTINUOUS
10
76.669
20
-118.995
11
76.4786
21
-118.9
0
LINE
8
BLACK
6
CONTINUOUS
10
76.4786
20
-118.9
11
76.3833
21
-118.804
0
LINE
8
BLACK
6
CONTINUOUS
10
76.3833
20
-118.804
11
76.2881
21
-118.614
0
LINE
8
BLACK
6
CONTINUOUS
10
76.2881
20
-118.614
11
76.1929
21
-118.233
0
LINE
8
BLACK
6
CONTINUOUS
10
76.1929
20
-118.233
11
76.1929
21
-117.757
0
LINE
8
BLACK
6
CONTINUOUS
10
76.1929
20
-117.757
11
76.2881
21
-117.376
0
LINE
8
BLACK
6
CONTINUOUS
10
76.2881
20
-117.376
11
76.3833
21
-117.185
0
LINE
8
BLACK
6
CONTINUOUS
10
76.3833
20
-117.185
11
76.4786
21
-117.09
0
LINE
8
BLACK
6
CONTINUOUS
10
76.4786
20
-117.09
11
76.669
21
-116.995
0
LINE
8
BLACK
6
CONTINUOUS
10
78.5738
20
-116.995
11
78.7643
21
-116.995
0
LINE
8
BLACK
6
CONTINUOUS
10
78.7643
20
-116.995
11
78.9548
21
-117.09
0
LINE
8
BLACK
6
CONTINUOUS
10
78.9548
20
-117.09
11
79.05
21
-117.185
0
LINE
8
BLACK
6
CONTINUOUS
10
79.05
20
-117.185
11
79.1452
21
-117.376
0
LINE
8
BLACK
6
CONTINUOUS
10
79.1452
20
-117.376
11
79.2405
21
-117.757
0
LINE
8
BLACK
6
CONTINUOUS
10
79.2405
20
-117.757
11
79.2405
21
-118.233
0
LINE
8
BLACK
6
CONTINUOUS
10
79.2405
20
-118.233
11
79.1452
21
-118.614
0
LINE
8
BLACK
6
CONTINUOUS
10
79.1452
20
-118.614
11
79.05
21
-118.804
0
LINE
8
BLACK
6
CONTINUOUS
10
79.05
20
-118.804
11
78.9548
21
-118.9
0
LINE
8
BLACK
6
CONTINUOUS
10
78.9548
20
-118.9
11
78.7643
21
-118.995
0
LINE
8
BLACK
6
CONTINUOUS
10
78.7643
20
-118.995
11
78.5738
21
-118.995
0
LINE
8
BLACK
6
CONTINUOUS
10
78.5738
20
-118.995
11
78.3833
21
-118.9
0
LINE
8
BLACK
6
CONTINUOUS
10
78.3833
20
-118.9
11
78.2881
21
-118.804
0
LINE
8
BLACK
6
CONTINUOUS
10
78.2881
20
-118.804
11
78.1929
21
-118.614
0
LINE
8
BLACK
6
CONTINUOUS
10
78.1929
20
-118.614
11
78.0976
21
-118.233
0
LINE
8
BLACK
6
CONTINUOUS
10
78.0976
20
-118.233
11
78.0976
21
-117.757
0
LINE
8
BLACK
6
CONTINUOUS
10
78.0976
20
-117.757
11
78.1929
21
-117.376
0
LINE
8
BLACK
6
CONTINUOUS
10
78.1929
20
-117.376
11
78.2881
21
-117.185
0
LINE
8
BLACK
6
CONTINUOUS
10
78.2881
20
-117.185
11
78.3833
21
-117.09
0
LINE
8
BLACK
6
CONTINUOUS
10
78.3833
20
-117.09
11
78.5738
21
-116.995
0
LINE
8
BLACK
6
CONTINUOUS
10
80.0976
20
-118.995
11
80.0976
21
-117.661
0
LINE
8
BLACK
6
CONTINUOUS
10
80.0976
20
-117.852
11
80.1929
21
-117.757
0
LINE
8
BLACK
6
CONTINUOUS
10
80.1929
20
-117.757
11
80.3833
21
-117.661
0
LINE
8
BLACK
6
CONTINUOUS
10
80.3833
20
-117.661
11
80.669
21
-117.661
0
LINE
8
BLACK
6
CONTINUOUS
10
80.669
20
-117.661
11
80.8595
21
-117.757
0
LINE
8
BLACK
6
CONTINUOUS
10
80.8595
20
-117.757
11
80.9548
21
-117.947
0
LINE
8
BLACK
6
CONTINUOUS
10
80.9548
20
-117.947
11
80.9548
21
-118.995
0
LINE
8
BLACK
6
CONTINUOUS
10
80.9548
20
-117.947
11
81.05
21
-117.757
0
LINE
8
BLACK
6
CONTINUOUS
10
81.05
20
-117.757
11
81.2405
21
-117.661
0
LINE
8
BLACK
6
CONTINUOUS
10
81.2405
20
-117.661
11
81.5262
21
-117.661
0
LINE
8
BLACK
6
CONTINUOUS
10
81.5262
20
-117.661
11
81.7167
21
-117.757
0
LINE
8
BLACK
6
CONTINUOUS
10
81.7167
20
-117.757
11
81.8119
21
-117.947
0
LINE
8
BLACK
6
CONTINUOUS
10
81.8119
20
-117.947
11
81.8119
21
-118.995
0
LINE
8
BLACK
6
CONTINUOUS
10
82.7643
20
-118.995
11
82.7643
21
-117.661
0
LINE
8
BLACK
6
CONTINUOUS
10
82.7643
20
-117.852
11
82.8595
21
-117.757
0
LINE
8
BLACK
6
CONTINUOUS
10
82.8595
20
-117.757
11
83.05
21
-117.661
0
LINE
8
BLACK
6
CONTINUOUS
10
83.05
20
-117.661
11
83.3357
21
-117.661
0
LINE
8
BLACK
6
CONTINUOUS
10
83.3357
20
-117.661
11
83.5262
21
-117.757
0
LINE
8
BLACK
6
CONTINUOUS
10
83.5262
20
-117.757
11
83.6214
21
-117.947
0
LINE
8
BLACK
6
CONTINUOUS
10
83.6214
20
-117.947
11
83.6214
21
-118.995
0
LINE
8
BLACK
6
CONTINUOUS
10
83.6214
20
-117.947
11
83.7167
21
-117.757
0
LINE
8
BLACK
6
CONTINUOUS
10
83.7167
20
-117.757
11
83.9071
21
-117.661
0
LINE
8
BLACK
6
CONTINUOUS
10
83.9071
20
-117.661
11
84.1929
21
-117.661
0
LINE
8
BLACK
6
CONTINUOUS
10
84.1929
20
-117.661
11
84.3833
21
-117.757
0
LINE
8
BLACK
6
CONTINUOUS
10
84.3833
20
-117.757
11
84.4786
21
-117.947
0
LINE
8
BLACK
6
CONTINUOUS
10
84.4786
20
-117.947
11
84.4786
21
-118.995
0
LINE
8
BLACK
6
CONTINUOUS
10
88.3833
20
-116.9
11
86.669
21
-119.471
0
LINE
8
BLACK
6
CONTINUOUS
10
90.9548
20
-116.995
11
91.1452
21
-116.995
0
LINE
8
BLACK
6
CONTINUOUS
10
91.1452
20
-116.995
11
91.3357
21
-117.09
0
LINE
8
BLACK
6
CONTINUOUS
10
91.3357
20
-117.09
11
91.431
21
-117.185
0
LINE
8
BLACK
6
CONTINUOUS
10
91.431
20
-117.185
11
91.5262
21
-117.376
0
LINE
8
BLACK
6
CONTINUOUS
10
91.5262
20
-117.376
11
91.6214
21
-117.757
0
LINE
8
BLACK
6
CONTINUOUS
10
91.6214
20
-117.757
11
91.6214
21
-118.233
0
LINE
8
BLACK
6
CONTINUOUS
10
91.6214
20
-118.233
11
91.5262
21
-118.614
0
LINE
8
BLACK
6
CONTINUOUS
10
91.5262
20
-118.614
11
91.431
21
-118.804
0
LINE
8
BLACK
6
CONTINUOUS
10
91.431
20
-118.804
11
91.3357
21
-118.9
0
LINE
8
BLACK
6
CONTINUOUS
10
91.3357
20
-118.9
11
91.1452
21
-118.995
0
LINE
8
BLACK
6
CONTINUOUS
10
91.1452
20
-118.995
11
90.9548
21
-118.995
0
LINE
8
BLACK
6
CONTINUOUS
10
90.9548
20
-118.995
11
90.7643
21
-118.9
0
LINE
8
BLACK
6
CONTINUOUS
10
90.7643
20
-118.9
11
90.669
21
-118.804
0
LINE
8
BLACK
6
CONTINUOUS
10
90.669
20
-118.804
11
90.5738
21
-118.614
0
LINE
8
BLACK
6
CONTINUOUS
10
90.5738
20
-118.614
11
90.4786
21
-118.233
0
LINE
8
BLACK
6
CONTINUOUS
10
90.4786
20
-118.233
11
90.4786
21
-117.757
0
LINE
8
BLACK
6
CONTINUOUS
10
90.4786
20
-117.757
11
90.5738
21
-117.376
0
LINE
8
BLACK
6
CONTINUOUS
10
90.5738
20
-117.376
11
90.669
21
-117.185
0
LINE
8
BLACK
6
CONTINUOUS
10
90.669
20
-117.185
11
90.7643
21
-117.09
0
LINE
8
BLACK
6
CONTINUOUS
10
90.7643
20
-117.09
11
90.9548
21
-116.995
0
LINE
8
BLACK
6
CONTINUOUS
10
92.4786
20
-118.804
11
92.5738
21
-118.9
0
LINE
8
BLACK
6
CONTINUOUS
10
92.5738
20
-118.9
11
92.4786
21
-118.995
0
LINE
8
BLACK
6
CONTINUOUS
10
92.4786
20
-118.995
11
92.3833
21
-118.9
0
LINE
8
BLACK
6
CONTINUOUS
10
92.3833
20
-118.9
11
92.4786
21
-118.804
0
LINE
8
BLACK
6
CONTINUOUS
10
92.4786
20
-118.804
11
92.4786
21
-118.995
0
LINE
8
BLACK
6
CONTINUOUS
10
93.8119
20
-116.995
11
94.0024
21
-116.995
0
LINE
8
BLACK
6
CONTINUOUS
10
94.0024
20
-116.995
11
94.1929
21
-117.09
0
LINE
8
BLACK
6
CONTINUOUS
10
94.1929
20
-117.09
11
94.2881
21
-117.185
0
LINE
8
BLACK
6
CONTINUOUS
10
94.2881
20
-117.185
11
94.3833
21
-117.376
0
LINE
8
BLACK
6
CONTINUOUS
10
94.3833
20
-117.376
11
94.4786
21
-117.757
0
LINE
8
BLACK
6
CONTINUOUS
10
94.4786
20
-117.757
11
94.4786
21
-118.233
0
LINE
8
BLACK
6
CONTINUOUS
10
94.4786
20
-118.233
11
94.3833
21
-118.614
0
LINE
8
BLACK
6
CONTINUOUS
10
94.3833
20
-118.614
11
94.2881
21
-118.804
0
LINE
8
BLACK
6
CONTINUOUS
10
94.2881
20
-118.804
11
94.1929
21
-118.9
0
LINE
8
BLACK
6
CONTINUOUS
10
94.1929
20
-118.9
11
94.0024
21
-118.995
0
LINE
8
BLACK
6
CONTINUOUS
10
94.0024
20
-118.995
11
93.8119
21
-118.995
0
LINE
8
BLACK
6
CONTINUOUS
10
93.8119
20
-118.995
11
93.6214
21
-118.9
0
LINE
8
BLACK
6
CONTINUOUS
10
93.6214
20
-118.9
11
93.5262
21
-118.804
0
LINE
8
BLACK
6
CONTINUOUS
10
93.5262
20
-118.804
11
93.431
21
-118.614
0
LINE
8
BLACK
6
CONTINUOUS
10
93.431
20
-118.614
11
93.3357
21
-118.233
0
LINE
8
BLACK
6
CONTINUOUS
10
93.3357
20
-118.233
11
93.3357
21
-117.757
0
LINE
8
BLACK
6
CONTINUOUS
10
93.3357
20
-117.757
11
93.431
21
-117.376
0
LINE
8
BLACK
6
CONTINUOUS
10
93.431
20
-117.376
11
93.5262
21
-117.185
0
LINE
8
BLACK
6
CONTINUOUS
10
93.5262
20
-117.185
11
93.6214
21
-117.09
0
LINE
8
BLACK
6
CONTINUOUS
10
93.6214
20
-117.09
11
93.8119
21
-116.995
0
LINE
8
BLACK
6
CONTINUOUS
10
95.1452
20
-116.995
11
96.3833
21
-116.995
0
LINE
8
BLACK
6
CONTINUOUS
10
96.3833
20
-116.995
11
95.7167
21
-117.757
0
LINE
8
BLACK
6
CONTINUOUS
10
95.7167
20
-117.757
11
96.0024
21
-117.757
0
LINE
8
BLACK
6
CONTINUOUS
10
96.0024
20
-117.757
11
96.1929
21
-117.852
0
LINE
8
BLACK
6
CONTINUOUS
10
96.1929
20
-117.852
11
96.2881
21
-117.947
0
LINE
8
BLACK
6
CONTINUOUS
10
96.2881
20
-117.947
11
96.3833
21
-118.138
0
LINE
8
BLACK
6
CONTINUOUS
10
96.3833
20
-118.138
11
96.3833
21
-118.614
0
LINE
8
BLACK
6
CONTINUOUS
10
96.3833
20
-118.614
11
96.2881
21
-118.804
0
LINE
8
BLACK
6
CONTINUOUS
10
96.2881
20
-118.804
11
96.1929
21
-118.9
0
LINE
8
BLACK
6
CONTINUOUS
10
96.1929
20
-118.9
11
96.0024
21
-118.995
0
LINE
8
BLACK
6
CONTINUOUS
10
96.0024
20
-118.995
11
95.431
21
-118.995
0
LINE
8
BLACK
6
CONTINUOUS
10
95.431
20
-118.995
11
95.2405
21
-118.9
0
LINE
8
BLACK
6
CONTINUOUS
10
95.2405
20
-118.9
11
95.1452
21
-118.804
0
LINE
8
BLACK
6
CONTINUOUS
10
97.3357
20
-118.995
11
97.7167
21
-118.995
0
LINE
8
BLACK
6
CONTINUOUS
10
97.7167
20
-118.995
11
97.9071
21
-118.9
0
LINE
8
BLACK
6
CONTINUOUS
10
97.9071
20
-118.9
11
98.0024
21
-118.804
0
LINE
8
BLACK
6
CONTINUOUS
10
98.0024
20
-118.804
11
98.1929
21
-118.519
0
LINE
8
BLACK
6
CONTINUOUS
10
98.1929
20
-118.519
11
98.2881
21
-118.138
0
LINE
8
BLACK
6
CONTINUOUS
10
98.2881
20
-118.138
11
98.2881
21
-117.376
0
LINE
8
BLACK
6
CONTINUOUS
10
98.2881
20
-117.376
11
98.1929
21
-117.185
0
LINE
8
BLACK
6
CONTINUOUS
10
98.1929
20
-117.185
11
98.0976
21
-117.09
0
LINE
8
BLACK
6
CONTINUOUS
10
98.0976
20
-117.09
11
97.9071
21
-116.995
0
LINE
8
BLACK
6
CONTINUOUS
10
97.9071
20
-116.995
11
97.5262
21
-116.995
0
LINE
8
BLACK
6
CONTINUOUS
10
97.5262
20
-116.995
11
97.3357
21
-117.09
0
LINE
8
BLACK
6
CONTINUOUS
10
97.3357
20
-117.09
11
97.2405
21
-117.185
0
LINE
8
BLACK
6
CONTINUOUS
10
97.2405
20
-117.185
11
97.1452
21
-117.376
0
LINE
8
BLACK
6
CONTINUOUS
10
97.1452
20
-117.376
11
97.1452
21
-117.852
0
LINE
8
BLACK
6
CONTINUOUS
10
97.1452
20
-117.852
11
97.2405
21
-118.042
0
LINE
8
BLACK
6
CONTINUOUS
10
97.2405
20
-118.042
11
97.3357
21
-118.138
0
LINE
8
BLACK
6
CONTINUOUS
10
97.3357
20
-118.138
11
97.5262
21
-118.233
0
LINE
8
BLACK
6
CONTINUOUS
10
97.5262
20
-118.233
11
97.9071
21
-118.233
0
LINE
8
BLACK
6
CONTINUOUS
10
97.9071
20
-118.233
11
98.0976
21
-118.138
0
LINE
8
BLACK
6
CONTINUOUS
10
98.0976
20
-118.138
11
98.1929
21
-118.042
0
LINE
8
BLACK
6
CONTINUOUS
10
98.1929
20
-118.042
11
98.2881
21
-117.852
0
LINE
8
BLACK
6
CONTINUOUS
10
100.002
20
-117.661
11
100.002
21
-118.995
0
LINE
8
BLACK
6
CONTINUOUS
10
99.5262
20
-116.9
11
99.05
21
-118.328
0
LINE
8
BLACK
6
CONTINUOUS
10
99.05
20
-118.328
11
100.288
21
-118.328
0
LINE
8
BLACK
6
CONTINUOUS
10
100.955
20
-116.995
11
100.955
21
-117.376
0
LINE
8
BLACK
6
CONTINUOUS
10
101.717
20
-116.995
11
101.717
21
-117.376
0
LINE
8
BLACK
6
CONTINUOUS
10
104.669
20
-119.757
11
104.574
21
-119.661
0
LINE
8
BLACK
6
CONTINUOUS
10
104.574
20
-119.661
11
104.383
21
-119.376
0
LINE
8
BLACK
6
CONTINUOUS
10
104.383
20
-119.376
11
104.288
21
-119.185
0
LINE
8
BLACK
6
CONTINUOUS
10
104.288
20
-119.185
11
104.193
21
-118.9
0
LINE
8
BLACK
6
CONTINUOUS
10
104.193
20
-118.9
11
104.098
21
-118.423
0
LINE
8
BLACK
6
CONTINUOUS
10
104.098
20
-118.423
11
104.098
21
-118.042
0
LINE
8
BLACK
6
CONTINUOUS
10
104.098
20
-118.042
11
104.193
21
-117.566
0
LINE
8
BLACK
6
CONTINUOUS
10
104.193
20
-117.566
11
104.288
21
-117.28
0
LINE
8
BLACK
6
CONTINUOUS
10
104.288
20
-117.28
11
104.383
21
-117.09
0
LINE
8
BLACK
6
CONTINUOUS
10
104.383
20
-117.09
11
104.574
21
-116.804
0
LINE
8
BLACK
6
CONTINUOUS
10
104.574
20
-116.804
11
104.669
21
-116.709
0
LINE
8
BLACK
6
CONTINUOUS
10
106.479
20
-118.995
11
105.336
21
-118.995
0
LINE
8
BLACK
6
CONTINUOUS
10
105.907
20
-118.995
11
105.907
21
-116.995
0
LINE
8
BLACK
6
CONTINUOUS
10
105.907
20
-116.995
11
105.717
21
-117.28
0
LINE
8
BLACK
6
CONTINUOUS
10
105.717
20
-117.28
11
105.526
21
-117.471
0
LINE
8
BLACK
6
CONTINUOUS
10
105.526
20
-117.471
11
105.336
21
-117.566
0
LINE
8
BLACK
6
CONTINUOUS
10
108.193
20
-116.995
11
107.812
21
-116.995
0
LINE
8
BLACK
6
CONTINUOUS
10
107.812
20
-116.995
11
107.621
21
-117.09
0
LINE
8
BLACK
6
CONTINUOUS
10
107.621
20
-117.09
11
107.526
21
-117.185
0
LINE
8
BLACK
6
CONTINUOUS
10
107.526
20
-117.185
11
107.336
21
-117.471
0
LINE
8
BLACK
6
CONTINUOUS
10
107.336
20
-117.471
11
107.24
21
-117.852
0
LINE
8
BLACK
6
CONTINUOUS
10
107.24
20
-117.852
11
107.24
21
-118.614
0
LINE
8
BLACK
6
CONTINUOUS
10
107.24
20
-118.614
11
107.336
21
-118.804
0
LINE
8
BLACK
6
CONTINUOUS
10
107.336
20
-118.804
11
107.431
21
-118.9
0
LINE
8
BLACK
6
CONTINUOUS
10
107.431
20
-118.9
11
107.621
21
-118.995
0
LINE
8
BLACK
6
CONTINUOUS
10
107.621
20
-118.995
11
108.002
21
-118.995
0
LINE
8
BLACK
6
CONTINUOUS
10
108.002
20
-118.995
11
108.193
21
-118.9
0
LINE
8
BLACK
6
CONTINUOUS
10
108.193
20
-118.9
11
108.288
21
-118.804
0
LINE
8
BLACK
6
CONTINUOUS
10
108.288
20
-118.804
11
108.383
21
-118.614
0
LINE
8
BLACK
6
CONTINUOUS
10
108.383
20
-118.614
11
108.383
21
-118.138
0
LINE
8
BLACK
6
CONTINUOUS
10
108.383
20
-118.138
11
108.288
21
-117.947
0
LINE
8
BLACK
6
CONTINUOUS
10
108.288
20
-117.947
11
108.193
21
-117.852
0
LINE
8
BLACK
6
CONTINUOUS
10
108.193
20
-117.852
11
108.002
21
-117.757
0
LINE
8
BLACK
6
CONTINUOUS
10
108.002
20
-117.757
11
107.621
21
-117.757
0
LINE
8
BLACK
6
CONTINUOUS
10
107.621
20
-117.757
11
107.431
21
-117.852
0
LINE
8
BLACK
6
CONTINUOUS
10
107.431
20
-117.852
11
107.336
21
-117.947
0
LINE
8
BLACK
6
CONTINUOUS
10
107.336
20
-117.947
11
107.24
21
-118.138
0
LINE
8
BLACK
6
CONTINUOUS
10
109.526
20
-117.852
11
109.336
21
-117.757
0
LINE
8
BLACK
6
CONTINUOUS
10
109.336
20
-117.757
11
109.24
21
-117.661
0
LINE
8
BLACK
6
CONTINUOUS
10
109.24
20
-117.661
11
109.145
21
-117.471
0
LINE
8
BLACK
6
CONTINUOUS
10
109.145
20
-117.471
11
109.145
21
-117.376
0
LINE
8
BLACK
6
CONTINUOUS
10
109.145
20
-117.376
11
109.24
21
-117.185
0
LINE
8
BLACK
6
CONTINUOUS
10
109.24
20
-117.185
11
109.336
21
-117.09
0
LINE
8
BLACK
6
CONTINUOUS
10
109.336
20
-117.09
11
109.526
21
-116.995
0
LINE
8
BLACK
6
CONTINUOUS
10
109.526
20
-116.995
11
109.907
21
-116.995
0
LINE
8
BLACK
6
CONTINUOUS
10
109.907
20
-116.995
11
110.098
21
-117.09
0
LINE
8
BLACK
6
CONTINUOUS
10
110.098
20
-117.09
11
110.193
21
-117.185
0
LINE
8
BLACK
6
CONTINUOUS
10
110.193
20
-117.185
11
110.288
21
-117.376
0
LINE
8
BLACK
6
CONTINUOUS
10
110.288
20
-117.376
11
110.288
21
-117.471
0
LINE
8
BLACK
6
CONTINUOUS
10
110.288
20
-117.471
11
110.193
21
-117.661
0
LINE
8
BLACK
6
CONTINUOUS
10
110.193
20
-117.661
11
110.098
21
-117.757
0
LINE
8
BLACK
6
CONTINUOUS
10
110.098
20
-117.757
11
109.907
21
-117.852
0
LINE
8
BLACK
6
CONTINUOUS
10
109.907
20
-117.852
11
109.526
21
-117.852
0
LINE
8
BLACK
6
CONTINUOUS
10
109.526
20
-117.852
11
109.336
21
-117.947
0
LINE
8
BLACK
6
CONTINUOUS
10
109.336
20
-117.947
11
109.24
21
-118.042
0
LINE
8
BLACK
6
CONTINUOUS
10
109.24
20
-118.042
11
109.145
21
-118.233
0
LINE
8
BLACK
6
CONTINUOUS
10
109.145
20
-118.233
11
109.145
21
-118.614
0
LINE
8
BLACK
6
CONTINUOUS
10
109.145
20
-118.614
11
109.24
21
-118.804
0
LINE
8
BLACK
6
CONTINUOUS
10
109.24
20
-118.804
11
109.336
21
-118.9
0
LINE
8
BLACK
6
CONTINUOUS
10
109.336
20
-118.9
11
109.526
21
-118.995
0
LINE
8
BLACK
6
CONTINUOUS
10
109.526
20
-118.995
11
109.907
21
-118.995
0
LINE
8
BLACK
6
CONTINUOUS
10
109.907
20
-118.995
11
110.098
21
-118.9
0
LINE
8
BLACK
6
CONTINUOUS
10
110.098
20
-118.9
11
110.193
21
-118.804
0
LINE
8
BLACK
6
CONTINUOUS
10
110.193
20
-118.804
11
110.288
21
-118.614
0
LINE
8
BLACK
6
CONTINUOUS
10
110.288
20
-118.614
11
110.288
21
-118.233
0
LINE
8
BLACK
6
CONTINUOUS
10
110.288
20
-118.233
11
110.193
21
-118.042
0
LINE
8
BLACK
6
CONTINUOUS
10
110.193
20
-118.042
11
110.098
21
-117.947
0
LINE
8
BLACK
6
CONTINUOUS
10
110.098
20
-117.947
11
109.907
21
-117.852
0
LINE
8
BLACK
6
CONTINUOUS
10
112.669
20
-118.995
11
112.669
21
-116.995
0
LINE
8
BLACK
6
CONTINUOUS
10
113.526
20
-118.995
11
113.526
21
-117.947
0
LINE
8
BLACK
6
CONTINUOUS
10
113.526
20
-117.947
11
113.431
21
-117.757
0
LINE
8
BLACK
6
CONTINUOUS
10
113.431
20
-117.757
11
113.24
21
-117.661
0
LINE
8
BLACK
6
CONTINUOUS
10
113.24
20
-117.661
11
112.955
21
-117.661
0
LINE
8
BLACK
6
CONTINUOUS
10
112.955
20
-117.661
11
112.764
21
-117.757
0
LINE
8
BLACK
6
CONTINUOUS
10
112.764
20
-117.757
11
112.669
21
-117.852
0
LINE
8
BLACK
6
CONTINUOUS
10
114.764
20
-118.995
11
114.574
21
-118.9
0
LINE
8
BLACK
6
CONTINUOUS
10
114.574
20
-118.9
11
114.479
21
-118.804
0
LINE
8
BLACK
6
CONTINUOUS
10
114.479
20
-118.804
11
114.383
21
-118.614
0
LINE
8
BLACK
6
CONTINUOUS
10
114.383
20
-118.614
11
114.383
21
-118.042
0
LINE
8
BLACK
6
CONTINUOUS
10
114.383
20
-118.042
11
114.479
21
-117.852
0
LINE
8
BLACK
6
CONTINUOUS
10
114.479
20
-117.852
11
114.574
21
-117.757
0
LINE
8
BLACK
6
CONTINUOUS
10
114.574
20
-117.757
11
114.764
21
-117.661
0
LINE
8
BLACK
6
CONTINUOUS
10
114.764
20
-117.661
11
115.05
21
-117.661
0
LINE
8
BLACK
6
CONTINUOUS
10
115.05
20
-117.661
11
115.24
21
-117.757
0
LINE
8
BLACK
6
CONTINUOUS
10
115.24
20
-117.757
11
115.336
21
-117.852
0
LINE
8
BLACK
6
CONTINUOUS
10
115.336
20
-117.852
11
115.431
21
-118.042
0
LINE
8
BLACK
6
CONTINUOUS
10
115.431
20
-118.042
11
115.431
21
-118.614
0
LINE
8
BLACK
6
CONTINUOUS
10
115.431
20
-118.614
11
115.336
21
-118.804
0
LINE
8
BLACK
6
CONTINUOUS
10
115.336
20
-118.804
11
115.24
21
-118.9
0
LINE
8
BLACK
6
CONTINUOUS
10
115.24
20
-118.9
11
115.05
21
-118.995
0
LINE
8
BLACK
6
CONTINUOUS
10
115.05
20
-118.995
11
114.764
21
-118.995
0
LINE
8
BLACK
6
CONTINUOUS
10
116.574
20
-118.995
11
116.383
21
-118.9
0
LINE
8
BLACK
6
CONTINUOUS
10
116.383
20
-118.9
11
116.288
21
-118.709
0
LINE
8
BLACK
6
CONTINUOUS
10
116.288
20
-118.709
11
116.288
21
-116.995
0
LINE
8
BLACK
6
CONTINUOUS
10
118.098
20
-118.9
11
117.907
21
-118.995
0
LINE
8
BLACK
6
CONTINUOUS
10
117.907
20
-118.995
11
117.526
21
-118.995
0
LINE
8
BLACK
6
CONTINUOUS
10
117.526
20
-118.995
11
117.336
21
-118.9
0
LINE
8
BLACK
6
CONTINUOUS
10
117.336
20
-118.9
11
117.24
21
-118.709
0
LINE
8
BLACK
6
CONTINUOUS
10
117.24
20
-118.709
11
117.24
21
-117.947
0
LINE
8
BLACK
6
CONTINUOUS
10
117.24
20
-117.947
11
117.336
21
-117.757
0
LINE
8
BLACK
6
CONTINUOUS
10
117.336
20
-117.757
11
117.526
21
-117.661
0
LINE
8
BLACK
6
CONTINUOUS
10
117.526
20
-117.661
11
117.907
21
-117.661
0
LINE
8
BLACK
6
CONTINUOUS
10
117.907
20
-117.661
11
118.098
21
-117.757
0
LINE
8
BLACK
6
CONTINUOUS
10
118.098
20
-117.757
11
118.193
21
-117.947
0
LINE
8
BLACK
6
CONTINUOUS
10
118.193
20
-117.947
11
118.193
21
-118.138
0
LINE
8
BLACK
6
CONTINUOUS
10
118.193
20
-118.138
11
117.24
21
-118.328
0
LINE
8
BLACK
6
CONTINUOUS
10
118.955
20
-118.9
11
119.145
21
-118.995
0
LINE
8
BLACK
6
CONTINUOUS
10
119.145
20
-118.995
11
119.526
21
-118.995
0
LINE
8
BLACK
6
CONTINUOUS
10
119.526
20
-118.995
11
119.717
21
-118.9
0
LINE
8
BLACK
6
CONTINUOUS
10
119.717
20
-118.9
11
119.812
21
-118.709
0
LINE
8
BLACK
6
CONTINUOUS
10
119.812
20
-118.709
11
119.812
21
-118.614
0
LINE
8
BLACK
6
CONTINUOUS
10
119.812
20
-118.614
11
119.717
21
-118.423
0
LINE
8
BLACK
6
CONTINUOUS
10
119.717
20
-118.423
11
119.526
21
-118.328
0
LINE
8
BLACK
6
CONTINUOUS
10
119.526
20
-118.328
11
119.24
21
-118.328
0
LINE
8
BLACK
6
CONTINUOUS
10
119.24
20
-118.328
11
119.05
21
-118.233
0
LINE
8
BLACK
6
CONTINUOUS
10
119.05
20
-118.233
11
118.955
21
-118.042
0
LINE
8
BLACK
6
CONTINUOUS
10
118.955
20
-118.042
11
118.955
21
-117.947
0
LINE
8
BLACK
6
CONTINUOUS
10
118.955
20
-117.947
11
119.05
21
-117.757
0
LINE
8
BLACK
6
CONTINUOUS
10
119.05
20
-117.757
11
119.24
21
-117.661
0
LINE
8
BLACK
6
CONTINUOUS
10
119.24
20
-117.661
11
119.526
21
-117.661
0
LINE
8
BLACK
6
CONTINUOUS
10
119.526
20
-117.661
11
119.717
21
-117.757
0
LINE
8
BLACK
6
CONTINUOUS
10
120.479
20
-119.757
11
120.574
21
-119.661
0
LINE
8
BLACK
6
CONTINUOUS
10
120.574
20
-119.661
11
120.764
21
-119.376
0
LINE
8
BLACK
6
CONTINUOUS
10
120.764
20
-119.376
11
120.86
21
-119.185
0
LINE
8
BLACK
6
CONTINUOUS
10
120.86
20
-119.185
11
120.955
21
-118.9
0
LINE
8
BLACK
6
CONTINUOUS
10
120.955
20
-118.9
11
121.05
21
-118.423
0
LINE
8
BLACK
6
CONTINUOUS
10
121.05
20
-118.423
11
121.05
21
-118.042
0
LINE
8
BLACK
6
CONTINUOUS
10
121.05
20
-118.042
11
120.955
21
-117.566
0
LINE
8
BLACK
6
CONTINUOUS
10
120.955
20
-117.566
11
120.86
21
-117.28
0
LINE
8
BLACK
6
CONTINUOUS
10
120.86
20
-117.28
11
120.764
21
-117.09
0
LINE
8
BLACK
6
CONTINUOUS
10
120.764
20
-117.09
11
120.574
21
-116.804
0
LINE
8
BLACK
6
CONTINUOUS
10
120.574
20
-116.804
11
120.479
21
-116.709
0
LINE
8
BLACK
6
CONTINUOUS
10
68.44
20
-120.22
11
68.44
21
-121.24
0
LINE
8
BLACK
6
CONTINUOUS
10
67.93
20
-120.73
11
68.95
21
-120.73
0
LINE
8
BLACK
6
CONTINUOUS
10
72.5738
20
-121.635
11
71.431
21
-121.635
0
LINE
8
BLACK
6
CONTINUOUS
10
72.0024
20
-121.635
11
72.0024
21
-119.635
0
LINE
8
BLACK
6
CONTINUOUS
10
72.0024
20
-119.635
11
71.8119
21
-119.92
0
LINE
8
BLACK
6
CONTINUOUS
10
71.8119
20
-119.92
11
71.6214
21
-120.111
0
LINE
8
BLACK
6
CONTINUOUS
10
71.6214
20
-120.111
11
71.431
21
-120.206
0
LINE
8
BLACK
6
CONTINUOUS
10
73.431
20
-121.444
11
73.5262
21
-121.54
0
LINE
8
BLACK
6
CONTINUOUS
10
73.5262
20
-121.54
11
73.431
21
-121.635
0
LINE
8
BLACK
6
CONTINUOUS
10
73.431
20
-121.635
11
73.3357
21
-121.54
0
LINE
8
BLACK
6
CONTINUOUS
10
73.3357
20
-121.54
11
73.431
21
-121.444
0
LINE
8
BLACK
6
CONTINUOUS
10
73.431
20
-121.444
11
73.431
21
-121.635
0
LINE
8
BLACK
6
CONTINUOUS
10
74.7643
20
-119.635
11
74.9548
21
-119.635
0
LINE
8
BLACK
6
CONTINUOUS
10
74.9548
20
-119.635
11
75.1452
21
-119.73
0
LINE
8
BLACK
6
CONTINUOUS
10
75.1452
20
-119.73
11
75.2405
21
-119.825
0
LINE
8
BLACK
6
CONTINUOUS
10
75.2405
20
-119.825
11
75.3357
21
-120.016
0
LINE
8
BLACK
6
CONTINUOUS
10
75.3357
20
-120.016
11
75.431
21
-120.397
0
LINE
8
BLACK
6
CONTINUOUS
10
75.431
20
-120.397
11
75.431
21
-120.873
0
LINE
8
BLACK
6
CONTINUOUS
10
75.431
20
-120.873
11
75.3357
21
-121.254
0
LINE
8
BLACK
6
CONTINUOUS
10
75.3357
20
-121.254
11
75.2405
21
-121.444
0
LINE
8
BLACK
6
CONTINUOUS
10
75.2405
20
-121.444
11
75.1452
21
-121.54
0
LINE
8
BLACK
6
CONTINUOUS
10
75.1452
20
-121.54
11
74.9548
21
-121.635
0
LINE
8
BLACK
6
CONTINUOUS
10
74.9548
20
-121.635
11
74.7643
21
-121.635
0
LINE
8
BLACK
6
CONTINUOUS
10
74.7643
20
-121.635
11
74.5738
21
-121.54
0
LINE
8
BLACK
6
CONTINUOUS
10
74.5738
20
-121.54
11
74.4786
21
-121.444
0
LINE
8
BLACK
6
CONTINUOUS
10
74.4786
20
-121.444
11
74.3833
21
-121.254
0
LINE
8
BLACK
6
CONTINUOUS
10
74.3833
20
-121.254
11
74.2881
21
-120.873
0
LINE
8
BLACK
6
CONTINUOUS
10
74.2881
20
-120.873
11
74.2881
21
-120.397
0
LINE
8
BLACK
6
CONTINUOUS
10
74.2881
20
-120.397
11
74.3833
21
-120.016
0
LINE
8
BLACK
6
CONTINUOUS
10
74.3833
20
-120.016
11
74.4786
21
-119.825
0
LINE
8
BLACK
6
CONTINUOUS
10
74.4786
20
-119.825
11
74.5738
21
-119.73
0
LINE
8
BLACK
6
CONTINUOUS
10
74.5738
20
-119.73
11
74.7643
21
-119.635
0
LINE
8
BLACK
6
CONTINUOUS
10
76.1929
20
-119.825
11
76.2881
21
-119.73
0
LINE
8
BLACK
6
CONTINUOUS
10
76.2881
20
-119.73
11
76.4786
21
-119.635
0
LINE
8
BLACK
6
CONTINUOUS
10
76.4786
20
-119.635
11
76.9548
21
-119.635
0
LINE
8
BLACK
6
CONTINUOUS
10
76.9548
20
-119.635
11
77.1452
21
-119.73
0
LINE
8
BLACK
6
CONTINUOUS
10
77.1452
20
-119.73
11
77.2405
21
-119.825
0
LINE
8
BLACK
6
CONTINUOUS
10
77.2405
20
-119.825
11
77.3357
21
-120.016
0
LINE
8
BLACK
6
CONTINUOUS
10
77.3357
20
-120.016
11
77.3357
21
-120.206
0
LINE
8
BLACK
6
CONTINUOUS
10
77.3357
20
-120.206
11
77.2405
21
-120.492
0
LINE
8
BLACK
6
CONTINUOUS
10
77.2405
20
-120.492
11
76.0976
21
-121.635
0
LINE
8
BLACK
6
CONTINUOUS
10
76.0976
20
-121.635
11
77.3357
21
-121.635
0
LINE
8
BLACK
6
CONTINUOUS
10
78.5738
20
-119.635
11
78.7643
21
-119.635
0
LINE
8
BLACK
6
CONTINUOUS
10
78.7643
20
-119.635
11
78.9548
21
-119.73
0
LINE
8
BLACK
6
CONTINUOUS
10
78.9548
20
-119.73
11
79.05
21
-119.825
0
LINE
8
BLACK
6
CONTINUOUS
10
79.05
20
-119.825
11
79.1452
21
-120.016
0
LINE
8
BLACK
6
CONTINUOUS
10
79.1452
20
-120.016
11
79.2405
21
-120.397
0
LINE
8
BLACK
6
CONTINUOUS
10
79.2405
20
-120.397
11
79.2405
21
-120.873
0
LINE
8
BLACK
6
CONTINUOUS
10
79.2405
20
-120.873
11
79.1452
21
-121.254
0
LINE
8
BLACK
6
CONTINUOUS
10
79.1452
20
-121.254
11
79.05
21
-121.444
0
LINE
8
BLACK
6
CONTINUOUS
10
79.05
20
-121.444
11
78.9548
21
-121.54
0
LINE
8
BLACK
6
CONTINUOUS
10
78.9548
20
-121.54
11
78.7643
21
-121.635
0
LINE
8
BLACK
6
CONTINUOUS
10
78.7643
20
-121.635
11
78.5738
21
-121.635
0
LINE
8
BLACK
6
CONTINUOUS
10
78.5738
20
-121.635
11
78.3833
21
-121.54
0
LINE
8
BLACK
6
CONTINUOUS
10
78.3833
20
-121.54
11
78.2881
21
-121.444
0
LINE
8
BLACK
6
CONTINUOUS
10
78.2881
20
-121.444
11
78.1929
21
-121.254
0
LINE
8
BLACK
6
CONTINUOUS
10
78.1929
20
-121.254
11
78.0976
21
-120.873
0
LINE
8
BLACK
6
CONTINUOUS
10
78.0976
20
-120.873
11
78.0976
21
-120.397
0
LINE
8
BLACK
6
CONTINUOUS
10
78.0976
20
-120.397
11
78.1929
21
-120.016
0
LINE
8
BLACK
6
CONTINUOUS
10
78.1929
20
-120.016
11
78.2881
21
-119.825
0
LINE
8
BLACK
6
CONTINUOUS
10
78.2881
20
-119.825
11
78.3833
21
-119.73
0
LINE
8
BLACK
6
CONTINUOUS
10
78.3833
20
-119.73
11
78.5738
21
-119.635
0
LINE
8
BLACK
6
CONTINUOUS
10
80.0976
20
-121.635
11
80.0976
21
-120.301
0
LINE
8
BLACK
6
CONTINUOUS
10
80.0976
20
-120.492
11
80.1929
21
-120.397
0
LINE
8
BLACK
6
CONTINUOUS
10
80.1929
20
-120.397
11
80.3833
21
-120.301
0
LINE
8
BLACK
6
CONTINUOUS
10
80.3833
20
-120.301
11
80.669
21
-120.301
0
LINE
8
BLACK
6
CONTINUOUS
10
80.669
20
-120.301
11
80.8595
21
-120.397
0
LINE
8
BLACK
6
CONTINUOUS
10
80.8595
20
-120.397
11
80.9548
21
-120.587
0
LINE
8
BLACK
6
CONTINUOUS
10
80.9548
20
-120.587
11
80.9548
21
-121.635
0
LINE
8
BLACK
6
CONTINUOUS
10
80.9548
20
-120.587
11
81.05
21
-120.397
0
LINE
8
BLACK
6
CONTINUOUS
10
81.05
20
-120.397
11
81.2405
21
-120.301
0
LINE
8
BLACK
6
CONTINUOUS
10
81.2405
20
-120.301
11
81.5262
21
-120.301
0
LINE
8
BLACK
6
CONTINUOUS
10
81.5262
20
-120.301
11
81.7167
21
-120.397
0
LINE
8
BLACK
6
CONTINUOUS
10
81.7167
20
-120.397
11
81.8119
21
-120.587
0
LINE
8
BLACK
6
CONTINUOUS
10
81.8119
20
-120.587
11
81.8119
21
-121.635
0
LINE
8
BLACK
6
CONTINUOUS
10
82.7643
20
-121.635
11
82.7643
21
-120.301
0
LINE
8
BLACK
6
CONTINUOUS
10
82.7643
20
-120.492
11
82.8595
21
-120.397
0
LINE
8
BLACK
6
CONTINUOUS
10
82.8595
20
-120.397
11
83.05
21
-120.301
0
LINE
8
BLACK
6
CONTINUOUS
10
83.05
20
-120.301
11
83.3357
21
-120.301
0
LINE
8
BLACK
6
CONTINUOUS
10
83.3357
20
-120.301
11
83.5262
21
-120.397
0
LINE
8
BLACK
6
CONTINUOUS
10
83.5262
20
-120.397
11
83.6214
21
-120.587
0
LINE
8
BLACK
6
CONTINUOUS
10
83.6214
20
-120.587
11
83.6214
21
-121.635
0
LINE
8
BLACK
6
CONTINUOUS
10
83.6214
20
-120.587
11
83.7167
21
-120.397
0
LINE
8
BLACK
6
CONTINUOUS
10
83.7167
20
-120.397
11
83.9071
21
-120.301
0
LINE
8
BLACK
6
CONTINUOUS
10
83.9071
20
-120.301
11
84.1929
21
-120.301
0
LINE
8
BLACK
6
CONTINUOUS
10
84.1929
20
-120.301
11
84.3833
21
-120.397
0
LINE
8
BLACK
6
CONTINUOUS
10
84.3833
20
-120.397
11
84.4786
21
-120.587
0
LINE
8
BLACK
6
CONTINUOUS
10
84.4786
20
-120.587
11
84.4786
21
-121.635
0
LINE
8
BLACK
6
CONTINUOUS
10
88.3833
20
-119.54
11
86.669
21
-122.111
0
LINE
8
BLACK
6
CONTINUOUS
10
90.9548
20
-119.635
11
91.1452
21
-119.635
0
LINE
8
BLACK
6
CONTINUOUS
10
91.1452
20
-119.635
11
91.3357
21
-119.73
0
LINE
8
BLACK
6
CONTINUOUS
10
91.3357
20
-119.73
11
91.431
21
-119.825
0
LINE
8
BLACK
6
CONTINUOUS
10
91.431
20
-119.825
11
91.5262
21
-120.016
0
LINE
8
BLACK
6
CONTINUOUS
10
91.5262
20
-120.016
11
91.6214
21
-120.397
0
LINE
8
BLACK
6
CONTINUOUS
10
91.6214
20
-120.397
11
91.6214
21
-120.873
0
LINE
8
BLACK
6
CONTINUOUS
10
91.6214
20
-120.873
11
91.5262
21
-121.254
0
LINE
8
BLACK
6
CONTINUOUS
10
91.5262
20
-121.254
11
91.431
21
-121.444
0
LINE
8
BLACK
6
CONTINUOUS
10
91.431
20
-121.444
11
91.3357
21
-121.54
0
LINE
8
BLACK
6
CONTINUOUS
10
91.3357
20
-121.54
11
91.1452
21
-121.635
0
LINE
8
BLACK
6
CONTINUOUS
10
91.1452
20
-121.635
11
90.9548
21
-121.635
0
LINE
8
BLACK
6
CONTINUOUS
10
90.9548
20
-121.635
11
90.7643
21
-121.54
0
LINE
8
BLACK
6
CONTINUOUS
10
90.7643
20
-121.54
11
90.669
21
-121.444
0
LINE
8
BLACK
6
CONTINUOUS
10
90.669
20
-121.444
11
90.5738
21
-121.254
0
LINE
8
BLACK
6
CONTINUOUS
10
90.5738
20
-121.254
11
90.4786
21
-120.873
0
LINE
8
BLACK
6
CONTINUOUS
10
90.4786
20
-120.873
11
90.4786
21
-120.397
0
LINE
8
BLACK
6
CONTINUOUS
10
90.4786
20
-120.397
11
90.5738
21
-120.016
0
LINE
8
BLACK
6
CONTINUOUS
10
90.5738
20
-120.016
11
90.669
21
-119.825
0
LINE
8
BLACK
6
CONTINUOUS
10
90.669
20
-119.825
11
90.7643
21
-119.73
0
LINE
8
BLACK
6
CONTINUOUS
10
90.7643
20
-119.73
11
90.9548
21
-119.635
0
LINE
8
BLACK
6
CONTINUOUS
10
92.4786
20
-121.444
11
92.5738
21
-121.54
0
LINE
8
BLACK
6
CONTINUOUS
10
92.5738
20
-121.54
11
92.4786
21
-121.635
0
LINE
8
BLACK
6
CONTINUOUS
10
92.4786
20
-121.635
11
92.3833
21
-121.54
0
LINE
8
BLACK
6
CONTINUOUS
10
92.3833
20
-121.54
11
92.4786
21
-121.444
0
LINE
8
BLACK
6
CONTINUOUS
10
92.4786
20
-121.444
11
92.4786
21
-121.635
0
LINE
8
BLACK
6
CONTINUOUS
10
93.8119
20
-119.635
11
94.0024
21
-119.635
0
LINE
8
BLACK
6
CONTINUOUS
10
94.0024
20
-119.635
11
94.1929
21
-119.73
0
LINE
8
BLACK
6
CONTINUOUS
10
94.1929
20
-119.73
11
94.2881
21
-119.825
0
LINE
8
BLACK
6
CONTINUOUS
10
94.2881
20
-119.825
11
94.3833
21
-120.016
0
LINE
8
BLACK
6
CONTINUOUS
10
94.3833
20
-120.016
11
94.4786
21
-120.397
0
LINE
8
BLACK
6
CONTINUOUS
10
94.4786
20
-120.397
11
94.4786
21
-120.873
0
LINE
8
BLACK
6
CONTINUOUS
10
94.4786
20
-120.873
11
94.3833
21
-121.254
0
LINE
8
BLACK
6
CONTINUOUS
10
94.3833
20
-121.254
11
94.2881
21
-121.444
0
LINE
8
BLACK
6
CONTINUOUS
10
94.2881
20
-121.444
11
94.1929
21
-121.54
0
LINE
8
BLACK
6
CONTINUOUS
10
94.1929
20
-121.54
11
94.0024
21
-121.635
0
LINE
8
BLACK
6
CONTINUOUS
10
94.0024
20
-121.635
11
93.8119
21
-121.635
0
LINE
8
BLACK
6
CONTINUOUS
10
93.8119
20
-121.635
11
93.6214
21
-121.54
0
LINE
8
BLACK
6
CONTINUOUS
10
93.6214
20
-121.54
11
93.5262
21
-121.444
0
LINE
8
BLACK
6
CONTINUOUS
10
93.5262
20
-121.444
11
93.431
21
-121.254
0
LINE
8
BLACK
6
CONTINUOUS
10
93.431
20
-121.254
11
93.3357
21
-120.873
0
LINE
8
BLACK
6
CONTINUOUS
10
93.3357
20
-120.873
11
93.3357
21
-120.397
0
LINE
8
BLACK
6
CONTINUOUS
10
93.3357
20
-120.397
11
93.431
21
-120.016
0
LINE
8
BLACK
6
CONTINUOUS
10
93.431
20
-120.016
11
93.5262
21
-119.825
0
LINE
8
BLACK
6
CONTINUOUS
10
93.5262
20
-119.825
11
93.6214
21
-119.73
0
LINE
8
BLACK
6
CONTINUOUS
10
93.6214
20
-119.73
11
93.8119
21
-119.635
0
LINE
8
BLACK
6
CONTINUOUS
10
96.1929
20
-120.301
11
96.1929
21
-121.635
0
LINE
8
BLACK
6
CONTINUOUS
10
95.7167
20
-119.54
11
95.2405
21
-120.968
0
LINE
8
BLACK
6
CONTINUOUS
10
95.2405
20
-120.968
11
96.4786
21
-120.968
0
LINE
8
BLACK
6
CONTINUOUS
10
97.6214
20
-119.635
11
97.8119
21
-119.635
0
LINE
8
BLACK
6
CONTINUOUS
10
97.8119
20
-119.635
11
98.0024
21
-119.73
0
LINE
8
BLACK
6
CONTINUOUS
10
98.0024
20
-119.73
11
98.0976
21
-119.825
0
LINE
8
BLACK
6
CONTINUOUS
10
98.0976
20
-119.825
11
98.1929
21
-120.016
0
LINE
8
BLACK
6
CONTINUOUS
10
98.1929
20
-120.016
11
98.2881
21
-120.397
0
LINE
8
BLACK
6
CONTINUOUS
10
98.2881
20
-120.397
11
98.2881
21
-120.873
0
LINE
8
BLACK
6
CONTINUOUS
10
98.2881
20
-120.873
11
98.1929
21
-121.254
0
LINE
8
BLACK
6
CONTINUOUS
10
98.1929
20
-121.254
11
98.0976
21
-121.444
0
LINE
8
BLACK
6
CONTINUOUS
10
98.0976
20
-121.444
11
98.0024
21
-121.54
0
LINE
8
BLACK
6
CONTINUOUS
10
98.0024
20
-121.54
11
97.8119
21
-121.635
0
LINE
8
BLACK
6
CONTINUOUS
10
97.8119
20
-121.635
11
97.6214
21
-121.635
0
LINE
8
BLACK
6
CONTINUOUS
10
97.6214
20
-121.635
11
97.431
21
-121.54
0
LINE
8
BLACK
6
CONTINUOUS
10
97.431
20
-121.54
11
97.3357
21
-121.444
0
LINE
8
BLACK
6
CONTINUOUS
10
97.3357
20
-121.444
11
97.2405
21
-121.254
0
LINE
8
BLACK
6
CONTINUOUS
10
97.2405
20
-121.254
11
97.1452
21
-120.873
0
LINE
8
BLACK
6
CONTINUOUS
10
97.1452
20
-120.873
11
97.1452
21
-120.397
0
LINE
8
BLACK
6
CONTINUOUS
10
97.1452
20
-120.397
11
97.2405
21
-120.016
0
LINE
8
BLACK
6
CONTINUOUS
10
97.2405
20
-120.016
11
97.3357
21
-119.825
0
LINE
8
BLACK
6
CONTINUOUS
10
97.3357
20
-119.825
11
97.431
21
-119.73
0
LINE
8
BLACK
6
CONTINUOUS
10
97.431
20
-119.73
11
97.6214
21
-119.635
0
LINE
8
BLACK
6
CONTINUOUS
10
99.05
20
-119.825
11
99.1452
21
-119.73
0
LINE
8
BLACK
6
CONTINUOUS
10
99.1452
20
-119.73
11
99.3357
21
-119.635
0
LINE
8
BLACK
6
CONTINUOUS
10
99.3357
20
-119.635
11
99.8119
21
-119.635
0
LINE
8
BLACK
6
CONTINUOUS
10
99.8119
20
-119.635
11
100.002
21
-119.73
0
LINE
8
BLACK
6
CONTINUOUS
10
100.002
20
-119.73
11
100.098
21
-119.825
0
LINE
8
BLACK
6
CONTINUOUS
10
100.098
20
-119.825
11
100.193
21
-120.016
0
LINE
8
BLACK
6
CONTINUOUS
10
100.193
20
-120.016
11
100.193
21
-120.206
0
LINE
8
BLACK
6
CONTINUOUS
10
100.193
20
-120.206
11
100.098
21
-120.492
0
LINE
8
BLACK
6
CONTINUOUS
10
100.098
20
-120.492
11
98.9548
21
-121.635
0
LINE
8
BLACK
6
CONTINUOUS
10
98.9548
20
-121.635
11
100.193
21
-121.635
0
LINE
8
BLACK
6
CONTINUOUS
10
100.955
20
-119.635
11
100.955
21
-120.016
0
LINE
8
BLACK
6
CONTINUOUS
10
101.717
20
-119.635
11
101.717
21
-120.016
0
LINE
8
BLACK
6
CONTINUOUS
10
104.669
20
-122.397
11
104.574
21
-122.301
0
LINE
8
BLACK
6
CONTINUOUS
10
104.574
20
-122.301
11
104.383
21
-122.016
0
LINE
8
BLACK
6
CONTINUOUS
10
104.383
20
-122.016
11
104.288
21
-121.825
0
LINE
8
BLACK
6
CONTINUOUS
10
104.288
20
-121.825
11
104.193
21
-121.54
0
LINE
8
BLACK
6
CONTINUOUS
10
104.193
20
-121.54
11
104.098
21
-121.063
0
LINE
8
BLACK
6
CONTINUOUS
10
104.098
20
-121.063
11
104.098
21
-120.682
0
LINE
8
BLACK
6
CONTINUOUS
10
104.098
20
-120.682
11
104.193
21
-120.206
0
LINE
8
BLACK
6
CONTINUOUS
10
104.193
20
-120.206
11
104.288
21
-119.92
0
LINE
8
BLACK
6
CONTINUOUS
10
104.288
20
-119.92
11
104.383
21
-119.73
0
LINE
8
BLACK
6
CONTINUOUS
10
104.383
20
-119.73
11
104.574
21
-119.444
0
LINE
8
BLACK
6
CONTINUOUS
10
104.574
20
-119.444
11
104.669
21
-119.349
0
LINE
8
BLACK
6
CONTINUOUS
10
105.717
20
-120.492
11
105.526
21
-120.397
0
LINE
8
BLACK
6
CONTINUOUS
10
105.526
20
-120.397
11
105.431
21
-120.301
0
LINE
8
BLACK
6
CONTINUOUS
10
105.431
20
-120.301
11
105.336
21
-120.111
0
LINE
8
BLACK
6
CONTINUOUS
10
105.336
20
-120.111
11
105.336
21
-120.016
0
LINE
8
BLACK
6
CONTINUOUS
10
105.336
20
-120.016
11
105.431
21
-119.825
0
LINE
8
BLACK
6
CONTINUOUS
10
105.431
20
-119.825
11
105.526
21
-119.73
0
LINE
8
BLACK
6
CONTINUOUS
10
105.526
20
-119.73
11
105.717
21
-119.635
0
LINE
8
BLACK
6
CONTINUOUS
10
105.717
20
-119.635
11
106.098
21
-119.635
0
LINE
8
BLACK
6
CONTINUOUS
10
106.098
20
-119.635
11
106.288
21
-119.73
0
LINE
8
BLACK
6
CONTINUOUS
10
106.288
20
-119.73
11
106.383
21
-119.825
0
LINE
8
BLACK
6
CONTINUOUS
10
106.383
20
-119.825
11
106.479
21
-120.016
0
LINE
8
BLACK
6
CONTINUOUS
10
106.479
20
-120.016
11
106.479
21
-120.111
0
LINE
8
BLACK
6
CONTINUOUS
10
106.479
20
-120.111
11
106.383
21
-120.301
0
LINE
8
BLACK
6
CONTINUOUS
10
106.383
20
-120.301
11
106.288
21
-120.397
0
LINE
8
BLACK
6
CONTINUOUS
10
106.288
20
-120.397
11
106.098
21
-120.492
0
LINE
8
BLACK
6
CONTINUOUS
10
106.098
20
-120.492
11
105.717
21
-120.492
0
LINE
8
BLACK
6
CONTINUOUS
10
105.717
20
-120.492
11
105.526
21
-120.587
0
LINE
8
BLACK
6
CONTINUOUS
10
105.526
20
-120.587
11
105.431
21
-120.682
0
LINE
8
BLACK
6
CONTINUOUS
10
105.431
20
-120.682
11
105.336
21
-120.873
0
LINE
8
BLACK
6
CONTINUOUS
10
105.336
20
-120.873
11
105.336
21
-121.254
0
LINE
8
BLACK
6
CONTINUOUS
10
105.336
20
-121.254
11
105.431
21
-121.444
0
LINE
8
BLACK
6
CONTINUOUS
10
105.431
20
-121.444
11
105.526
21
-121.54
0
LINE
8
BLACK
6
CONTINUOUS
10
105.526
20
-121.54
11
105.717
21
-121.635
0
LINE
8
BLACK
6
CONTINUOUS
10
105.717
20
-121.635
11
106.098
21
-121.635
0
LINE
8
BLACK
6
CONTINUOUS
10
106.098
20
-121.635
11
106.288
21
-121.54
0
LINE
8
BLACK
6
CONTINUOUS
10
106.288
20
-121.54
11
106.383
21
-121.444
0
LINE
8
BLACK
6
CONTINUOUS
10
106.383
20
-121.444
11
106.479
21
-121.254
0
LINE
8
BLACK
6
CONTINUOUS
10
106.479
20
-121.254
11
106.479
21
-120.873
0
LINE
8
BLACK
6
CONTINUOUS
10
106.479
20
-120.873
11
106.383
21
-120.682
0
LINE
8
BLACK
6
CONTINUOUS
10
106.383
20
-120.682
11
106.288
21
-120.587
0
LINE
8
BLACK
6
CONTINUOUS
10
106.288
20
-120.587
11
106.098
21
-120.492
0
LINE
8
BLACK
6
CONTINUOUS
10
108.193
20
-119.635
11
107.812
21
-119.635
0
LINE
8
BLACK
6
CONTINUOUS
10
107.812
20
-119.635
11
107.621
21
-119.73
0
LINE
8
BLACK
6
CONTINUOUS
10
107.621
20
-119.73
11
107.526
21
-119.825
0
LINE
8
BLACK
6
CONTINUOUS
10
107.526
20
-119.825
11
107.336
21
-120.111
0
LINE
8
BLACK
6
CONTINUOUS
10
107.336
20
-120.111
11
107.24
21
-120.492
0
LINE
8
BLACK
6
CONTINUOUS
10
107.24
20
-120.492
11
107.24
21
-121.254
0
LINE
8
BLACK
6
CONTINUOUS
10
107.24
20
-121.254
11
107.336
21
-121.444
0
LINE
8
BLACK
6
CONTINUOUS
10
107.336
20
-121.444
11
107.431
21
-121.54
0
LINE
8
BLACK
6
CONTINUOUS
10
107.431
20
-121.54
11
107.621
21
-121.635
0
LINE
8
BLACK
6
CONTINUOUS
10
107.621
20
-121.635
11
108.002
21
-121.635
0
LINE
8
BLACK
6
CONTINUOUS
10
108.002
20
-121.635
11
108.193
21
-121.54
0
LINE
8
BLACK
6
CONTINUOUS
10
108.193
20
-121.54
11
108.288
21
-121.444
0
LINE
8
BLACK
6
CONTINUOUS
10
108.288
20
-121.444
11
108.383
21
-121.254
0
LINE
8
BLACK
6
CONTINUOUS
10
108.383
20
-121.254
11
108.383
21
-120.778
0
LINE
8
BLACK
6
CONTINUOUS
10
108.383
20
-120.778
11
108.288
21
-120.587
0
LINE
8
BLACK
6
CONTINUOUS
10
108.288
20
-120.587
11
108.193
21
-120.492
0
LINE
8
BLACK
6
CONTINUOUS
10
108.193
20
-120.492
11
108.002
21
-120.397
0
LINE
8
BLACK
6
CONTINUOUS
10
108.002
20
-120.397
11
107.621
21
-120.397
0
LINE
8
BLACK
6
CONTINUOUS
10
107.621
20
-120.397
11
107.431
21
-120.492
0
LINE
8
BLACK
6
CONTINUOUS
10
107.431
20
-120.492
11
107.336
21
-120.587
0
LINE
8
BLACK
6
CONTINUOUS
10
107.336
20
-120.587
11
107.24
21
-120.778
0
LINE
8
BLACK
6
CONTINUOUS
10
110.764
20
-121.635
11
110.764
21
-119.635
0
LINE
8
BLACK
6
CONTINUOUS
10
111.621
20
-121.635
11
111.621
21
-120.587
0
LINE
8
BLACK
6
CONTINUOUS
10
111.621
20
-120.587
11
111.526
21
-120.397
0
LINE
8
BLACK
6
CONTINUOUS
10
111.526
20
-120.397
11
111.336
21
-120.301
0
LINE
8
BLACK
6
CONTINUOUS
10
111.336
20
-120.301
11
111.05
21
-120.301
0
LINE
8
BLACK
6
CONTINUOUS
10
111.05
20
-120.301
11
110.86
21
-120.397
0
LINE
8
BLACK
6
CONTINUOUS
10
110.86
20
-120.397
11
110.764
21
-120.492
0
LINE
8
BLACK
6
CONTINUOUS
10
112.86
20
-121.635
11
112.669
21
-121.54
0
LINE
8
BLACK
6
CONTINUOUS
10
112.669
20
-121.54
11
112.574
21
-121.444
0
LINE
8
BLACK
6
CONTINUOUS
10
112.574
20
-121.444
11
112.479
21
-121.254
0
LINE
8
BLACK
6
CONTINUOUS
10
112.479
20
-121.254
11
112.479
21
-120.682
0
LINE
8
BLACK
6
CONTINUOUS
10
112.479
20
-120.682
11
112.574
21
-120.492
0
LINE
8
BLACK
6
CONTINUOUS
10
112.574
20
-120.492
11
112.669
21
-120.397
0
LINE
8
BLACK
6
CONTINUOUS
10
112.669
20
-120.397
11
112.86
21
-120.301
0
LINE
8
BLACK
6
CONTINUOUS
10
112.86
20
-120.301
11
113.145
21
-120.301
0
LINE
8
BLACK
6
CONTINUOUS
10
113.145
20
-120.301
11
113.336
21
-120.397
0
LINE
8
BLACK
6
CONTINUOUS
10
113.336
20
-120.397
11
113.431
21
-120.492
0
LINE
8
BLACK
6
CONTINUOUS
10
113.431
20
-120.492
11
113.526
21
-120.682
0
LINE
8
BLACK
6
CONTINUOUS
10
113.526
20
-120.682
11
113.526
21
-121.254
0
LINE
8
BLACK
6
CONTINUOUS
10
113.526
20
-121.254
11
113.431
21
-121.444
0
LINE
8
BLACK
6
CONTINUOUS
10
113.431
20
-121.444
11
113.336
21
-121.54
0
LINE
8
BLACK
6
CONTINUOUS
10
113.336
20
-121.54
11
113.145
21
-121.635
0
LINE
8
BLACK
6
CONTINUOUS
10
113.145
20
-121.635
11
112.86
21
-121.635
0
LINE
8
BLACK
6
CONTINUOUS
10
114.669
20
-121.635
11
114.479
21
-121.54
0
LINE
8
BLACK
6
CONTINUOUS
10
114.479
20
-121.54
11
114.383
21
-121.349
0
LINE
8
BLACK
6
CONTINUOUS
10
114.383
20
-121.349
11
114.383
21
-119.635
0
LINE
8
BLACK
6
CONTINUOUS
10
116.193
20
-121.54
11
116.002
21
-121.635
0
LINE
8
BLACK
6
CONTINUOUS
10
116.002
20
-121.635
11
115.621
21
-121.635
0
LINE
8
BLACK
6
CONTINUOUS
10
115.621
20
-121.635
11
115.431
21
-121.54
0
LINE
8
BLACK
6
CONTINUOUS
10
115.431
20
-121.54
11
115.336
21
-121.349
0
LINE
8
BLACK
6
CONTINUOUS
10
115.336
20
-121.349
11
115.336
21
-120.587
0
LINE
8
BLACK
6
CONTINUOUS
10
115.336
20
-120.587
11
115.431
21
-120.397
0
LINE
8
BLACK
6
CONTINUOUS
10
115.431
20
-120.397
11
115.621
21
-120.301
0
LINE
8
BLACK
6
CONTINUOUS
10
115.621
20
-120.301
11
116.002
21
-120.301
0
LINE
8
BLACK
6
CONTINUOUS
10
116.002
20
-120.301
11
116.193
21
-120.397
0
LINE
8
BLACK
6
CONTINUOUS
10
116.193
20
-120.397
11
116.288
21
-120.587
0
LINE
8
BLACK
6
CONTINUOUS
10
116.288
20
-120.587
11
116.288
21
-120.778
0
LINE
8
BLACK
6
CONTINUOUS
10
116.288
20
-120.778
11
115.336
21
-120.968
0
LINE
8
BLACK
6
CONTINUOUS
10
117.05
20
-121.54
11
117.24
21
-121.635
0
LINE
8
BLACK
6
CONTINUOUS
10
117.24
20
-121.635
11
117.621
21
-121.635
0
LINE
8
BLACK
6
CONTINUOUS
10
117.621
20
-121.635
11
117.812
21
-121.54
0
LINE
8
BLACK
6
CONTINUOUS
10
117.812
20
-121.54
11
117.907
21
-121.349
0
LINE
8
BLACK
6
CONTINUOUS
10
117.907
20
-121.349
11
117.907
21
-121.254
0
LINE
8
BLACK
6
CONTINUOUS
10
117.907
20
-121.254
11
117.812
21
-121.063
0
LINE
8
BLACK
6
CONTINUOUS
10
117.812
20
-121.063
11
117.621
21
-120.968
0
LINE
8
BLACK
6
CONTINUOUS
10
117.621
20
-120.968
11
117.336
21
-120.968
0
LINE
8
BLACK
6
CONTINUOUS
10
117.336
20
-120.968
11
117.145
21
-120.873
0
LINE
8
BLACK
6
CONTINUOUS
10
117.145
20
-120.873
11
117.05
21
-120.682
0
LINE
8
BLACK
6
CONTINUOUS
10
117.05
20
-120.682
11
117.05
21
-120.587
0
LINE
8
BLACK
6
CONTINUOUS
10
117.05
20
-120.587
11
117.145
21
-120.397
0
LINE
8
BLACK
6
CONTINUOUS
10
117.145
20
-120.397
11
117.336
21
-120.301
0
LINE
8
BLACK
6
CONTINUOUS
10
117.336
20
-120.301
11
117.621
21
-120.301
0
LINE
8
BLACK
6
CONTINUOUS
10
117.621
20
-120.301
11
117.812
21
-120.397
0
LINE
8
BLACK
6
CONTINUOUS
10
118.574
20
-122.397
11
118.669
21
-122.301
0
LINE
8
BLACK
6
CONTINUOUS
10
118.669
20
-122.301
11
118.86
21
-122.016
0
LINE
8
BLACK
6
CONTINUOUS
10
118.86
20
-122.016
11
118.955
21
-121.825
0
LINE
8
BLACK
6
CONTINUOUS
10
118.955
20
-121.825
11
119.05
21
-121.54
0
LINE
8
BLACK
6
CONTINUOUS
10
119.05
20
-121.54
11
119.145
21
-121.063
0
LINE
8
BLACK
6
CONTINUOUS
10
119.145
20
-121.063
11
119.145
21
-120.682
0
LINE
8
BLACK
6
CONTINUOUS
10
119.145
20
-120.682
11
119.05
21
-120.206
0
LINE
8
BLACK
6
CONTINUOUS
10
119.05
20
-120.206
11
118.955
21
-119.92
0
LINE
8
BLACK
6
CONTINUOUS
10
118.955
20
-119.92
11
118.86
21
-119.73
0
LINE
8
BLACK
6
CONTINUOUS
10
118.86
20
-119.73
11
118.669
21
-119.444
0
LINE
8
BLACK
6
CONTINUOUS
10
118.669
20
-119.444
11
118.574
21
-119.349
0
LINE
8
BLACK
6
CONTINUOUS
10
68.7889
20
-123.759
11
68.7889
21
-122.981
0
LINE
8
BLACK
6
CONTINUOUS
10
68.7889
20
-122.981
11
68.0111
21
-122.981
0
LINE
8
BLACK
6
CONTINUOUS
10
68.0111
20
-122.981
11
68.0111
21
-123.759
0
LINE
8
BLACK
6
CONTINUOUS
10
68.0111
20
-123.759
11
68.7889
21
-123.759
0
LINE
8
BLACK
6
CONTINUOUS
10
72.5738
20
-124.275
11
71.431
21
-124.275
0
LINE
8
BLACK
6
CONTINUOUS
10
72.0024
20
-124.275
11
72.0024
21
-122.275
0
LINE
8
BLACK
6
CONTINUOUS
10
72.0024
20
-122.275
11
71.8119
21
-122.56
0
LINE
8
BLACK
6
CONTINUOUS
10
71.8119
20
-122.56
11
71.6214
21
-122.751
0
LINE
8
BLACK
6
CONTINUOUS
10
71.6214
20
-122.751
11
71.431
21
-122.846
0
LINE
8
BLACK
6
CONTINUOUS
10
73.431
20
-124.084
11
73.5262
21
-124.18
0
LINE
8
BLACK
6
CONTINUOUS
10
73.5262
20
-124.18
11
73.431
21
-124.275
0
LINE
8
BLACK
6
CONTINUOUS
10
73.431
20
-124.275
11
73.3357
21
-124.18
0
LINE
8
BLACK
6
CONTINUOUS
10
73.3357
20
-124.18
11
73.431
21
-124.084
0
LINE
8
BLACK
6
CONTINUOUS
10
73.431
20
-124.084
11
73.431
21
-124.275
0
LINE
8
BLACK
6
CONTINUOUS
10
75.431
20
-124.275
11
74.2881
21
-124.275
0
LINE
8
BLACK
6
CONTINUOUS
10
74.8595
20
-124.275
11
74.8595
21
-122.275
0
LINE
8
BLACK
6
CONTINUOUS
10
74.8595
20
-122.275
11
74.669
21
-122.56
0
LINE
8
BLACK
6
CONTINUOUS
10
74.669
20
-122.56
11
74.4786
21
-122.751
0
LINE
8
BLACK
6
CONTINUOUS
10
74.4786
20
-122.751
11
74.2881
21
-122.846
0
LINE
8
BLACK
6
CONTINUOUS
10
76.669
20
-122.275
11
76.8595
21
-122.275
0
LINE
8
BLACK
6
CONTINUOUS
10
76.8595
20
-122.275
11
77.05
21
-122.37
0
LINE
8
BLACK
6
CONTINUOUS
10
77.05
20
-122.37
11
77.1452
21
-122.465
0
LINE
8
BLACK
6
CONTINUOUS
10
77.1452
20
-122.465
11
77.2405
21
-122.656
0
LINE
8
BLACK
6
CONTINUOUS
10
77.2405
20
-122.656
11
77.3357
21
-123.037
0
LINE
8
BLACK
6
CONTINUOUS
10
77.3357
20
-123.037
11
77.3357
21
-123.513
0
LINE
8
BLACK
6
CONTINUOUS
10
77.3357
20
-123.513
11
77.2405
21
-123.894
0
LINE
8
BLACK
6
CONTINUOUS
10
77.2405
20
-123.894
11
77.1452
21
-124.084
0
LINE
8
BLACK
6
CONTINUOUS
10
77.1452
20
-124.084
11
77.05
21
-124.18
0
LINE
8
BLACK
6
CONTINUOUS
10
77.05
20
-124.18
11
76.8595
21
-124.275
0
LINE
8
BLACK
6
CONTINUOUS
10
76.8595
20
-124.275
11
76.669
21
-124.275
0
LINE
8
BLACK
6
CONTINUOUS
10
76.669
20
-124.275
11
76.4786
21
-124.18
0
LINE
8
BLACK
6
CONTINUOUS
10
76.4786
20
-124.18
11
76.3833
21
-124.084
0
LINE
8
BLACK
6
CONTINUOUS
10
76.3833
20
-124.084
11
76.2881
21
-123.894
0
LINE
8
BLACK
6
CONTINUOUS
10
76.2881
20
-123.894
11
76.1929
21
-123.513
0
LINE
8
BLACK
6
CONTINUOUS
10
76.1929
20
-123.513
11
76.1929
21
-123.037
0
LINE
8
BLACK
6
CONTINUOUS
10
76.1929
20
-123.037
11
76.2881
21
-122.656
0
LINE
8
BLACK
6
CONTINUOUS
10
76.2881
20
-122.656
11
76.3833
21
-122.465
0
LINE
8
BLACK
6
CONTINUOUS
10
76.3833
20
-122.465
11
76.4786
21
-122.37
0
LINE
8
BLACK
6
CONTINUOUS
10
76.4786
20
-122.37
11
76.669
21
-122.275
0
LINE
8
BLACK
6
CONTINUOUS
10
78.5738
20
-122.275
11
78.7643
21
-122.275
0
LINE
8
BLACK
6
CONTINUOUS
10
78.7643
20
-122.275
11
78.9548
21
-122.37
0
LINE
8
BLACK
6
CONTINUOUS
10
78.9548
20
-122.37
11
79.05
21
-122.465
0
LINE
8
BLACK
6
CONTINUOUS
10
79.05
20
-122.465
11
79.1452
21
-122.656
0
LINE
8
BLACK
6
CONTINUOUS
10
79.1452
20
-122.656
11
79.2405
21
-123.037
0
LINE
8
BLACK
6
CONTINUOUS
10
79.2405
20
-123.037
11
79.2405
21
-123.513
0
LINE
8
BLACK
6
CONTINUOUS
10
79.2405
20
-123.513
11
79.1452
21
-123.894
0
LINE
8
BLACK
6
CONTINUOUS
10
79.1452
20
-123.894
11
79.05
21
-124.084
0
LINE
8
BLACK
6
CONTINUOUS
10
79.05
20
-124.084
11
78.9548
21
-124.18
0
LINE
8
BLACK
6
CONTINUOUS
10
78.9548
20
-124.18
11
78.7643
21
-124.275
0
LINE
8
BLACK
6
CONTINUOUS
10
78.7643
20
-124.275
11
78.5738
21
-124.275
0
LINE
8
BLACK
6
CONTINUOUS
10
78.5738
20
-124.275
11
78.3833
21
-124.18
0
LINE
8
BLACK
6
CONTINUOUS
10
78.3833
20
-124.18
11
78.2881
21
-124.084
0
LINE
8
BLACK
6
CONTINUOUS
10
78.2881
20
-124.084
11
78.1929
21
-123.894
0
LINE
8
BLACK
6
CONTINUOUS
10
78.1929
20
-123.894
11
78.0976
21
-123.513
0
LINE
8
BLACK
6
CONTINUOUS
10
78.0976
20
-123.513
11
78.0976
21
-123.037
0
LINE
8
BLACK
6
CONTINUOUS
10
78.0976
20
-123.037
11
78.1929
21
-122.656
0
LINE
8
BLACK
6
CONTINUOUS
10
78.1929
20
-122.656
11
78.2881
21
-122.465
0
LINE
8
BLACK
6
CONTINUOUS
10
78.2881
20
-122.465
11
78.3833
21
-122.37
0
LINE
8
BLACK
6
CONTINUOUS
10
78.3833
20
-122.37
11
78.5738
21
-122.275
0
LINE
8
BLACK
6
CONTINUOUS
10
80.0976
20
-124.275
11
80.0976
21
-122.941
0
LINE
8
BLACK
6
CONTINUOUS
10
80.0976
20
-123.132
11
80.1929
21
-123.037
0
LINE
8
BLACK
6
CONTINUOUS
10
80.1929
20
-123.037
11
80.3833
21
-122.941
0
LINE
8
BLACK
6
CONTINUOUS
10
80.3833
20
-122.941
11
80.669
21
-122.941
0
LINE
8
BLACK
6
CONTINUOUS
10
80.669
20
-122.941
11
80.8595
21
-123.037
0
LINE
8
BLACK
6
CONTINUOUS
10
80.8595
20
-123.037
11
80.9548
21
-123.227
0
LINE
8
BLACK
6
CONTINUOUS
10
80.9548
20
-123.227
11
80.9548
21
-124.275
0
LINE
8
BLACK
6
CONTINUOUS
10
80.9548
20
-123.227
11
81.05
21
-123.037
0
LINE
8
BLACK
6
CONTINUOUS
10
81.05
20
-123.037
11
81.2405
21
-122.941
0
LINE
8
BLACK
6
CONTINUOUS
10
81.2405
20
-122.941
11
81.5262
21
-122.941
0
LINE
8
BLACK
6
CONTINUOUS
10
81.5262
20
-122.941
11
81.7167
21
-123.037
0
LINE
8
BLACK
6
CONTINUOUS
10
81.7167
20
-123.037
11
81.8119
21
-123.227
0
LINE
8
BLACK
6
CONTINUOUS
10
81.8119
20
-123.227
11
81.8119
21
-124.275
0
LINE
8
BLACK
6
CONTINUOUS
10
82.7643
20
-124.275
11
82.7643
21
-122.941
0
LINE
8
BLACK
6
CONTINUOUS
10
82.7643
20
-123.132
11
82.8595
21
-123.037
0
LINE
8
BLACK
6
CONTINUOUS
10
82.8595
20
-123.037
11
83.05
21
-122.941
0
LINE
8
BLACK
6
CONTINUOUS
10
83.05
20
-122.941
11
83.3357
21
-122.941
0
LINE
8
BLACK
6
CONTINUOUS
10
83.3357
20
-122.941
11
83.5262
21
-123.037
0
LINE
8
BLACK
6
CONTINUOUS
10
83.5262
20
-123.037
11
83.6214
21
-123.227
0
LINE
8
BLACK
6
CONTINUOUS
10
83.6214
20
-123.227
11
83.6214
21
-124.275
0
LINE
8
BLACK
6
CONTINUOUS
10
83.6214
20
-123.227
11
83.7167
21
-123.037
0
LINE
8
BLACK
6
CONTINUOUS
10
83.7167
20
-123.037
11
83.9071
21
-122.941
0
LINE
8
BLACK
6
CONTINUOUS
10
83.9071
20
-122.941
11
84.1929
21
-122.941
0
LINE
8
BLACK
6
CONTINUOUS
10
84.1929
20
-122.941
11
84.3833
21
-123.037
0
LINE
8
BLACK
6
CONTINUOUS
10
84.3833
20
-123.037
11
84.4786
21
-123.227
0
LINE
8
BLACK
6
CONTINUOUS
10
84.4786
20
-123.227
11
84.4786
21
-124.275
0
LINE
8
BLACK
6
CONTINUOUS
10
88.3833
20
-122.18
11
86.669
21
-124.751
0
LINE
8
BLACK
6
CONTINUOUS
10
90.9548
20
-122.275
11
91.1452
21
-122.275
0
LINE
8
BLACK
6
CONTINUOUS
10
91.1452
20
-122.275
11
91.3357
21
-122.37
0
LINE
8
BLACK
6
CONTINUOUS
10
91.3357
20
-122.37
11
91.431
21
-122.465
0
LINE
8
BLACK
6
CONTINUOUS
10
91.431
20
-122.465
11
91.5262
21
-122.656
0
LINE
8
BLACK
6
CONTINUOUS
10
91.5262
20
-122.656
11
91.6214
21
-123.037
0
LINE
8
BLACK
6
CONTINUOUS
10
91.6214
20
-123.037
11
91.6214
21
-123.513
0
LINE
8
BLACK
6
CONTINUOUS
10
91.6214
20
-123.513
11
91.5262
21
-123.894
0
LINE
8
BLACK
6
CONTINUOUS
10
91.5262
20
-123.894
11
91.431
21
-124.084
0
LINE
8
BLACK
6
CONTINUOUS
10
91.431
20
-124.084
11
91.3357
21
-124.18
0
LINE
8
BLACK
6
CONTINUOUS
10
91.3357
20
-124.18
11
91.1452
21
-124.275
0
LINE
8
BLACK
6
CONTINUOUS
10
91.1452
20
-124.275
11
90.9548
21
-124.275
0
LINE
8
BLACK
6
CONTINUOUS
10
90.9548
20
-124.275
11
90.7643
21
-124.18
0
LINE
8
BLACK
6
CONTINUOUS
10
90.7643
20
-124.18
11
90.669
21
-124.084
0
LINE
8
BLACK
6
CONTINUOUS
10
90.669
20
-124.084
11
90.5738
21
-123.894
0
LINE
8
BLACK
6
CONTINUOUS
10
90.5738
20
-123.894
11
90.4786
21
-123.513
0
LINE
8
BLACK
6
CONTINUOUS
10
90.4786
20
-123.513
11
90.4786
21
-123.037
0
LINE
8
BLACK
6
CONTINUOUS
10
90.4786
20
-123.037
11
90.5738
21
-122.656
0
LINE
8
BLACK
6
CONTINUOUS
10
90.5738
20
-122.656
11
90.669
21
-122.465
0
LINE
8
BLACK
6
CONTINUOUS
10
90.669
20
-122.465
11
90.7643
21
-122.37
0
LINE
8
BLACK
6
CONTINUOUS
10
90.7643
20
-122.37
11
90.9548
21
-122.275
0
LINE
8
BLACK
6
CONTINUOUS
10
92.4786
20
-124.084
11
92.5738
21
-124.18
0
LINE
8
BLACK
6
CONTINUOUS
10
92.5738
20
-124.18
11
92.4786
21
-124.275
0
LINE
8
BLACK
6
CONTINUOUS
10
92.4786
20
-124.275
11
92.3833
21
-124.18
0
LINE
8
BLACK
6
CONTINUOUS
10
92.3833
20
-124.18
11
92.4786
21
-124.084
0
LINE
8
BLACK
6
CONTINUOUS
10
92.4786
20
-124.084
11
92.4786
21
-124.275
0
LINE
8
BLACK
6
CONTINUOUS
10
93.8119
20
-122.275
11
94.0024
21
-122.275
0
LINE
8
BLACK
6
CONTINUOUS
10
94.0024
20
-122.275
11
94.1929
21
-122.37
0
LINE
8
BLACK
6
CONTINUOUS
10
94.1929
20
-122.37
11
94.2881
21
-122.465
0
LINE
8
BLACK
6
CONTINUOUS
10
94.2881
20
-122.465
11
94.3833
21
-122.656
0
LINE
8
BLACK
6
CONTINUOUS
10
94.3833
20
-122.656
11
94.4786
21
-123.037
0
LINE
8
BLACK
6
CONTINUOUS
10
94.4786
20
-123.037
11
94.4786
21
-123.513
0
LINE
8
BLACK
6
CONTINUOUS
10
94.4786
20
-123.513
11
94.3833
21
-123.894
0
LINE
8
BLACK
6
CONTINUOUS
10
94.3833
20
-123.894
11
94.2881
21
-124.084
0
LINE
8
BLACK
6
CONTINUOUS
10
94.2881
20
-124.084
11
94.1929
21
-124.18
0
LINE
8
BLACK
6
CONTINUOUS
10
94.1929
20
-124.18
11
94.0024
21
-124.275
0
LINE
8
BLACK
6
CONTINUOUS
10
94.0024
20
-124.275
11
93.8119
21
-124.275
0
LINE
8
BLACK
6
CONTINUOUS
10
93.8119
20
-124.275
11
93.6214
21
-124.18
0
LINE
8
BLACK
6
CONTINUOUS
10
93.6214
20
-124.18
11
93.5262
21
-124.084
0
LINE
8
BLACK
6
CONTINUOUS
10
93.5262
20
-124.084
11
93.431
21
-123.894
0
LINE
8
BLACK
6
CONTINUOUS
10
93.431
20
-123.894
11
93.3357
21
-123.513
0
LINE
8
BLACK
6
CONTINUOUS
10
93.3357
20
-123.513
11
93.3357
21
-123.037
0
LINE
8
BLACK
6
CONTINUOUS
10
93.3357
20
-123.037
11
93.431
21
-122.656
0
LINE
8
BLACK
6
CONTINUOUS
10
93.431
20
-122.656
11
93.5262
21
-122.465
0
LINE
8
BLACK
6
CONTINUOUS
10
93.5262
20
-122.465
11
93.6214
21
-122.37
0
LINE
8
BLACK
6
CONTINUOUS
10
93.6214
20
-122.37
11
93.8119
21
-122.275
0
LINE
8
BLACK
6
CONTINUOUS
10
96.1929
20
-122.941
11
96.1929
21
-124.275
0
LINE
8
BLACK
6
CONTINUOUS
10
95.7167
20
-122.18
11
95.2405
21
-123.608
0
LINE
8
BLACK
6
CONTINUOUS
10
95.2405
20
-123.608
11
96.4786
21
-123.608
0
LINE
8
BLACK
6
CONTINUOUS
10
97.05
20
-122.275
11
98.2881
21
-122.275
0
LINE
8
BLACK
6
CONTINUOUS
10
98.2881
20
-122.275
11
97.6214
21
-123.037
0
LINE
8
BLACK
6
CONTINUOUS
10
97.6214
20
-123.037
11
97.9071
21
-123.037
0
LINE
8
BLACK
6
CONTINUOUS
10
97.9071
20
-123.037
11
98.0976
21
-123.132
0
LINE
8
BLACK
6
CONTINUOUS
10
98.0976
20
-123.132
11
98.1929
21
-123.227
0
LINE
8
BLACK
6
CONTINUOUS
10
98.1929
20
-123.227
11
98.2881
21
-123.418
0
LINE
8
BLACK
6
CONTINUOUS
10
98.2881
20
-123.418
11
98.2881
21
-123.894
0
LINE
8
BLACK
6
CONTINUOUS
10
98.2881
20
-123.894
11
98.1929
21
-124.084
0
LINE
8
BLACK
6
CONTINUOUS
10
98.1929
20
-124.084
11
98.0976
21
-124.18
0
LINE
8
BLACK
6
CONTINUOUS
10
98.0976
20
-124.18
11
97.9071
21
-124.275
0
LINE
8
BLACK
6
CONTINUOUS
10
97.9071
20
-124.275
11
97.3357
21
-124.275
0
LINE
8
BLACK
6
CONTINUOUS
10
97.3357
20
-124.275
11
97.1452
21
-124.18
0
LINE
8
BLACK
6
CONTINUOUS
10
97.1452
20
-124.18
11
97.05
21
-124.084
0
LINE
8
BLACK
6
CONTINUOUS
10
98.9548
20
-122.275
11
100.193
21
-122.275
0
LINE
8
BLACK
6
CONTINUOUS
10
100.193
20
-122.275
11
99.5262
21
-123.037
0
LINE
8
BLACK
6
CONTINUOUS
10
99.5262
20
-123.037
11
99.8119
21
-123.037
0
LINE
8
BLACK
6
CONTINUOUS
10
99.8119
20
-123.037
11
100.002
21
-123.132
0
LINE
8
BLACK
6
CONTINUOUS
10
100.002
20
-123.132
11
100.098
21
-123.227
0
LINE
8
BLACK
6
CONTINUOUS
10
100.098
20
-123.227
11
100.193
21
-123.418
0
LINE
8
BLACK
6
CONTINUOUS
10
100.193
20
-123.418
11
100.193
21
-123.894
0
LINE
8
BLACK
6
CONTINUOUS
10
100.193
20
-123.894
11
100.098
21
-124.084
0
LINE
8
BLACK
6
CONTINUOUS
10
100.098
20
-124.084
11
100.002
21
-124.18
0
LINE
8
BLACK
6
CONTINUOUS
10
100.002
20
-124.18
11
99.8119
21
-124.275
0
LINE
8
BLACK
6
CONTINUOUS
10
99.8119
20
-124.275
11
99.2405
21
-124.275
0
LINE
8
BLACK
6
CONTINUOUS
10
99.2405
20
-124.275
11
99.05
21
-124.18
0
LINE
8
BLACK
6
CONTINUOUS
10
99.05
20
-124.18
11
98.9548
21
-124.084
0
LINE
8
BLACK
6
CONTINUOUS
10
100.955
20
-122.275
11
100.955
21
-122.656
0
LINE
8
BLACK
6
CONTINUOUS
10
101.717
20
-122.275
11
101.717
21
-122.656
0
LINE
8
BLACK
6
CONTINUOUS
10
104.669
20
-125.037
11
104.574
21
-124.941
0
LINE
8
BLACK
6
CONTINUOUS
10
104.574
20
-124.941
11
104.383
21
-124.656
0
LINE
8
BLACK
6
CONTINUOUS
10
104.383
20
-124.656
11
104.288
21
-124.465
0
LINE
8
BLACK
6
CONTINUOUS
10
104.288
20
-124.465
11
104.193
21
-124.18
0
LINE
8
BLACK
6
CONTINUOUS
10
104.193
20
-124.18
11
104.098
21
-123.703
0
LINE
8
BLACK
6
CONTINUOUS
10
104.098
20
-123.703
11
104.098
21
-123.322
0
LINE
8
BLACK
6
CONTINUOUS
10
104.098
20
-123.322
11
104.193
21
-122.846
0
LINE
8
BLACK
6
CONTINUOUS
10
104.193
20
-122.846
11
104.288
21
-122.56
0
LINE
8
BLACK
6
CONTINUOUS
10
104.288
20
-122.56
11
104.383
21
-122.37
0
LINE
8
BLACK
6
CONTINUOUS
10
104.383
20
-122.37
11
104.574
21
-122.084
0
LINE
8
BLACK
6
CONTINUOUS
10
104.574
20
-122.084
11
104.669
21
-121.989
0
LINE
8
BLACK
6
CONTINUOUS
10
106.288
20
-122.941
11
106.288
21
-124.275
0
LINE
8
BLACK
6
CONTINUOUS
10
105.812
20
-122.18
11
105.336
21
-123.608
0
LINE
8
BLACK
6
CONTINUOUS
10
105.336
20
-123.608
11
106.574
21
-123.608
0
LINE
8
BLACK
6
CONTINUOUS
10
108.86
20
-124.275
11
108.86
21
-122.275
0
LINE
8
BLACK
6
CONTINUOUS
10
109.717
20
-124.275
11
109.717
21
-123.227
0
LINE
8
BLACK
6
CONTINUOUS
10
109.717
20
-123.227
11
109.621
21
-123.037
0
LINE
8
BLACK
6
CONTINUOUS
10
109.621
20
-123.037
11
109.431
21
-122.941
0
LINE
8
BLACK
6
CONTINUOUS
10
109.431
20
-122.941
11
109.145
21
-122.941
0
LINE
8
BLACK
6
CONTINUOUS
10
109.145
20
-122.941
11
108.955
21
-123.037
0
LINE
8
BLACK
6
CONTINUOUS
10
108.955
20
-123.037
11
108.86
21
-123.132
0
LINE
8
BLACK
6
CONTINUOUS
10
110.955
20
-124.275
11
110.764
21
-124.18
0
LINE
8
BLACK
6
CONTINUOUS
10
110.764
20
-124.18
11
110.669
21
-124.084
0
LINE
8
BLACK
6
CONTINUOUS
10
110.669
20
-124.084
11
110.574
21
-123.894
0
LINE
8
BLACK
6
CONTINUOUS
10
110.574
20
-123.894
11
110.574
21
-123.322
0
LINE
8
BLACK
6
CONTINUOUS
10
110.574
20
-123.322
11
110.669
21
-123.132
0
LINE
8
BLACK
6
CONTINUOUS
10
110.669
20
-123.132
11
110.764
21
-123.037
0
LINE
8
BLACK
6
CONTINUOUS
10
110.764
20
-123.037
11
110.955
21
-122.941
0
LINE
8
BLACK
6
CONTINUOUS
10
110.955
20
-122.941
11
111.24
21
-122.941
0
LINE
8
BLACK
6
CONTINUOUS
10
111.24
20
-122.941
11
111.431
21
-123.037
0
LINE
8
BLACK
6
CONTINUOUS
10
111.431
20
-123.037
11
111.526
21
-123.132
0
LINE
8
BLACK
6
CONTINUOUS
10
111.526
20
-123.132
11
111.621
21
-123.322
0
LINE
8
BLACK
6
CONTINUOUS
10
111.621
20
-123.322
11
111.621
21
-123.894
0
LINE
8
BLACK
6
CONTINUOUS
10
111.621
20
-123.894
11
111.526
21
-124.084
0
LINE
8
BLACK
6
CONTINUOUS
10
111.526
20
-124.084
11
111.431
21
-124.18
0
LINE
8
BLACK
6
CONTINUOUS
10
111.431
20
-124.18
11
111.24
21
-124.275
0
LINE
8
BLACK
6
CONTINUOUS
10
111.24
20
-124.275
11
110.955
21
-124.275
0
LINE
8
BLACK
6
CONTINUOUS
10
112.764
20
-124.275
11
112.574
21
-124.18
0
LINE
8
BLACK
6
CONTINUOUS
10
112.574
20
-124.18
11
112.479
21
-123.989
0
LINE
8
BLACK
6
CONTINUOUS
10
112.479
20
-123.989
11
112.479
21
-122.275
0
LINE
8
BLACK
6
CONTINUOUS
10
114.288
20
-124.18
11
114.098
21
-124.275
0
LINE
8
BLACK
6
CONTINUOUS
10
114.098
20
-124.275
11
113.717
21
-124.275
0
LINE
8
BLACK
6
CONTINUOUS
10
113.717
20
-124.275
11
113.526
21
-124.18
0
LINE
8
BLACK
6
CONTINUOUS
10
113.526
20
-124.18
11
113.431
21
-123.989
0
LINE
8
BLACK
6
CONTINUOUS
10
113.431
20
-123.989
11
113.431
21
-123.227
0
LINE
8
BLACK
6
CONTINUOUS
10
113.431
20
-123.227
11
113.526
21
-123.037
0
LINE
8
BLACK
6
CONTINUOUS
10
113.526
20
-123.037
11
113.717
21
-122.941
0
LINE
8
BLACK
6
CONTINUOUS
10
113.717
20
-122.941
11
114.098
21
-122.941
0
LINE
8
BLACK
6
CONTINUOUS
10
114.098
20
-122.941
11
114.288
21
-123.037
0
LINE
8
BLACK
6
CONTINUOUS
10
114.288
20
-123.037
11
114.383
21
-123.227
0
LINE
8
BLACK
6
CONTINUOUS
10
114.383
20
-123.227
11
114.383
21
-123.418
0
LINE
8
BLACK
6
CONTINUOUS
10
114.383
20
-123.418
11
113.431
21
-123.608
0
LINE
8
BLACK
6
CONTINUOUS
10
115.145
20
-124.18
11
115.336
21
-124.275
0
LINE
8
BLACK
6
CONTINUOUS
10
115.336
20
-124.275
11
115.717
21
-124.275
0
LINE
8
BLACK
6
CONTINUOUS
10
115.717
20
-124.275
11
115.907
21
-124.18
0
LINE
8
BLACK
6
CONTINUOUS
10
115.907
20
-124.18
11
116.002
21
-123.989
0
LINE
8
BLACK
6
CONTINUOUS
10
116.002
20
-123.989
11
116.002
21
-123.894
0
LINE
8
BLACK
6
CONTINUOUS
10
116.002
20
-123.894
11
115.907
21
-123.703
0
LINE
8
BLACK
6
CONTINUOUS
10
115.907
20
-123.703
11
115.717
21
-123.608
0
LINE
8
BLACK
6
CONTINUOUS
10
115.717
20
-123.608
11
115.431
21
-123.608
0
LINE
8
BLACK
6
CONTINUOUS
10
115.431
20
-123.608
11
115.24
21
-123.513
0
LINE
8
BLACK
6
CONTINUOUS
10
115.24
20
-123.513
11
115.145
21
-123.322
0
LINE
8
BLACK
6
CONTINUOUS
10
115.145
20
-123.322
11
115.145
21
-123.227
0
LINE
8
BLACK
6
CONTINUOUS
10
115.145
20
-123.227
11
115.24
21
-123.037
0
LINE
8
BLACK
6
CONTINUOUS
10
115.24
20
-123.037
11
115.431
21
-122.941
0
LINE
8
BLACK
6
CONTINUOUS
10
115.431
20
-122.941
11
115.717
21
-122.941
0
LINE
8
BLACK
6
CONTINUOUS
10
115.717
20
-122.941
11
115.907
21
-123.037
0
LINE
8
BLACK
6
CONTINUOUS
10
116.669
20
-125.037
11
116.764
21
-124.941
0
LINE
8
BLACK
6
CONTINUOUS
10
116.764
20
-124.941
11
116.955
21
-124.656
0
LINE
8
BLACK
6
CONTINUOUS
10
116.955
20
-124.656
11
117.05
21
-124.465
0
LINE
8
BLACK
6
CONTINUOUS
10
117.05
20
-124.465
11
117.145
21
-124.18
0
LINE
8
BLACK
6
CONTINUOUS
10
117.145
20
-124.18
11
117.24
21
-123.703
0
LINE
8
BLACK
6
CONTINUOUS
10
117.24
20
-123.703
11
117.24
21
-123.322
0
LINE
8
BLACK
6
CONTINUOUS
10
117.24
20
-123.322
11
117.145
21
-122.846
0
LINE
8
BLACK
6
CONTINUOUS
10
117.145
20
-122.846
11
117.05
21
-122.56
0
LINE
8
BLACK
6
CONTINUOUS
10
117.05
20
-122.56
11
116.955
21
-122.37
0
LINE
8
BLACK
6
CONTINUOUS
10
116.955
20
-122.37
11
116.764
21
-122.084
0
LINE
8
BLACK
6
CONTINUOUS
10
116.764
20
-122.084
11
116.669
21
-121.989
  0
ENDSEC
  0
EOF
