%TF.GenerationSoftware,KiCad,Pcbnew,(6.0.8)*%
%TF.CreationDate,2022-10-02T10:43:25+09:00*%
%TF.ProjectId,KiCad,4b694361-642e-46b6-9963-61645f706362,rev?*%
%TF.SameCoordinates,Original*%
%TF.FileFunction,Legend,Bot*%
%TF.FilePolarity,Positive*%
%FSLAX46Y46*%
G04 Gerber Fmt 4.6, Leading zero omitted, Abs format (unit mm)*
G04 Created by KiCad (PCBNEW (6.0.8)) date 2022-10-02 10:43:25*
%MOMM*%
%LPD*%
G01*
G04 APERTURE LIST*
%ADD10C,0.150000*%
G04 APERTURE END LIST*
D10*
X192037380Y-71928571D02*
X191037380Y-71928571D01*
X191037380Y-72309523D01*
X191085000Y-72404761D01*
X191132619Y-72452380D01*
X191227857Y-72500000D01*
X191370714Y-72500000D01*
X191465952Y-72452380D01*
X191513571Y-72404761D01*
X191561190Y-72309523D01*
X191561190Y-71928571D01*
X192037380Y-72928571D02*
X191037380Y-72928571D01*
X191942142Y-73976190D02*
X191989761Y-73928571D01*
X192037380Y-73785714D01*
X192037380Y-73690476D01*
X191989761Y-73547619D01*
X191894523Y-73452380D01*
X191799285Y-73404761D01*
X191608809Y-73357142D01*
X191465952Y-73357142D01*
X191275476Y-73404761D01*
X191180238Y-73452380D01*
X191085000Y-73547619D01*
X191037380Y-73690476D01*
X191037380Y-73785714D01*
X191085000Y-73928571D01*
X191132619Y-73976190D01*
X191037380Y-74595238D02*
X191037380Y-74785714D01*
X191085000Y-74880952D01*
X191180238Y-74976190D01*
X191370714Y-75023809D01*
X191704047Y-75023809D01*
X191894523Y-74976190D01*
X191989761Y-74880952D01*
X192037380Y-74785714D01*
X192037380Y-74595238D01*
X191989761Y-74500000D01*
X191894523Y-74404761D01*
X191704047Y-74357142D01*
X191370714Y-74357142D01*
X191180238Y-74404761D01*
X191085000Y-74500000D01*
X191037380Y-74595238D01*
X192037380Y-76214285D02*
X191037380Y-76214285D01*
X191037380Y-76595238D01*
X191085000Y-76690476D01*
X191132619Y-76738095D01*
X191227857Y-76785714D01*
X191370714Y-76785714D01*
X191465952Y-76738095D01*
X191513571Y-76690476D01*
X191561190Y-76595238D01*
X191561190Y-76214285D01*
X192037380Y-77785714D02*
X191561190Y-77452380D01*
X192037380Y-77214285D02*
X191037380Y-77214285D01*
X191037380Y-77595238D01*
X191085000Y-77690476D01*
X191132619Y-77738095D01*
X191227857Y-77785714D01*
X191370714Y-77785714D01*
X191465952Y-77738095D01*
X191513571Y-77690476D01*
X191561190Y-77595238D01*
X191561190Y-77214285D01*
X191037380Y-78404761D02*
X191037380Y-78595238D01*
X191085000Y-78690476D01*
X191180238Y-78785714D01*
X191370714Y-78833333D01*
X191704047Y-78833333D01*
X191894523Y-78785714D01*
X191989761Y-78690476D01*
X192037380Y-78595238D01*
X192037380Y-78404761D01*
X191989761Y-78309523D01*
X191894523Y-78214285D01*
X191704047Y-78166666D01*
X191370714Y-78166666D01*
X191180238Y-78214285D01*
X191085000Y-78309523D01*
X191037380Y-78404761D01*
X191513571Y-79595238D02*
X191561190Y-79738095D01*
X191608809Y-79785714D01*
X191704047Y-79833333D01*
X191846904Y-79833333D01*
X191942142Y-79785714D01*
X191989761Y-79738095D01*
X192037380Y-79642857D01*
X192037380Y-79261904D01*
X191037380Y-79261904D01*
X191037380Y-79595238D01*
X191085000Y-79690476D01*
X191132619Y-79738095D01*
X191227857Y-79785714D01*
X191323095Y-79785714D01*
X191418333Y-79738095D01*
X191465952Y-79690476D01*
X191513571Y-79595238D01*
X191513571Y-79261904D01*
X191513571Y-80261904D02*
X191513571Y-80595238D01*
X192037380Y-80738095D02*
X192037380Y-80261904D01*
X191037380Y-80261904D01*
X191037380Y-80738095D01*
X192037380Y-81928571D02*
X191037380Y-81928571D01*
X191037380Y-82166666D01*
X191085000Y-82309523D01*
X191180238Y-82404761D01*
X191275476Y-82452380D01*
X191465952Y-82500000D01*
X191608809Y-82500000D01*
X191799285Y-82452380D01*
X191894523Y-82404761D01*
X191989761Y-82309523D01*
X192037380Y-82166666D01*
X192037380Y-81928571D01*
X191513571Y-82928571D02*
X191513571Y-83261904D01*
X192037380Y-83404761D02*
X192037380Y-82928571D01*
X191037380Y-82928571D01*
X191037380Y-83404761D01*
X191513571Y-84166666D02*
X191561190Y-84309523D01*
X191608809Y-84357142D01*
X191704047Y-84404761D01*
X191846904Y-84404761D01*
X191942142Y-84357142D01*
X191989761Y-84309523D01*
X192037380Y-84214285D01*
X192037380Y-83833333D01*
X191037380Y-83833333D01*
X191037380Y-84166666D01*
X191085000Y-84261904D01*
X191132619Y-84309523D01*
X191227857Y-84357142D01*
X191323095Y-84357142D01*
X191418333Y-84309523D01*
X191465952Y-84261904D01*
X191513571Y-84166666D01*
X191513571Y-83833333D01*
X191037380Y-84833333D02*
X191846904Y-84833333D01*
X191942142Y-84880952D01*
X191989761Y-84928571D01*
X192037380Y-85023809D01*
X192037380Y-85214285D01*
X191989761Y-85309523D01*
X191942142Y-85357142D01*
X191846904Y-85404761D01*
X191037380Y-85404761D01*
X191085000Y-86404761D02*
X191037380Y-86309523D01*
X191037380Y-86166666D01*
X191085000Y-86023809D01*
X191180238Y-85928571D01*
X191275476Y-85880952D01*
X191465952Y-85833333D01*
X191608809Y-85833333D01*
X191799285Y-85880952D01*
X191894523Y-85928571D01*
X191989761Y-86023809D01*
X192037380Y-86166666D01*
X192037380Y-86261904D01*
X191989761Y-86404761D01*
X191942142Y-86452380D01*
X191608809Y-86452380D01*
X191608809Y-86261904D01*
X191513571Y-87976190D02*
X191561190Y-88119047D01*
X191608809Y-88166666D01*
X191704047Y-88214285D01*
X191846904Y-88214285D01*
X191942142Y-88166666D01*
X191989761Y-88119047D01*
X192037380Y-88023809D01*
X192037380Y-87642857D01*
X191037380Y-87642857D01*
X191037380Y-87976190D01*
X191085000Y-88071428D01*
X191132619Y-88119047D01*
X191227857Y-88166666D01*
X191323095Y-88166666D01*
X191418333Y-88119047D01*
X191465952Y-88071428D01*
X191513571Y-87976190D01*
X191513571Y-87642857D01*
X191037380Y-88833333D02*
X191037380Y-89023809D01*
X191085000Y-89119047D01*
X191180238Y-89214285D01*
X191370714Y-89261904D01*
X191704047Y-89261904D01*
X191894523Y-89214285D01*
X191989761Y-89119047D01*
X192037380Y-89023809D01*
X192037380Y-88833333D01*
X191989761Y-88738095D01*
X191894523Y-88642857D01*
X191704047Y-88595238D01*
X191370714Y-88595238D01*
X191180238Y-88642857D01*
X191085000Y-88738095D01*
X191037380Y-88833333D01*
X191751666Y-89642857D02*
X191751666Y-90119047D01*
X192037380Y-89547619D02*
X191037380Y-89880952D01*
X192037380Y-90214285D01*
X192037380Y-91119047D02*
X191561190Y-90785714D01*
X192037380Y-90547619D02*
X191037380Y-90547619D01*
X191037380Y-90928571D01*
X191085000Y-91023809D01*
X191132619Y-91071428D01*
X191227857Y-91119047D01*
X191370714Y-91119047D01*
X191465952Y-91071428D01*
X191513571Y-91023809D01*
X191561190Y-90928571D01*
X191561190Y-90547619D01*
X192037380Y-91547619D02*
X191037380Y-91547619D01*
X191037380Y-91785714D01*
X191085000Y-91928571D01*
X191180238Y-92023809D01*
X191275476Y-92071428D01*
X191465952Y-92119047D01*
X191608809Y-92119047D01*
X191799285Y-92071428D01*
X191894523Y-92023809D01*
X191989761Y-91928571D01*
X192037380Y-91785714D01*
X192037380Y-91547619D01*
X192647380Y-79714285D02*
X193361666Y-79714285D01*
X193504523Y-79666666D01*
X193599761Y-79571428D01*
X193647380Y-79428571D01*
X193647380Y-79333333D01*
X193647380Y-80190476D02*
X192647380Y-80190476D01*
X192647380Y-80571428D01*
X192695000Y-80666666D01*
X192742619Y-80714285D01*
X192837857Y-80761904D01*
X192980714Y-80761904D01*
X193075952Y-80714285D01*
X193123571Y-80666666D01*
X193171190Y-80571428D01*
X193171190Y-80190476D01*
X192647380Y-81095238D02*
X192647380Y-81714285D01*
X193028333Y-81380952D01*
X193028333Y-81523809D01*
X193075952Y-81619047D01*
X193123571Y-81666666D01*
X193218809Y-81714285D01*
X193456904Y-81714285D01*
X193552142Y-81666666D01*
X193599761Y-81619047D01*
X193647380Y-81523809D01*
X193647380Y-81238095D01*
X193599761Y-81142857D01*
X193552142Y-81095238D01*
X193599761Y-82095238D02*
X193647380Y-82238095D01*
X193647380Y-82476190D01*
X193599761Y-82571428D01*
X193552142Y-82619047D01*
X193456904Y-82666666D01*
X193361666Y-82666666D01*
X193266428Y-82619047D01*
X193218809Y-82571428D01*
X193171190Y-82476190D01*
X193123571Y-82285714D01*
X193075952Y-82190476D01*
X193028333Y-82142857D01*
X192933095Y-82095238D01*
X192837857Y-82095238D01*
X192742619Y-82142857D01*
X192695000Y-82190476D01*
X192647380Y-82285714D01*
X192647380Y-82523809D01*
X192695000Y-82666666D01*
X193647380Y-83666666D02*
X193171190Y-83333333D01*
X193647380Y-83095238D02*
X192647380Y-83095238D01*
X192647380Y-83476190D01*
X192695000Y-83571428D01*
X192742619Y-83619047D01*
X192837857Y-83666666D01*
X192980714Y-83666666D01*
X193075952Y-83619047D01*
X193123571Y-83571428D01*
X193171190Y-83476190D01*
X193171190Y-83095238D01*
X193599761Y-84047619D02*
X193647380Y-84190476D01*
X193647380Y-84428571D01*
X193599761Y-84523809D01*
X193552142Y-84571428D01*
X193456904Y-84619047D01*
X193361666Y-84619047D01*
X193266428Y-84571428D01*
X193218809Y-84523809D01*
X193171190Y-84428571D01*
X193123571Y-84238095D01*
X193075952Y-84142857D01*
X193028333Y-84095238D01*
X192933095Y-84047619D01*
X192837857Y-84047619D01*
X192742619Y-84095238D01*
X192695000Y-84142857D01*
X192647380Y-84238095D01*
X192647380Y-84476190D01*
X192695000Y-84619047D01*
X195257380Y-76214285D02*
X194781190Y-75880952D01*
X195257380Y-75642857D02*
X194257380Y-75642857D01*
X194257380Y-76023809D01*
X194305000Y-76119047D01*
X194352619Y-76166666D01*
X194447857Y-76214285D01*
X194590714Y-76214285D01*
X194685952Y-76166666D01*
X194733571Y-76119047D01*
X194781190Y-76023809D01*
X194781190Y-75642857D01*
X194733571Y-76642857D02*
X194733571Y-76976190D01*
X195257380Y-77119047D02*
X195257380Y-76642857D01*
X194257380Y-76642857D01*
X194257380Y-77119047D01*
X195257380Y-78023809D02*
X195257380Y-77547619D01*
X194257380Y-77547619D01*
X194352619Y-79071428D02*
X194305000Y-79119047D01*
X194257380Y-79214285D01*
X194257380Y-79452380D01*
X194305000Y-79547619D01*
X194352619Y-79595238D01*
X194447857Y-79642857D01*
X194543095Y-79642857D01*
X194685952Y-79595238D01*
X195257380Y-79023809D01*
X195257380Y-79642857D01*
X194257380Y-80261904D02*
X194257380Y-80357142D01*
X194305000Y-80452380D01*
X194352619Y-80500000D01*
X194447857Y-80547619D01*
X194638333Y-80595238D01*
X194876428Y-80595238D01*
X195066904Y-80547619D01*
X195162142Y-80500000D01*
X195209761Y-80452380D01*
X195257380Y-80357142D01*
X195257380Y-80261904D01*
X195209761Y-80166666D01*
X195162142Y-80119047D01*
X195066904Y-80071428D01*
X194876428Y-80023809D01*
X194638333Y-80023809D01*
X194447857Y-80071428D01*
X194352619Y-80119047D01*
X194305000Y-80166666D01*
X194257380Y-80261904D01*
X194352619Y-80976190D02*
X194305000Y-81023809D01*
X194257380Y-81119047D01*
X194257380Y-81357142D01*
X194305000Y-81452380D01*
X194352619Y-81500000D01*
X194447857Y-81547619D01*
X194543095Y-81547619D01*
X194685952Y-81500000D01*
X195257380Y-80928571D01*
X195257380Y-81547619D01*
X194352619Y-81928571D02*
X194305000Y-81976190D01*
X194257380Y-82071428D01*
X194257380Y-82309523D01*
X194305000Y-82404761D01*
X194352619Y-82452380D01*
X194447857Y-82500000D01*
X194543095Y-82500000D01*
X194685952Y-82452380D01*
X195257380Y-81880952D01*
X195257380Y-82500000D01*
X194209761Y-83642857D02*
X195495476Y-82785714D01*
X195257380Y-84500000D02*
X195257380Y-83928571D01*
X195257380Y-84214285D02*
X194257380Y-84214285D01*
X194400238Y-84119047D01*
X194495476Y-84023809D01*
X194543095Y-83928571D01*
X194257380Y-85119047D02*
X194257380Y-85214285D01*
X194305000Y-85309523D01*
X194352619Y-85357142D01*
X194447857Y-85404761D01*
X194638333Y-85452380D01*
X194876428Y-85452380D01*
X195066904Y-85404761D01*
X195162142Y-85357142D01*
X195209761Y-85309523D01*
X195257380Y-85214285D01*
X195257380Y-85119047D01*
X195209761Y-85023809D01*
X195162142Y-84976190D01*
X195066904Y-84928571D01*
X194876428Y-84880952D01*
X194638333Y-84880952D01*
X194447857Y-84928571D01*
X194352619Y-84976190D01*
X194305000Y-85023809D01*
X194257380Y-85119047D01*
X194209761Y-86595238D02*
X195495476Y-85738095D01*
X194257380Y-87119047D02*
X194257380Y-87214285D01*
X194305000Y-87309523D01*
X194352619Y-87357142D01*
X194447857Y-87404761D01*
X194638333Y-87452380D01*
X194876428Y-87452380D01*
X195066904Y-87404761D01*
X195162142Y-87357142D01*
X195209761Y-87309523D01*
X195257380Y-87214285D01*
X195257380Y-87119047D01*
X195209761Y-87023809D01*
X195162142Y-86976190D01*
X195066904Y-86928571D01*
X194876428Y-86880952D01*
X194638333Y-86880952D01*
X194447857Y-86928571D01*
X194352619Y-86976190D01*
X194305000Y-87023809D01*
X194257380Y-87119047D01*
X194352619Y-87833333D02*
X194305000Y-87880952D01*
X194257380Y-87976190D01*
X194257380Y-88214285D01*
X194305000Y-88309523D01*
X194352619Y-88357142D01*
X194447857Y-88404761D01*
X194543095Y-88404761D01*
X194685952Y-88357142D01*
X195257380Y-87785714D01*
X195257380Y-88404761D01*
X196867380Y-71190476D02*
X195867380Y-71190476D01*
X196867380Y-71619047D02*
X196343571Y-71619047D01*
X196248333Y-71571428D01*
X196200714Y-71476190D01*
X196200714Y-71333333D01*
X196248333Y-71238095D01*
X196295952Y-71190476D01*
X196200714Y-71952380D02*
X196200714Y-72333333D01*
X195867380Y-72095238D02*
X196724523Y-72095238D01*
X196819761Y-72142857D01*
X196867380Y-72238095D01*
X196867380Y-72333333D01*
X196200714Y-72523809D02*
X196200714Y-72904761D01*
X195867380Y-72666666D02*
X196724523Y-72666666D01*
X196819761Y-72714285D01*
X196867380Y-72809523D01*
X196867380Y-72904761D01*
X196200714Y-73238095D02*
X197200714Y-73238095D01*
X196248333Y-73238095D02*
X196200714Y-73333333D01*
X196200714Y-73523809D01*
X196248333Y-73619047D01*
X196295952Y-73666666D01*
X196391190Y-73714285D01*
X196676904Y-73714285D01*
X196772142Y-73666666D01*
X196819761Y-73619047D01*
X196867380Y-73523809D01*
X196867380Y-73333333D01*
X196819761Y-73238095D01*
X196819761Y-74095238D02*
X196867380Y-74190476D01*
X196867380Y-74380952D01*
X196819761Y-74476190D01*
X196724523Y-74523809D01*
X196676904Y-74523809D01*
X196581666Y-74476190D01*
X196534047Y-74380952D01*
X196534047Y-74238095D01*
X196486428Y-74142857D01*
X196391190Y-74095238D01*
X196343571Y-74095238D01*
X196248333Y-74142857D01*
X196200714Y-74238095D01*
X196200714Y-74380952D01*
X196248333Y-74476190D01*
X196772142Y-74952380D02*
X196819761Y-75000000D01*
X196867380Y-74952380D01*
X196819761Y-74904761D01*
X196772142Y-74952380D01*
X196867380Y-74952380D01*
X196248333Y-74952380D02*
X196295952Y-75000000D01*
X196343571Y-74952380D01*
X196295952Y-74904761D01*
X196248333Y-74952380D01*
X196343571Y-74952380D01*
X195819761Y-76142857D02*
X197105476Y-75285714D01*
X195819761Y-77190476D02*
X197105476Y-76333333D01*
X196200714Y-77952380D02*
X197010238Y-77952380D01*
X197105476Y-77904761D01*
X197153095Y-77857142D01*
X197200714Y-77761904D01*
X197200714Y-77619047D01*
X197153095Y-77523809D01*
X196819761Y-77952380D02*
X196867380Y-77857142D01*
X196867380Y-77666666D01*
X196819761Y-77571428D01*
X196772142Y-77523809D01*
X196676904Y-77476190D01*
X196391190Y-77476190D01*
X196295952Y-77523809D01*
X196248333Y-77571428D01*
X196200714Y-77666666D01*
X196200714Y-77857142D01*
X196248333Y-77952380D01*
X196867380Y-78428571D02*
X196200714Y-78428571D01*
X195867380Y-78428571D02*
X195915000Y-78380952D01*
X195962619Y-78428571D01*
X195915000Y-78476190D01*
X195867380Y-78428571D01*
X195962619Y-78428571D01*
X196200714Y-78761904D02*
X196200714Y-79142857D01*
X195867380Y-78904761D02*
X196724523Y-78904761D01*
X196819761Y-78952380D01*
X196867380Y-79047619D01*
X196867380Y-79142857D01*
X196867380Y-79476190D02*
X195867380Y-79476190D01*
X196867380Y-79904761D02*
X196343571Y-79904761D01*
X196248333Y-79857142D01*
X196200714Y-79761904D01*
X196200714Y-79619047D01*
X196248333Y-79523809D01*
X196295952Y-79476190D01*
X196200714Y-80809523D02*
X196867380Y-80809523D01*
X196200714Y-80380952D02*
X196724523Y-80380952D01*
X196819761Y-80428571D01*
X196867380Y-80523809D01*
X196867380Y-80666666D01*
X196819761Y-80761904D01*
X196772142Y-80809523D01*
X196867380Y-81285714D02*
X195867380Y-81285714D01*
X196248333Y-81285714D02*
X196200714Y-81380952D01*
X196200714Y-81571428D01*
X196248333Y-81666666D01*
X196295952Y-81714285D01*
X196391190Y-81761904D01*
X196676904Y-81761904D01*
X196772142Y-81714285D01*
X196819761Y-81666666D01*
X196867380Y-81571428D01*
X196867380Y-81380952D01*
X196819761Y-81285714D01*
X196772142Y-82190476D02*
X196819761Y-82238095D01*
X196867380Y-82190476D01*
X196819761Y-82142857D01*
X196772142Y-82190476D01*
X196867380Y-82190476D01*
X196819761Y-83095238D02*
X196867380Y-83000000D01*
X196867380Y-82809523D01*
X196819761Y-82714285D01*
X196772142Y-82666666D01*
X196676904Y-82619047D01*
X196391190Y-82619047D01*
X196295952Y-82666666D01*
X196248333Y-82714285D01*
X196200714Y-82809523D01*
X196200714Y-83000000D01*
X196248333Y-83095238D01*
X196867380Y-83666666D02*
X196819761Y-83571428D01*
X196772142Y-83523809D01*
X196676904Y-83476190D01*
X196391190Y-83476190D01*
X196295952Y-83523809D01*
X196248333Y-83571428D01*
X196200714Y-83666666D01*
X196200714Y-83809523D01*
X196248333Y-83904761D01*
X196295952Y-83952380D01*
X196391190Y-84000000D01*
X196676904Y-84000000D01*
X196772142Y-83952380D01*
X196819761Y-83904761D01*
X196867380Y-83809523D01*
X196867380Y-83666666D01*
X196867380Y-84428571D02*
X196200714Y-84428571D01*
X196295952Y-84428571D02*
X196248333Y-84476190D01*
X196200714Y-84571428D01*
X196200714Y-84714285D01*
X196248333Y-84809523D01*
X196343571Y-84857142D01*
X196867380Y-84857142D01*
X196343571Y-84857142D02*
X196248333Y-84904761D01*
X196200714Y-85000000D01*
X196200714Y-85142857D01*
X196248333Y-85238095D01*
X196343571Y-85285714D01*
X196867380Y-85285714D01*
X195819761Y-86476190D02*
X197105476Y-85619047D01*
X196200714Y-86809523D02*
X196867380Y-86809523D01*
X196295952Y-86809523D02*
X196248333Y-86857142D01*
X196200714Y-86952380D01*
X196200714Y-87095238D01*
X196248333Y-87190476D01*
X196343571Y-87238095D01*
X196867380Y-87238095D01*
X196200714Y-88142857D02*
X197010238Y-88142857D01*
X197105476Y-88095238D01*
X197153095Y-88047619D01*
X197200714Y-87952380D01*
X197200714Y-87809523D01*
X197153095Y-87714285D01*
X196819761Y-88142857D02*
X196867380Y-88047619D01*
X196867380Y-87857142D01*
X196819761Y-87761904D01*
X196772142Y-87714285D01*
X196676904Y-87666666D01*
X196391190Y-87666666D01*
X196295952Y-87714285D01*
X196248333Y-87761904D01*
X196200714Y-87857142D01*
X196200714Y-88047619D01*
X196248333Y-88142857D01*
X196819761Y-89047619D02*
X196867380Y-88952380D01*
X196867380Y-88761904D01*
X196819761Y-88666666D01*
X196772142Y-88619047D01*
X196676904Y-88571428D01*
X196391190Y-88571428D01*
X196295952Y-88619047D01*
X196248333Y-88666666D01*
X196200714Y-88761904D01*
X196200714Y-88952380D01*
X196248333Y-89047619D01*
X195867380Y-89904761D02*
X195867380Y-89714285D01*
X195915000Y-89619047D01*
X195962619Y-89571428D01*
X196105476Y-89476190D01*
X196295952Y-89428571D01*
X196676904Y-89428571D01*
X196772142Y-89476190D01*
X196819761Y-89523809D01*
X196867380Y-89619047D01*
X196867380Y-89809523D01*
X196819761Y-89904761D01*
X196772142Y-89952380D01*
X196676904Y-90000000D01*
X196438809Y-90000000D01*
X196343571Y-89952380D01*
X196295952Y-89904761D01*
X196248333Y-89809523D01*
X196248333Y-89619047D01*
X196295952Y-89523809D01*
X196343571Y-89476190D01*
X196438809Y-89428571D01*
X195867380Y-90904761D02*
X195867380Y-90428571D01*
X196343571Y-90380952D01*
X196295952Y-90428571D01*
X196248333Y-90523809D01*
X196248333Y-90761904D01*
X196295952Y-90857142D01*
X196343571Y-90904761D01*
X196438809Y-90952380D01*
X196676904Y-90952380D01*
X196772142Y-90904761D01*
X196819761Y-90857142D01*
X196867380Y-90761904D01*
X196867380Y-90523809D01*
X196819761Y-90428571D01*
X196772142Y-90380952D01*
X196295952Y-91523809D02*
X196248333Y-91428571D01*
X196200714Y-91380952D01*
X196105476Y-91333333D01*
X196057857Y-91333333D01*
X195962619Y-91380952D01*
X195915000Y-91428571D01*
X195867380Y-91523809D01*
X195867380Y-91714285D01*
X195915000Y-91809523D01*
X195962619Y-91857142D01*
X196057857Y-91904761D01*
X196105476Y-91904761D01*
X196200714Y-91857142D01*
X196248333Y-91809523D01*
X196295952Y-91714285D01*
X196295952Y-91523809D01*
X196343571Y-91428571D01*
X196391190Y-91380952D01*
X196486428Y-91333333D01*
X196676904Y-91333333D01*
X196772142Y-91380952D01*
X196819761Y-91428571D01*
X196867380Y-91523809D01*
X196867380Y-91714285D01*
X196819761Y-91809523D01*
X196772142Y-91857142D01*
X196676904Y-91904761D01*
X196486428Y-91904761D01*
X196391190Y-91857142D01*
X196343571Y-91809523D01*
X196295952Y-91714285D01*
X196867380Y-92380952D02*
X196867380Y-92571428D01*
X196819761Y-92666666D01*
X196772142Y-92714285D01*
X196629285Y-92809523D01*
X196438809Y-92857142D01*
X196057857Y-92857142D01*
X195962619Y-92809523D01*
X195915000Y-92761904D01*
X195867380Y-92666666D01*
X195867380Y-92476190D01*
X195915000Y-92380952D01*
X195962619Y-92333333D01*
X196057857Y-92285714D01*
X196295952Y-92285714D01*
X196391190Y-92333333D01*
X196438809Y-92380952D01*
X196486428Y-92476190D01*
X196486428Y-92666666D01*
X196438809Y-92761904D01*
X196391190Y-92809523D01*
X196295952Y-92857142D01*
M02*
