M48
; DRILL file {KiCad 7.0.2} date Fri May 26 12:13:20 2023
; FORMAT={-:-/ absolute / metric / decimal}
; #@! TF.CreationDate,2023-05-26T12:13:20+09:00
; #@! TF.GenerationSoftware,Kicad,Pcbnew,7.0.2
; #@! TF.FileFunction,Plated,1,2,PTH
FMAT,2
METRIC
; #@! TA.AperFunction,Plated,PTH,ViaDrill
T1C0.400
; #@! TA.AperFunction,Plated,PTH,ComponentDrill
T2C1.000
; #@! TA.AperFunction,Plated,PTH,ComponentDrill
T3C1.020
; #@! TA.AperFunction,Plated,PTH,ComponentDrill
T4C1.100
%
G90
G05
T1
X11.75Y24.45
X76.796Y51.342
X92.036Y51.088
X105.498Y51.088
T2
X3.96Y24.45
X4.0Y41.0
X4.0Y38.46
X4.0Y32.2
X4.0Y29.66
X6.5Y24.45
X9.0Y41.0
X9.0Y38.46
X9.0Y32.2
X9.0Y29.66
X9.04Y24.45
X25.53Y21.3
X28.08Y21.3
X30.63Y21.3
X44.03Y51.1
X44.03Y48.56
X44.03Y46.02
X44.03Y43.48
X44.03Y40.94
X44.03Y38.4
X44.03Y35.86
X44.03Y33.32
X44.03Y30.78
X44.03Y28.24
X44.03Y25.7
X44.03Y23.16
X44.03Y20.62
X44.03Y18.08
X44.03Y15.54
X44.03Y13.0
X44.03Y10.46
X44.03Y7.92
X44.03Y5.38
X44.03Y2.84
X58.55Y21.3
X61.1Y21.3
X63.65Y21.3
X71.97Y51.1
X71.97Y48.56
X71.97Y46.02
X71.97Y43.48
X71.97Y40.94
X71.97Y38.4
X71.97Y35.86
X71.97Y33.32
X71.97Y30.78
X71.97Y28.24
X71.97Y25.7
X71.97Y23.16
X71.97Y20.62
X71.97Y18.08
X71.97Y15.54
X71.97Y13.0
X71.97Y10.46
X71.97Y7.92
X71.97Y5.38
X71.97Y2.84
X85.935Y51.215
X85.935Y48.675
X85.935Y46.135
X85.935Y43.595
X85.935Y41.055
X85.935Y38.515
X85.935Y35.975
X85.935Y33.435
X85.935Y30.895
X85.935Y28.355
X85.935Y25.815
X85.935Y23.275
X85.935Y20.735
X85.935Y18.195
X85.935Y15.655
X85.935Y13.115
X85.935Y10.575
X85.935Y8.035
X85.935Y5.495
X85.935Y2.955
X88.475Y51.215
X88.475Y48.675
X88.475Y46.135
X88.475Y43.595
X88.475Y41.055
X88.475Y38.515
X88.475Y35.975
X88.475Y33.435
X88.475Y30.895
X88.475Y28.355
X88.475Y25.815
X88.475Y23.275
X88.475Y20.735
X88.475Y18.195
X88.475Y15.655
X88.475Y13.115
X88.475Y10.575
X88.475Y8.035
X88.475Y5.495
X88.475Y2.955
X99.91Y51.215
X99.91Y48.675
X99.91Y46.135
X99.91Y43.595
X99.91Y41.055
X99.91Y38.515
X99.91Y35.975
X99.91Y33.435
X99.91Y30.895
X99.91Y28.355
X99.91Y25.815
X99.91Y23.275
X99.91Y20.735
X99.91Y18.195
X99.91Y15.655
X99.91Y13.115
X99.91Y10.575
X99.91Y8.035
X99.91Y5.495
X99.91Y2.955
X102.45Y51.215
X102.45Y48.675
X102.45Y46.135
X102.45Y43.595
X102.45Y41.055
X102.45Y38.515
X102.45Y35.975
X102.45Y33.435
X102.45Y30.895
X102.45Y28.355
X102.45Y25.815
X102.45Y23.275
X102.45Y20.735
X102.45Y18.195
X102.45Y15.655
X102.45Y13.115
X102.45Y10.575
X102.45Y8.035
X102.45Y5.495
X102.45Y2.955
X113.875Y51.215
X113.875Y48.675
X113.875Y46.135
X113.875Y43.595
X113.875Y41.055
X113.875Y38.515
X113.875Y35.975
X113.875Y33.435
X113.875Y30.895
X113.875Y28.355
X113.875Y25.815
X113.875Y23.275
X113.875Y20.735
X113.875Y18.195
X113.875Y15.655
X113.875Y13.115
X113.875Y10.575
X113.875Y8.035
X113.875Y5.495
X113.875Y2.955
X116.415Y51.215
X116.415Y48.675
X116.415Y46.135
X116.415Y43.595
X116.415Y41.055
X116.415Y38.515
X116.415Y35.975
X116.415Y33.435
X116.415Y30.895
X116.415Y28.355
X116.415Y25.815
X116.415Y23.275
X116.415Y20.735
X116.415Y18.195
X116.415Y15.655
X116.415Y13.115
X116.415Y10.575
X116.415Y8.035
X116.415Y5.495
X116.415Y2.955
T3
X16.09Y51.13
X16.09Y48.59
X16.09Y46.05
X16.09Y43.51
X16.09Y40.97
X16.09Y38.43
X16.09Y35.89
X16.09Y33.35
X16.09Y30.81
X16.09Y28.27
X16.09Y25.73
X16.09Y23.19
X16.09Y20.65
X16.09Y18.11
X16.09Y15.57
X16.09Y13.03
X16.09Y10.49
X16.09Y7.95
X16.09Y5.41
X16.09Y2.87
X22.44Y3.1
X24.98Y3.1
X27.52Y3.1
X33.87Y51.13
X33.87Y48.59
X33.87Y46.05
X33.87Y43.51
X33.87Y40.97
X33.87Y38.43
X33.87Y35.89
X33.87Y33.35
X33.87Y30.81
X33.87Y28.27
X33.87Y25.73
X33.87Y23.19
X33.87Y20.65
X33.87Y18.11
X33.87Y15.57
X33.87Y13.03
X33.87Y10.49
X33.87Y7.95
X33.87Y5.41
X33.87Y2.87
X49.11Y51.13
X49.11Y48.59
X49.11Y46.05
X49.11Y43.51
X49.11Y40.97
X49.11Y38.43
X49.11Y35.89
X49.11Y33.35
X49.11Y30.81
X49.11Y28.27
X49.11Y25.73
X49.11Y23.19
X49.11Y20.65
X49.11Y18.11
X49.11Y15.57
X49.11Y13.03
X49.11Y10.49
X49.11Y7.95
X49.11Y5.41
X49.11Y2.87
X55.46Y3.1
X58.0Y3.1
X60.54Y3.1
X66.89Y51.13
X66.89Y48.59
X66.89Y46.05
X66.89Y43.51
X66.89Y40.97
X66.89Y38.43
X66.89Y35.89
X66.89Y33.35
X66.89Y30.81
X66.89Y28.27
X66.89Y25.73
X66.89Y23.19
X66.89Y20.65
X66.89Y18.11
X66.89Y15.57
X66.89Y13.03
X66.89Y10.49
X66.89Y7.95
X66.89Y5.41
X66.89Y2.87
T4
X2.68Y17.016
X2.68Y12.516
X9.18Y17.016
X9.18Y12.516
T0
M30
